<svg xmlns="http://www.w3.org/2000/svg" xmlns:xlink="http://www.w3.org/1999/xlink" viewBox="0 0 103.08 90.85"><defs><style>.cls-1,.cls-4{fill:none;}.cls-2{fill:url(#COULEUR_GEEK_BEEZ_2);}.cls-14,.cls-3,.cls-4{stroke-miterlimit:10;}.cls-3,.cls-4{stroke-width:5px;stroke:url(#COULEUR_GEEK_BEEZ);}.cls-3{fill:url(#Dégradé_sans_nom_98);}.cls-5{clip-path:url(#clip-path);}.cls-14,.cls-6{fill:#49676d;}.cls-7{fill:#ffa91a;}.cls-8{fill:#f79219;}.cls-9{fill:#939598;}.cls-10{fill:#bcbec0;}.cls-11{fill:#58595b;}.cls-12{clip-path:url(#clip-path-2);}.cls-13{fill:#fff;}.cls-14{stroke:#ffa91a;stroke-width:2px;}.cls-15{fill:#3d5858;}</style><linearGradient id="COULEUR_GEEK_BEEZ_2" x1="26.94" y1="33.85" x2="83.6" y2="33.85" gradientUnits="userSpaceOnUse"><stop offset="0" stop-color="#f9be43"/><stop offset="1" stop-color="#f39548"/></linearGradient><radialGradient id="Dégradé_sans_nom_98" cx="50.98" cy="45.43" r="45.79" gradientUnits="userSpaceOnUse"><stop offset="0" stop-color="#fdc32d" stop-opacity="0.4"/><stop offset="0.33" stop-color="#fcc233" stop-opacity="0.35"/><stop offset="0.92" stop-color="#fabe42" stop-opacity="0.22"/><stop offset="1" stop-color="#fabe44" stop-opacity="0.2"/></radialGradient><linearGradient id="COULEUR_GEEK_BEEZ" y1="45.43" x2="101.96" y2="45.43" gradientUnits="userSpaceOnUse"><stop offset="0" stop-color="#fabf44"/><stop offset="1" stop-color="#f39547"/></linearGradient><clipPath id="clip-path"><rect id="SVGID" class="cls-1" x="11.48" y="9.6" width="73.18" height="70.69"/></clipPath><clipPath id="clip-path-2"><rect id="SVGID-2" data-name="SVGID" class="cls-1" x="11.44" y="9.49" width="73.18" height="70.69"/></clipPath></defs><g id="Calque_2" data-name="Calque 2"><g id="Calque_4" data-name="Calque 4"><path class="cls-2" d="M82.15,21.45c-.77-3.42-2.68-1.47-3.1-2.1a7.54,7.54,0,0,0-4.13-4,10,10,0,0,0-5.34.22,11.5,11.5,0,0,0-2.49.52l-.32.1-.52.07a8,8,0,0,1-3.51-.19,9,9,0,0,1-3.48-2.64c-2.72-2.78-5.52-1.67-7.89,1.79-1.85,2.7-3,6.22-5.48,7.09a7.33,7.33,0,0,1-7.69-1.55l-.33-.32A5.83,5.83,0,0,0,37,18.91a2.75,2.75,0,0,0-1.79-1.07c-1.49-1.28-3-2-4.83-1-3.14,1.82-3.72,7.74-3.37,13a60.66,60.66,0,0,0,1.08,8.85,53.85,53.85,0,0,0,0,5.39,15.43,15.43,0,0,0,1.05,5.23v1.32c0,1.12-.59,2.09-.27,1.47,0,0,.2,1.6.2,1.6.35.37,1.73-.17,2.12.06.91.69,2.09-.4,3.18-.15l.17,0a14.81,14.81,0,0,0,2,.4,100.49,100.49,0,0,0,15.82,1.51,145.5,145.5,0,0,0,17.72-.08,26.31,26.31,0,0,0,4.37-.76,4.81,4.81,0,0,0,3.45-2.57A8.49,8.49,0,0,0,79,49.78a15.58,15.58,0,0,0,.37-1.6,60.84,60.84,0,0,0,2.22-11.12C82.07,31.9,85.49,23.58,82.15,21.45Z"/><path class="cls-3" d="M24.83,85.73,3.19,48a5.26,5.26,0,0,1,0-5.21L24.83,5.13A5.22,5.22,0,0,1,29.37,2.5H72.59a5.24,5.24,0,0,1,4.54,2.63L98.77,42.82a5.26,5.26,0,0,1,0,5.21L77.13,85.73a5.25,5.25,0,0,1-4.54,2.62H29.37A5.23,5.23,0,0,1,24.83,85.73Z"/><path class="cls-4" d="M24.83,85.73,3.19,48a5.26,5.26,0,0,1,0-5.21L24.83,5.13A5.22,5.22,0,0,1,29.37,2.5H72.59a5.24,5.24,0,0,1,4.54,2.63L98.77,42.82a5.26,5.26,0,0,1,0,5.21L77.13,85.73a5.25,5.25,0,0,1-4.54,2.62H29.37A5.23,5.23,0,0,1,24.83,85.73Z"/><g class="cls-5"><path class="cls-6" d="M81.77,25.63H26.23v3.24h55L75.7,53.54H26.23v3.24H76a2.73,2.73,0,0,0,2.65-2.13l5.73-25.71a2.71,2.71,0,0,0-2.65-3.31Z"/><path class="cls-6" d="M81.58,27.18H26.23v1.69h55Z"/></g><path class="cls-6" d="M81,37.75H27.78v2.54H80.26Z"/><path class="cls-6" d="M78.9,45.14H27.78v2.54h50.4Z"/><path class="cls-7" d="M33.45,67.07A6.51,6.51,0,1,0,40,73.58a6.5,6.5,0,0,0-6.5-6.51Zm0,10a3.45,3.45,0,1,1,3.44-3.44A3.44,3.44,0,0,1,33.45,77Z"/><path class="cls-8" d="M33.45,68.66a4.92,4.92,0,1,0,4.91,4.92,4.92,4.92,0,0,0-4.91-4.92Zm0,8.36a3.45,3.45,0,1,1,3.44-3.44A3.44,3.44,0,0,1,33.45,77Z"/><path class="cls-6" d="M33.45,75.44a2.38,2.38,0,0,1-2.33-1.86l-1.81-8.16h8.28l-1.82,8.16a2.37,2.37,0,0,1-2.32,1.86Z"/><path class="cls-9" d="M32.69,72.15a.67.67,0,0,1-.66-.53.68.68,0,0,1,.51-.81.69.69,0,0,1,.81.52.68.68,0,0,1-.51.81ZM32.1,69.5a.68.68,0,0,1-.66-.53L31,66.89a.73.73,0,0,1,.09-.52.7.7,0,0,1,.43-.3.69.69,0,0,1,.81.52l.46,2.08a.68.68,0,0,1-.51.81.39.39,0,0,1-.15,0Z"/><path class="cls-6" d="M35.51,65.42l-1.44,6.46a2.37,2.37,0,0,1-2.32,1.86,2.49,2.49,0,0,1-.61-.08,2.38,2.38,0,0,0,4.63-.08l1.82-8.16Z"/><path class="cls-7" d="M70.13,67.07a6.51,6.51,0,1,0,6.51,6.51,6.5,6.5,0,0,0-6.51-6.51Zm0,10a3.45,3.45,0,1,1,3.45-3.44A3.44,3.44,0,0,1,70.13,77Z"/><path class="cls-8" d="M70.13,68.66a4.92,4.92,0,1,0,4.92,4.92,4.91,4.91,0,0,0-4.92-4.92Zm0,8.36a3.45,3.45,0,1,1,3.45-3.44A3.44,3.44,0,0,1,70.13,77Z"/><path class="cls-10" d="M72,73.58a1.87,1.87,0,1,1-1.87-1.87A1.87,1.87,0,0,1,72,73.58Z"/><path class="cls-11" d="M71.27,73.58a1.14,1.14,0,1,1-1.14-1.14,1.14,1.14,0,0,1,1.14,1.14Z"/><path class="cls-6" d="M70.13,75.44a2.39,2.39,0,0,1-2.33-1.86L66,65.42h8.28l-1.81,8.16a2.38,2.38,0,0,1-2.33,1.86Z"/><path class="cls-6" d="M72.2,65.42l-1.44,6.46a2.38,2.38,0,0,1-2.33,1.86,2.47,2.47,0,0,1-.6-.08,2.38,2.38,0,0,0,4.63-.08l1.81-8.16Z"/><path class="cls-6" d="M76.54,62.17H29.47v-43a2.72,2.72,0,0,0-1.61-2.49l-8.7-3.88-1.32,3,7.59,3.38a1.36,1.36,0,0,1,.8,1.24V63.8a1.63,1.63,0,0,0,1.62,1.62H76.61a1.63,1.63,0,0,0,1.61-1.78,1.67,1.67,0,0,0-1.68-1.47Z"/><path class="cls-11" d="M24.53,18.64a1.36,1.36,0,0,0-.8-1.24l-5.54-2.47-.35.79,6.69,3Z"/><g class="cls-12"><path class="cls-13" d="M21.17,17.27l.06-.11c-.07.05-.05,0,.25-.36a13.56,13.56,0,0,1,.64-1.52,7.39,7.39,0,0,1,.66-1l0,0c.06-.14.14-.29.17-.38a6.21,6.21,0,0,1,.7-1.33L15.4,8.83a3.55,3.55,0,1,0-2.89,6.49l7.66,3.41A6.06,6.06,0,0,1,21.17,17.27Z"/><path class="cls-7" d="M11.93,11.24a2.76,2.76,0,0,1,3.66-1.4L24,13.59a2.77,2.77,0,1,1-2.26,5.05l-8.42-3.75a2.77,2.77,0,0,1-1.4-3.65Z"/></g><path class="cls-8" d="M24,13.63l-.22-.1A2.76,2.76,0,0,1,20.09,17l-8.2-3.65a2.74,2.74,0,0,0,1.48,1.6l8.42,3.75a2.76,2.76,0,1,0,2.25-5Z"/><path class="cls-14" d="M102.08,31.5V13.62a1.93,1.93,0,0,0-1-1.67L85.63,3A1.91,1.91,0,0,0,83.7,3L68.22,12a1.92,1.92,0,0,0-1,1.67V31.5a1.91,1.91,0,0,0,1,1.67L83.7,42.11a2,2,0,0,0,1.93,0l15.48-8.94a1.93,1.93,0,0,0,1-1.67Z"/><path class="cls-15" d="M100.31,12.68l-2.84-1.63V27.33a1.81,1.81,0,0,1-.91,1.57L81.9,37.31a1.85,1.85,0,0,1-1.82,0L68.26,30.53v.53a1.81,1.81,0,0,0,.91,1.57L83.83,41a1.8,1.8,0,0,0,1.82,0l14.66-8.4a1.81,1.81,0,0,0,.91-1.57V14.25a1.82,1.82,0,0,0-.91-1.57Z"/></g></g></svg>