<svg xmlns="http://www.w3.org/2000/svg" xmlns:xlink="http://www.w3.org/1999/xlink" viewBox="0 0 101.96 90.85"><defs><style>.cls-1,.cls-3{fill:none;}.cls-2,.cls-3{stroke-miterlimit:10;stroke-width:5px;stroke:url(#COULEUR_GEEK_BEEZ);}.cls-2{fill:url(#Dégradé_sans_nom_98);}.cls-4{clip-path:url(#clip-path);}.cls-5{fill:#49676d;}.cls-6{fill:#ffa91a;}.cls-7{fill:#f79219;}.cls-8{fill:#939598;}.cls-9{fill:#bcbec0;}.cls-10{fill:#58595b;}.cls-11{clip-path:url(#clip-path-2);}.cls-12{fill:#fff;}</style><radialGradient id="Dégradé_sans_nom_98" cx="50.98" cy="45.43" r="45.79" gradientUnits="userSpaceOnUse"><stop offset="0" stop-color="#fdc32d" stop-opacity="0.4"/><stop offset="0.33" stop-color="#fcc233" stop-opacity="0.35"/><stop offset="0.92" stop-color="#fabe42" stop-opacity="0.22"/><stop offset="1" stop-color="#fabe44" stop-opacity="0.2"/></radialGradient><linearGradient id="COULEUR_GEEK_BEEZ" y1="45.43" x2="101.96" y2="45.43" gradientUnits="userSpaceOnUse"><stop offset="0" stop-color="#fabf44"/><stop offset="1" stop-color="#f39547"/></linearGradient><clipPath id="clip-path"><rect id="SVGID" class="cls-1" x="11.26" y="10.27" width="73.18" height="70.69"/></clipPath><clipPath id="clip-path-2"><rect id="SVGID-2" data-name="SVGID" class="cls-1" x="11.22" y="10.16" width="73.18" height="70.69"/></clipPath></defs><g id="Calque_2" data-name="Calque 2"><g id="Calque_4" data-name="Calque 4"><path class="cls-2" d="M24.83,85.73,3.19,48a5.26,5.26,0,0,1,0-5.21L24.83,5.13A5.22,5.22,0,0,1,29.37,2.5H72.59a5.24,5.24,0,0,1,4.54,2.63L98.77,42.82a5.26,5.26,0,0,1,0,5.21L77.13,85.73a5.25,5.25,0,0,1-4.54,2.62H29.37A5.23,5.23,0,0,1,24.83,85.73Z"/><path class="cls-3" d="M24.83,85.73,3.19,48a5.26,5.26,0,0,1,0-5.21L24.83,5.13A5.22,5.22,0,0,1,29.37,2.5H72.59a5.24,5.24,0,0,1,4.54,2.63L98.77,42.82a5.26,5.26,0,0,1,0,5.21L77.13,85.73a5.25,5.25,0,0,1-4.54,2.62H29.37A5.23,5.23,0,0,1,24.83,85.73Z"/><g class="cls-4"><path class="cls-5" d="M81.55,26.31H26v3.24H81l-5.5,24.66H26v3.25h49.8a2.72,2.72,0,0,0,2.65-2.13L84.2,29.62a2.71,2.71,0,0,0-2.65-3.31Z"/><path class="cls-5" d="M81.35,27.85H26v1.7H81Z"/></g><path class="cls-5" d="M80.75,38.43H27.55V41H80Z"/><path class="cls-5" d="M78.67,45.81H27.55v2.55H78Z"/><path class="cls-6" d="M33.22,67.75a6.51,6.51,0,1,0,6.51,6.5,6.5,6.5,0,0,0-6.51-6.5Zm0,10a3.45,3.45,0,1,1,3.45-3.45,3.44,3.44,0,0,1-3.45,3.45Z"/><path class="cls-7" d="M33.22,69.34a4.92,4.92,0,1,0,4.92,4.92,4.92,4.92,0,0,0-4.92-4.92Zm0,8.36a3.45,3.45,0,1,1,3.45-3.45,3.44,3.44,0,0,1-3.45,3.45Z"/><path class="cls-5" d="M33.22,76.12a2.39,2.39,0,0,1-2.33-1.87L29.08,66.1h8.28l-1.81,8.15a2.39,2.39,0,0,1-2.33,1.87Z"/><path class="cls-8" d="M32.46,72.83a.68.68,0,0,1-.14-1.34.69.69,0,0,1,.81.51.68.68,0,0,1-.52.81.39.39,0,0,1-.15,0Zm-.59-2.65a.69.69,0,0,1-.66-.53l-.46-2.09a.66.66,0,0,1,.09-.51.68.68,0,0,1,1.24.22l.46,2.08a.68.68,0,0,1-.52.81l-.15,0Z"/><path class="cls-5" d="M35.28,66.1l-1.43,6.45a2.38,2.38,0,0,1-2.33,1.87,2.35,2.35,0,0,1-.6-.08,2.38,2.38,0,0,0,4.63-.09l1.81-8.15Z"/><path class="cls-6" d="M69.91,67.75a6.51,6.51,0,1,0,6.5,6.5,6.5,6.5,0,0,0-6.5-6.5Zm0,10a3.45,3.45,0,1,1,3.44-3.45,3.45,3.45,0,0,1-3.44,3.45Z"/><path class="cls-7" d="M69.91,69.34a4.92,4.92,0,1,0,4.91,4.92,4.92,4.92,0,0,0-4.91-4.92Zm0,8.36a3.45,3.45,0,1,1,3.44-3.45,3.45,3.45,0,0,1-3.44,3.45Z"/><path class="cls-9" d="M71.77,74.25a1.87,1.87,0,1,1-1.86-1.86,1.86,1.86,0,0,1,1.86,1.86Z"/><path class="cls-10" d="M71,74.25a1.14,1.14,0,1,1-1.13-1.13A1.13,1.13,0,0,1,71,74.25Z"/><path class="cls-5" d="M69.91,76.12a2.39,2.39,0,0,1-2.33-1.87L65.77,66.1h8.28l-1.81,8.15a2.4,2.4,0,0,1-2.33,1.87Z"/><path class="cls-5" d="M72,66.1l-1.43,6.45a2.38,2.38,0,0,1-2.33,1.87,2.35,2.35,0,0,1-.6-.08,2.38,2.38,0,0,0,2.3,1.78,2.4,2.4,0,0,0,2.33-1.87l1.81-8.15Z"/><path class="cls-5" d="M76.31,62.85H29.25v-43a2.72,2.72,0,0,0-1.61-2.48l-8.71-3.88-1.32,3,7.59,3.38A1.36,1.36,0,0,1,26,21V64.47a1.62,1.62,0,0,0,1.62,1.63H76.38A1.62,1.62,0,0,0,78,64.31a1.66,1.66,0,0,0-1.68-1.46Z"/><path class="cls-10" d="M24.31,19.32a1.37,1.37,0,0,0-.81-1.24L18,15.61l-.35.79,6.7,3Z"/><g class="cls-11"><path class="cls-12" d="M20.94,18s0-.08.07-.12-.05,0,.24-.36c.2-.51.4-1,.64-1.51a8.53,8.53,0,0,1,.67-1l0,0c.05-.14.13-.3.16-.38a6.24,6.24,0,0,1,.71-1.33L15.17,9.51A3.55,3.55,0,1,0,12.28,16L20,19.41A5.59,5.59,0,0,1,20.94,18Z"/><path class="cls-6" d="M11.71,11.92a2.75,2.75,0,0,1,3.65-1.4l8.42,3.75a2.76,2.76,0,0,1-2.25,5.05l-8.42-3.75a2.75,2.75,0,0,1-1.4-3.65Z"/></g><path class="cls-7" d="M23.81,14.31l-.22-.1a2.76,2.76,0,0,1-3.73,3.45L11.66,14a2.77,2.77,0,0,0,1.48,1.6l8.42,3.75a2.76,2.76,0,1,0,2.25-5Z"/></g></g></svg>