<svg xmlns="http://www.w3.org/2000/svg" xmlns:xlink="http://www.w3.org/1999/xlink" viewBox="0 0 78.28 99.67"><defs><style>.cls-1{fill:none;}.cls-2{fill:#49676d;stroke:#ffa91a;stroke-width:5px;}.cls-2,.cls-9{stroke-miterlimit:10;}.cls-3{fill:#3d5858;}.cls-4,.cls-9{fill:#ffa91a;}.cls-5{fill:#ef7816;}.cls-6{clip-path:url(#clip-path);}.cls-7{fill:#e63950;}.cls-8{fill:#d10028;}.cls-9{stroke:#49676d;stroke-width:2px;}</style><clipPath id="clip-path" transform="translate(0 -0.1)"><rect id="SVGID" class="cls-1" x="2.48" width="73.31" height="99.41"/></clipPath></defs><g id="Calque_2" data-name="Calque 2"><g id="Calque_4" data-name="Calque 4"><path class="cls-2" d="M75.78,74.37V36.85a4.14,4.14,0,0,0-2.07-3.59L41.21,14.49a4.14,4.14,0,0,0-4.14,0L4.57,33.26A4.14,4.14,0,0,0,2.5,36.85V74.37A4.15,4.15,0,0,0,4.57,78l32.5,18.76a4.14,4.14,0,0,0,4.14,0L73.71,78a4.15,4.15,0,0,0,2.07-3.59Z" transform="translate(0 -0.1)"/><path class="cls-3" d="M71.49,34.9l-2.44-1.29a2.62,2.62,0,0,1,0,.28V69.61a4,4,0,0,1-2,3.42L36.49,90.89a3.88,3.88,0,0,1-3.9,0L5,74.42c0,1.11.47,1.91,2.35,3.11L37,95.33a3.88,3.88,0,0,0,3.9,0L71.49,77.46a3.38,3.38,0,0,0,2-3.41V38.32a3.15,3.15,0,0,0-2-3.42Z" transform="translate(0 -0.1)"/><rect class="cls-4" x="18.74" y="25.45" width="40.79" height="5.02"/><path class="cls-5" d="M60.1,25.55H18.17a1.17,1.17,0,1,1,0-2.34H60.1a1.17,1.17,0,1,1,0,2.34Z" transform="translate(0 -0.1)"/><path class="cls-5" d="M60.1,32.92H18.17a1.17,1.17,0,0,1,0-2.34H60.1a1.17,1.17,0,1,1,0,2.34Z" transform="translate(0 -0.1)"/><path class="cls-4" d="M14.07,8.47l4.71,14.74h21L16.08,7a1.33,1.33,0,0,0-2,1.5Z" transform="translate(0 -0.1)"/><path class="cls-4" d="M36.38,20.88H18l.74,2.33h21Z" transform="translate(0 -0.1)"/><path class="cls-4" d="M64.21,8.47,59.5,23.21h-21L62.2,7a1.33,1.33,0,0,1,2,1.5Z" transform="translate(0 -0.1)"/><g class="cls-6"><path class="cls-4" d="M62.2,7l-.75.51-4.28,13.4H41.9l-3.4,2.33h21L64.21,8.47a1.33,1.33,0,0,0-2-1.5Z" transform="translate(0 -0.1)"/><path class="cls-4" d="M38,.77,25.2,23.21H53.08L40.29.77a1.32,1.32,0,0,0-2.3,0Z" transform="translate(0 -0.1)"/></g><path class="cls-7" d="M24.82,45.17a6.18,6.18,0,0,0-4.59,2,.48.48,0,0,1-.7,0A6.2,6.2,0,0,0,8.74,51.37c0,5.11,7.84,12.49,10.37,14.73a1.16,1.16,0,0,0,1.54,0C23.17,63.86,31,56.48,31,51.37a6.21,6.21,0,0,0-6.2-6.2Z" transform="translate(0 -0.1)"/><path class="cls-8" d="M27.31,45.7a6.07,6.07,0,0,1,.53,2.49c0,5.11-7.85,12.49-10.37,14.73a1.16,1.16,0,0,1-1.54,0c-.31-.27-.69-.62-1.13-1,1.72,1.85,3.38,3.38,4.31,4.21a1.16,1.16,0,0,0,1.54,0C23.17,63.86,31,56.48,31,51.37a6.2,6.2,0,0,0-3.71-5.67Z" transform="translate(0 -0.1)"/><path class="cls-7" d="M63.34,45.7a6.17,6.17,0,0,0-4.59,2,.47.47,0,0,1-.7,0A6.2,6.2,0,0,0,47.26,51.9c0,5.11,7.84,12.49,10.37,14.72a1.16,1.16,0,0,0,1.54,0C61.69,64.39,69.54,57,69.54,51.9a6.21,6.21,0,0,0-6.2-6.2Z" transform="translate(0 -0.1)"/><path class="cls-8" d="M65.84,46.22a6.32,6.32,0,0,1,.52,2.5c0,5.11-7.85,12.48-10.37,14.72a1.16,1.16,0,0,1-1.54,0l-1.13-1c1.72,1.85,3.38,3.38,4.31,4.2a1.16,1.16,0,0,0,1.54,0C61.69,64.38,69.54,57,69.54,51.9a6.2,6.2,0,0,0-3.7-5.68Z" transform="translate(0 -0.1)"/><path class="cls-9" d="M22.41,74c.13,5.65,7.28,10.2,16.09,10.2s16-4.55,16.09-10.2Z" transform="translate(0 -0.1)"/></g></g></svg>