<svg xmlns="http://www.w3.org/2000/svg" xmlns:xlink="http://www.w3.org/1999/xlink" viewBox="0 0 101.96 93.54"><defs><style>.cls-1,.cls-7{fill:none;}.cls-2,.cls-7{stroke-miterlimit:10;stroke-width:5px;stroke:url(#COULEUR_GEEK_BEEZ);}.cls-2{fill:url(#Dégradé_sans_nom_98);}.cls-3{fill:#58595b;}.cls-4{fill:#49676d;}.cls-5{clip-path:url(#clip-path);}.cls-6{fill:#414042;}.cls-8{fill:#fff;}.cls-9{fill:#7ac943;}</style><radialGradient id="Dégradé_sans_nom_98" cx="50.98" cy="45.43" r="45.79" gradientUnits="userSpaceOnUse"><stop offset="0" stop-color="#fdc32d" stop-opacity="0.4"/><stop offset="0.33" stop-color="#fcc233" stop-opacity="0.35"/><stop offset="0.92" stop-color="#fabe42" stop-opacity="0.22"/><stop offset="1" stop-color="#fabe44" stop-opacity="0.2"/></radialGradient><linearGradient id="COULEUR_GEEK_BEEZ" y1="45.43" x2="101.96" y2="45.43" gradientUnits="userSpaceOnUse"><stop offset="0" stop-color="#fabf44"/><stop offset="1" stop-color="#f39547"/></linearGradient><clipPath id="clip-path"><rect id="SVGID" class="cls-1" x="24.19" y="7.58" width="53.21" height="79.82"/></clipPath></defs><g id="Calque_2" data-name="Calque 2"><g id="Calque_4" data-name="Calque 4"><path class="cls-2" d="M24.83,85.73,3.19,48a5.26,5.26,0,0,1,0-5.21L24.83,5.13A5.22,5.22,0,0,1,29.37,2.5H72.59a5.24,5.24,0,0,1,4.54,2.63L98.77,42.82a5.26,5.26,0,0,1,0,5.21L77.13,85.73a5.25,5.25,0,0,1-4.54,2.62H29.37A5.23,5.23,0,0,1,24.83,85.73Z"/><path class="cls-3" d="M32.3,87.43c4.93-.07,9.84-.65,14.77-.73,4.41-.07,8.82,0,13.23-.19,2.29-.12,4.58-.28,6.87-.29a51.67,51.67,0,0,0,5.28,0,8.7,8.7,0,0,0,1.31-.24,49.81,49.81,0,0,1,4.83-3.53c1.94-2.61,3.24-6,5.3-8.58a20.06,20.06,0,0,0-17.37-10H35.07a20.07,20.07,0,0,0-17,9.4,6.47,6.47,0,0,1,.74,1.13h.12v.24a9.36,9.36,0,0,1,.54,1.46,12.37,12.37,0,0,0,2.41,4.34,50.54,50.54,0,0,0,4.89,5.65,42.1,42.1,0,0,0,5.37,1.33Z"/><path class="cls-4" d="M45.37,55.52V68.93a5.43,5.43,0,0,0,10.85,0V55.52Z"/><path class="cls-4" d="M50.8,58.24A17.09,17.09,0,0,1,33.71,41.15V32.29a17.09,17.09,0,1,1,34.17,0v8.86A17.09,17.09,0,0,1,50.8,58.24Z"/><path class="cls-4" d="M33.71,35.89V30.56a5.5,5.5,0,0,0,0,11,5.77,5.77,0,0,0,.94-.08,17.21,17.21,0,0,1-.94-5.59Z"/><path class="cls-4" d="M67.88,30.56v5.33a17.21,17.21,0,0,1-.94,5.59,5.77,5.77,0,0,0,.94.08,5.5,5.5,0,0,0,0-11Z"/><path class="cls-4" d="M47.07,86.7c2.77,0,5.53,0,8.3,0l8.41-22.82-7.6-3.25,0,3.27L50.8,72.72l-5.42-8.89V60.58l-7.56,3.25,8.43,22.89Z"/><g class="cls-5"><path class="cls-6" d="M75.18,20.64a.38.38,0,0,1,0,.43,10.37,10.37,0,0,0-2.84,7.15V37.6a4.23,4.23,0,0,1-4.48,4.22V31.2a8.25,8.25,0,0,0-8.25-8.26H42a8.25,8.25,0,0,0-8.25,8.26V41.82a4.23,4.23,0,0,1-4.3-4.22V30.45c-.06-2.49.05-11.26,6.4-17.38C43.24,6,54.92,6.55,63.38,10.35a.34.34,0,0,1,0,.63l-2.21.91a.34.34,0,0,0,.1.66l1.07.12a17.34,17.34,0,0,1,12.85,8Z"/></g><path class="cls-4" d="M67.82,42.36a17,17,0,0,1-17,17c-8.86,0-17-6.89-17-17.57V31.2A8.25,8.25,0,0,1,42,22.94H59.57a8.25,8.25,0,0,1,8.25,8.26Z"/><g class="cls-5"><path class="cls-6" d="M63.37,11c-2,.84-2.31,1-3,.91-11.3-1.75-21.21,2.92-24.57,13.9h0a8.22,8.22,0,0,0-2,5.41v6.45a2.15,2.15,0,1,1-4.3,0V30.45c-.06-2.49.05-11.26,6.4-17.38C43.24,6,54.92,6.55,63.38,10.35a.34.34,0,0,1,0,.63Z"/></g><path class="cls-7" d="M24.83,85.73,3.19,48a5.26,5.26,0,0,1,0-5.21L24.83,5.13A5.22,5.22,0,0,1,29.37,2.5H72.59a5.24,5.24,0,0,1,4.54,2.63L98.77,42.82a5.26,5.26,0,0,1,0,5.21L77.13,85.73a5.25,5.25,0,0,1-4.54,2.62H29.37A5.23,5.23,0,0,1,24.83,85.73Z"/><path class="cls-8" d="M34.23,84.2l5.36,6.64.76.94A4.38,4.38,0,0,0,42.28,93a5.39,5.39,0,0,0,4.62,0,4.38,4.38,0,0,0,1.93-1.24,6,6,0,0,0,1.76-4.24L50.38,86a6,6,0,0,0-1.55-2.65l-5.36-6.64-.76-1a4.62,4.62,0,0,0-1.93-1.24A4.58,4.58,0,0,0,38.47,74a4.56,4.56,0,0,0-2.31.51,4.56,4.56,0,0,0-1.93,1.24A6.07,6.07,0,0,0,32.47,80l.21,1.59a6,6,0,0,0,1.55,2.65Z"/><path class="cls-8" d="M49,91.68l16.57-13,2.34-1.84a6,6,0,0,0,1.76-4.24,6,6,0,0,0-6-6,7,7,0,0,0-4.24,1.76l-16.57,13L40.47,83.2a6,6,0,0,0-1.76,4.24,6,6,0,0,0,6,6A7,7,0,0,0,49,91.68Z"/><path class="cls-9" d="M35.16,83.37,40.52,90l.76.94a3.36,3.36,0,0,0,1.45.93,3.41,3.41,0,0,0,1.73.39A4.56,4.56,0,0,0,47.64,91,4.51,4.51,0,0,0,49,87.78l-.16-1.2a4.52,4.52,0,0,0-1.16-2L42.28,78,41.52,77a3.36,3.36,0,0,0-1.45-.93,3.41,3.41,0,0,0-1.73-.39,4.51,4.51,0,0,0-4.5,4.5l.16,1.2a4.52,4.52,0,0,0,1.16,2Z"/><path class="cls-9" d="M47.76,90.86l16.57-13L66.67,76A4.49,4.49,0,0,0,68,72.81a4.58,4.58,0,0,0-1.32-3.19,4.5,4.5,0,0,0-3.18-1.31,5.19,5.19,0,0,0-3.18,1.31l-16.57,13L41.4,84.49a4.51,4.51,0,0,0,3.18,7.69,5.26,5.26,0,0,0,3.18-1.32Z"/></g></g></svg>