<svg xmlns="http://www.w3.org/2000/svg" xmlns:xlink="http://www.w3.org/1999/xlink" viewBox="0 0 101.96 94.62"><defs><style>.cls-1,.cls-5{stroke-miterlimit:10;stroke-width:5px;stroke:url(#COULEUR_GEEK_BEEZ);}.cls-1{fill:url(#Dégradé_sans_nom_98);}.cls-2{fill:#58595b;}.cls-3{fill:#49676d;}.cls-4{fill:#414042;}.cls-5{fill:none;}.cls-6{fill:#fff;}.cls-7{fill:#7ac943;}</style><radialGradient id="Dégradé_sans_nom_98" cx="50.98" cy="45.43" r="45.79" gradientUnits="userSpaceOnUse"><stop offset="0" stop-color="#fdc32d" stop-opacity="0.4"/><stop offset="0.33" stop-color="#fcc233" stop-opacity="0.35"/><stop offset="0.92" stop-color="#fabe42" stop-opacity="0.22"/><stop offset="1" stop-color="#fabe44" stop-opacity="0.2"/></radialGradient><linearGradient id="COULEUR_GEEK_BEEZ" y1="45.43" x2="101.96" y2="45.43" gradientUnits="userSpaceOnUse"><stop offset="0" stop-color="#fabf44"/><stop offset="1" stop-color="#f39547"/></linearGradient></defs><g id="Calque_2" data-name="Calque 2"><g id="Calque_4" data-name="Calque 4"><path class="cls-1" d="M24.83,85.73,3.19,48a5.26,5.26,0,0,1,0-5.21L24.83,5.13A5.22,5.22,0,0,1,29.37,2.5H72.59a5.24,5.24,0,0,1,4.54,2.63L98.77,42.82a5.26,5.26,0,0,1,0,5.21L77.13,85.73a5.25,5.25,0,0,1-4.54,2.62H29.37A5.23,5.23,0,0,1,24.83,85.73Z"/><path class="cls-2" d="M32.69,90.4c4.83-.07,9.64-.64,14.47-.71,4.31-.07,8.63,0,13-.19,2.24-.12,4.48-.27,6.73-.28,1.72,0,3.45.13,5.16,0a8.43,8.43,0,0,0,1.29-.24A49.46,49.46,0,0,1,78,85.47c1.9-2.55,3.17-5.9,5.19-8.4a19.66,19.66,0,0,0-17-9.78H35.41a19.65,19.65,0,0,0-16.66,9.2,6.58,6.58,0,0,1,.72,1.11h.12v.24a9,9,0,0,1,.53,1.43,12,12,0,0,0,2.36,4.25,50.37,50.37,0,0,0,4.79,5.53,40.38,40.38,0,0,0,5.26,1.3Z"/><path class="cls-3" d="M45.5,56.77V71.6a6.57,6.57,0,0,0,.84,3.24,5,5,0,0,0,8.93,0,6.57,6.57,0,0,0,.84-3.24V56.77Z"/><path class="cls-3" d="M47.16,89.69c2.7,0,5.41,0,8.12,0l8.24-22.35-7.44-3.18,0,3.22L50.8,76l-5.3-8.7V64.11l-7.4,3.18,8.25,22.42Z"/><path class="cls-3" d="M67.48,42.27A16.67,16.67,0,0,1,50.8,58.94c-8.67,0-16.67-6.74-16.67-17.2V31.34a8.09,8.09,0,0,1,8.08-8.09H59.39a8.09,8.09,0,0,1,8.09,8.09Z"/><path class="cls-3" d="M47,53a2.66,2.66,0,0,1-2.42,4.71A16.66,16.66,0,0,1,34.13,42.27V31.34a8,8,0,0,1,1.42-4.58A2,2,0,0,1,39.18,28V38.9A16.55,16.55,0,0,0,47,53Z"/><path class="cls-4" d="M70.45,65.31,69,66.47a12.32,12.32,0,0,0-5.09-1.09,6.82,6.82,0,0,1-6.83-6.82V57.44l0-.07A16.32,16.32,0,0,0,67.13,42.29v-7.9a1.33,1.33,0,0,0-1.25-1.32,6.14,6.14,0,0,1-5.71-4.83,1.32,1.32,0,0,0-2-.74,34.08,34.08,0,0,1-22.24,5.69,1.32,1.32,0,0,0-1.44,1.32v7.78A16.33,16.33,0,0,0,44.57,57.37l0,.07v1.12a6.82,6.82,0,0,1-6.83,6.82,12.31,12.31,0,0,0-5.08,1.09l-1.46-1.16A17.44,17.44,0,0,1,27.52,42a17,17,0,0,0,2.84-9.41V25.45A16.49,16.49,0,0,1,46.85,9h7.92A16.48,16.48,0,0,1,71.25,25.45v7.14A17,17,0,0,0,74.1,42a17.44,17.44,0,0,1-3.65,23.31Z"/><path class="cls-5" d="M24.83,85.73,3.19,48a5.26,5.26,0,0,1,0-5.21L24.83,5.13A5.22,5.22,0,0,1,29.37,2.5H72.59a5.24,5.24,0,0,1,4.54,2.63L98.77,42.82a5.26,5.26,0,0,1,0,5.21L77.13,85.73a5.25,5.25,0,0,1-4.54,2.62H29.37A5.23,5.23,0,0,1,24.83,85.73Z"/><path class="cls-6" d="M34.23,85.28l5.36,6.64.76.94a4.38,4.38,0,0,0,1.93,1.24,5.39,5.39,0,0,0,4.62,0,4.38,4.38,0,0,0,1.93-1.24,6,6,0,0,0,1.76-4.24L50.38,87a6,6,0,0,0-1.55-2.64l-5.36-6.65-.76-.94a4.52,4.52,0,0,0-1.93-1.24A4.48,4.48,0,0,0,38.47,75a4.46,4.46,0,0,0-2.31.51,4.47,4.47,0,0,0-1.93,1.24A6.07,6.07,0,0,0,32.47,81l.21,1.59a6,6,0,0,0,1.55,2.65Z"/><path class="cls-6" d="M49,92.76l16.57-13,2.34-1.84a6,6,0,0,0,1.76-4.24,6,6,0,0,0-6-6,7,7,0,0,0-4.24,1.76l-16.57,13-2.34,1.84a6,6,0,0,0-1.76,4.24,6,6,0,0,0,6,6A7,7,0,0,0,49,92.76Z"/><path class="cls-7" d="M35.16,84.45l5.36,6.64.76,1a3.55,3.55,0,0,0,1.45.93,3.31,3.31,0,0,0,1.73.38A4.59,4.59,0,0,0,47.64,92,4.51,4.51,0,0,0,49,88.85l-.16-1.19a4.46,4.46,0,0,0-1.16-2L42.28,79l-.76-.94a3.36,3.36,0,0,0-1.45-.93,3.41,3.41,0,0,0-1.73-.39,4.51,4.51,0,0,0-4.5,4.5l.16,1.2a4.52,4.52,0,0,0,1.16,2Z"/><path class="cls-7" d="M47.76,91.94l16.57-13,2.34-1.84A4.49,4.49,0,0,0,68,73.88a4.57,4.57,0,0,0-1.32-3.18,4.51,4.51,0,0,0-3.18-1.32,5.26,5.26,0,0,0-3.18,1.32l-16.57,13L41.4,85.57a4.51,4.51,0,0,0,3.18,7.69,5.26,5.26,0,0,0,3.18-1.32Z"/></g></g></svg>