<svg xmlns="http://www.w3.org/2000/svg" xmlns:xlink="http://www.w3.org/1999/xlink" viewBox="0 0 102.6 99.33"><defs><style>.cls-1{fill:none;}.cls-13,.cls-2{fill:#49676d;}.cls-2{stroke:#ffa91a;stroke-miterlimit:10;stroke-width:5px;}.cls-3{fill:#3d5858;}.cls-4{clip-path:url(#clip-path);}.cls-5{fill:#fcc4ae;}.cls-6{fill:#f2ad97;}.cls-7{fill:#f1f2f2;}.cls-8{fill:#e6e7e8;}.cls-9{fill:#58595b;}.cls-10{fill:#414042;}.cls-11{fill:#fff;}.cls-12{fill:#ffa91a;}.cls-14{clip-path:url(#clip-path-2);}</style><clipPath id="clip-path"><rect id="SVGID" class="cls-1" x="8.66" y="15.58" width="85.9" height="83.83"/></clipPath><clipPath id="clip-path-2"><rect id="SVGID-2" data-name="SVGID" class="cls-1" x="6.3" y="29.67" width="17.67" height="26.5"/></clipPath></defs><g id="Calque_2" data-name="Calque 2"><g id="Calque_4" data-name="Calque 4"><path class="cls-2" d="M89.43,66.58V27.85a4.28,4.28,0,0,0-2.14-3.71L53.75,4.78a4.25,4.25,0,0,0-4.28,0L15.93,24.14a4.28,4.28,0,0,0-2.14,3.71V66.58a4.28,4.28,0,0,0,2.14,3.71L49.47,89.65a4.25,4.25,0,0,0,4.28,0L87.29,70.29a4.28,4.28,0,0,0,2.14-3.71Z"/><path class="cls-3" d="M85,25.85l-2.53-1.34a1.38,1.38,0,0,1,0,.29V61.67a4.08,4.08,0,0,1-2,3.53L48.88,83.64a4,4,0,0,1-4,0l-28.46-17c0,1.15.49,2,2.44,3.22L49.38,88.22a4,4,0,0,0,4,0L85,69.78a3.5,3.5,0,0,0,2-3.53V29.38c0-1.45-.07-2.43-2-3.53Z"/><g class="cls-4"><path class="cls-5" d="M93.76,74.59C89.83,77.71,76.28,88.25,67,93c-11,5.57-21.55,0-30.14-1a13.32,13.32,0,0,0-7.33,1.23,19.46,19.46,0,0,0-5.72,4.23h-.06l-1.17.17V76.26a14.34,14.34,0,0,1,4-4.06C31.8,68.61,38,69.55,43.9,68.79A48.78,48.78,0,0,0,59.73,64l1.07-.56.42-.23a1.17,1.17,0,0,1,.24-.09h0a.83.83,0,0,1,.31,0,1.6,1.6,0,0,1,1.4,1.4,8.63,8.63,0,0,1,.12,1.43.71.71,0,0,0,0,.14c0,3.92-2.44,7.41-5.94,8.22l-2.12.48a.67.67,0,0,0-.06,1.29l.14,0c7.37,2.55,14.87.87,22.06-2.27,4.75-2.07,12.36-7.34,16.65-1.62a1.77,1.77,0,0,1-.28,2.38Z"/><path class="cls-6" d="M33.83,91.22a13.32,13.32,0,0,0-7.33,1.23A18.78,18.78,0,0,0,22.57,95v2.55l1.17-.17h.06a19.46,19.46,0,0,1,5.72-4.23,13.32,13.32,0,0,1,7.33-1.23c.94.11,1.91.28,2.9.49a52.9,52.9,0,0,0-5.92-1.18Z"/><path class="cls-6" d="M94,72.21a6,6,0,0,0-3.6-2.41,1.62,1.62,0,0,1-.56.91C86,73.83,72.4,84.37,63.11,89.08c-11,5.57-21.55,0-30.14-1a13.21,13.21,0,0,0-7.33,1.23,17.52,17.52,0,0,0-3.07,1.87v6.42l1.17-.17h.06a19.46,19.46,0,0,1,5.72-4.23,13.32,13.32,0,0,1,7.33-1.23C45.44,93,56,98.53,67,93c9.29-4.71,22.84-15.25,26.77-18.37A1.77,1.77,0,0,0,94,72.21Z"/></g><path class="cls-7" d="M28.24,96.75l-4.44.62h-.06l-1.17.17-1.49.2a1.77,1.77,0,0,1-2-1.5L15.74,72.31a1.75,1.75,0,0,1,1.5-2l7.17-1a1.76,1.76,0,0,1,1.25.31,1.72,1.72,0,0,1,.74,1.2l.19,1.38L29.08,90l.44,3.17.23,1.62a1.77,1.77,0,0,1-1.51,2Z"/><path class="cls-8" d="M29.75,94.76l-.23-1.62L29.08,90,26.59,72.2l-.19-1.38a1.76,1.76,0,0,0-1.88-1.51l.13,1L27.14,88l.44,3.17.23,1.62a1.77,1.77,0,0,1-1.51,2l-4.44.62H21.8l-1.17.16-1.49.21H19l.06.43a1.77,1.77,0,0,0,2,1.5l1.49-.2,1.17-.17h.06l4.44-.62a1.77,1.77,0,0,0,1.51-2Z"/><path class="cls-9" d="M11.24,99.33h8a2.39,2.39,0,0,0,2.39-2.39V69a2.39,2.39,0,0,0-2.39-2.4h-8A2.4,2.4,0,0,0,8.84,69v28a2.4,2.4,0,0,0,2.4,2.39Z"/><path class="cls-10" d="M19.6,66.59a1.87,1.87,0,0,1,0,.42V95a2.39,2.39,0,0,1-2.39,2.39H9.3a2,2,0,0,1-.42,0,2.4,2.4,0,0,0,2.36,2h8a2.39,2.39,0,0,0,2.39-2.39V69a2.4,2.4,0,0,0-2-2.36Z"/><path class="cls-11" d="M15.78,87.74a2.56,2.56,0,1,1-3.07,1.9,2.56,2.56,0,0,1,3.07-1.9Z"/><path class="cls-8" d="M16.59,88.05a2.51,2.51,0,0,1,.4,1.38A2.56,2.56,0,0,1,14.44,92a2.59,2.59,0,0,1-1.38-.4,2.56,2.56,0,1,0,3.53-3.54Z"/><path class="cls-12" d="M31.16,43.46A15.58,15.58,0,1,1,15.58,27.88,15.58,15.58,0,0,1,31.16,43.46Z"/><path class="cls-12" d="M67.19,15.58A15.58,15.58,0,1,1,51.61,0,15.58,15.58,0,0,1,67.19,15.58Z"/><path class="cls-12" d="M102.6,48.67A15.58,15.58,0,1,1,87,33.09,15.57,15.57,0,0,1,102.6,48.67Z"/><path class="cls-9" d="M9,56.18c1.63,0,3.26-.21,4.9-.24,1.46,0,2.93,0,4.39-.06.76,0,1.52-.1,2.28-.1a14.6,14.6,0,0,0,1.75,0,2,2,0,0,0,.44-.08,15.63,15.63,0,0,1,1.6-1.17c.65-.86,1.08-2,1.76-2.85a6.65,6.65,0,0,0-5.76-3.31H9.91a6.64,6.64,0,0,0-5.64,3.12,2.35,2.35,0,0,1,.24.37h0v.08a3.12,3.12,0,0,1,.18.49,4.09,4.09,0,0,0,.8,1.44,17,17,0,0,0,1.62,1.87,14.2,14.2,0,0,0,1.79.45Z"/><path class="cls-13" d="M13.34,45.59V50a1.77,1.77,0,0,0,.28,1,1.79,1.79,0,0,0,3,0,1.77,1.77,0,0,0,.28-1V45.59Z"/><path class="cls-13" d="M15.14,46.49a5.67,5.67,0,0,1-5.68-5.67v-3a5.68,5.68,0,0,1,11.35,0v3a5.67,5.67,0,0,1-5.67,5.67Z"/><path class="cls-13" d="M9.46,39.07V37.3a1.83,1.83,0,0,0,0,3.65l.32,0a5.51,5.51,0,0,1-.32-1.86Z"/><path class="cls-13" d="M20.81,37.3v1.77a5.51,5.51,0,0,1-.32,1.86l.32,0a1.83,1.83,0,0,0,0-3.65Z"/><path class="cls-13" d="M13.9,55.94c.92,0,1.83,0,2.75,0l2.8-7.57-2.53-1.08v1.08L15.14,51.3l-1.8-2.95V47.27l-2.51,1.08,2.8,7.6Z"/><g class="cls-14"><path class="cls-10" d="M23.23,34a.12.12,0,0,1,0,.14,3.44,3.44,0,0,0-.95,2.37v3.12A1.4,1.4,0,0,1,20.79,41V37.51a2.74,2.74,0,0,0-2.74-2.74H12.22a2.74,2.74,0,0,0-2.74,2.74V41a1.41,1.41,0,0,1-1.43-1.4V37.27a7.93,7.93,0,0,1,2.13-5.77c2.45-2.36,6.32-2.17,9.13-.91a.11.11,0,0,1,0,.21l-.73.3a.11.11,0,0,0,0,.22l.35,0A5.75,5.75,0,0,1,23.23,34Z"/></g><path class="cls-13" d="M20.79,41.22A5.66,5.66,0,1,1,9.48,41V37.51a2.74,2.74,0,0,1,2.74-2.74h5.83a2.74,2.74,0,0,1,2.74,2.74Z"/><g class="cls-14"><path class="cls-10" d="M19.31,30.8c-.67.28-.77.34-1,.3-3.75-.58-7,1-8.16,4.62h0a2.71,2.71,0,0,0-.67,1.79v2.15a.72.72,0,1,1-1.43,0V37.27a7.93,7.93,0,0,1,2.13-5.77c2.45-2.36,6.32-2.17,9.13-.91a.11.11,0,0,1,0,.21Z"/></g><path class="cls-9" d="M81.06,61.41c1.58,0,3.14-.21,4.72-.23,1.4,0,2.81,0,4.22-.07.73,0,1.46-.09,2.19-.09a15.69,15.69,0,0,0,1.68,0l.42-.08a16.9,16.9,0,0,1,1.54-1.13c.62-.83,1-1.92,1.69-2.74A6.4,6.4,0,0,0,92,53.88H82a6.39,6.39,0,0,0-5.43,3,2.25,2.25,0,0,1,.24.36h0v.08a4.05,4.05,0,0,1,.17.46,3.81,3.81,0,0,0,.77,1.39A16.63,16.63,0,0,0,79.3,61a14.7,14.7,0,0,0,1.71.42Z"/><path class="cls-13" d="M85.24,50.45v4.83a2.14,2.14,0,0,0,.27,1.06,1.63,1.63,0,0,0,2.91,0,2.14,2.14,0,0,0,.27-1.06V50.45Z"/><path class="cls-13" d="M85.78,61.18c.88,0,1.76,0,2.64,0l2.69-7.28-2.43-1v1L87,56.71l-1.72-2.83v-1l-2.42,1,2.69,7.3Z"/><path class="cls-13" d="M92.4,45.73a5.44,5.44,0,1,1-10.87-.18V42.16a2.64,2.64,0,0,1,2.64-2.63h5.59a2.64,2.64,0,0,1,2.64,2.63Z"/><path class="cls-13" d="M85.73,49.23A.87.87,0,0,1,85,50.77a5.45,5.45,0,0,1-3.42-5V42.16A2.65,2.65,0,0,1,82,40.67a.65.65,0,0,1,1.19.4v3.56a5.39,5.39,0,0,0,2.55,4.6Z"/><path class="cls-10" d="M93.37,53.23l-.48.38a4,4,0,0,0-1.66-.36A2.22,2.22,0,0,1,89,51v-.38a5.33,5.33,0,0,0,3.29-4.92V43.16a.43.43,0,0,0-.41-.43A2,2,0,0,1,90,41.15a.44.44,0,0,0-.66-.24,11.12,11.12,0,0,1-7.25,1.86.42.42,0,0,0-.46.43v2.53a5.32,5.32,0,0,0,3.28,4.92V51a2.21,2.21,0,0,1-2.22,2.22,4,4,0,0,0-1.66.36l-.47-.38a5.67,5.67,0,0,1-1.19-7.59,5.58,5.58,0,0,0,.92-3.07V40.24a5.38,5.38,0,0,1,5.38-5.37h2.58a5.38,5.38,0,0,1,5.37,5.37v2.33a5.51,5.51,0,0,0,.93,3.07,5.68,5.68,0,0,1-1.19,7.59Z"/><path class="cls-9" d="M45.65,28.05c1.57,0,3.14-.21,4.71-.24,1.41,0,2.82,0,4.22-.06.73,0,1.46-.09,2.2-.09a15.69,15.69,0,0,0,1.68,0,2.63,2.63,0,0,0,.42-.07,14.52,14.52,0,0,1,1.54-1.13c.62-.83,1-1.92,1.69-2.74a6.39,6.39,0,0,0-5.54-3.18h-10a6.39,6.39,0,0,0-5.43,3,2.41,2.41,0,0,1,.23.36h0V24a3.27,3.27,0,0,1,.18.47,3.69,3.69,0,0,0,.77,1.38,15.6,15.6,0,0,0,1.55,1.81A14.86,14.86,0,0,0,45.6,28Z"/><path class="cls-13" d="M49.82,17.09v4.83a2.11,2.11,0,0,0,.28,1A1.63,1.63,0,0,0,53,23a2.11,2.11,0,0,0,.27-1V17.09Z"/><path class="cls-13" d="M50.36,27.81H53l2.69-7.29-2.43-1v1.05l-1.71,2.82-1.73-2.83v-1l-2.41,1,2.69,7.31Z"/><path class="cls-13" d="M57,12.36a5.43,5.43,0,1,1-10.86-.17V8.8a2.63,2.63,0,0,1,2.63-2.63h5.6A2.63,2.63,0,0,1,57,8.8Z"/><path class="cls-13" d="M50.32,15.87a.87.87,0,0,1-.79,1.54,5.44,5.44,0,0,1-3.41-5.05V8.8a2.65,2.65,0,0,1,.46-1.49.65.65,0,0,1,1.19.39v3.57a5.39,5.39,0,0,0,2.55,4.6Z"/><path class="cls-10" d="M58,19.87l-.47.38a4,4,0,0,0-1.66-.36,2.22,2.22,0,0,1-2.23-2.22v-.39a5.29,5.29,0,0,0,3.28-4.91V9.8a.43.43,0,0,0-.4-.43A2,2,0,0,1,54.6,7.79.43.43,0,0,0,54,7.55,11.12,11.12,0,0,1,46.7,9.41a.42.42,0,0,0-.47.42v2.54a5.3,5.3,0,0,0,3.29,4.91v.39a2.22,2.22,0,0,1-2.22,2.22,4,4,0,0,0-1.66.36l-.48-.38A5.69,5.69,0,0,1,44,12.27a5.46,5.46,0,0,0,.93-3.06V6.88a5.37,5.37,0,0,1,5.37-5.37h2.58a5.37,5.37,0,0,1,5.38,5.37V9.21a5.53,5.53,0,0,0,.92,3.06A5.69,5.69,0,0,1,58,19.87Z"/></g></g></svg>