<svg xmlns="http://www.w3.org/2000/svg" xmlns:xlink="http://www.w3.org/1999/xlink" viewBox="0 0 73.37 96.03"><defs><style>.cls-1{fill:none;}.cls-2{clip-path:url(#clip-path);}.cls-3{fill:#ffa91a;}.cls-4{fill:#ffc91d;}.cls-5{fill:#f79219;}.cls-6{fill:#58595b;}.cls-7{fill:#414042;}.cls-8{fill:#fff;}.cls-9{fill:url(#COULEUR_GEEK_BEEZ);}.cls-10{fill:url(#COULEUR_GEEK_BEEZ-2);}.cls-11{fill:url(#COULEUR_GEEK_BEEZ-3);}.cls-12{fill:url(#COULEUR_GEEK_BEEZ-4);}.cls-13{fill:url(#COULEUR_GEEK_BEEZ-5);}.cls-14{fill:url(#COULEUR_GEEK_BEEZ-6);}.cls-15{fill:url(#COULEUR_GEEK_BEEZ-7);}.cls-16{fill:url(#COULEUR_GEEK_BEEZ-8);}</style><clipPath id="clip-path" transform="translate(-0.04 -5.18)"><rect class="cls-1" width="73.45" height="101.22"/></clipPath><linearGradient id="COULEUR_GEEK_BEEZ" x1="31.22" y1="57.75" x2="41.47" y2="57.75" gradientUnits="userSpaceOnUse"><stop offset="0" stop-color="#fabf44"/><stop offset="1" stop-color="#f39547"/></linearGradient><linearGradient id="COULEUR_GEEK_BEEZ-2" x1="35" y1="49" x2="37.65" y2="49" xlink:href="#COULEUR_GEEK_BEEZ"/><linearGradient id="COULEUR_GEEK_BEEZ-3" x1="34.15" y1="73.39" x2="41.73" y2="73.39" gradientTransform="translate(-1.64 -19.99)" xlink:href="#COULEUR_GEEK_BEEZ"/><linearGradient id="COULEUR_GEEK_BEEZ-4" x1="41.35" y1="51.43" x2="44.48" y2="51.43" xlink:href="#COULEUR_GEEK_BEEZ"/><linearGradient id="COULEUR_GEEK_BEEZ-5" x1="47.08" y1="51.43" x2="50.19" y2="51.43" xlink:href="#COULEUR_GEEK_BEEZ"/><linearGradient id="COULEUR_GEEK_BEEZ-6" x1="44.19" y1="54.09" x2="47.29" y2="54.09" xlink:href="#COULEUR_GEEK_BEEZ"/><linearGradient id="COULEUR_GEEK_BEEZ-7" x1="44.19" y1="48.6" x2="47.29" y2="48.6" xlink:href="#COULEUR_GEEK_BEEZ"/><linearGradient id="COULEUR_GEEK_BEEZ-8" x1="22.88" y1="51.3" x2="30.59" y2="51.3" xlink:href="#COULEUR_GEEK_BEEZ"/></defs><g id="Calque_2" data-name="Calque 2"><g id="Calque_4" data-name="Calque 4"><g class="cls-2"><path class="cls-3" d="M69,101.21H4.41a4.37,4.37,0,0,1-4.36-4.7L5.23,27.44a4.37,4.37,0,0,1,4.36-4H63.86a4.37,4.37,0,0,1,4.36,4L73.4,96.51a4.38,4.38,0,0,1-4.37,4.7Z" transform="translate(-0.04 -5.18)"/><path class="cls-4" d="M3.28,91.56H3.21a.93.93,0,1,1,.14-1.85.92.92,0,0,1,.85,1,.93.93,0,0,1-.92.86Zm.27-3.69H3.48a.92.92,0,0,1-.63-.32.9.9,0,0,1-.22-.67L7.08,27.58a2.51,2.51,0,0,1,2.51-2.33H34.77a.93.93,0,1,1,0,1.85H9.58a.68.68,0,0,0-.66.62L4.48,87h0a.94.94,0,0,1-.93.86Z" transform="translate(-0.04 -5.18)"/><path class="cls-5" d="M73.4,96.51,68.22,27.44a4.37,4.37,0,0,0-4.36-4h-.23l5.14,68.48a4.38,4.38,0,0,1-4.37,4.7H.05a4.37,4.37,0,0,0,4.36,4.63H69a4.38,4.38,0,0,0,4.37-4.7Z" transform="translate(-0.04 -5.18)"/><path class="cls-5" d="M73.4,96.51,68.22,27.44a4.41,4.41,0,0,0-2.65-3.7,4.57,4.57,0,0,1,.34,1.39l5.17,69.06a4.38,4.38,0,0,1-4.36,4.71H2.1a4.39,4.39,0,0,1-1.71-.35,4.38,4.38,0,0,0,4,2.66H69a4.38,4.38,0,0,0,4.37-4.7Z" transform="translate(-0.04 -5.18)"/></g><path class="cls-6" d="M51.13,37.16a2.05,2.05,0,0,1-2.19-1.88V19.46C48.94,13.66,43.46,9,36.72,9S24.51,13.66,24.51,19.46V35.28a2.05,2.05,0,0,1-2.19,1.88,2,2,0,0,1-2.18-1.88V19.46c0-7.87,7.44-14.28,16.58-14.28s16.59,6.41,16.59,14.28V35.28a2,2,0,0,1-2.18,1.88Z" transform="translate(-0.04 -5.18)"/><path class="cls-7" d="M47.55,8.8a13,13,0,0,1,4,9.27V33.81a2,2,0,0,1-2.18,1.87,2.77,2.77,0,0,1-.42,0,2.12,2.12,0,0,0,2.15,1.51,2,2,0,0,0,2.18-1.87V19.55A13.43,13.43,0,0,0,47.55,8.8Z" transform="translate(-0.04 -5.18)"/><path class="cls-8" d="M35.12,47.59a2.59,2.59,0,0,0-.3-1.34,2.94,2.94,0,0,0-2.36-1,16.63,16.63,0,0,0-2.64,0,9.64,9.64,0,0,0-5,1.91,18.54,18.54,0,0,0-3.53,3.21,5.74,5.74,0,0,0-1.81,3.7c-.18,2-.48,3.9,1.56,3.9A47.21,47.21,0,0,0,27,57.4a4.08,4.08,0,0,0,3-2,36.19,36.19,0,0,0,3.52-4.11A9.22,9.22,0,0,0,35,49,3.91,3.91,0,0,0,35.12,47.59Z" transform="translate(-0.04 -5.18)"/><path class="cls-8" d="M53.22,55a5.1,5.1,0,0,0-2.12-3.74,6.8,6.8,0,0,0-.53-1A6.68,6.68,0,0,0,50,49a4.82,4.82,0,0,0-1.61-1.8,5.72,5.72,0,0,0-1.17-.47h0A3.83,3.83,0,0,0,45.82,46a10.1,10.1,0,0,0-2.88-.53,9.91,9.91,0,0,0-2.87.25,2.55,2.55,0,0,0-1.93,1.48,2.15,2.15,0,0,0-.09,1.17h0a.78.78,0,0,0,.16,1.21,1.65,1.65,0,0,0,.47.13l.13.17a11,11,0,0,0,1,1.51,15.66,15.66,0,0,0,1.93,2.89,12.76,12.76,0,0,0,1.53,1.12A3.77,3.77,0,0,0,46.33,58a43.44,43.44,0,0,0,5.45.59C53.66,58.54,53.38,56.84,53.22,55Z" transform="translate(-0.04 -5.18)"/><path class="cls-7" d="M43.13,57a6.29,6.29,0,0,1-.55,1.58,7.06,7.06,0,0,1-1,1.44,7.34,7.34,0,0,1-2.13,1.58A4.92,4.92,0,0,0,37,64.38c-.2.53-.42,1-.65,1.63-.11-.32-.19-.58-.28-.83a8.29,8.29,0,0,0-1.23-2.38,3.74,3.74,0,0,0-1.19-1,11.77,11.77,0,0,1-1.92-1.18,6.79,6.79,0,0,1-1.45-1.71A6.68,6.68,0,0,1,29.57,57a13.57,13.57,0,0,1-1.37.8,14.47,14.47,0,0,1-3.67,1.25c-.51.1-1,.17-1.53.23a15.8,15.8,0,0,1-2.57.07,8.17,8.17,0,0,1-1.31-.11c-.1,0-.13,0-.13-.15,0-.68,0-1.36,0-2a18,18,0,0,1,1-5.22,13,13,0,0,1,2-3.69,10.47,10.47,0,0,1,3.35-2.82,9.51,9.51,0,0,1,3-1,8.06,8.06,0,0,1,1.7-.12,5.93,5.93,0,0,1,1.19.12c.14,0,.19-.06.19-.17a4.23,4.23,0,0,1,.4-1.75,3.32,3.32,0,0,1,.57-.91,4.73,4.73,0,0,1,1.89-1.38L34.6,40a2.27,2.27,0,0,0-.82-.78c-.07,0-.15-.08-.22-.14a.33.33,0,0,0-.44,0,1,1,0,0,1-1.1,0,1,1,0,0,1-.52-1,1,1,0,0,1,.73-.9,1,1,0,0,1,1.31.65.2.2,0,0,0,.12.14,4.55,4.55,0,0,1,2,1.65c.08.11.13.11.25.09a2.57,2.57,0,0,1,.83,0c.11,0,.16,0,.23-.09A4.63,4.63,0,0,1,39,38a.19.19,0,0,0,.13-.15,1.12,1.12,0,0,1,1.07-.7,1.07,1.07,0,0,1,1,1.1,1,1,0,0,1-.6.93,1,1,0,0,1-1.08-.11c-.07-.06-.13-.1-.21-.06a3.28,3.28,0,0,0-1.16.9c-.07.1,0,.13.05.15a4.35,4.35,0,0,1,1.4.77,4.35,4.35,0,0,1,1.65,3.36c0,.14.06.16.17.14a8.19,8.19,0,0,1,1.64-.13,9.87,9.87,0,0,1,3.38.71A9.69,9.69,0,0,1,49,46.42a11.59,11.59,0,0,1,1.75,1.82,12.72,12.72,0,0,1,1.56,2.6,15.22,15.22,0,0,1,1,2.88c.14.62.24,1.24.34,1.85,0,.33.07.66.1,1,.06.82,0,1.64,0,2.45,0,.23-.1.28-.27.29a19.92,19.92,0,0,1-3,.09A15.42,15.42,0,0,1,46,58.45,13,13,0,0,1,43.13,57Zm-4.35-9.86c-.16,0-.34,0-.45.17a.74.74,0,0,0-.07.58,5.33,5.33,0,0,0,.32.87A21.18,21.18,0,0,0,40.28,52a15,15,0,0,0,1.29,1.71,11.58,11.58,0,0,0,1.52,1.45,12.54,12.54,0,0,0,2.41,1.45,4.76,4.76,0,0,0,1.56.46c.22,0,.32-.07.41-.28s0-.22,0-.33a6.9,6.9,0,0,0-.3-1.68,8.3,8.3,0,0,0-1.8-3.19A9.29,9.29,0,0,0,43.46,50c-1.25-.83-2.5-1.63-3.76-2.45A1.46,1.46,0,0,0,38.78,47.15Zm-4.31.52c0-.29-.14-.5-.36-.52a1.32,1.32,0,0,0-.87.19c-.48.3-1,.62-1.42.93-.65.41-1.3.82-1.94,1.24A13.05,13.05,0,0,0,28,50.93,9.08,9.08,0,0,0,26.32,53a8.4,8.4,0,0,0-.94,2.45c-.09.4-.1.8-.17,1.2a.37.37,0,0,0,.25.39A1,1,0,0,0,26,57a8.45,8.45,0,0,0,2.61-1.19,10.89,10.89,0,0,0,2.48-2.11c.38-.44.74-.91,1.08-1.39a21.12,21.12,0,0,0,2-3.75A2.28,2.28,0,0,0,34.47,47.67Zm1.75,12.06a6.11,6.11,0,0,0,1.2-.08A5.36,5.36,0,0,0,40.68,58a3.31,3.31,0,0,0,.79-2.09c0-.13,0-.17-.16-.14a19.63,19.63,0,0,1-2.4.49,21.2,21.2,0,0,1-2.39.2,16.41,16.41,0,0,1-1.72,0c-.51,0-1-.09-1.53-.15s-1.09-.2-1.64-.29c-.13,0-.28-.16-.37,0s0,.26,0,.4A3.39,3.39,0,0,0,33.14,59,5.74,5.74,0,0,0,36.22,59.73ZM24.41,50.65a4.52,4.52,0,0,0,1.2-.26,20.58,20.58,0,0,0,2.84-1.15c.75-.36,1.48-.74,2.21-1.14a23.67,23.67,0,0,0,2.14-1.32c.25-.17.23-.39,0-.52l-.18-.08a8.67,8.67,0,0,0-3.91-.4,7.74,7.74,0,0,0-2.67.9,7.18,7.18,0,0,0-2.42,2,1.41,1.41,0,0,0-.3,1.18A1.05,1.05,0,0,0,24.41,50.65Zm23.78,0c.92,0,1.33-.54,1.25-1.14a2.16,2.16,0,0,0-.63-1.2,8.25,8.25,0,0,0-2.61-1.88,7.91,7.91,0,0,0-3.56-.71,10.42,10.42,0,0,0-1.37.14,5.6,5.6,0,0,0-1.39.43c-.21.1-.23.24-.07.41a2,2,0,0,0,.27.22,28.49,28.49,0,0,0,2.72,1.6,32.89,32.89,0,0,0,3.78,1.71A6.4,6.4,0,0,0,48.19,50.65ZM21.27,57.92l.8,0a9.34,9.34,0,0,0,1.67-.24c.37-.08.73-.24.78-.69a4.89,4.89,0,0,0,.05-.66,5.55,5.55,0,0,1,.26-1.57,12.68,12.68,0,0,1,.79-1.9,2.22,2.22,0,0,0,.29-1.18.39.39,0,0,0-.27-.38.88.88,0,0,0-.48,0,9.83,9.83,0,0,1-2.09.22,1.73,1.73,0,0,0-1.74,1.15,11.82,11.82,0,0,0-.65,2.62c-.07.41-.11.82-.14,1.23s-.08.87-.08,1.31c0,.11,0,.16.16.16S21,57.92,21.27,57.92Zm30.21,0c.2,0,.39,0,.58,0s.18,0,.19-.18a11.27,11.27,0,0,0-.06-1.16,15.24,15.24,0,0,0-.3-2.12,8.76,8.76,0,0,0-.66-2.11,1.58,1.58,0,0,0-1.36-.89,14.3,14.3,0,0,1-2.36-.23.7.7,0,0,0-.59.11c-.23.21-.14.48-.1.72a5.42,5.42,0,0,0,.6,1.48,7.67,7.67,0,0,1,.75,3.26.74.74,0,0,0,.57.77A9.77,9.77,0,0,0,51.48,57.92ZM36,54.72a16.23,16.23,0,0,0,2.23-.12c.59-.07,1.16-.17,1.74-.28.13,0,.14-.07.05-.17a14.21,14.21,0,0,1-1.38-2,.2.2,0,0,0-.22-.12l-1,.11c-.25,0-.5,0-.74,0a8,8,0,0,1-2.08-.05c-.45-.06-.54,0-.78.34l0,0a12.42,12.42,0,0,1-1.27,1.71c-.06.06-.11.13,0,.16.48.06,1,.17,1.46.21A14.07,14.07,0,0,0,36,54.72Zm-1-4.27a1.58,1.58,0,0,0,.48.06c.4,0,.81,0,1.21,0s.57,0,.85-.07c.12,0,.14-.06.08-.17a26.33,26.33,0,0,1-1.1-2.7c0-.09-.06-.13-.15-.11s-.14,0-.18.1A26.63,26.63,0,0,1,35,50.45Z" transform="translate(-0.04 -5.18)"/><path class="cls-9" d="M36.22,59.74A5.74,5.74,0,0,1,33.14,59a3.41,3.41,0,0,1-1.86-2.7c0-.13-.11-.31,0-.4s.24,0,.37,0c.55.1,1.09.23,1.64.3s1,.11,1.53.15,1.14,0,1.72,0a19.11,19.11,0,0,0,2.39-.21,21.68,21.68,0,0,0,2.4-.48c.13,0,.17,0,.16.13A3.26,3.26,0,0,1,40.68,58a5.32,5.32,0,0,1-3.26,1.67A7,7,0,0,1,36.22,59.74Z" transform="translate(-0.04 -5.18)"/><path class="cls-10" d="M35,50.47a26,26,0,0,0,1.19-2.9c0-.12.11-.08.18-.09s.12,0,.15.1a25.44,25.44,0,0,0,1.1,2.7c.06.12,0,.16-.08.17-.28,0-.56.07-.85.08H35.48A2.63,2.63,0,0,1,35,50.47Z" transform="translate(-0.04 -5.18)"/><path class="cls-11" d="M36,54.72a14.07,14.07,0,0,1-1.93-.09c-.49,0-1-.15-1.46-.21-.16,0-.11-.1,0-.16a12.42,12.42,0,0,0,1.27-1.71l0,0c.24-.39.33-.4.78-.34a8,8,0,0,0,2.08.05c.24,0,.49,0,.74,0l1-.11a.2.2,0,0,1,.22.12,14.21,14.21,0,0,0,1.38,2c.09.1.08.15-.05.17-.58.11-1.15.21-1.74.28A16.23,16.23,0,0,1,36,54.72Z" transform="translate(-0.04 -5.18)"/><path class="cls-12" d="M44.48,51.4a1.57,1.57,0,1,1-1.56-1.53A1.53,1.53,0,0,1,44.48,51.4Z" transform="translate(-0.04 -5.18)"/><path class="cls-13" d="M47.09,51.43a1.51,1.51,0,0,1,1.54-1.57,1.61,1.61,0,0,1,1.56,1.56A1.57,1.57,0,0,1,48.63,53,1.51,1.51,0,0,1,47.09,51.43Z" transform="translate(-0.04 -5.18)"/><path class="cls-14" d="M47.28,54.06a1.45,1.45,0,0,1-1.55,1.58,1.51,1.51,0,0,1-1.54-1.56,1.57,1.57,0,0,1,1.64-1.55C46.5,52.54,47.41,53.26,47.28,54.06Z" transform="translate(-0.04 -5.18)"/><path class="cls-15" d="M45.78,47.06a1.46,1.46,0,0,1,1.51,1.62,1.53,1.53,0,0,1-1.54,1.47,1.55,1.55,0,0,1-1.56-1.58A1.49,1.49,0,0,1,45.78,47.06Z" transform="translate(-0.04 -5.18)"/><path class="cls-16" d="M22.9,51.31a8.32,8.32,0,0,0,0-1c0-.32.1-.37.38-.36.6,0,1.21,0,1.82,0,.21,0,.29,0,.28-.27,0-.68,0-1.35,0-2,0-.19.05-.25.25-.25.75,0,1.51,0,2.26,0,.2,0,.25.06.25.25,0,.68,0,1.35,0,2,0,.24.06.29.28.28h1.92c.2,0,.29,0,.28.26,0,.75,0,1.51,0,2.26,0,.21-.07.24-.26.24H28.41c-.23,0-.31,0-.3.29,0,.65,0,1.31,0,2,0,.17,0,.23-.23.23h-2.3c-.18,0-.23,0-.23-.23,0-.66,0-1.33,0-2,0-.22-.06-.27-.26-.26-.64,0-1.28,0-1.92,0-.26,0-.31-.07-.3-.31S22.9,51.67,22.9,51.31Z" transform="translate(-0.04 -5.18)"/><path class="cls-7" d="M12.72,75.11c-1.81,0-2.71.07-2.71.22s-.2.28-.59.45a1.55,1.55,0,0,0-.77,1,1.91,1.91,0,0,0,0,1.4c.34.73,1.8,1.7,4.4,2.91a12.55,12.55,0,0,1,3.28,2,4,4,0,0,1,.82,1.08,3.82,3.82,0,0,1,.16,1.36,4,4,0,0,1-.88,2.72,9.43,9.43,0,0,1-3.35,2,7.09,7.09,0,0,1-3.28.47,5.81,5.81,0,0,1-2.94-1c-.79-.54-1.11-1.09-1-1.66s.65-.78,1.53-.63a18.5,18.5,0,0,0,2.69.36,4.83,4.83,0,0,0,1.59-.31,5.8,5.8,0,0,0,1.92-.87,1.46,1.46,0,0,0,.44-1.15,1.28,1.28,0,0,0-.18-.78,2.61,2.61,0,0,0-.83-.53,19,19,0,0,1-6.22-3.7,5.44,5.44,0,0,1-1-1.36,6.36,6.36,0,0,1-.16-1.86,8,8,0,0,1,.13-1.78,2.94,2.94,0,0,1,.57-1.11A7,7,0,0,1,8,72.92a6.92,6.92,0,0,1,3.11-.52,7.9,7.9,0,0,1,3.28.49c1.12.55,1.55,1.14,1.29,1.8-.08.18-.29.3-.65.35S13.88,75.11,12.72,75.11Z" transform="translate(-0.04 -5.18)"/><path class="cls-7" d="M26.09,78.92a20.38,20.38,0,0,0,3.67-.17c.28-.11.42-.49.42-1.15a17.21,17.21,0,0,1,.37-2.77,5.72,5.72,0,0,1,.38-1.45.71.71,0,0,1,.54-.4,1,1,0,0,1,1,.56,4.61,4.61,0,0,1,.3,2q0,1.6-.07,6.67v0a68.4,68.4,0,0,1-.42,7.73c-.13.53-.39.77-.76.73a2.62,2.62,0,0,1-.56-.11.85.85,0,0,1-.6-.72A35.82,35.82,0,0,1,30,86.18a31,31,0,0,0-.47-4.49c-.13-.22-1.14-.33-3-.33a10.94,10.94,0,0,0-3.52.33,1.43,1.43,0,0,0-.84,1.15c0,.13-.06.38-.11.73s-.13.8-.23,1.33-.17,1-.22,1.36a22.5,22.5,0,0,1-.79,3.87c-.11.15-.34.22-.7.22a.86.86,0,0,1-.89-.45,6.22,6.22,0,0,1-.2-2.07q0-1.93.76-8.21a46.71,46.71,0,0,1,1-6.73.51.51,0,0,1,.56-.21,1.14,1.14,0,0,1,.68.44c.24.26.33,1.13.28,2.6,0,.53,0,.89-.05,1.08a4,4,0,0,0,.07.77,4.51,4.51,0,0,1,.09.61c0,.08.1.2.29.35a1.49,1.49,0,0,0,.42.25l.72.1a6.69,6.69,0,0,0,.91.05Z" transform="translate(-0.04 -5.18)"/><path class="cls-7" d="M42.71,90.74c-1.65,0-2.75,0-3.31-.08a2.89,2.89,0,0,1-1.29-.39,6.14,6.14,0,0,1-1.75-1.89A13,13,0,0,1,35,85.45a11,11,0,0,1-.49-1.78,5,5,0,0,1,.12-1.53,15.31,15.31,0,0,1,1.85-5.24,10.28,10.28,0,0,1,3.81-3,9,9,0,0,1,1.89-.82A7.41,7.41,0,0,1,44,73a8.15,8.15,0,0,1,3.53,1A12.35,12.35,0,0,1,52,79.47,13.21,13.21,0,0,1,52.35,83a8.72,8.72,0,0,1-.41,3.1,6.6,6.6,0,0,1-1.78,2.23,9.67,9.67,0,0,1-3,2.1A17.47,17.47,0,0,1,42.71,90.74Zm5.07-13.31a4.71,4.71,0,0,0-1.32-.58,9.9,9.9,0,0,0-2-.23,9,9,0,0,0-3.21.2,4.86,4.86,0,0,0-2,1.57,8.39,8.39,0,0,0-1.4,2.11,6.2,6.2,0,0,0-.42,2.23q-.06,3.39,2.22,4.88t5.85.42a7,7,0,0,0,2.75-1.68,5.57,5.57,0,0,0,1.68-2.5,6.24,6.24,0,0,0-.18-3.61A5.25,5.25,0,0,0,47.78,77.43Z" transform="translate(-0.04 -5.18)"/><path class="cls-7" d="M58.4,72.67c1.35,0,2.34,0,3,.11a11,11,0,0,1,2.06.48,10.41,10.41,0,0,1,2.24,1A7.71,7.71,0,0,1,67.06,76a5.3,5.3,0,0,1,1,2.81,2.81,2.81,0,0,1-.21,1.26,6.41,6.41,0,0,1-1.16,1.26,8.63,8.63,0,0,1-2.12,1.54,14.07,14.07,0,0,1-3.07.81,9,9,0,0,0-2.63.7c-.34.23-.53.76-.59,1.6,0,.11,0,.51-.06,1.21,0,1.7-.23,2.74-.58,3.13a1.14,1.14,0,0,1-2,0,2.77,2.77,0,0,1-.43-1.56q-.07-1.16,0-6t0-6a2.49,2.49,0,0,0-.42-1.51,2.71,2.71,0,0,1-.75-1.1,1.31,1.31,0,0,1,.44-.87,1.72,1.72,0,0,1,1-.54A23.42,23.42,0,0,1,58.4,72.67Zm3.7,2.72a8.51,8.51,0,0,0-2.59-.28c-1,0-1.6.13-1.67.33a15.13,15.13,0,0,0-.25,3,9.57,9.57,0,0,0,.11,2.64c.26.41,1.07.44,2.41.09a20,20,0,0,0,4.48-1.83,1.48,1.48,0,0,0,.65-.93,1.25,1.25,0,0,0-.09-1.09,4,4,0,0,0-1.26-1.08A7.37,7.37,0,0,0,62.1,75.39Z" transform="translate(-0.04 -5.18)"/></g></g></svg>