<svg xmlns="http://www.w3.org/2000/svg" xmlns:xlink="http://www.w3.org/1999/xlink" viewBox="0 0 2033.68 600.7"><defs><style>.cls-1,.cls-2,.cls-3,.cls-4,.cls-5,.cls-6,.cls-7{fill:none;stroke-miterlimit:10;}.cls-1{stroke:#4d4d4d;stroke-width:15px;}.cls-2,.cls-3{stroke-width:17px;}.cls-2{stroke:url(#COULEUR_GEEK_BEEZ);}.cls-3{stroke:url(#COULEUR_GEEK_BEEZ-2);}.cls-4,.cls-5,.cls-6,.cls-7{stroke-width:16px;}.cls-4{stroke:url(#COULEUR_GEEK_BEEZ-3);}.cls-5{stroke:url(#COULEUR_GEEK_BEEZ-4);}.cls-6{stroke:url(#COULEUR_GEEK_BEEZ-5);}.cls-7{stroke:url(#COULEUR_GEEK_BEEZ-6);}</style><linearGradient id="COULEUR_GEEK_BEEZ" x1="689.87" y1="360.2" x2="1007.23" y2="360.2" gradientUnits="userSpaceOnUse"><stop offset="0" stop-color="#fabf44"/><stop offset="1" stop-color="#f39547"/></linearGradient><linearGradient id="COULEUR_GEEK_BEEZ-2" x1="1320.56" y1="393.31" x2="1633.66" y2="393.31" xlink:href="#COULEUR_GEEK_BEEZ"/><linearGradient id="COULEUR_GEEK_BEEZ-3" x1="1587.14" y1="114.56" x2="1842.79" y2="114.56" xlink:href="#COULEUR_GEEK_BEEZ"/><linearGradient id="COULEUR_GEEK_BEEZ-4" x1="1638.03" y1="349.82" x2="1820.02" y2="349.82" xlink:href="#COULEUR_GEEK_BEEZ"/><linearGradient id="COULEUR_GEEK_BEEZ-5" x1="1031.7" y1="485.93" x2="1245.59" y2="485.93" xlink:href="#COULEUR_GEEK_BEEZ"/><linearGradient id="COULEUR_GEEK_BEEZ-6" x1="544.77" y1="196.82" x2="725.28" y2="196.82" xlink:href="#COULEUR_GEEK_BEEZ"/></defs><g id="Calque_2" data-name="Calque 2"><g id="Calque_2-2" data-name="Calque 2"><path class="cls-1" d="M37.94,208.48,8.54,157.26a7.82,7.82,0,0,1,0-7.8l29.4-51.23a7.85,7.85,0,0,1,6.8-3.93h58.73a7.84,7.84,0,0,1,6.79,3.93l29.4,51.23a7.82,7.82,0,0,1,0,7.8l-29.4,51.22a7.84,7.84,0,0,1-6.79,3.93H44.74A7.85,7.85,0,0,1,37.94,208.48Z"/><path class="cls-1" d="M1862,335l-44.61-77.7a16.41,16.41,0,0,1,0-16.3l44.61-77.7a16.36,16.36,0,0,1,14.2-8.22h89a16.34,16.34,0,0,1,14.2,8.22L2024,241a16.41,16.41,0,0,1,0,16.3L1979.4,335a16.35,16.35,0,0,1-14.2,8.23h-89A16.37,16.37,0,0,1,1862,335Z"/><path class="cls-2" d="M767.49,485l-67-116.63a16.36,16.36,0,0,1,0-16.3l67-116.63a16.37,16.37,0,0,1,14.2-8.22H915.41a16.38,16.38,0,0,1,14.2,8.22l66.95,116.63a16.41,16.41,0,0,1,0,16.3L929.61,485a16.38,16.38,0,0,1-14.2,8.22H781.69A16.37,16.37,0,0,1,767.49,485Z"/><path class="cls-1" d="M587.87,585l-39.28-68.43a16.36,16.36,0,0,1,0-16.3l39.28-68.43a16.37,16.37,0,0,1,14.2-8.23h78.39a16.37,16.37,0,0,1,14.2,8.23l39.28,68.43a16.36,16.36,0,0,1,0,16.3L694.66,585a16.38,16.38,0,0,1-14.2,8.22H602.07A16.38,16.38,0,0,1,587.87,585Z"/><path class="cls-1" d="M1057.1,307,990.54,191a16.41,16.41,0,0,1,0-16.3L1057.1,58.77a16.37,16.37,0,0,1,14.2-8.22h133a16.37,16.37,0,0,1,14.2,8.22l66.56,116a16.41,16.41,0,0,1,0,16.3l-66.56,116a16.39,16.39,0,0,1-14.2,8.22h-133A16.39,16.39,0,0,1,1057.1,307Z"/><path class="cls-3" d="M1397.11,516.23l-65.88-114.77a16.36,16.36,0,0,1,0-16.3l65.88-114.77a16.37,16.37,0,0,1,14.2-8.22H1542.9a16.34,16.34,0,0,1,14.2,8.22L1623,385.16a16.36,16.36,0,0,1,0,16.3L1557.1,516.23a16.34,16.34,0,0,1-14.2,8.22H1411.31A16.37,16.37,0,0,1,1397.11,516.23Z"/><path class="cls-4" d="M1649.08,212.9l-51.77-90.19a16.36,16.36,0,0,1,0-16.3l51.77-90.19A16.38,16.38,0,0,1,1663.28,8h103.37a16.39,16.39,0,0,1,14.2,8.22l51.77,90.19a16.36,16.36,0,0,1,0,16.3l-51.77,90.19a16.39,16.39,0,0,1-14.2,8.22H1663.28A16.38,16.38,0,0,1,1649.08,212.9Z"/><path class="cls-5" d="M1683.32,417.86l-35.76-62.3a11.53,11.53,0,0,1,0-11.48l35.76-62.3a11.54,11.54,0,0,1,10-5.79h71.41a11.54,11.54,0,0,1,10,5.79l35.76,62.3a11.53,11.53,0,0,1,0,11.48l-35.76,62.3a11.52,11.52,0,0,1-10,5.79h-71.41A11.52,11.52,0,0,1,1683.32,417.86Z"/><path class="cls-6" d="M1085,567.86l-43.73-76.19a11.53,11.53,0,0,1,0-11.48L1085,404a11.54,11.54,0,0,1,10-5.79h87.35a11.53,11.53,0,0,1,10,5.79l43.74,76.2a11.53,11.53,0,0,1,0,11.48l-43.74,76.19a11.51,11.51,0,0,1-10,5.79H1095A11.53,11.53,0,0,1,1085,567.86Z"/><path class="cls-7" d="M587.92,262.43l-33-57.46a16.41,16.41,0,0,1,0-16.3l33-57.45a16.38,16.38,0,0,1,14.2-8.23h65.8a16.37,16.37,0,0,1,14.2,8.23l33,57.45a16.36,16.36,0,0,1,0,16.3l-33,57.46a16.36,16.36,0,0,1-14.2,8.22h-65.8A16.37,16.37,0,0,1,587.92,262.43Z"/></g></g></svg>