<svg xmlns="http://www.w3.org/2000/svg" xmlns:xlink="http://www.w3.org/1999/xlink" viewBox="0 0 2204 557.65"><defs><style>.cls-1,.cls-2,.cls-3,.cls-4,.cls-5,.cls-6,.cls-7,.cls-8{fill:none;stroke-miterlimit:10;}.cls-1,.cls-5,.cls-6,.cls-7,.cls-8{stroke-width:16px;}.cls-1{stroke:url(#COULEUR_GEEK_BEEZ);}.cls-2{stroke:#4d4d4d;stroke-width:15px;}.cls-3,.cls-4{stroke-width:17px;}.cls-3{stroke:url(#COULEUR_GEEK_BEEZ-2);}.cls-4{stroke:url(#COULEUR_GEEK_BEEZ-3);}.cls-5{stroke:url(#COULEUR_GEEK_BEEZ-4);}.cls-6{stroke:url(#COULEUR_GEEK_BEEZ-5);}.cls-7{stroke:url(#COULEUR_GEEK_BEEZ-6);}.cls-8{stroke:url(#COULEUR_GEEK_BEEZ-7);}</style><linearGradient id="COULEUR_GEEK_BEEZ" x1="2041.81" y1="107.73" x2="2204" y2="107.73" gradientUnits="userSpaceOnUse"><stop offset="0" stop-color="#fabf44"/><stop offset="1" stop-color="#f39547"/></linearGradient><linearGradient id="COULEUR_GEEK_BEEZ-2" x1="436.95" y1="115.7" x2="754.32" y2="115.7" gradientTransform="translate(1918.77 356.2) rotate(180)" xlink:href="#COULEUR_GEEK_BEEZ"/><linearGradient id="COULEUR_GEEK_BEEZ-3" x1="1000.64" y1="128.81" x2="1313.74" y2="128.81" gradientTransform="translate(1918.77 356.2) rotate(180)" xlink:href="#COULEUR_GEEK_BEEZ"/><linearGradient id="COULEUR_GEEK_BEEZ-4" x1="1310.22" y1="-32.94" x2="1565.88" y2="-32.94" gradientTransform="translate(1918.77 356.2) rotate(180)" xlink:href="#COULEUR_GEEK_BEEZ"/><linearGradient id="COULEUR_GEEK_BEEZ-5" x1="1497.12" y1="194.32" x2="1679.11" y2="194.32" gradientTransform="translate(1918.77 356.2) rotate(180)" xlink:href="#COULEUR_GEEK_BEEZ"/><linearGradient id="COULEUR_GEEK_BEEZ-6" x1="778.78" y1="241.43" x2="992.68" y2="241.43" gradientTransform="translate(1918.77 356.2) rotate(180)" xlink:href="#COULEUR_GEEK_BEEZ"/><linearGradient id="COULEUR_GEEK_BEEZ-7" x1="291.86" y1="-47.68" x2="472.36" y2="-47.68" gradientTransform="translate(1918.77 356.2) rotate(180)" xlink:href="#COULEUR_GEEK_BEEZ"/></defs><g id="Calque_2" data-name="Calque 2"><g id="Calque_2-2" data-name="Calque 2"><path class="cls-1" d="M2084.09,169.1l-33.45-58.28a6.2,6.2,0,0,1,0-6.18l33.45-58.29a6.22,6.22,0,0,1,5.39-3.12h66.85a6.22,6.22,0,0,1,5.39,3.12l33.45,58.29a6.2,6.2,0,0,1,0,6.18l-33.45,58.28a6.22,6.22,0,0,1-5.39,3.12h-66.85A6.22,6.22,0,0,1,2084.09,169.1Z"/><path class="cls-2" d="M171.71,176.67l44.6,77.7a16.36,16.36,0,0,1,0,16.3l-44.6,77.7a16.36,16.36,0,0,1-14.2,8.22h-89a16.37,16.37,0,0,1-14.2-8.22l-44.6-77.7a16.41,16.41,0,0,1,0-16.3l44.6-77.7a16.37,16.37,0,0,1,14.2-8.22h89A16.36,16.36,0,0,1,171.71,176.67Z"/><path class="cls-3" d="M1404.19,115.72l67,116.63a16.36,16.36,0,0,1,0,16.3l-67,116.63a16.38,16.38,0,0,1-14.2,8.22H1256.27a16.38,16.38,0,0,1-14.2-8.22l-67-116.63a16.36,16.36,0,0,1,0-16.3l67-116.63a16.38,16.38,0,0,1,14.2-8.22H1390A16.38,16.38,0,0,1,1404.19,115.72Z"/><path class="cls-2" d="M1592.81,15.72l39.28,68.43a16.36,16.36,0,0,1,0,16.3l-39.28,68.44a16.38,16.38,0,0,1-14.2,8.22h-78.39a16.38,16.38,0,0,1-14.2-8.22l-39.28-68.44a16.36,16.36,0,0,1,0-16.3L1486,15.72a16.38,16.38,0,0,1,14.2-8.22h78.39A16.38,16.38,0,0,1,1592.81,15.72Z"/><path class="cls-2" d="M1114.57,293.72l66.56,116a16.36,16.36,0,0,1,0,16.3l-66.56,115.95a16.34,16.34,0,0,1-14.2,8.22H967.42a16.37,16.37,0,0,1-14.2-8.22L886.66,426a16.36,16.36,0,0,1,0-16.3l66.56-116a16.39,16.39,0,0,1,14.2-8.22h132.95A16.37,16.37,0,0,1,1114.57,293.72Z"/><path class="cls-4" d="M841.57,104.47l65.88,114.77a16.36,16.36,0,0,1,0,16.3L841.57,350.31a16.37,16.37,0,0,1-14.2,8.22H695.77a16.37,16.37,0,0,1-14.2-8.22L615.69,235.54a16.41,16.41,0,0,1,0-16.3l65.88-114.77a16.37,16.37,0,0,1,14.2-8.22h131.6A16.37,16.37,0,0,1,841.57,104.47Z"/><path class="cls-5" d="M546.6,290.8,598.37,381a16.36,16.36,0,0,1,0,16.3L546.6,487.48a16.39,16.39,0,0,1-14.2,8.22H429a16.38,16.38,0,0,1-14.2-8.22l-51.77-90.19a16.36,16.36,0,0,1,0-16.3l51.77-90.19a16.38,16.38,0,0,1,14.2-8.22H532.4A16.39,16.39,0,0,1,546.6,290.8Z"/><path class="cls-6" d="M376.36,93.84l35.76,62.3a11.53,11.53,0,0,1,0,11.48l-35.76,62.3a11.54,11.54,0,0,1-10,5.79H295a11.54,11.54,0,0,1-10-5.79l-35.76-62.3a11.53,11.53,0,0,1,0-11.48L285,93.84a11.54,11.54,0,0,1,10-5.79h71.41A11.54,11.54,0,0,1,376.36,93.84Z"/><path class="cls-7" d="M1086.71,32.84,1130.45,109a11.53,11.53,0,0,1,0,11.48l-43.74,76.2a11.53,11.53,0,0,1-10,5.79H989.36a11.55,11.55,0,0,1-10-5.79l-43.73-76.2a11.53,11.53,0,0,1,0-11.48l43.73-76.19a11.55,11.55,0,0,1,10-5.79h87.35A11.53,11.53,0,0,1,1086.71,32.84Z"/><path class="cls-8" d="M1583.75,338.27l33,57.46a16.41,16.41,0,0,1,0,16.3l-33,57.46a16.37,16.37,0,0,1-14.2,8.22h-65.79a16.38,16.38,0,0,1-14.2-8.22l-33-57.46a16.41,16.41,0,0,1,0-16.3l33-57.46a16.36,16.36,0,0,1,14.2-8.22h65.79A16.34,16.34,0,0,1,1583.75,338.27Z"/></g></g></svg>