<svg xmlns="http://www.w3.org/2000/svg" xmlns:xlink="http://www.w3.org/1999/xlink" viewBox="0 0 433.96 412.96"><defs><style>.cls-1,.cls-12{stroke-miterlimit:10;}.cls-1{stroke-width:24px;fill:url(#Dégradé_sans_nom_98);stroke:url(#COULEUR_GEEK_BEEZ);}.cls-12,.cls-2{fill:#fff;}.cls-3{fill:#353435;}.cls-4{fill:url(#COULEUR_GEEK_BEEZ-2);}.cls-5{fill:url(#COULEUR_GEEK_BEEZ-3);}.cls-6{fill:url(#COULEUR_GEEK_BEEZ-4);}.cls-7{fill:url(#COULEUR_GEEK_BEEZ-5);}.cls-8{fill:url(#COULEUR_GEEK_BEEZ-6);}.cls-9{fill:url(#COULEUR_GEEK_BEEZ-7);}.cls-10{fill:url(#COULEUR_GEEK_BEEZ-8);}.cls-11{fill:url(#COULEUR_GEEK_BEEZ-9);}.cls-12{stroke:#fff;stroke-width:4px;}</style><radialGradient id="Dégradé_sans_nom_98" cx="216.98" cy="204.33" r="193.24" gradientUnits="userSpaceOnUse"><stop offset="0" stop-color="#fdc32d" stop-opacity="0.4"/><stop offset="0.33" stop-color="#fcc233" stop-opacity="0.35"/><stop offset="0.92" stop-color="#fabe42" stop-opacity="0.22"/><stop offset="1" stop-color="#fabe44" stop-opacity="0.2"/></radialGradient><linearGradient id="COULEUR_GEEK_BEEZ" y1="204.33" x2="433.96" y2="204.33" gradientUnits="userSpaceOnUse"><stop offset="0" stop-color="#fabf44"/><stop offset="1" stop-color="#f39547"/></linearGradient><linearGradient id="COULEUR_GEEK_BEEZ-2" x1="187.85" y1="387.55" x2="219.39" y2="387.55" xlink:href="#COULEUR_GEEK_BEEZ"/><linearGradient id="COULEUR_GEEK_BEEZ-3" x1="199.47" y1="360.64" x2="207.63" y2="360.64" xlink:href="#COULEUR_GEEK_BEEZ"/><linearGradient id="COULEUR_GEEK_BEEZ-4" x1="193.45" y1="394.15" x2="216.76" y2="394.15" gradientTransform="translate(-1.64 -19.99)" xlink:href="#COULEUR_GEEK_BEEZ"/><linearGradient id="COULEUR_GEEK_BEEZ-5" x1="219.01" y1="368.12" x2="228.65" y2="368.12" xlink:href="#COULEUR_GEEK_BEEZ"/><linearGradient id="COULEUR_GEEK_BEEZ-6" x1="236.64" y1="368.12" x2="246.21" y2="368.12" xlink:href="#COULEUR_GEEK_BEEZ"/><linearGradient id="COULEUR_GEEK_BEEZ-7" x1="227.74" y1="376.29" x2="237.28" y2="376.29" xlink:href="#COULEUR_GEEK_BEEZ"/><linearGradient id="COULEUR_GEEK_BEEZ-8" x1="227.74" y1="359.4" x2="237.28" y2="359.4" xlink:href="#COULEUR_GEEK_BEEZ"/><linearGradient id="COULEUR_GEEK_BEEZ-9" x1="162.2" y1="367.7" x2="185.91" y2="367.7" xlink:href="#COULEUR_GEEK_BEEZ"/></defs><g id="Calque_2" data-name="Calque 2"><g id="Calque_2-2" data-name="Calque 2"><path class="cls-1" d="M108.52,376.84,14.17,212.48a16.41,16.41,0,0,1,0-16.3L108.52,31.82a16.36,16.36,0,0,1,14.2-8.22H311.24a16.36,16.36,0,0,1,14.2,8.22l94.34,164.36a16.36,16.36,0,0,1,0,16.3L325.44,376.84a16.38,16.38,0,0,1-14.2,8.22H122.72A16.38,16.38,0,0,1,108.52,376.84Z"/><path class="cls-2" d="M174.52,364.79c-3.85,0-7.35-2.21-11.2-2.2-5.86,0-11,7-11.57,13.88-.54,6.3-1.48,12,4.81,12a144.68,144.68,0,0,0,18.2-2c6.07-1.25,9.15-4.07,11-10S180.81,364.78,174.52,364.79Z"/><path class="cls-2" d="M234.56,368.19c3.55,0,6.76-2,10.31-2,5.4,0,10.11,6.43,10.66,12.78.49,5.8,1.35,11.06-4.43,11.05a134.82,134.82,0,0,1-16.76-1.83c-5.58-1.16-8.43-3.75-10.1-9.23S228.78,368.18,234.56,368.19Z"/><path class="cls-3" d="M224.48,385.28a18.14,18.14,0,0,1-1.7,4.84,21.42,21.42,0,0,1-3.09,4.44,22.65,22.65,0,0,1-6.55,4.88,15.23,15.23,0,0,0-7.41,8.52c-.6,1.61-1.26,3.2-2,5l-.88-2.55a25,25,0,0,0-3.77-7.31,11.77,11.77,0,0,0-3.68-3,36.31,36.31,0,0,1-5.9-3.62,21.15,21.15,0,0,1-4.45-5.25,20.23,20.23,0,0,1-2.31-5.93,35.46,35.46,0,0,1-4.23,2.46,44.73,44.73,0,0,1-11.29,3.86c-1.55.32-3.12.51-4.69.71a52.54,52.54,0,0,1-7.93.22,27.14,27.14,0,0,1-4-.35c-.31-.06-.41-.14-.4-.45,0-2.1-.1-4.19,0-6.28a55.79,55.79,0,0,1,3.13-16.06,40.29,40.29,0,0,1,6.23-11.35,32.14,32.14,0,0,1,10.31-8.69,29,29,0,0,1,9.16-3,24.29,24.29,0,0,1,5.24-.37,17.34,17.34,0,0,1,3.66.36c.44.12.58-.19.58-.53a13.08,13.08,0,0,1,1.22-5.36,11.49,11.49,0,0,1,1.75-2.82,14.68,14.68,0,0,1,5.82-4.23l.91-.35a7.24,7.24,0,0,0-2.53-2.39c-.22-.16-.47-.26-.68-.42a1,1,0,0,0-1.35,0,3,3,0,0,1-3.39.11,3.08,3.08,0,0,1-1.58-3.16,3.12,3.12,0,0,1,2.22-2.76,3.21,3.21,0,0,1,4,2,.58.58,0,0,0,.36.43,13.87,13.87,0,0,1,6.26,5.09.62.62,0,0,0,.76.28,7.59,7.59,0,0,1,2.56,0,.57.57,0,0,0,.72-.26,14.06,14.06,0,0,1,6.24-5.12.63.63,0,0,0,.4-.46,3.42,3.42,0,0,1,3.3-2.15,3.28,3.28,0,0,1,3,3.39,3.09,3.09,0,0,1-1.85,2.86,3.13,3.13,0,0,1-3.33-.36c-.22-.16-.38-.28-.64-.16a9.79,9.79,0,0,0-3.56,2.76c-.23.3-.08.38.15.46a14,14,0,0,1,8.19,7.33,13,13,0,0,1,1.18,5.37c0,.44.2.5.53.44a23.65,23.65,0,0,1,5-.39,30.3,30.3,0,0,1,10.41,2.16,29.66,29.66,0,0,1,7.76,4.61,35.14,35.14,0,0,1,5.4,5.57,39.19,39.19,0,0,1,4.78,8,45.72,45.72,0,0,1,3,8.87c.44,1.89.74,3.8,1.06,5.7.16,1,.21,2,.29,3,.19,2.51.09,5,.16,7.54,0,.68-.3.84-.82.89a60.41,60.41,0,0,1-9.22.26,47,47,0,0,1-13.86-2.86A39.92,39.92,0,0,1,224.48,385.28ZM211.1,355c-.5,0-1-.06-1.39.5a2.33,2.33,0,0,0-.21,1.81,17,17,0,0,0,1,2.66,66.31,66.31,0,0,0,5.23,9.94,46,46,0,0,0,4,5.26,34.61,34.61,0,0,0,4.68,4.46,37.28,37.28,0,0,0,7.42,4.48,15.21,15.21,0,0,0,4.79,1.42c.69.07,1-.23,1.25-.86.18-.41,0-.7-.05-1a21,21,0,0,0-.93-5.15,25.19,25.19,0,0,0-5.52-9.81,29.43,29.43,0,0,0-5.83-5.08c-3.83-2.53-7.71-5-11.56-7.51A4.52,4.52,0,0,0,211.1,355Zm-13.28,1.6c0-.91-.41-1.53-1.07-1.61a4.07,4.07,0,0,0-2.69.59c-1.48.92-2.92,1.91-4.39,2.85-2,1.28-4,2.52-6,3.81a41.88,41.88,0,0,0-5.78,4.39,27.94,27.94,0,0,0-5.17,6.39,25.66,25.66,0,0,0-2.89,7.55c-.26,1.22-.31,2.47-.53,3.69a1.15,1.15,0,0,0,.79,1.2,3.12,3.12,0,0,0,1.77-.15,26.49,26.49,0,0,0,8-3.66,33.43,33.43,0,0,0,7.63-6.51,50.54,50.54,0,0,0,3.31-4.26,65.78,65.78,0,0,0,6.19-11.55A6.59,6.59,0,0,0,197.82,356.55Zm5.41,37.1a18.77,18.77,0,0,0,3.7-.25c3.86-.7,7.36-2.06,10-5.12a10.11,10.11,0,0,0,2.45-6.42c0-.39-.09-.53-.51-.42a65.42,65.42,0,0,1-7.37,1.49,62.82,62.82,0,0,1-7.37.64c-1.76.05-3.53,0-5.29-.11-1.57-.09-3.13-.27-4.69-.46s-3.36-.61-5-.9c-.4-.06-.87-.49-1.16-.15s0,.81.06,1.23a10.45,10.45,0,0,0,5.73,8.28A17.67,17.67,0,0,0,203.23,393.65Zm-36.34-27.94a14.22,14.22,0,0,0,3.69-.79,65.6,65.6,0,0,0,8.74-3.56c2.3-1.1,4.56-2.26,6.78-3.5a74.45,74.45,0,0,0,6.61-4.05c.77-.54.71-1.19-.14-1.62-.18-.09-.36-.18-.54-.25a26.81,26.81,0,0,0-5.54-1.26,24.65,24.65,0,0,0-6.48.05,23.58,23.58,0,0,0-8.22,2.76,22.25,22.25,0,0,0-7.47,6.26,4.39,4.39,0,0,0-.92,3.63A3.25,3.25,0,0,0,166.89,365.71Zm73.16,0c2.83,0,4.11-1.65,3.86-3.5a6.69,6.69,0,0,0-1.95-3.7,25.12,25.12,0,0,0-8-5.77,24,24,0,0,0-11-2.18,26.69,26.69,0,0,0-4.2.43,16.76,16.76,0,0,0-4.29,1.3c-.64.31-.71.75-.21,1.26a5.47,5.47,0,0,0,.83.68,87.88,87.88,0,0,0,8.38,4.92,93.38,93.38,0,0,0,11.62,5.27A19.62,19.62,0,0,0,240.05,365.71Zm-82.81,22.36,2.44-.1a30.6,30.6,0,0,0,5.15-.75c1.15-.24,2.25-.75,2.41-2.13a19.41,19.41,0,0,0,.15-2,16.93,16.93,0,0,1,.8-4.85,37.78,37.78,0,0,1,2.43-5.85,7.07,7.07,0,0,0,.89-3.64,1.17,1.17,0,0,0-.84-1.14,2.62,2.62,0,0,0-1.46-.09,31.06,31.06,0,0,1-6.46.66,5.28,5.28,0,0,0-5.33,3.54,36,36,0,0,0-2,8.07c-.2,1.25-.34,2.51-.44,3.78s-.24,2.68-.24,4c0,.35.13.49.48.48Zm92.95,0c.59,0,1.18,0,1.77,0,.4,0,.56-.11.57-.54a30.44,30.44,0,0,0-.18-3.58,42.44,42.44,0,0,0-.93-6.53,26.46,26.46,0,0,0-2-6.48,4.79,4.79,0,0,0-4.2-2.73,49.32,49.32,0,0,1-7.27-.72,2,2,0,0,0-1.79.33c-.73.64-.44,1.49-.32,2.22a17,17,0,0,0,1.86,4.56,23.51,23.51,0,0,1,2.29,10,2.33,2.33,0,0,0,1.75,2.37A29.15,29.15,0,0,0,250.19,388.07Zm-47.62-9.83a53,53,0,0,0,6.87-.39c1.8-.2,3.58-.52,5.35-.84.4-.07.42-.23.16-.53a42.61,42.61,0,0,1-4.26-6.06.57.57,0,0,0-.65-.36c-1,.07-2,.23-2.94.33-.77.07-1.53,0-2.29.11a24.41,24.41,0,0,1-6.39-.15c-1.37-.18-1.64-.15-2.39,1,0,.05-.09.09-.13.15a38.58,38.58,0,0,1-3.9,5.27c-.18.19-.36.41.13.48,1.5.2,3,.52,4.5.65A44.72,44.72,0,0,0,202.57,378.24Zm-3.1-13.14a6.24,6.24,0,0,0,1.47.19c1.25,0,2.5,0,3.74,0,.87,0,1.74-.15,2.61-.22.38,0,.41-.18.24-.53a77.57,77.57,0,0,1-3.38-8.3c-.1-.27-.19-.38-.46-.34s-.42-.07-.55.3A79.55,79.55,0,0,1,199.47,365.1Z"/><path class="cls-4" d="M203.23,393.67a17.76,17.76,0,0,1-9.49-2.19,10.46,10.46,0,0,1-5.73-8.29c0-.42-.31-.94-.06-1.23s.76.09,1.16.16c1.69.28,3.36.69,5,.9s3.12.36,4.69.46c1.76.11,3.53.16,5.29.1a66.12,66.12,0,0,0,14.74-2.13c.42-.11.52,0,.51.42a10.09,10.09,0,0,1-2.45,6.42c-2.65,3.07-6.15,4.43-10,5.13A19.57,19.57,0,0,1,203.23,393.67Z"/><path class="cls-5" d="M199.47,365.15a78.78,78.78,0,0,0,3.67-8.91c.13-.37.34-.26.55-.3s.36.07.46.34a77.57,77.57,0,0,0,3.38,8.3c.17.36.14.49-.24.53-.87.08-1.74.19-2.61.22-1.24,0-2.49,0-3.74,0A6.24,6.24,0,0,1,199.47,365.15Z"/><path class="cls-6" d="M202.57,378.24a44.72,44.72,0,0,1-5.94-.29c-1.51-.13-3-.45-4.5-.65-.49-.07-.31-.29-.13-.48a38.58,38.58,0,0,0,3.9-5.27c0-.06.1-.1.13-.15.75-1.2,1-1.23,2.39-1a24.41,24.41,0,0,0,6.39.15c.76-.1,1.52,0,2.29-.11,1-.1,2-.26,2.94-.33a.57.57,0,0,1,.65.36,42.61,42.61,0,0,0,4.26,6.06c.26.3.24.46-.16.53-1.77.32-3.55.64-5.35.84A53,53,0,0,1,202.57,378.24Z"/><path class="cls-7" d="M228.65,368c-.18,3.23-2.05,4.91-4.71,4.92-2.93,0-4.88-1.67-4.93-4.85a4.52,4.52,0,0,1,4.82-4.76A4.7,4.7,0,0,1,228.65,368Z"/><path class="cls-8" d="M236.67,368.1c-.33-2.71,2.31-4.83,4.75-4.82a5,5,0,0,1,4.79,4.8,4.8,4.8,0,0,1-4.79,4.89C238.82,373,236.33,370.66,236.67,368.1Z"/><path class="cls-9" d="M237.24,376.2c0,3-1.79,4.84-4.74,4.87a4.67,4.67,0,0,1-4.76-4.81,4.81,4.81,0,0,1,5.06-4.75C234.85,371.51,237.64,373.74,237.24,376.2Z"/><path class="cls-10" d="M232.62,354.66c2.89,0,4.56,1.87,4.66,5a4.68,4.68,0,0,1-4.72,4.54,4.79,4.79,0,0,1-4.82-4.85C227.71,357,229.77,354.32,232.62,354.66Z"/><path class="cls-11" d="M162.24,367.73a28.37,28.37,0,0,0,0-3.06c-.1-1,.3-1.14,1.17-1.11,1.86.07,3.73,0,5.59,0,.66,0,.91-.13.89-.85-.06-2.08,0-4.15,0-6.23,0-.58.13-.78.74-.77q3.5.06,7,0c.6,0,.77.17.76.76,0,2.08,0,4.16,0,6.23,0,.71.2.87.87.86,2-.05,4,0,5.92,0,.59,0,.86.06.85.77-.06,2.33,0,4.65,0,7,0,.64-.23.74-.78.73-2,0-4,0-5.92,0-.71,0-1,.14-.94.9.06,2,0,4,0,6,0,.54-.13.72-.7.71-2.36,0-4.71,0-7.07,0-.56,0-.71-.15-.7-.7,0-2,0-4.08,0-6.12,0-.68-.19-.82-.83-.81-2,0-3.94,0-5.91,0-.77,0-.94-.23-.9-.94C162.28,370,162.24,368.86,162.24,367.73Z"/><path class="cls-12" d="M31,222.05q-7.35,10.83-9.29,21.23A60.25,60.25,0,0,0,21,262.57a50.56,50.56,0,0,0,4.69,15.82A37.83,37.83,0,0,0,33,289a31.55,31.55,0,0,1-9-10.31,42.23,42.23,0,0,1-4.49-12.75,53.72,53.72,0,0,1-.72-13.58A68.63,68.63,0,0,1,21,239.5a44,44,0,0,1,4.28-10.61A22,22,0,0,1,31,222.05Zm96.54-58.17a50.78,50.78,0,0,0,5.31,9.9,32.61,32.61,0,0,0,6.12,6.84,10.86,10.86,0,0,0,5.92,2.65c1.91.14,3.61-.82,5.11-2.86q0,9.39-4.6,15.21a20.24,20.24,0,0,1-10.82,7.45A18,18,0,0,1,122,201.74q-6.33-3-9.59-11.12-6.74-15.92-13-24.19T87.8,155.21q-5.4-3-9.59-1.84a13.53,13.53,0,0,0-6.63,3.78q-4.71,5.1-1.13,13.57T86.68,191q6.73,6.53,13.37,14a85.36,85.36,0,0,1,11.33,16.12A64.94,64.94,0,0,1,118,239.81a52.35,52.35,0,0,1-.71,21.64,48.44,48.44,0,0,1-18.78,29.39,49.75,49.75,0,0,1-14.8,7.35,50.63,50.63,0,0,1-16,2.24q-15.51-.4-25.52-6.73a41.91,41.91,0,0,1-15-15.72,45.89,45.89,0,0,1-5.3-20.62,57.3,57.3,0,0,1,3.47-21.53,52.51,52.51,0,0,1,11.32-18.27A38.42,38.42,0,0,1,55,206.74c-.95.69-2.28,1.67-4,3s-3.57,2.9-5.61,4.8q9.18-6.93,18.68-7.65T80.46,210a21,21,0,0,1,9.59,11.43q2.76,7.56-1.33,17.35A21.85,21.85,0,0,0,87.6,228a13.49,13.49,0,0,0-6-7.55,13.33,13.33,0,0,1,3,4.9A26.1,26.1,0,0,1,86,232a24.76,24.76,0,0,1-.41,7A14.7,14.7,0,0,1,83,244.91q1-9.18-3.27-15.2a20.63,20.63,0,0,0-11-8.07,25,25,0,0,0-14.29.11,23.42,23.42,0,0,0-12.65,9.08q6.31-6.53,13.67-8.06a22.83,22.83,0,0,1,13.27.81,18,18,0,0,1,9.08,7.66q3.17,5.31,1.33,12.45-.42-9-5.92-13.47a17.5,17.5,0,0,0-12.45-4.09q-6.94.42-13.57,6T38.1,249q-2.85,12.06.61,20.62A29.28,29.28,0,0,0,49,283a34.53,34.53,0,0,0,15.82,5.92,38.21,38.21,0,0,0,17.35-1.74,36.9,36.9,0,0,0,14.9-9.69q6.52-6.84,8.57-17.86a62,62,0,0,0,.82-15.72A45.58,45.58,0,0,0,102.6,229a60,60,0,0,0-9.49-14.59A140.8,140.8,0,0,0,77.5,199.19Q67.69,191,62.9,183.37a38.33,38.33,0,0,1-5.82-14.28,22.55,22.55,0,0,1,1.23-12.15,27.23,27.23,0,0,1,6.53-9.59,29.8,29.8,0,0,0-4.8,4.18q-1.93,2.15-3.36,3.78a26.9,26.9,0,0,1,8-10.21,33.44,33.44,0,0,1,18.06-6.73q4-.21,6-.21h.82a45.72,45.72,0,0,1,20.51,4.49q9.08,4.5,18.88,15.52a76.53,76.53,0,0,1,5.82,7.34q2.55,3.68,5,6.54a19.75,19.75,0,0,0,4.9,4.28,6.54,6.54,0,0,0,5.31.61,7.4,7.4,0,0,1-2.45,3.58,5.25,5.25,0,0,1-4.7.91q-2.87-.6-6.73-4.59T127.5,163.88ZM34.63,265.94q2.65,10.81,8.57,17a33.17,33.17,0,0,0,13.48,8.78,35.62,35.62,0,0,0,15.61,1.63,45.83,45.83,0,0,0,15-4.29,38.27,38.27,0,0,0,11.84-8.77,22.83,22.83,0,0,0,5.92-11.94,33.49,33.49,0,0,1-8.47,12.55,39.84,39.84,0,0,1-12.65,8,43.27,43.27,0,0,1-14.7,3,36,36,0,0,1-14.49-2.55,34.65,34.65,0,0,1-12.25-8.47A34,34,0,0,1,34.63,265.94ZM77.5,177.35a40.48,40.48,0,0,0,6.22,7.25l8.68,8.26q4.68,4.5,9.59,9.7a76,76,0,0,1,8.78,11.33A58.62,58.62,0,0,1,117,227.26a47.39,47.39,0,0,1,2.14,15.82A55.3,55.3,0,0,0,115.05,226a79.17,79.17,0,0,0-7.65-14A83.14,83.14,0,0,0,98,200.72q-5-5-9.39-9.18t-7.45-7.66A14.51,14.51,0,0,1,77.5,177.35ZM78.92,151a15.94,15.94,0,0,1,3.88.1,18.7,18.7,0,0,1,6.74,2.45A35.42,35.42,0,0,1,98,160.72a60.1,60.1,0,0,1,9.08,14.18,28.36,28.36,0,0,0-3.37-8.16,42.76,42.76,0,0,0-6.73-9,30.69,30.69,0,0,0-8.68-6.33A11.34,11.34,0,0,0,78.92,151Zm31,38q3.87,9.58,9,12.86a18.83,18.83,0,0,0,18.47,1.73c2.52-1.15,4.12-1.94,4.8-2.35a17.24,17.24,0,0,1-8.47,5.82,16.88,16.88,0,0,1-9.9.1,18.33,18.33,0,0,1-8.78-5.92Q111.18,196.75,110,189Z"/><path class="cls-3" d="M130.56,247.77q-.19,1.42-1,6.23a63.85,63.85,0,0,0-.81,10.61,39.65,39.65,0,0,0,1.63,11.33,14.16,14.16,0,0,0,6.33,8.37,9.2,9.2,0,0,1-6.43-4,20.26,20.26,0,0,1-3.17-8.47,37.91,37.91,0,0,1,.11-11.43A58.18,58.18,0,0,1,130.56,247.77ZM196.7,229a4.39,4.39,0,0,1,1.93-1.94,2.47,2.47,0,0,1,2.05-.1,2.52,2.52,0,0,1,1.32,1.43,3.7,3.7,0,0,1-.2,2.65,86.53,86.53,0,0,1-4,8.17q-2.76,5.1-6.23,10.92t-7.35,11.63q-3.87,5.82-7.55,10.51a55.24,55.24,0,0,1-6.94,7.56c-2.18,1.9-4,2.79-5.51,2.65a20.86,20.86,0,0,1-2.55-.51,4.92,4.92,0,0,1-2.14-1.33,4.21,4.21,0,0,0,3.36,2.66c1.43.13,2.62.27,3.58.4-3.13,1.09-5.35,1.09-6.64,0a7.24,7.24,0,0,1-2.45-4.38,16.16,16.16,0,0,1,0-5.72,23.7,23.7,0,0,1,.92-4,36.06,36.06,0,0,1-4.69,8.37,17.75,17.75,0,0,1-5,4.49,12.45,12.45,0,0,1-5.11,1.63,13.71,13.71,0,0,1-4.79-.41,9.49,9.49,0,0,1-6.43-5.1,27,27,0,0,1-2.66-10.31,62.12,62.12,0,0,1,.62-13.88,111.84,111.84,0,0,1,3.57-15.81A131.55,131.55,0,0,1,140,222.26a113.29,113.29,0,0,1,8.17-15.11,8.41,8.41,0,0,1,4-3.57,12.54,12.54,0,0,1,5.1-1.12,10.94,10.94,0,0,1,4.59.92,6,6,0,0,1,2.86,2.34,2.77,2.77,0,0,1,0,2.55,15.22,15.22,0,0,1-1.43,2.76,51.68,51.68,0,0,0-3.37,5.82q-1.93,3.78-4.79,10.3a21.42,21.42,0,0,0,.3-2.24,14.13,14.13,0,0,1,.51-2.65c-1.22,2.45-2.38,4.89-3.47,7.34s-2.18,5.11-3.26,8c-.69,2.05-1.53,4.53-2.55,7.46a90.33,90.33,0,0,0-2.66,9.18,67.28,67.28,0,0,0-1.53,9.29,17.44,17.44,0,0,0,.82,7.75,7.58,7.58,0,0,1-1.84-3.06,12.22,12.22,0,0,0,.41,4.7,3.11,3.11,0,0,0,2.24,2.24c1,.41,2.21-.13,3.78-1.63a34.3,34.3,0,0,0,4.9-6.23,73.39,73.39,0,0,0,5-9.39A93.1,93.1,0,0,0,162,246.34q2.44-8.57,4.18-14.39t3-9.59q1.23-3.78,2-6.13a14.87,14.87,0,0,1,1.84-3.77,7.11,7.11,0,0,1,2.75-2.55,19.08,19.08,0,0,1,4-1.53,52.5,52.5,0,0,0-2.45,5.3q-1.43,3.48-2,5.51c.41-.81.89-1.83,1.43-3.06s1.16-2.45,1.84-3.67a24.79,24.79,0,0,1,2-3.16,4.77,4.77,0,0,1,2.25-1.74,15.44,15.44,0,0,0-1.94,4.18c-.48,1.57-.79,2.63-.92,3.17a11.76,11.76,0,0,1,2.45-5.1q1.83-2.25,3.06-2.25a22.68,22.68,0,0,1,5.31.51c1.35.34,1.7.85,1,1.53q-1.63,1.85-4.19,7.66t-5.82,14.28Q178.54,240,175,250.42t-7.25,21.64c1.23-.27,3.06-2.07,5.51-5.41s5.1-7.25,8-11.74,5.68-9.11,8.47-13.88ZM145.26,239.2q-7.75,20.61-7.65,29.9t6.63,9.29a7.49,7.49,0,0,1-4.9-5.62,25.21,25.21,0,0,1-.2-9.69,88.3,88.3,0,0,1,2.65-11.84Q143.62,244.91,145.26,239.2Zm18.37,32.45a89.67,89.67,0,0,1,2.86-13.06q2.23-8,4.9-15.82t5-14.39a58.86,58.86,0,0,0,2.75-9.19q-1.42,3.48-4,10.31t-5,14.7q-2.44,7.86-4.39,15.41A62.6,62.6,0,0,0,163.63,271.65Z"/><path class="cls-3" d="M318.75,230.22a6,6,0,0,1,2.35-3,3.48,3.48,0,0,1,2.35-.51,2.15,2.15,0,0,1,1.53,1.12,2.58,2.58,0,0,1,.1,2.14,115,115,0,0,1-9.9,19.9,104.66,104.66,0,0,1-12.45,16.33,66.1,66.1,0,0,1-13.68,11.33,32,32,0,0,1-13.57,4.9,21.51,21.51,0,0,1-20.21-11.64,19.56,19.56,0,0,0,5.82,8.07,21.79,21.79,0,0,0,7,3.77A16.36,16.36,0,0,1,259,279.1a18.49,18.49,0,0,1-5.21-7.24,34.16,34.16,0,0,1-2.24-9.39,59,59,0,0,1-.21-9.7,81.52,81.52,0,0,1,.92-8.16q.61-3.57,1-5.21a67,67,0,0,1,6.43-16.84,52.34,52.34,0,0,1,10.51-13.67A31.73,31.73,0,0,1,284,201.34q7.65-2,16.64,1.53a12.69,12.69,0,0,1,7.24,7,23.34,23.34,0,0,1,1.53,11.53,45.36,45.36,0,0,1-3.77,13.78,62.06,62.06,0,0,1-8.47,13.88,59.67,59.67,0,0,1-12.66,11.73A46.31,46.31,0,0,1,268.34,268a7,7,0,0,0,3.47,3.67q5.7,2.87,12.65-.71a52.37,52.37,0,0,0,13.47-10.31,100.3,100.3,0,0,0,12-15.21A141.28,141.28,0,0,0,318.75,230.22Zm-44.49-1.84a48.67,48.67,0,0,0-7.56,13.06,51,51,0,0,0-3.26,13.27,30.72,30.72,0,0,0,.71,11.12q1.32,4.8,4.8,6.23-3.48-3.46-3.88-9.7a48.85,48.85,0,0,1,.92-12.85,70,70,0,0,1,3.67-12.46A37,37,0,0,1,274.26,228.38Zm-7.35,33.47a34.27,34.27,0,0,0,10.3-6.63,47.82,47.82,0,0,0,8.17-9.7,42.58,42.58,0,0,0,5-10.91,20,20,0,0,0,.41-10.52,15.83,15.83,0,0,1,1.22,2.76,17,17,0,0,1,.82,4.18,17.73,17.73,0,0,0,.51-6,5,5,0,0,0-2.14-3.77q-4.09-2.46-8.58.91a31.79,31.79,0,0,0-8.16,9.8,60.15,60.15,0,0,0-5.82,14.6A48.92,48.92,0,0,0,266.91,261.85Zm1-2.65a51.28,51.28,0,0,1,2-13.47,65.89,65.89,0,0,1,4.08-10.61,39.51,39.51,0,0,1,4.49-7.25,31.43,31.43,0,0,1,3.47-3.78,50.64,50.64,0,0,0-9.9,17.76A152.41,152.41,0,0,0,267.93,259.2Zm40.21-40.41a54.24,54.24,0,0,1-6,17.65,70.8,70.8,0,0,1-9.8,13.68,64.12,64.12,0,0,1-11,9.59,61.94,61.94,0,0,1-9.9,5.61,36.3,36.3,0,0,0,12-5.92,64.64,64.64,0,0,0,11.74-10.81,60.53,60.53,0,0,0,9-14.09A42.72,42.72,0,0,0,308.14,218.79Zm-7.76-14.29c-1.36-.54-2.86-1.09-4.49-1.63a17.91,17.91,0,0,0-5.71-.82,27,27,0,0,0-7.45,1.22,34.21,34.21,0,0,0-9.29,4.7c.95-.54,2.35-1.26,4.18-2.14a30.09,30.09,0,0,1,6.33-2.15,35.08,35.08,0,0,1,7.76-.81A25.29,25.29,0,0,1,300.38,204.5Zm4.9,45.72a39.23,39.23,0,0,1-3.57,5,66.86,66.86,0,0,1-6.13,6.53,63.81,63.81,0,0,1-7.55,6.13,21.94,21.94,0,0,1-7.86,3.57,38.16,38.16,0,0,1,3.58-2,39.41,39.41,0,0,0,5.51-3.68q3.15-2.44,7.24-6.12A87.16,87.16,0,0,0,305.28,250.22Z"/><path class="cls-12" d="M376.41,228.28a1.88,1.88,0,0,0-1.22-1.43,2.8,2.8,0,0,0-2,.2A5.64,5.64,0,0,0,371,229q-3.06,5.12-7.35,12.45t-8.57,14.29q-4.29,6.95-8,11.74t-5.3,4.59c-.41,0-.21-1.36.61-4.08s2-6.19,3.67-10.41,3.54-8.91,5.72-14.09,4.35-10.27,6.53-15.3a13.47,13.47,0,0,0,2.75-4.09q1.53-3.06,3-6.32a72.42,72.42,0,0,0,3.06-8.37,5.78,5.78,0,0,0-2.44-2.55,13,13,0,0,0-3.47-1.54c-.55,1-1.23,2.08-2,3.37s-1.63,2.62-2.44,4a40.85,40.85,0,0,1-2.56,3.78,14.5,14.5,0,0,1-2.34,2.55,26.29,26.29,0,0,0,2.45-3.47q1.22-2,2.24-4.08l1.84-3.68a11.53,11.53,0,0,0,1-2.65,10.9,10.9,0,0,0-5.51.2c-.2.08-.41.19-.62.3-1.39,9.82-8.17,16.33-13.47,24.06.82-.27,1.64-.56,2.45-.88-.92.5-1.84.93-2.74,1.31-.38.55-.74,1.11-1.09,1.67a23,23,0,0,0,5.26-2.37,1.43,1.43,0,0,1-.41.31,1.74,1.74,0,0,0-.4.3,9.85,9.85,0,0,0-2.45,3.47,48.93,48.93,0,0,0-3.58,6.84,84.41,84.41,0,0,0-3.16,8.57,76.87,76.87,0,0,0-2.25,9.19,36.72,36.72,0,0,0-.61,8.26,102.18,102.18,0,0,1,5.31-19.79c-.68,2.44-1.29,5.1-1.84,8a121.5,121.5,0,0,0-2.65,14.08,29.41,29.41,0,0,0,0,8.57,6.15,6.15,0,0,0,2.35,4.19,8.3,8.3,0,0,0,4.59,1.12q2.44,0,5.92-3a52.85,52.85,0,0,0,7.14-7.65q3.67-4.69,7.55-10.52t7.15-11.53q3.26-5.72,5.82-10.71t4-8.07A4.53,4.53,0,0,0,376.41,228.28Zm-38.68,40q-1,5.63.41,7.45c-1.5-.27-2.07-2.07-1.73-5.41a71.55,71.55,0,0,1,2.24-11.43,113.71,113.71,0,0,1,4.29-12.75,77.18,77.18,0,0,1,4.59-9.8c-.54,1.36-1.5,3.95-2.86,7.76s-2.69,7.85-4,12.14A111,111,0,0,0,337.73,268.28Z"/><path class="cls-12" d="M347.12,278.69a21.88,21.88,0,0,1-5,3.68,7.47,7.47,0,0,1-4.8.92q4.69,1.62,9.19-2.86a51.86,51.86,0,0,0,8.57-12,57.94,57.94,0,0,1-3.47,5.2A39.77,39.77,0,0,1,347.12,278.69Z"/><path class="cls-3" d="M255.24,232.89a4.66,4.66,0,0,1,2.1-2.24,2.84,2.84,0,0,1,2.2-.24,2.15,2.15,0,0,1,1.25,1.65,5,5,0,0,1-.31,2.95q-1.68,4-4.29,9.89t-6.08,12.5q-3.45,6.6-7.32,13.31t-7.64,12a52.7,52.7,0,0,1-7.44,8.6q-3.66,3.3-6.59,3.3a8,8,0,0,1-3.56-.71,2.9,2.9,0,0,1-1.26-.47,8.29,8.29,0,0,0,1.89,2.83A5.74,5.74,0,0,1,213.9,292a26.6,26.6,0,0,1-1.15-8.25,53.93,53.93,0,0,1,.52-7.19q.53-3.89,1.57-8.36,1.68-8,4.19-16.5t4.6-15.55c1.4-4.72,2.41-8.68,3-11.91s.52-5-.32-5.3c-1.67-.47-4,1.81-7.11,6.84a4.51,4.51,0,0,1,1.88-.47,4.36,4.36,0,0,1,1.47.23q-3.57,0-9.42,11.31c-.71,1.58-1.47,3.22-2.31,5s-1.67,3.54-2.51,5.42Q206,252.69,203,259.4t-6.59,15.2q-9.84,23.56-24.08,59.15c-.42.94-1.18,1.18-2.3.71a10.2,10.2,0,0,1-3.35-2.48,14.89,14.89,0,0,1-2.72-4,5.3,5.3,0,0,1-.21-4.36c.42-1.1.8-2.16,1.15-3.18s.66-2.09.94-3.18a27.75,27.75,0,0,1-4.18,6.12q4.4-8.47,9.63-25.33t14-44.66q3.36-11.31,5.65-19.33T194.85,221q1.56-5.05,2.61-7.89a13.14,13.14,0,0,1,2.1-4,12.4,12.4,0,0,1,3.56-2.82c1.81-1.1,3.21-1.5,4.18-1.18a7.27,7.27,0,0,0,2.41-.83,15.82,15.82,0,0,1,3.56-1.18,2.48,2.48,0,0,1,2.62.71q.83,1.07-.42,5.07c-.14.31-.53,1.38-1.15,3.18s-1.44,4-2.41,6.6-2.06,5.42-3.25,8.48-2.3,6-3.35,9-2,5.54-2.93,7.89-1.57,4.09-2,5.19q6.92-16,12.25-26.4a112.36,112.36,0,0,1,9.74-16.14q4.4-5.78,8.27-7.66a12,12,0,0,1,7.64-1.18q10.88,2.13,6.28,21-.21,1.17-1.89,6.24t-4,12.14q-2.31,7.06-4.92,15.08t-4.61,14.73q-2,6.72-3.24,11.19t-.63,4.48c1.11,0,2.93-1.84,5.44-5.54s5.23-8.16,8.17-13.43,5.86-10.76,8.79-16.5S253.15,236.66,255.24,232.89ZM205.63,254.8q-.84,2.83-2.62,8.13t-4.39,12.14Q196,281.91,193,289.68t-6.38,15.44q-3.35,7.65-6.6,14.73t-6.17,12.49l3.66-9.08q2.63-6.48,6.07-14.72t7.12-17.33q3.66-9.06,6.8-16.85t5.34-13.08Q205,256,205.63,254.8Zm-31,62c.41-1.1,1.22-3.22,2.4-6.36s2.59-6.76,4.19-10.84,3.32-8.48,5.13-13.2,3.52-9.11,5.13-13.19,3-7.66,4.29-10.73,2.09-5.06,2.51-6a50,50,0,0,0-2.93,6q-1.89,4.37-4.29,10.14t-5,12.37q-2.61,6.6-4.92,12.84t-4.08,11.31C175.87,312.5,175.06,315.05,174.65,316.78Zm36.63-108.17c-.28.95-1,2.87-2.09,5.78l-3.67,9.54q-2,5.19-3.66,10.25a60.13,60.13,0,0,0-2.09,7.43l2.19-5.78q1.57-4.11,3.46-9.19t3.56-10A71.73,71.73,0,0,0,211.28,208.61Zm6.07,57q2.93-7.77,5.55-15.79t4.4-14.61a93.28,93.28,0,0,0,2.4-11.19c.42-3.07.21-4.83-.62-5.3.55.63.55,2.35,0,5.18s-1.47,6.36-2.73,10.61-2.68,9-4.29,14.37S218.89,259.83,217.35,265.64Zm13-.7q2.52-9.19,6.49-19.56t6.81-19.8a74.14,74.14,0,0,0,3.24-16.73q.42-7.31-4.19-10.37,4.19.24,5.13,4.83a31.69,31.69,0,0,1-.21,11.43,113.34,113.34,0,0,1-3.66,14.85q-2.52,8-5.34,15.31t-5.23,12.85Q231,263.28,230.33,264.94Z"/><path class="cls-3" d="M232.89,251.8c.89-2.53-3-4.57-4.56-2-.4.67-.81,1.34-1.22,2h-7.9c-2,12.41-13.38,25.49-24.44,30.43l-.49.19c-.09.29-.18.57-.28.87a18.61,18.61,0,0,1-.85,2.21c.2.89-.13,1.3-.13,2.3-1.87.8,0,1,3.3,0a45.13,45.13,0,0,0,16.14-8.13,64.58,64.58,0,0,0,13-13.55,73.46,73.46,0,0,0,8-14.3Z"/><path class="cls-3" d="M232.74,219.47c-.69-3.13-5.5-1.81-4.81,1.33.57,2.59-.66,5.26-1.39,7.69-.82,2.74-1.3,5.56-1.85,8.36a43.85,43.85,0,0,1-2.19,8,26,26,0,0,0-1.26,3.63,24.49,24.49,0,0,1-.87,4.1,2.58,2.58,0,0,0,.89,3.42,2.52,2.52,0,0,0,3.42-.9,20.93,20.93,0,0,0,1.2-4.42,21.27,21.27,0,0,1,1.28-4.11,46.94,46.94,0,0,0,2.43-8.79,80,80,0,0,1,2-8.79C232.61,225.82,233.47,222.75,232.74,219.47Z"/><path class="cls-3" d="M33,220.69q-7.35,10.81-9.29,21.23A60.25,60.25,0,0,0,23,261.21,50.56,50.56,0,0,0,27.66,277,37.83,37.83,0,0,0,35,287.64a31.65,31.65,0,0,1-9-10.31,42.29,42.29,0,0,1-4.49-12.76A53.64,53.64,0,0,1,20.82,251,68.49,68.49,0,0,1,23,238.14a44,44,0,0,1,4.28-10.61A22,22,0,0,1,33,220.69Zm96.54-58.17a51.07,51.07,0,0,0,5.31,9.9,32.61,32.61,0,0,0,6.12,6.84,10.83,10.83,0,0,0,5.92,2.65c1.91.14,3.61-.82,5.11-2.86q0,9.39-4.6,15.21a20.24,20.24,0,0,1-10.82,7.45A18,18,0,0,1,124,200.38q-6.33-3-9.59-11.12-6.73-15.93-13-24.19T89.81,153.84q-5.4-3-9.59-1.83a13.6,13.6,0,0,0-6.63,3.77q-4.71,5.11-1.13,13.58t16.23,20.31q6.74,6.53,13.37,14a85.36,85.36,0,0,1,11.33,16.12A64.94,64.94,0,0,1,120,238.45a52.3,52.3,0,0,1-.71,21.63,48.42,48.42,0,0,1-18.78,29.4,49.49,49.49,0,0,1-14.8,7.34,50.36,50.36,0,0,1-16,2.25q-15.51-.4-25.52-6.74a42,42,0,0,1-15-15.71A45.89,45.89,0,0,1,23.89,256a57.3,57.3,0,0,1,3.47-21.53A52.51,52.51,0,0,1,38.68,216.2a38.34,38.34,0,0,1,18.37-10.82q-1.42,1-4,3c-1.7,1.3-3.57,2.89-5.61,4.8q9.18-6.94,18.68-7.66t16.33,3.17a21,21,0,0,1,9.59,11.43q2.76,7.54-1.33,17.35a21.84,21.84,0,0,0-1.12-10.82,13.46,13.46,0,0,0-6-7.55,13.33,13.33,0,0,1,3,4.9A26.1,26.1,0,0,1,88,230.59a24.76,24.76,0,0,1-.41,7A14.7,14.7,0,0,1,85,243.55q1-9.18-3.27-15.2a20.63,20.63,0,0,0-11-8.07,24.94,24.94,0,0,0-14.29.11,23.37,23.37,0,0,0-12.65,9.08q6.32-6.54,13.67-8.06a22.83,22.83,0,0,1,13.27.81,18,18,0,0,1,9.08,7.66c2.11,3.54,2.55,7.68,1.33,12.45q-.42-9-5.92-13.47a17.46,17.46,0,0,0-12.45-4.09q-6.94.42-13.57,6t-9.09,16.84q-2.86,12,.61,20.62A29.33,29.33,0,0,0,51,281.62a34.64,34.64,0,0,0,15.82,5.92A38.35,38.35,0,0,0,84.2,285.8a36.9,36.9,0,0,0,14.9-9.69q6.53-6.84,8.57-17.86a62,62,0,0,0,.82-15.72,45.58,45.58,0,0,0-3.88-14.9A60,60,0,0,0,95.12,213a140.8,140.8,0,0,0-15.61-15.21Q69.7,189.67,64.91,182a38.3,38.3,0,0,1-5.82-14.29,22.51,22.51,0,0,1,1.23-12.14A27.23,27.23,0,0,1,66.85,146a29.8,29.8,0,0,0-4.8,4.18q-1.94,2.15-3.36,3.78a26.9,26.9,0,0,1,8-10.21A33.44,33.44,0,0,1,84.71,137q4-.21,6-.21h.82a45.72,45.72,0,0,1,20.51,4.49q9.07,4.5,18.88,15.51a77.88,77.88,0,0,1,5.82,7.35,80.77,80.77,0,0,0,5,6.53,19.61,19.61,0,0,0,4.9,4.29,6.54,6.54,0,0,0,5.31.61,7.42,7.42,0,0,1-2.45,3.57,5.23,5.23,0,0,1-4.7.92q-2.87-.62-6.73-4.59T129.51,162.52Zm-92.87,102q2.65,10.83,8.57,17.05a33.17,33.17,0,0,0,13.48,8.78A35.62,35.62,0,0,0,74.3,292a45.83,45.83,0,0,0,15-4.29A38.14,38.14,0,0,0,101.14,279,22.76,22.76,0,0,0,107.06,267a33.45,33.45,0,0,1-8.47,12.56,39.78,39.78,0,0,1-12.66,8,43.4,43.4,0,0,1-14.69,3A36,36,0,0,1,56.75,288a34.65,34.65,0,0,1-12.25-8.47A34,34,0,0,1,36.64,264.57ZM79.51,176a40.48,40.48,0,0,0,6.22,7.25l8.68,8.26q4.68,4.5,9.59,9.7a75.48,75.48,0,0,1,8.78,11.33A58.62,58.62,0,0,1,119,225.9a47.36,47.36,0,0,1,2.14,15.81,55.23,55.23,0,0,0-4.08-17,79.17,79.17,0,0,0-7.65-14A83.14,83.14,0,0,0,100,199.36q-5-5-9.39-9.18t-7.45-7.66A14.51,14.51,0,0,1,79.51,176Zm1.42-26.33a15.94,15.94,0,0,1,3.88.1,18.7,18.7,0,0,1,6.74,2.45,35.42,35.42,0,0,1,8.47,7.15,60.1,60.1,0,0,1,9.08,14.18,28.36,28.36,0,0,0-3.37-8.16,42.76,42.76,0,0,0-6.73-9,30.69,30.69,0,0,0-8.68-6.33A11.34,11.34,0,0,0,80.93,149.66Zm31,38q3.87,9.6,9,12.86a18.8,18.8,0,0,0,18.47,1.74q3.78-1.74,4.8-2.35a17.24,17.24,0,0,1-8.47,5.82,17,17,0,0,1-9.9.1,18.33,18.33,0,0,1-8.78-5.92Q113.19,195.39,112,187.62Z"/><path class="cls-3" d="M371,229.63a5.64,5.64,0,0,1,2.15-1.94,2.71,2.71,0,0,1,2-.2,1.88,1.88,0,0,1,1.22,1.43,4.53,4.53,0,0,1-.3,2.75q-1.44,3.06-4,8.06t-5.82,10.72Q363,256.16,359.17,262t-7.55,10.51a52.45,52.45,0,0,1-7.14,7.66q-3.48,3-5.92,3A8.29,8.29,0,0,1,334,282c-1.16-.74-1.94-2.14-2.35-4.18a29.41,29.41,0,0,1,0-8.57,121.12,121.12,0,0,1,2.65-14.08q.83-4.29,1.84-8A102.48,102.48,0,0,0,330.8,267a36.68,36.68,0,0,1,.61-8.26,76.4,76.4,0,0,1,2.25-9.19,84.41,84.41,0,0,1,3.16-8.57,48.93,48.93,0,0,1,3.58-6.84,9.85,9.85,0,0,1,2.45-3.47,1.74,1.74,0,0,1,.4-.3,1.43,1.43,0,0,0,.41-.31,23.59,23.59,0,0,1-10.31,3.37,35.68,35.68,0,0,1-9.9-.31q-.81,1.64-1.83,3.57c-.68,1.3-1.36,2.69-2,4.19-.14.13-.45.1-.92-.11a10.43,10.43,0,0,1-1.53-.81,12.64,12.64,0,0,1-1.43-1,1.35,1.35,0,0,1-.61-.92c.68-1.09,1.32-2.18,1.94-3.27s1.19-2.17,1.73-3.26q-3.67-2-4.29-8a25.65,25.65,0,0,1,1.64-11.84,21.31,21.31,0,0,1,7.55-9.8q5.31-3.87,13.67-2a14.59,14.59,0,0,0-13.26,4.49,13.06,13.06,0,0,1,5.61-2.75,6.73,6.73,0,0,1,4.59.51,5.09,5.09,0,0,1,2.45,3.36,8.68,8.68,0,0,1-.81,5.62q-.82,1.63-2.45,4.59c-1.09,2-2,3.71-2.86,5.2a21.14,21.14,0,0,0,8.57-2.85,40,40,0,0,0,6.33-4.7q2.65-2.45,4.69-4.59a10.72,10.72,0,0,1,3.68-2.76,10.9,10.9,0,0,1,5.51-.2,11.53,11.53,0,0,1-1,2.65l-1.84,3.68q-1,2-2.24,4.08a26.29,26.29,0,0,1-2.45,3.47,14.5,14.5,0,0,0,2.34-2.55,40.85,40.85,0,0,0,2.56-3.78c.81-1.36,1.63-2.68,2.44-4s1.5-2.41,2.05-3.37a13.32,13.32,0,0,1,3.47,1.53,5.79,5.79,0,0,1,2.44,2.56,71.55,71.55,0,0,1-3.06,8.36q-1.43,3.27-3,6.33a13.26,13.26,0,0,1-2.75,4.08q-3.27,7.56-6.53,15.31t-5.72,14.09q-2.44,6.33-3.67,10.41c-.82,2.72-1,4.08-.61,4.08,1.08.14,2.85-1.4,5.3-4.59s5.1-7.11,8-11.74,5.72-9.39,8.57-14.29S369,233,371,229.63Zm-41.84-22.25a3.08,3.08,0,0,0-2.55,1,8.82,8.82,0,0,0-2.14,3.17,10.57,10.57,0,0,0-.82,4.18,5.48,5.48,0,0,0,1.22,3.68,8.15,8.15,0,0,1-.61-2.45,9.23,9.23,0,0,1,.21-3.37,11,11,0,0,1,1.53-3.47A7.77,7.77,0,0,1,329.17,207.38Zm-4.08,24.7a24.88,24.88,0,0,0,7,.41,23.63,23.63,0,0,0,10.1-3.06A38.44,38.44,0,0,1,325.09,232.08ZM329.78,209c.14-.41-.07-.44-.61-.11a6.75,6.75,0,0,0-1.73,1.74,10.46,10.46,0,0,0-1.54,3.16,6.75,6.75,0,0,0,0,4c.68-1.22,1.47-2.85,2.35-4.9A36,36,0,0,0,329.78,209ZM349.17,207a11.67,11.67,0,0,1-2.55,4,34,34,0,0,1-4.29,4,37.84,37.84,0,0,1-4.69,3.16,8.77,8.77,0,0,1-4.18,1.33,22.18,22.18,0,0,0,7.34-4.8Zm-11,69.4q-1.42-1.83-.41-7.45a111,111,0,0,1,3-12c1.29-4.29,2.62-8.33,4-12.15s2.32-6.39,2.86-7.75a76.51,76.51,0,0,0-4.59,9.8,113.71,113.71,0,0,0-4.29,12.75A71.55,71.55,0,0,0,336.42,271C336.08,274.3,336.65,276.1,338.15,276.37Zm-.82,7.55a7.4,7.4,0,0,0,4.8-.91,21.88,21.88,0,0,0,5-3.68,39.77,39.77,0,0,0,4.49-5.1,56.61,56.61,0,0,0,3.47-5.21,51.72,51.72,0,0,1-8.57,12.05Q342,285.56,337.33,283.92Z"/><path class="cls-2" d="M222.4,256.19a41.52,41.52,0,0,1-1.69,4.59,47.74,47.74,0,0,1-3.88,9,21.75,21.75,0,0,1-8.26,7.94,19.19,19.19,0,0,0,6.7-4.41,21.79,21.79,0,0,0,4.22-6.63,78.5,78.5,0,0,0,3.51-9.9c.57-2,1.09-3.94,1.57-5.87C223.81,252.63,223.07,254.39,222.4,256.19Z"/><path class="cls-2" d="M240.4,221.36c.17-1.28.43-2.5.48-3.64a54.2,54.2,0,0,0,.7-7.19,15.65,15.65,0,0,0-1.38-7.06,10.12,10.12,0,0,1,1.64,4.22,21.45,21.45,0,0,1,0,5.52q-.31,3.49-1.09,7.83c-.27,1.55-.56,3.07-.85,4.57C240.07,224.2,240.22,222.79,240.4,221.36Z"/><path class="cls-12" d="M246.34,35.35a56.71,56.71,0,0,1,6.53-9.7A53.29,53.29,0,0,1,259,19.53a21,21,0,0,1,5.11-3.26c1.49-.62,2.65-1.06,3.47-1.33a187.82,187.82,0,0,0-18.78,29.19q-9.39,17.55-18,36.74t-15.62,37.55q-7,18.37-11.73,31.85-2.25,7.14-4.7,10.2a9.68,9.68,0,0,1-4.9,3.68,6.77,6.77,0,0,1-4.49-.31,14.35,14.35,0,0,1-3.06-1.74q-4.08-4.48-5.61-16.63a148,148,0,0,1-.21-29.29,330,330,0,0,1,5.41-37.86,356.44,356.44,0,0,1,11-41.95,45.28,45.28,0,0,1-4.19,8.88q-2.76,4.59-6.53,10.82t-8.37,14.49q-4.59,8.26-9.59,19.7t-10.11,26.63q-5.1,15.21-9.79,35.21a7.3,7.3,0,0,1-3.07,4.39,10.7,10.7,0,0,1-4.89,2,5.27,5.27,0,0,1-4.19-1.12c-1.15-.95-1.53-2.65-1.12-5.1a335.91,335.91,0,0,1,8.67-35.21q5.21-17,11.43-32t12.66-27.66q6.44-12.64,12.25-22.24a189.83,189.83,0,0,1,10.51-15.82q4.69-6.22,7.35-8.27a9.93,9.93,0,0,1,6.53-4.39,21.21,21.21,0,0,1,8-.3q-.83,3.46-2.55,10.41c-1.16,4.62-2.28,9.39-3.37,14.28q1-3.25,2.14-7c.75-2.51,1.46-4.9,2.14-7.14s1.33-4.25,1.94-6A39.13,39.13,0,0,1,214.29,7a10.87,10.87,0,0,1,3.27,1.73A3.24,3.24,0,0,1,219,11.27a.88.88,0,0,1-.1.51.41.41,0,0,0-.11.3c-.27.82-.58,1.67-.91,2.55s-.65,1.81-.92,2.76q-5.31,16.74-9.29,33.47T200.93,82.6q-2.76,15-4.29,27.35t-2.14,19.9a31,31,0,0,1-1.23-6.73q-.41,6.12-.51,11.74a96,96,0,0,0,.31,10.3q2.44-9.39,6.22-22.25t8.27-26.84q4.49-14,9.8-28.16t10.81-26.23A177.38,177.38,0,0,1,239.3,20.76q5.61-8.88,11.12-12.35-1,1.63-3.26,5.71t-5.51,11a69.67,69.67,0,0,1,8.67-11.33A26.91,26.91,0,0,1,260.42,7a88.89,88.89,0,0,0-7.24,8.67,104.57,104.57,0,0,0-6.94,11q-3.57,6.42-7.45,15.41T230,63.72q3.87-8.56,7.25-16.74t7.24-15.41A80.12,80.12,0,0,1,253,18.72a34.23,34.23,0,0,1,10.92-8.88c-1.22,1.36-2.79,3.33-4.69,5.92s-3.78,5.2-5.61,7.85-3.44,5.11-4.8,7.35A41.53,41.53,0,0,0,246.34,35.35Zm-108,117q5.31-19.4,12.46-39.5t15.1-38.58q8-18.47,16.64-34.18a220,220,0,0,1,17-26.74q-2.65,2.25-7.66,9.08A191.88,191.88,0,0,0,181,39.53q-5.91,10.32-12.45,23.38T156.22,90.66q-5.81,14.7-10.61,30.42A230.52,230.52,0,0,0,138.36,152.31Zm16.54-16.95a92.71,92.71,0,0,1,4.69-19.69q3.89-11.53,9.09-23.37t10.81-22.45A154.86,154.86,0,0,1,189.6,52.9q-1.64,3.89-5.72,12.25t-9.18,19.6Q169.58,96,164.29,109T154.9,135.36Zm30,17.35a183.07,183.07,0,0,1-.51-26.73q.72-13.89,2.76-28.07t5.1-28.47q3.06-14.3,6.74-28.37-1.44,3.68-3.58,11.22t-4.28,17.45q-2.15,9.92-4.08,21.33T184,113.63A192.48,192.48,0,0,0,183,135,79.45,79.45,0,0,0,184.9,152.71Zm24.29-22.86a189.79,189.79,0,0,1,6.23-18.37q4-10.2,8.16-20.2t8-18.47q3.78-8.48,5.41-13.17a119.37,119.37,0,0,0-7.35,13.67q-4.48,9.41-8.77,20.21t-7.56,20.82A103.06,103.06,0,0,0,209.19,129.85ZM239.81,17.19a75.79,75.79,0,0,0-6.94,11.53Q229.2,36,225.62,44.13t-6.73,16.22q-3.16,8.07-5.21,13.78a111.57,111.57,0,0,1,4.08-15.2q3.08-9.3,6.94-18.17a141.5,141.5,0,0,1,8-15.72Q236.74,18.21,239.81,17.19Z"/><path class="cls-3" d="M302.06,97a4.27,4.27,0,0,1,2-1.94,3.1,3.1,0,0,1,2.14-.2,2.13,2.13,0,0,1,1.33,1.43,4,4,0,0,1-.2,2.75,56.41,56.41,0,0,1-5.11,10.11,49.65,49.65,0,0,1-6.73,8.47,30.59,30.59,0,0,1-7.66,5.71,17.1,17.1,0,0,1-7.85,2,92.48,92.48,0,0,1-7.15,10.72,50.83,50.83,0,0,1-8.16,8.47,30.16,30.16,0,0,1-8.88,5.1,15.48,15.48,0,0,1-8.88.62,17.23,17.23,0,0,1-11.12-7.05,30.33,30.33,0,0,1-5.11-13.57,56.63,56.63,0,0,1,.41-17.15A68.45,68.45,0,0,1,236.54,95a55.56,55.56,0,0,1,9.9-14.8,33.64,33.64,0,0,1,13.78-9.08,28.56,28.56,0,0,0-9.09,3.27,30.79,30.79,0,0,0-8.26,6.94A21.83,21.83,0,0,1,254.3,70.87a33.13,33.13,0,0,1,15.31-2.45,27.44,27.44,0,0,1,13.77,4.79A16.35,16.35,0,0,1,290.43,85a37.58,37.58,0,0,1-.52,13.57,97.66,97.66,0,0,1-6.42,19.5,14.25,14.25,0,0,0,6.32-3.78,44.44,44.44,0,0,0,5.51-6.43q2.46-3.47,4.29-6.53T302.06,97Zm-70.62,39a20.41,20.41,0,0,0,4,8.47,17,17,0,0,0,8.26,5.92q5.1,1.73,12-.1t15.3-9.8a26.87,26.87,0,0,1-10.71,9.69,24.06,24.06,0,0,1-12.66,2.66,18.56,18.56,0,0,1-10.92-4.6Q232.06,144.14,231.44,136Zm1.22-20.21q-1.64,12.66,1.23,19.7t7.55,10.1a18.35,18.35,0,0,1-5.72-7.55,37.09,37.09,0,0,1-2.45-9,62.28,62.28,0,0,1-.61-8.17Zm14.7,24.09a8.45,8.45,0,0,0,5.92-.11,20.72,20.72,0,0,0,6.12-3.67,35.17,35.17,0,0,0,5.82-6.33,74.76,74.76,0,0,0,5.2-8.26,10.22,10.22,0,0,1-5.51-4.8,17.93,17.93,0,0,1-2.24-8.27,22.47,22.47,0,0,0,0,6.13,17.8,17.8,0,0,1-1.33-10.21,24,24,0,0,1,8.16-14.08,26.78,26.78,0,0,1,4.39-3.07,12.13,12.13,0,0,0-1.63-1A11.8,11.8,0,0,0,261.75,88a34.3,34.3,0,0,0-9.08,9.8,51.24,51.24,0,0,0-2.66,5.1,70.59,70.59,0,0,0-3.06,7.76,47.94,47.94,0,0,0-2,9.18,28.06,28.06,0,0,0,.41,9.6,9.55,9.55,0,0,1-2-4.29,29.3,29.3,0,0,0,.3,9.59Q244.5,138.84,247.36,139.86ZM269,83.32a6.92,6.92,0,0,0-6.12,0,21.22,21.22,0,0,0-6.22,4.28,33.09,33.09,0,0,0-5.21,6.53,21.21,21.21,0,0,0-2.86,6.74q4.69-10,10.62-13.78T269,83.32Zm-15.51,58.37a18.62,18.62,0,0,0,6.74-3,26.66,26.66,0,0,0,8.67-9.9,18.56,18.56,0,0,0,1.74-4.89A38.07,38.07,0,0,1,264.2,134,29.77,29.77,0,0,1,253.48,141.69Zm18.37-27.14a8.47,8.47,0,0,1-1.94-4.9,15.84,15.84,0,0,1,.61-6.13A17.82,17.82,0,0,1,273.28,98,10,10,0,0,1,278,94.54,7.54,7.54,0,0,0,273,97a13.87,13.87,0,0,0-3.16,5.41,14.64,14.64,0,0,0-.61,6.43A10.12,10.12,0,0,0,271.85,114.55Zm2-.41a40.92,40.92,0,0,0,2.86-9.7,53.76,53.76,0,0,0,.82-8.26,12.12,12.12,0,0,0-3.37,3.57,17.75,17.75,0,0,0-2.25,4.9,11.76,11.76,0,0,0-.3,5.1A7.84,7.84,0,0,0,273.89,114.14ZM291,94.54a25.41,25.41,0,0,0,.41-8.88,24.16,24.16,0,0,0-1.94-6.53,20.09,20.09,0,0,0-2.76-4.39,17.64,17.64,0,0,0-2.24-2.24,6.7,6.7,0,0,1,4.18,2.55,16.64,16.64,0,0,1,2.76,5.31,20.62,20.62,0,0,1,.91,6.94A23.72,23.72,0,0,1,291,94.54Z"/><path class="cls-3" d="M352.88,97a4.31,4.31,0,0,1,2-1.94,3.38,3.38,0,0,1,2.25-.2,2.15,2.15,0,0,1,1.43,1.43,4.68,4.68,0,0,1-.41,3.16A70.52,70.52,0,0,1,351,111.79a59.72,59.72,0,0,1-11.43,12.35A25.49,25.49,0,0,1,337.78,135a25,25,0,0,1-5.62,8.37,25.71,25.71,0,0,1-8.36,5.4,26.6,26.6,0,0,1-10.11,1.94h-2a3.24,3.24,0,0,1-1-.2h-.41a.84.84,0,0,0-.61-.2h-.2a18.91,18.91,0,0,1-8.47-3.78,15.51,15.51,0,0,1-4.8-6.43,14.62,14.62,0,0,1-.82-7.65,15.29,15.29,0,0,1,3.47-7.45,12.68,12.68,0,0,1,7-4.39,21.58,21.58,0,0,1,7.56-.1,41.9,41.9,0,0,1,7,1.73,13.54,13.54,0,0,0,5.51.92.8.8,0,0,0,.51-.1.42.42,0,0,1,.31-.11,9.62,9.62,0,0,0-3-5.2,65.82,65.82,0,0,0-5.82-5.1q-3.27-2.55-6.63-5.21a24.5,24.5,0,0,1-5.41-5.71c-.69,1.09-1.2,1.94-1.54,2.55s-.85,1.46-1.53,2.55a1.17,1.17,0,0,1-1.22.51,3.53,3.53,0,0,1-1.63-.71,5.29,5.29,0,0,1-1.33-1.43,1.25,1.25,0,0,1-.1-1.43c.54-1,1.09-1.87,1.63-2.76s1.23-2.07,2-3.57a20.85,20.85,0,0,1-1.12-11.53,18.57,18.57,0,0,1,4.39-9,15.41,15.41,0,0,1,8-4.7,13.94,13.94,0,0,1,9.8,1.53c.27,0-.38-.47-1.94-1.43s-3.92-1.35-7.05-1.22a8.69,8.69,0,0,1,3.07-.92,12.53,12.53,0,0,1,4.18.1,13.28,13.28,0,0,1,4.08,1.53A6.32,6.32,0,0,1,328.39,75a15.32,15.32,0,0,1,.71,4.18,12.07,12.07,0,0,1-.81,4.8,16.12,16.12,0,0,1-3,4.8,19.1,19.1,0,0,1-5.51,4.18c-.28,1.09.3,2.08,1.73,3a56.21,56.21,0,0,1,5.21,3.78,43.84,43.84,0,0,1,6.32,6.42,28.71,28.71,0,0,1,5.11,10.72A51.72,51.72,0,0,0,347.47,106Q351.25,100.06,352.88,97ZM299.2,149.65q15.51,4.48,26.54-.51t14.69-18.47q-1.64,10.22-6.94,15.1a25.16,25.16,0,0,1-11.74,6.33,33.16,33.16,0,0,1-12.65.41A35.17,35.17,0,0,1,299.2,149.65Zm24.09-19.39c-1.37-.13-3-.27-4.8-.41a27.48,27.48,0,0,0-5.31.11,10.84,10.84,0,0,0-4.28,1.32,4,4,0,0,0-1.94,3.27,8.15,8.15,0,0,1,4.49-3.27Q314.51,130.26,323.29,130.26Zm-9,13.27a16,16,0,0,0,2.86-.2c3.95-.55,6.8-2.32,8.58-5.31a16.7,16.7,0,0,0,2.65-8.37,33.69,33.69,0,0,1-7,1.22q-3.37.21-6.13.62a19.68,19.68,0,0,0-4.69,1.22,5,5,0,0,0-2.76,3.06c-.81,2.32-.51,4.12.92,5.41A9.78,9.78,0,0,0,314.3,143.53Zm-6.53-43.27A14.13,14.13,0,0,0,312,106q2.75,2.25,5.82,4.39a48.58,48.58,0,0,1,5.91,4.9,21.28,21.28,0,0,1,4.7,7,15.13,15.13,0,0,0-3.78-6.53,66.87,66.87,0,0,0-6-5.51q-3.27-2.66-6.33-5A15.94,15.94,0,0,1,307.77,100.26ZM324.1,86.58A17.17,17.17,0,0,1,321.55,89a13.75,13.75,0,0,1-3.57,2,15.3,15.3,0,0,1-4.59,1,10.26,10.26,0,0,1-5.21-1,6.52,6.52,0,0,0,3.37,1.33,13.81,13.81,0,0,0,4.39-.1,13.54,13.54,0,0,0,4.49-1.74A9.94,9.94,0,0,0,324.1,86.58Zm1.64,2.86a19,19,0,0,0,4.18-7.76,10.94,10.94,0,0,0-.31-6.83,8.83,8.83,0,0,0-4.79-4.6,17.93,17.93,0,0,0-9.29-1q6.93-1.83,11-.1a9.38,9.38,0,0,1,5.41,5.1,10.7,10.7,0,0,1-.2,7.66A16.1,16.1,0,0,1,325.74,89.44Zm-3.47,6.33a12.52,12.52,0,0,1,5.91,2.55,24.74,24.74,0,0,1,5.11,5.2,33.61,33.61,0,0,1,3.67,6.33,18.46,18.46,0,0,1,1.63,5.92,26.4,26.4,0,0,0-3.06-7.65,29.9,29.9,0,0,0-4.39-5.72,35.21,35.21,0,0,0-4.69-4Q324.1,96.79,322.27,95.77Zm.2,52.25a10.49,10.49,0,0,0,4.18-1.63,25.86,25.86,0,0,0,4.49-3.47,24.46,24.46,0,0,0,3.78-4.6,16.61,16.61,0,0,0,2.24-5,12.17,12.17,0,0,1-1.42,3.17,25.53,25.53,0,0,1-3.27,4.39,40.2,40.2,0,0,1-4.59,4.28A15.4,15.4,0,0,1,322.47,148Z"/><path class="cls-12" d="M398.18,228.32a12.52,12.52,0,0,0-5.91-2.55q1.83,1,4.18,2.65a35.21,35.21,0,0,1,4.69,4,29.9,29.9,0,0,1,4.39,5.72,26.4,26.4,0,0,1,3.06,7.65,18.46,18.46,0,0,0-1.63-5.92,33.61,33.61,0,0,0-3.67-6.33A24.74,24.74,0,0,0,398.18,228.32Z"/><path class="cls-12" d="M395.74,279.14q-11,5-26.54.51a35.17,35.17,0,0,0,9.9,2.86,33.16,33.16,0,0,0,12.65-.41,25.16,25.16,0,0,0,11.74-6.33q5.31-4.89,6.94-15.1Q406.76,274.14,395.74,279.14Z"/><path class="cls-12" d="M391.18,219.3h-6.4v2.63a14.86,14.86,0,0,0,3.2-.86A13.84,13.84,0,0,0,391.18,219.3Z"/><path class="cls-12" d="M428.6,226.28a2.15,2.15,0,0,0-1.43-1.43,3.38,3.38,0,0,0-2.25.2,4.31,4.31,0,0,0-2,1.94q-1.63,3.06-5.41,9a51.72,51.72,0,0,1-9.28,10.82,28.71,28.71,0,0,0-5.11-10.72,43.84,43.84,0,0,0-6.32-6.42,56.21,56.21,0,0,0-5.21-3.78c-1.43-.88-2-1.87-1.73-3a19.79,19.79,0,0,0,4.95-3.61h-2.72a9.18,9.18,0,0,1-1.62,1.26,13.54,13.54,0,0,1-4.49,1.74c-.39.07-.78.12-1.16.16v14.76c1.25,1,2.51,2,3.81,3a66.87,66.87,0,0,1,6,5.51,15.13,15.13,0,0,1,3.78,6.53,21.28,21.28,0,0,0-4.7-7,48.58,48.58,0,0,0-5.91-4.9c-1-.72-2-1.44-3-2.18v1.92l3.2,2.51a65.82,65.82,0,0,1,5.82,5.1,9.62,9.62,0,0,1,3,5.2.42.42,0,0,0-.31.11.8.8,0,0,1-.51.1,13.54,13.54,0,0,1-5.51-.92,41.9,41.9,0,0,0-7-1.73,21.58,21.58,0,0,0-7.56.1,12.68,12.68,0,0,0-7,4.39,15.29,15.29,0,0,0-3.47,7.45,14.62,14.62,0,0,0,.82,7.65,15.51,15.51,0,0,0,4.8,6.43,18.91,18.91,0,0,0,8.47,3.78h.2a.84.84,0,0,1,.61.2h.41a3.24,3.24,0,0,0,1,.2h2a26.6,26.6,0,0,0,10.11-1.94,25.71,25.71,0,0,0,8.36-5.4,25,25,0,0,0,5.62-8.37,25.49,25.49,0,0,0,1.83-10.82A59.72,59.72,0,0,0,421,241.79a70.52,70.52,0,0,0,7.15-12.35A4.68,4.68,0,0,0,428.6,226.28Zm-49.7,35a10.84,10.84,0,0,1,4.28-1.32,27.48,27.48,0,0,1,5.31-.11c1.84.14,3.43.28,4.8.41q-8.79,0-11.84,1a8.15,8.15,0,0,0-4.49,3.27A4,4,0,0,1,378.9,261.28Zm5.4,12.25a9.78,9.78,0,0,1-5.61-2.35c-1.43-1.29-1.73-3.09-.92-5.41a5,5,0,0,1,2.76-3.06,19.68,19.68,0,0,1,4.69-1.22q2.76-.4,6.13-.62a33.69,33.69,0,0,0,7-1.22,16.7,16.7,0,0,1-2.65,8.37c-1.78,3-4.63,4.76-8.58,5.31A16,16,0,0,1,384.3,273.53Zm20.62-5.21a24.46,24.46,0,0,1-3.78,4.6,25.86,25.86,0,0,1-4.49,3.47,10.49,10.49,0,0,1-4.18,1.63,15.4,15.4,0,0,0,5.41-2.86,40.2,40.2,0,0,0,4.59-4.28,25.53,25.53,0,0,0,3.27-4.39A17.93,17.93,0,0,0,407,264,17.82,17.82,0,0,1,404.92,268.32Z"/><path class="cls-3" d="M244.77,37.67A56.59,56.59,0,0,1,251.3,28a51.14,51.14,0,0,1,6.12-6.13,20.94,20.94,0,0,1,5.1-3.26c1.5-.61,2.66-1.05,3.47-1.33a187.1,187.1,0,0,0-18.77,29.19q-9.39,17.55-18,36.74t-15.61,37.56q-7,18.36-11.74,31.84-2.25,7.14-4.69,10.2a9.66,9.66,0,0,1-4.9,3.68,6.7,6.7,0,0,1-4.49-.31,14.83,14.83,0,0,1-3.06-1.73c-2.73-3-4.59-8.54-5.62-16.64a147.26,147.26,0,0,1-.2-29.29,327.77,327.77,0,0,1,5.41-37.86,356.88,356.88,0,0,1,11-41.95,45.21,45.21,0,0,1-4.18,8.88q-2.76,4.6-6.53,10.82t-8.37,14.49q-4.59,8.27-9.6,19.7t-10.1,26.64q-5.1,15.19-9.8,35.21a7.3,7.3,0,0,1-3.06,4.38,10.69,10.69,0,0,1-4.9,2,5.24,5.24,0,0,1-4.18-1.12q-1.74-1.42-1.12-5.1a335.91,335.91,0,0,1,8.67-35.21q5.2-17,11.43-32t12.66-27.65q6.42-12.66,12.24-22.25T189,21.65q4.69-6.22,7.35-8.27A9.93,9.93,0,0,1,202.92,9a21,21,0,0,1,8-.31q-.81,3.48-2.55,10.41T205,33.39q1-3.27,2.15-7c.74-2.52,1.46-4.9,2.14-7.15s1.33-4.25,1.94-6a34.67,34.67,0,0,1,1.53-3.88A10.79,10.79,0,0,1,216,11a3.23,3.23,0,0,1,1.43,2.55.79.79,0,0,1-.11.51.4.4,0,0,0-.1.3c-.27.82-.58,1.67-.92,2.56s-.64,1.8-.92,2.75q-5.31,16.74-9.28,33.48t-6.74,31.74q-2.76,15-4.28,27.35t-2.15,19.9a32,32,0,0,1-1.22-6.74q-.42,6.12-.51,11.74a99,99,0,0,0,.3,10.31q2.46-9.39,6.23-22.25T206,98.4q4.48-14,9.79-28.17T226.6,44a177.43,177.43,0,0,1,11.12-20.92q5.63-8.88,11.13-12.35-1,1.63-3.27,5.72t-5.51,11a69.7,69.7,0,0,1,8.68-11.33,26.91,26.91,0,0,1,10.1-6.84A90.32,90.32,0,0,0,251.6,18a105,105,0,0,0-6.94,11q-3.57,6.44-7.45,15.41t-8.77,21.64q3.87-8.58,7.24-16.74t7.25-15.41A79.12,79.12,0,0,1,251.4,21a34.36,34.36,0,0,1,10.92-8.88c-1.22,1.36-2.79,3.34-4.69,5.92s-3.78,5.2-5.62,7.86-3.44,5.1-4.79,7.35A38.94,38.94,0,0,0,244.77,37.67Zm-108,117q5.31-19.4,12.45-39.5t15.11-38.57q8-18.48,16.63-34.19A219.54,219.54,0,0,1,198,15.63q-2.66,2.25-7.66,9.08a188.55,188.55,0,0,0-10.92,17.15Q173.53,52.16,167,65.23T154.65,93q-5.82,14.7-10.61,30.41A229,229,0,0,0,136.79,154.63Zm16.53-16.94A92.88,92.88,0,0,1,158,118q3.87-11.52,9.08-23.37t10.82-22.45A157.34,157.34,0,0,1,188,55.23c-1.09,2.58-3,6.67-5.71,12.24s-5.79,12.12-9.19,19.6-6.87,15.58-10.41,24.29S156.05,128.84,153.32,137.69Zm30,17.35a181.81,181.81,0,0,1-.51-26.74q.7-13.88,2.75-28.07t5.11-28.47q3.06-14.28,6.73-28.37-1.42,3.68-3.57,11.22t-4.29,17.46q-2.13,9.9-4.08,21.33T182.41,116a192.59,192.59,0,0,0-1,21.33A78.9,78.9,0,0,0,183.33,155Zm24.29-22.86a188.58,188.58,0,0,1,6.22-18.37q4-10.22,8.17-20.21t8-18.47q3.78-8.47,5.41-13.17A118.83,118.83,0,0,0,228,75.64q-4.5,9.39-8.78,20.21t-7.55,20.81A101.61,101.61,0,0,0,207.62,132.18ZM238.24,19.51A75.48,75.48,0,0,0,231.3,31q-3.68,7.24-7.25,15.41t-6.74,16.23q-3.17,8.06-5.2,13.77a111.57,111.57,0,0,1,4.08-15.2q3.06-9.28,6.94-18.17a139.6,139.6,0,0,1,8-15.71Q235.17,20.53,238.24,19.51Z"/><path class="cls-3" d="M423.21,226.54a4.4,4.4,0,0,1,2-1.94,3.38,3.38,0,0,1,2.25-.2,2.15,2.15,0,0,1,1.43,1.43,4.68,4.68,0,0,1-.41,3.16,71,71,0,0,1-7.14,12.35A60,60,0,0,1,410,253.69a25.64,25.64,0,0,1-1.84,10.82,24.94,24.94,0,0,1-5.61,8.37,26.05,26.05,0,0,1-8.37,5.41A26.78,26.78,0,0,1,384,280.22h-2a3.24,3.24,0,0,1-1-.2h-.41a.84.84,0,0,0-.61-.2h-.2a19,19,0,0,1-8.47-3.78,15.51,15.51,0,0,1-4.8-6.43,14.73,14.73,0,0,1-.82-7.65,15.29,15.29,0,0,1,3.47-7.45,12.71,12.71,0,0,1,7.05-4.39,21.52,21.52,0,0,1,7.55-.1,43.93,43.93,0,0,1,7,1.73,13.54,13.54,0,0,0,5.51.92.8.8,0,0,0,.51-.1.41.41,0,0,1,.31-.1,9.61,9.61,0,0,0-3-5.21,64.42,64.42,0,0,0-5.82-5.1q-3.27-2.55-6.63-5.21a24.71,24.71,0,0,1-5.41-5.71q-1,1.63-1.53,2.55t-1.53,2.55a1.19,1.19,0,0,1-1.23.51,3.43,3.43,0,0,1-1.63-.71,5.45,5.45,0,0,1-1.33-1.43,1.25,1.25,0,0,1-.1-1.43c.55-.95,1.09-1.87,1.63-2.76s1.23-2.07,2-3.57a20.85,20.85,0,0,1-1.12-11.53,18.61,18.61,0,0,1,4.39-9,15.41,15.41,0,0,1,8-4.7,13.94,13.94,0,0,1,9.8,1.53c.27,0-.38-.47-1.94-1.42s-3.92-1.36-7-1.23a8.69,8.69,0,0,1,3.06-.92,12.28,12.28,0,0,1,4.18.11,12.79,12.79,0,0,1,4.08,1.53,6.21,6.21,0,0,1,2.76,3.16,15.32,15.32,0,0,1,.71,4.18,12.07,12.07,0,0,1-.81,4.8,15.92,15.92,0,0,1-3,4.8,19,19,0,0,1-5.51,4.18c-.28,1.09.3,2.08,1.73,3a54.89,54.89,0,0,1,5.21,3.78,43,43,0,0,1,6.32,6.43,28.59,28.59,0,0,1,5.11,10.71,51.18,51.18,0,0,0,9.28-10.82Q421.58,229.61,423.21,226.54ZM369.53,279.2q15.51,4.5,26.54-.51t14.69-18.47q-1.63,10.21-6.94,15.11a25.25,25.25,0,0,1-11.73,6.32,33.22,33.22,0,0,1-12.66.41A35.17,35.17,0,0,1,369.53,279.2Zm24.09-19.39c-1.36-.13-3-.27-4.8-.4a26.72,26.72,0,0,0-5.31.1,10.84,10.84,0,0,0-4.28,1.32,4,4,0,0,0-1.94,3.27,8.15,8.15,0,0,1,4.49-3.27Q384.84,259.81,393.62,259.81Zm-9,13.27a16,16,0,0,0,2.85-.2q5.92-.83,8.58-5.31a16.7,16.7,0,0,0,2.65-8.37,34.4,34.4,0,0,1-7,1.23c-2.25.13-4.29.34-6.12.61a19.65,19.65,0,0,0-4.7,1.22,5,5,0,0,0-2.76,3.06q-1.22,3.48.92,5.41A9.78,9.78,0,0,0,384.64,273.08Zm-6.54-43.27a14.15,14.15,0,0,0,4.19,5.71c1.84,1.5,3.77,3,5.82,4.39a49.43,49.43,0,0,1,5.92,4.9,21.36,21.36,0,0,1,4.69,7,15.13,15.13,0,0,0-3.78-6.53,66.87,66.87,0,0,0-6-5.51c-2.18-1.77-4.28-3.43-6.32-5A16,16,0,0,1,378.1,229.81Zm16.33-13.68a17.17,17.17,0,0,1-2.55,2.45,13.75,13.75,0,0,1-3.57,2,15.3,15.3,0,0,1-4.59,1,10.26,10.26,0,0,1-5.21-1,6.52,6.52,0,0,0,3.37,1.33,13.34,13.34,0,0,0,8.88-1.84A9.87,9.87,0,0,0,394.43,216.13Zm1.64,2.86a19,19,0,0,0,4.18-7.75,11,11,0,0,0-.31-6.84,8.82,8.82,0,0,0-4.79-4.59q-3.57-1.63-9.29-1,6.94-1.83,11-.1a9.34,9.34,0,0,1,5.41,5.11,10.62,10.62,0,0,1-.2,7.65A16.1,16.1,0,0,1,396.07,219Zm-3.47,6.33a12.59,12.59,0,0,1,5.92,2.55,24.75,24.75,0,0,1,5.1,5.21,33.54,33.54,0,0,1,3.67,6.32,18.84,18.84,0,0,1,1.64,5.92,26.7,26.7,0,0,0-3.07-7.65,30.29,30.29,0,0,0-4.38-5.72,35.91,35.91,0,0,0-4.7-4C395.22,226.89,393.82,226,392.6,225.32Zm.2,52.25a10.43,10.43,0,0,0,4.18-1.63,26.31,26.31,0,0,0,4.5-3.47,25.07,25.07,0,0,0,3.77-4.59,17,17,0,0,0,2.25-5,12.8,12.8,0,0,1-1.43,3.16,25.53,25.53,0,0,1-3.27,4.39,38.49,38.49,0,0,1-4.59,4.28A15.23,15.23,0,0,1,392.8,277.57Z"/></g></g></svg>