<svg xmlns="http://www.w3.org/2000/svg" xmlns:xlink="http://www.w3.org/1999/xlink" viewBox="0 0 101.96 95.33"><defs><style>.cls-1,.cls-2{fill:#fff;}.cls-1{stroke-miterlimit:10;stroke-width:5px;stroke:url(#COULEUR_GEEK_BEEZ);}.cls-3{fill:#353435;}.cls-4{fill:url(#COULEUR_GEEK_BEEZ-2);}.cls-5{fill:url(#COULEUR_GEEK_BEEZ-3);}.cls-6{fill:url(#COULEUR_GEEK_BEEZ-4);}.cls-7{fill:url(#COULEUR_GEEK_BEEZ-5);}.cls-8{fill:url(#COULEUR_GEEK_BEEZ-6);}.cls-9{fill:url(#COULEUR_GEEK_BEEZ-7);}.cls-10{fill:url(#COULEUR_GEEK_BEEZ-8);}.cls-11{fill:url(#COULEUR_GEEK_BEEZ-9);}</style><linearGradient id="COULEUR_GEEK_BEEZ" y1="45.43" x2="101.96" y2="45.43" gradientUnits="userSpaceOnUse"><stop offset="0" stop-color="#fabf44"/><stop offset="1" stop-color="#f39547"/></linearGradient><linearGradient id="COULEUR_GEEK_BEEZ-2" x1="46.25" y1="89.85" x2="53.05" y2="89.85" xlink:href="#COULEUR_GEEK_BEEZ"/><linearGradient id="COULEUR_GEEK_BEEZ-3" x1="48.75" y1="84.05" x2="50.51" y2="84.05" xlink:href="#COULEUR_GEEK_BEEZ"/><linearGradient id="COULEUR_GEEK_BEEZ-4" x1="48.74" y1="106.96" x2="53.77" y2="106.96" gradientTransform="translate(-1.64 -19.99)" xlink:href="#COULEUR_GEEK_BEEZ"/><linearGradient id="COULEUR_GEEK_BEEZ-5" x1="52.96" y1="85.66" x2="55.04" y2="85.66" xlink:href="#COULEUR_GEEK_BEEZ"/><linearGradient id="COULEUR_GEEK_BEEZ-6" x1="56.77" y1="85.66" x2="58.83" y2="85.66" xlink:href="#COULEUR_GEEK_BEEZ"/><linearGradient id="COULEUR_GEEK_BEEZ-7" x1="54.85" y1="87.42" x2="56.9" y2="87.42" xlink:href="#COULEUR_GEEK_BEEZ"/><linearGradient id="COULEUR_GEEK_BEEZ-8" x1="54.85" y1="83.78" x2="56.9" y2="83.78" xlink:href="#COULEUR_GEEK_BEEZ"/><linearGradient id="COULEUR_GEEK_BEEZ-9" x1="40.72" y1="85.57" x2="45.83" y2="85.57" xlink:href="#COULEUR_GEEK_BEEZ"/></defs><g id="Calque_2" data-name="Calque 2"><g id="Calque_4" data-name="Calque 4"><path class="cls-1" d="M24.83,85.73,3.19,48a5.26,5.26,0,0,1,0-5.21L24.83,5.13A5.22,5.22,0,0,1,29.37,2.5H72.59a5.24,5.24,0,0,1,4.54,2.63L98.77,42.82a5.26,5.26,0,0,1,0,5.21L77.13,85.73a5.25,5.25,0,0,1-4.54,2.62H29.37A5.23,5.23,0,0,1,24.83,85.73Z"/><path class="cls-2" d="M43.37,84.94c-.83,0-1.58-.47-2.41-.47-1.27,0-2.37,1.5-2.5,3s-.31,2.59,1,2.59a30.32,30.32,0,0,0,3.92-.43,2.76,2.76,0,0,0,2.37-2.16C46.19,86.15,44.73,84.94,43.37,84.94Z"/><path class="cls-2" d="M56.32,85.68c.76,0,1.46-.44,2.22-.44,1.17,0,2.18,1.38,2.3,2.75s.29,2.39-1,2.39a31.38,31.38,0,0,1-3.61-.4,2.55,2.55,0,0,1-2.18-2C53.73,86.79,55.07,85.67,56.32,85.68Z"/><path class="cls-3" d="M54.14,89.36a3.56,3.56,0,0,1-.36,1,4.59,4.59,0,0,1-.67,1,4.81,4.81,0,0,1-1.41,1,3.33,3.33,0,0,0-1.6,1.84c-.13.35-.27.69-.42,1.08-.08-.21-.13-.38-.19-.55a5.5,5.5,0,0,0-.81-1.58,2.6,2.6,0,0,0-.8-.64,7.92,7.92,0,0,1-1.27-.79,4.54,4.54,0,0,1-1-1.13,4.37,4.37,0,0,1-.5-1.27,8.29,8.29,0,0,1-.91.53,10,10,0,0,1-2.43.83c-.34.07-.68.11-1,.15a12,12,0,0,1-1.7.05,6.4,6.4,0,0,1-.87-.08c-.07,0-.09,0-.09-.1,0-.45,0-.9,0-1.35a12.06,12.06,0,0,1,.67-3.46,8.89,8.89,0,0,1,1.35-2.45,6.91,6.91,0,0,1,2.22-1.87,6.28,6.28,0,0,1,2-.66,6.2,6.2,0,0,1,1.13-.08,4.15,4.15,0,0,1,.79.08c.1,0,.13,0,.13-.11a2.89,2.89,0,0,1,.26-1.16,2.72,2.72,0,0,1,.38-.61,3.23,3.23,0,0,1,1.25-.91l.2-.08a1.59,1.59,0,0,0-.55-.51l-.14-.09a.23.23,0,0,0-.29,0,.63.63,0,0,1-.73,0,.67.67,0,0,1-.35-.68.7.7,0,0,1,.48-.6.69.69,0,0,1,.87.43s0,.07.08.09a3,3,0,0,1,1.35,1.1c0,.07.09.07.17.06a1.69,1.69,0,0,1,.55,0,.12.12,0,0,0,.15,0,3.11,3.11,0,0,1,1.35-1.11c.06,0,.07-.05.09-.1a.7.7,0,0,1,1.35.27.68.68,0,0,1-.4.62.69.69,0,0,1-.72-.08s-.08-.06-.14,0a2.09,2.09,0,0,0-.77.59c-.05.07,0,.08,0,.1a2.68,2.68,0,0,1,.92.51,2.84,2.84,0,0,1,.84,1.07,2.89,2.89,0,0,1,.26,1.16c0,.09,0,.11.11.09a5.66,5.66,0,0,1,1.09-.08,6.63,6.63,0,0,1,2.24.46,6.28,6.28,0,0,1,1.67,1,7.38,7.38,0,0,1,1.17,1.2,8.6,8.6,0,0,1,1,1.73,9.72,9.72,0,0,1,.63,1.91c.1.41.16.82.23,1.23a4.62,4.62,0,0,1,.06.65c0,.54,0,1.08,0,1.62,0,.15-.06.18-.18.2a13.1,13.1,0,0,1-2,.05,10.15,10.15,0,0,1-3-.62A8.52,8.52,0,0,1,54.14,89.36Zm-2.88-6.54a.28.28,0,0,0-.3.11.48.48,0,0,0,0,.39,3,3,0,0,0,.21.57A13.3,13.3,0,0,0,52.25,86a10.51,10.51,0,0,0,.86,1.13,8.32,8.32,0,0,0,1,1,8.13,8.13,0,0,0,1.6,1,3.39,3.39,0,0,0,1,.3c.15,0,.21-.05.27-.18s0-.15,0-.23a4.25,4.25,0,0,0-.2-1.11,5.4,5.4,0,0,0-1.19-2.11,6.53,6.53,0,0,0-1.25-1.1l-2.5-1.61A1,1,0,0,0,51.26,82.82Zm-2.86.35c0-.2-.09-.33-.23-.35a.89.89,0,0,0-.58.13c-.32.19-.63.41-1,.61l-1.29.82a9.48,9.48,0,0,0-1.24,1A6,6,0,0,0,43,86.71a5.55,5.55,0,0,0-.62,1.63c-.06.26-.07.53-.11.79a.25.25,0,0,0,.17.26.81.81,0,0,0,.38,0,5.77,5.77,0,0,0,1.73-.79,7.17,7.17,0,0,0,1.65-1.41,10.71,10.71,0,0,0,.71-.92,13.76,13.76,0,0,0,1.33-2.48A1.38,1.38,0,0,0,48.4,83.17Zm1.16,8a4.38,4.38,0,0,0,.8-.06A3.53,3.53,0,0,0,52.52,90a2.22,2.22,0,0,0,.53-1.39c0-.08,0-.11-.11-.09a14.43,14.43,0,0,1-1.59.32,12.19,12.19,0,0,1-1.59.14c-.38,0-.76,0-1.14,0s-.68-.06-1-.1-.73-.13-1.09-.19c-.09,0-.19-.11-.25,0s0,.18,0,.27a2.24,2.24,0,0,0,1.24,1.78A3.8,3.8,0,0,0,49.56,91.17Zm-7.83-6a3.1,3.1,0,0,0,.79-.17,12.91,12.91,0,0,0,1.89-.77c.49-.23,1-.48,1.46-.75a14.56,14.56,0,0,0,1.42-.87c.17-.12.16-.26,0-.35l-.11-.06A6.13,6.13,0,0,0,46,81.9a5.39,5.39,0,0,0-1.39,0,4.94,4.94,0,0,0-1.78.6,4.73,4.73,0,0,0-1.6,1.35.92.92,0,0,0-.2.78A.69.69,0,0,0,41.73,85.14Zm15.77,0c.61,0,.89-.35.83-.75a1.39,1.39,0,0,0-.42-.8,5.33,5.33,0,0,0-4.09-1.72,6.85,6.85,0,0,0-.91.1,3.37,3.37,0,0,0-.92.28c-.14.06-.15.16-.05.27l.18.15a20.39,20.39,0,0,0,1.81,1.06,20.79,20.79,0,0,0,2.5,1.13A4,4,0,0,0,57.5,85.14ZM39.65,90l.52,0a5.82,5.82,0,0,0,1.11-.16c.25,0,.49-.16.52-.46a3.13,3.13,0,0,0,0-.43,3.39,3.39,0,0,1,.17-1,8.15,8.15,0,0,1,.52-1.26,1.43,1.43,0,0,0,.19-.78.24.24,0,0,0-.18-.25.55.55,0,0,0-.31,0,6.49,6.49,0,0,1-1.39.14,1.13,1.13,0,0,0-1.15.76,8.07,8.07,0,0,0-.44,1.74c0,.27-.07.55-.09.82s0,.58,0,.87c0,.07,0,.1.1.1Zm20,0h.38c.09,0,.12,0,.12-.11a6.51,6.51,0,0,0,0-.77,8.26,8.26,0,0,0-.2-1.41,5.68,5.68,0,0,0-.43-1.4,1,1,0,0,0-.9-.59,11.75,11.75,0,0,1-1.57-.15.43.43,0,0,0-.39.07c-.16.14-.09.32-.07.48a4,4,0,0,0,.4,1,5.06,5.06,0,0,1,.5,2.16.49.49,0,0,0,.37.51A6.3,6.3,0,0,0,59.69,90ZM49.42,87.84a11.8,11.8,0,0,0,1.48-.08c.39,0,.77-.11,1.16-.18.08,0,.09,0,0-.12a9.84,9.84,0,0,1-.92-1.3.12.12,0,0,0-.14-.08c-.21,0-.42,0-.63.07s-.33,0-.5,0a4.83,4.83,0,0,1-1.37,0c-.3,0-.36,0-.52.23l0,0a7.12,7.12,0,0,1-.84,1.14s-.07.08,0,.1c.32,0,.65.11,1,.14A9.36,9.36,0,0,0,49.42,87.84ZM48.75,85a1.75,1.75,0,0,0,.32,0c.27,0,.54,0,.81,0l.56,0c.08,0,.09,0,.05-.11a17.23,17.23,0,0,1-.73-1.79c0-.06,0-.08-.1-.08s-.09,0-.12.07A15.83,15.83,0,0,1,48.75,85Z"/><path class="cls-4" d="M49.56,91.17a3.89,3.89,0,0,1-2-.47,2.27,2.27,0,0,1-1.24-1.79c0-.09-.06-.2,0-.27s.16,0,.25,0c.36.06.72.15,1.09.19s.67.08,1,.1a8.68,8.68,0,0,0,1.14,0,14.2,14.2,0,0,0,1.59-.13,14.43,14.43,0,0,0,1.59-.32c.09,0,.11,0,.11.09A2.2,2.2,0,0,1,52.52,90a3.53,3.53,0,0,1-2.16,1.1A4.38,4.38,0,0,1,49.56,91.17Z"/><path class="cls-5" d="M48.75,85a15.83,15.83,0,0,0,.79-1.92c0-.08.08-.06.12-.06s.08,0,.1.07a16.37,16.37,0,0,0,.73,1.79c0,.07,0,.1-.05.11l-.56,0h-.81A1.75,1.75,0,0,1,48.75,85Z"/><path class="cls-6" d="M49.42,87.84a9.36,9.36,0,0,1-1.28-.06c-.32,0-.65-.1-1-.14-.1,0-.07-.06,0-.1A7.12,7.12,0,0,0,48,86.4l0,0c.16-.26.22-.27.52-.23a4.83,4.83,0,0,0,1.37,0c.17,0,.33,0,.5,0s.42-.06.63-.07a.12.12,0,0,1,.14.08,9.84,9.84,0,0,0,.92,1.3c.06.07,0,.1,0,.12-.39.07-.77.14-1.16.18A11.8,11.8,0,0,1,49.42,87.84Z"/><path class="cls-7" d="M55,85.64a1,1,0,1,1-2.08,0,1,1,0,0,1,1-1A1,1,0,0,1,55,85.64Z"/><path class="cls-8" d="M56.77,85.66a1,1,0,0,1,1-1,1.07,1.07,0,0,1,1,1,1,1,0,0,1-1,1.06A1,1,0,0,1,56.77,85.66Z"/><path class="cls-9" d="M56.9,87.4a1,1,0,0,1-1,1,1,1,0,0,1-1-1,1,1,0,0,1,1.09-1C56.38,86.39,57,86.87,56.9,87.4Z"/><path class="cls-10" d="M55.9,82.76a1,1,0,0,1,1,1.07,1,1,0,0,1-1,1,1,1,0,0,1-1-1A1,1,0,0,1,55.9,82.76Z"/><path class="cls-11" d="M40.73,85.58c0-.22,0-.45,0-.66s.06-.25.25-.24h1.21c.14,0,.19,0,.19-.19,0-.44,0-.89,0-1.34,0-.13,0-.17.16-.17q.75,0,1.5,0c.13,0,.17,0,.17.17,0,.45,0,.89,0,1.34,0,.15,0,.19.19.19h1.27c.13,0,.19,0,.19.17q0,.75,0,1.5c0,.14,0,.16-.17.16H44.38c-.15,0-.2,0-.2.19,0,.44,0,.87,0,1.3,0,.12,0,.16-.15.16q-.76,0-1.53,0c-.12,0-.15,0-.15-.16,0-.44,0-.88,0-1.32,0-.14,0-.17-.18-.17-.42,0-.85,0-1.27,0-.17,0-.21-.05-.2-.21S40.73,85.82,40.73,85.58Z"/><path class="cls-2" d="M26.13,11.12A31.8,31.8,0,0,0,23.7,14.4q-1.23,1.87-2.4,4.1c-.79,1.49-1.51,3-2.18,4.53s-1.25,3-1.75,4.53a30.77,30.77,0,0,0-1.1,4.08c.63-1.86,1.41-3.87,2.35-6s1.94-4.23,3-6.26,2.19-4,3.36-5.76a41.19,41.19,0,0,1,3.35-4.55A10.52,10.52,0,0,0,26.13,11.12Z"/><path class="cls-2" d="M25.07,10.06a46.8,46.8,0,0,0-6.29,10.12,47.49,47.49,0,0,0-4,11.07,1.5,1.5,0,0,0,2.89.79,85.73,85.73,0,0,1,5.11-11.71,54.11,54.11,0,0,1,6.57-10.2c1-1.21-.31-3.39-1.81-2.36a13.33,13.33,0,0,0-2.51,2.29c-1.27,1.44.85,3.57,2.12,2.12a10.56,10.56,0,0,1,1.9-1.82L27.27,8a57.81,57.81,0,0,0-7,10.81,89.62,89.62,0,0,0-5.41,12.44l2.89.79A44.2,44.2,0,0,1,21.37,21.7a43.54,43.54,0,0,1,5.82-9.52C28.43,10.71,26.32,8.58,25.07,10.06Z"/><path class="cls-2" d="M21.82,10a29.12,29.12,0,0,1,4-4.11A12.72,12.72,0,0,1,30,3.51a8.89,8.89,0,0,0-3.4,1.27,18.26,18.26,0,0,0-3.15,2.51,22.59,22.59,0,0,0-2.76,3.28c-.83,1.2-1.58,2.39-2.25,3.58a27.63,27.63,0,0,0-1.65,3.4,16.82,16.82,0,0,0-.9,2.78,31.87,31.87,0,0,1,2.45-5.26A39.06,39.06,0,0,1,21.82,10Z"/><path class="cls-2" d="M22.88,11.08c2-2.46,4.47-5.1,7.55-6.13a1.5,1.5,0,0,0-.79-2.89c-4.07.66-7.4,3.94-9.76,7.12a30,30,0,0,0-5.41,10.75,1.5,1.5,0,0,0,2.89.8,34.05,34.05,0,0,1,5.52-9.65,1.54,1.54,0,0,0,0-2.12,1.5,1.5,0,0,0-2.12,0,38.53,38.53,0,0,0-6.29,11l2.89.8a27.78,27.78,0,0,1,4.75-9.53c2-2.79,4.82-5.68,8.32-6.25l-.79-2.89c-3.62,1.2-6.51,4-8.88,6.9a1.55,1.55,0,0,0,0,2.12A1.51,1.51,0,0,0,22.88,11.08Z"/><path class="cls-2" d="M13.39,39.38a8,8,0,0,1-.55-2.13,10.63,10.63,0,0,1,.07-3,11.16,11.16,0,0,0,.23,3.53,6.28,6.28,0,0,0,1.17,2.45,5.31,5.31,0,0,0,1.43,1.22,13.22,13.22,0,0,1,.47-2.74,3.67,3.67,0,0,1-.42-1,10.81,10.81,0,0,1-.17-4.18,32.11,32.11,0,0,1,1.22-5.51A51.66,51.66,0,0,1,19.17,22a56.85,56.85,0,0,1,3.13-5.94A37,37,0,0,1,25.93,11a13.79,13.79,0,0,1,3.85-3.18,4.81,4.81,0,0,1,3.46-.63,1.92,1.92,0,0,1,1.23,1.1,5.55,5.55,0,0,1,.35,1.43l.76-.36A5.77,5.77,0,0,1,38.41,9l-.06-.48a7.66,7.66,0,0,0-1.18-2.95,4.52,4.52,0,0,0-2.38-1.78,7.45,7.45,0,0,0-3.3-.18,10.41,10.41,0,0,0-4,1.61,21.2,21.2,0,0,0-4.4,3.9,38.28,38.28,0,0,0-4.66,6.78q-1,1.91-2.1,4.28c-.74,1.59-1.41,3.23-2,4.94a47.54,47.54,0,0,0-1.55,5.08,21.4,21.4,0,0,0-.68,4.73,10.91,10.91,0,0,0,.58,4,5.23,5.23,0,0,0,2.23,2.76,8.67,8.67,0,0,1-.73-.83A6.16,6.16,0,0,1,13.39,39.38Zm.9-11.44c.35-1.13.73-2.28,1.15-3.43s.85-2.22,1.3-3.2A11,11,0,0,1,18,19.13c-.37.7-.74,1.5-1.13,2.4s-.76,1.86-1.12,2.88-.74,2.07-1.11,3.15-.7,2.15-1,3.18A18.41,18.41,0,0,1,14.29,27.94Z"/><path class="cls-2" d="M14.83,39a9.19,9.19,0,0,1-.42-4.68h-3c-.2,3.31.6,6.64,3.58,8.5a1.51,1.51,0,0,0,2.25-1.3,24.54,24.54,0,0,0,.47-2.74,17,17,0,0,0-.62-2,13.24,13.24,0,0,1,.3-4.73,44.14,44.14,0,0,1,3.55-10.29,45,45,0,0,1,5.51-9,14,14,0,0,1,3.77-3.41,4.13,4.13,0,0,1,2.15-.7c.9.05.89.75,1,1.53.16,1,1.44,1.26,2.21.89a5.32,5.32,0,0,1,2.83-.56,1.53,1.53,0,0,0,1.45-1.9C39.28,4.41,36.21,1.63,31.94,2c-4.1.37-7.51,3.27-10.11,6.26a44.31,44.31,0,0,0-6.36,10.26A53.71,53.71,0,0,0,11,31.12c-.8,4.19-.79,9.17,3.12,11.78,1.45,1,3-1.15,1.82-2.35a6.63,6.63,0,0,1-1.3-1.93c-.8-1.75-3.39-.23-2.59,1.52a9.42,9.42,0,0,0,1.76,2.53l1.82-2.36C12.15,38,13.78,32,14.73,28.72a60.52,60.52,0,0,1,5.15-12.3c2-3.55,4.45-7.15,7.8-9.53a8.42,8.42,0,0,1,6-1.87c2.2.33,3,2.36,3.32,4.35l1.45-1.9a8.57,8.57,0,0,0-4.35,1l2.21.9c-.27-1.76-1.12-3.25-3-3.64a7.13,7.13,0,0,0-5.25,1.43c-3.41,2.3-5.83,6-7.83,9.53a54,54,0,0,0-5,11.75c-1,3.38-2.09,7.82-.27,11.11l-.16-1.16a18.54,18.54,0,0,0-.52,3.14l2.26-1.3c-2-1.27-2.22-3.72-2.09-5.9.12-2-2.75-1.86-3,0a11,11,0,0,0,.53,5.48C12.64,41.55,15.55,40.78,14.83,39Z"/><path class="cls-2" d="M15.74,28.34c.5-1.62,1-3.22,1.66-4.79a15.38,15.38,0,0,1,1.86-3.66l-2.59-1.52a66.12,66.12,0,0,0-4.5,12l2.89.8a18.14,18.14,0,0,1,.68-2.8c.56-1.85-2.33-2.64-2.9-.8a19.33,19.33,0,0,0-.67,2.8,1.55,1.55,0,0,0,1,1.85,1.53,1.53,0,0,0,1.85-1,62.37,62.37,0,0,1,4.2-11.25,1.5,1.5,0,1,0-2.59-1.52,17.93,17.93,0,0,0-2.08,4.18c-.66,1.63-1.22,3.31-1.75,5a1.5,1.5,0,1,0,2.9.8Z"/><path class="cls-3" d="M53.26,26a1.5,1.5,0,0,1,.58-.73.82.82,0,0,1,.58-.12.51.51,0,0,1,.37.27.68.68,0,0,1,0,.53,28.84,28.84,0,0,1-2.43,4.88,25.2,25.2,0,0,1-3.06,4A16.2,16.2,0,0,1,46,37.65a7.85,7.85,0,0,1-3.33,1.2,5.27,5.27,0,0,1-5-2.85,4.84,4.84,0,0,0,1.43,2,5.12,5.12,0,0,0,1.73.92A4.08,4.08,0,0,1,38.59,38a4.62,4.62,0,0,1-1.27-1.78,8.33,8.33,0,0,1-.55-2.3,13.69,13.69,0,0,1-.05-2.38,19.7,19.7,0,0,1,.22-2c.1-.59.19-1,.25-1.28a16.61,16.61,0,0,1,1.58-4.13,12.71,12.71,0,0,1,2.58-3.35A7.8,7.8,0,0,1,44.73,19a6.68,6.68,0,0,1,4.08.38,3.15,3.15,0,0,1,1.78,1.73A5.71,5.71,0,0,1,51,23.88,11,11,0,0,1,50,27.26a14.84,14.84,0,0,1-5.18,6.29,11.41,11.41,0,0,1-4,1.75,1.67,1.67,0,0,0,.85.9,3.26,3.26,0,0,0,3.1-.18,12.71,12.71,0,0,0,3.31-2.52,25.24,25.24,0,0,0,3-3.73A35,35,0,0,0,53.26,26Zm-10.91-.45a11.89,11.89,0,0,0-1.85,3.2A12.32,12.32,0,0,0,39.7,32a7.46,7.46,0,0,0,.17,2.73,2.11,2.11,0,0,0,1.18,1.53,3.52,3.52,0,0,1-.95-2.38,11.71,11.71,0,0,1,.22-3.15,17.86,17.86,0,0,1,.9-3.06A8.91,8.91,0,0,1,42.35,25.59Zm-1.8,8.21a8.6,8.6,0,0,0,2.53-1.63,11.87,11.87,0,0,0,2-2.38,10.2,10.2,0,0,0,1.22-2.68,4.75,4.75,0,0,0,.1-2.58,3.38,3.38,0,0,1,.31.68,4.48,4.48,0,0,1,.2,1A4.39,4.39,0,0,0,47,24.76a1.22,1.22,0,0,0-.52-.93,1.77,1.77,0,0,0-2.11.23,7.79,7.79,0,0,0-2,2.4A14.79,14.79,0,0,0,41,30,12,12,0,0,0,40.55,33.8Zm.25-.65a12.56,12.56,0,0,1,.5-3.31,15.91,15.91,0,0,1,1-2.6,9.53,9.53,0,0,1,1.1-1.78,8.05,8.05,0,0,1,.85-.93,12.45,12.45,0,0,0-2.43,4.36A36.19,36.19,0,0,0,40.8,33.15Zm9.86-9.92a13.2,13.2,0,0,1-1.48,4.33,17,17,0,0,1-2.4,3.36,15.92,15.92,0,0,1-2.7,2.35,15.24,15.24,0,0,1-2.43,1.38,9.13,9.13,0,0,0,3-1.45,15.63,15.63,0,0,0,2.88-2.66,14.37,14.37,0,0,0,2.2-3.45A10.43,10.43,0,0,0,50.66,23.23Zm-1.9-3.5c-.34-.13-.7-.27-1.1-.4a4.57,4.57,0,0,0-1.41-.2,6.56,6.56,0,0,0-1.82.3,8.12,8.12,0,0,0-2.28,1.15c.23-.13.58-.31,1-.53a7.41,7.41,0,0,1,1.55-.52,8.72,8.72,0,0,1,1.9-.2A6.2,6.2,0,0,1,48.76,19.73ZM50,30.94a9.88,9.88,0,0,1-.88,1.23,14.46,14.46,0,0,1-1.5,1.6,15.55,15.55,0,0,1-1.85,1.5,5.27,5.27,0,0,1-1.93.88c.2-.13.49-.3.88-.5a9.79,9.79,0,0,0,1.35-.9c.52-.4,1.11-.9,1.78-1.5A21.86,21.86,0,0,0,50,30.94Z"/><path class="cls-3" d="M68.13,26a1.5,1.5,0,0,1,.58-.73.79.79,0,0,1,.57-.12.51.51,0,0,1,.38.27.64.64,0,0,1,0,.53,28.07,28.07,0,0,1-2.42,4.88,25.2,25.2,0,0,1-3.06,4,16.2,16.2,0,0,1-3.35,2.78,7.85,7.85,0,0,1-3.33,1.2,5.27,5.27,0,0,1-5-2.85A4.84,4.84,0,0,0,54,38a5.12,5.12,0,0,0,1.73.92A4.08,4.08,0,0,1,53.46,38a4.62,4.62,0,0,1-1.27-1.78,8,8,0,0,1-.55-2.3,13.69,13.69,0,0,1,0-2.38,19.7,19.7,0,0,1,.22-2c.1-.59.19-1,.25-1.28a16.61,16.61,0,0,1,1.58-4.13,12.71,12.71,0,0,1,2.58-3.35A7.8,7.8,0,0,1,59.6,19a6.68,6.68,0,0,1,4.08.38,3.11,3.11,0,0,1,1.77,1.73,5.71,5.71,0,0,1,.38,2.82,11,11,0,0,1-.93,3.38,14.84,14.84,0,0,1-5.18,6.29,11.41,11.41,0,0,1-3.95,1.75,1.67,1.67,0,0,0,.85.9,3.26,3.26,0,0,0,3.1-.18A12.71,12.71,0,0,0,63,33.5a25.24,25.24,0,0,0,3-3.73A35,35,0,0,0,68.13,26Zm-10.91-.45a11.89,11.89,0,0,0-1.85,3.2,12.32,12.32,0,0,0-.8,3.25,7.46,7.46,0,0,0,.17,2.73,2.11,2.11,0,0,0,1.18,1.53,3.52,3.52,0,0,1-1-2.38,11.71,11.71,0,0,1,.22-3.15,17.86,17.86,0,0,1,.9-3.06A8.91,8.91,0,0,1,57.22,25.59Zm-1.8,8.21a8.43,8.43,0,0,0,2.52-1.63,11.6,11.6,0,0,0,2-2.38,10.2,10.2,0,0,0,1.22-2.68,4.85,4.85,0,0,0,.1-2.58,4.11,4.11,0,0,1,.3.68,4,4,0,0,1,.2,1,4.18,4.18,0,0,0,.13-1.48,1.23,1.23,0,0,0-.53-.93,1.76,1.76,0,0,0-2.1.23,7.79,7.79,0,0,0-2,2.4A14.79,14.79,0,0,0,55.84,30,12,12,0,0,0,55.42,33.8Zm.25-.65a12.56,12.56,0,0,1,.5-3.31,15.91,15.91,0,0,1,1-2.6,9.53,9.53,0,0,1,1.1-1.78,8.05,8.05,0,0,1,.85-.93,12.45,12.45,0,0,0-2.43,4.36A36.19,36.19,0,0,0,55.67,33.15Zm9.86-9.92a13.2,13.2,0,0,1-1.48,4.33,17.38,17.38,0,0,1-2.4,3.36A16.32,16.32,0,0,1,59,33.27a15.24,15.24,0,0,1-2.43,1.38,9.13,9.13,0,0,0,2.95-1.45,15.63,15.63,0,0,0,2.88-2.66,14.68,14.68,0,0,0,2.2-3.45A10.43,10.43,0,0,0,65.53,23.23Zm-1.9-3.5c-.34-.13-.7-.27-1.1-.4a4.61,4.61,0,0,0-1.41-.2,6.56,6.56,0,0,0-1.82.3A8.12,8.12,0,0,0,57,20.58c.23-.13.57-.31,1-.53a7.71,7.71,0,0,1,1.56-.52,8.66,8.66,0,0,1,1.9-.2A6.2,6.2,0,0,1,63.63,19.73Zm1.2,11.21A9.88,9.88,0,0,1,64,32.17a16.65,16.65,0,0,1-1.5,1.6,15.55,15.55,0,0,1-1.85,1.5,5.34,5.34,0,0,1-1.93.88c.2-.13.49-.3.88-.5a9.79,9.79,0,0,0,1.35-.9c.52-.4,1.11-.9,1.78-1.5A21.86,21.86,0,0,0,64.83,30.94Z"/><path class="cls-3" d="M76.84,39.45A5.15,5.15,0,0,0,78.6,38a4.69,4.69,0,0,1-4.12-1.75,1.25,1.25,0,0,1-.09-.12,9.94,9.94,0,0,1-1-1.5A3.63,3.63,0,0,1,73,33.4a12.32,12.32,0,0,0,4.3-1.88,13,13,0,0,0,3-2.83A11.51,11.51,0,0,0,82,25.46a11.77,11.77,0,0,0,.65-3.18,6.72,6.72,0,0,0-.35-2.65A3.17,3.17,0,0,0,81.1,18a4.42,4.42,0,0,0-2-.58,4.53,4.53,0,0,0-2.38.55,8.69,8.69,0,0,0-2.5,2.1,16.13,16.13,0,0,0-2.43,4.08,52.51,52.51,0,0,1,2.8-5.8c1-1.71,1.85-3.17,2.65-4.41l2-3A3.88,3.88,0,0,0,80,9.27c-.07-.07-.18-.2-.33-.38s-.26-.24-.32-.18a27,27,0,0,0-1.73,2.53q-1.08,1.72-3,4.58l1.43-2.47,1.22-2.13c.37-.64.69-1.17,1-1.6l.55-.91a2.9,2.9,0,0,0-1.46.2,3.49,3.49,0,0,0-1.25.86l-1,1.3q-.56.75-1.2,1.8-1.09,1.65-2.28,3.8t-2.18,4.41a44.33,44.33,0,0,0-1.67,4.36A15.69,15.69,0,0,0,67,29a25.37,25.37,0,0,1,1.08-3.63C68.62,24,69.25,22.5,70,20.93c-1,2.37-1.89,5-2.77,8a44.65,44.65,0,0,0-1.73,9.21.61.61,0,0,0,.35.55,1.88,1.88,0,0,0,.8.25,3.24,3.24,0,0,0,.88,0,1,1,0,0,0,.57-.2,4.62,4.62,0,0,0,.58-1.8c.15-.87.31-1.72.47-2.55A18.22,18.22,0,0,1,70.64,30,24.46,24.46,0,0,1,73,26.06a14.15,14.15,0,0,1,2.63-2.78,3.83,3.83,0,0,1,2.41-1c.3,0,.45.26.47.68a3.82,3.82,0,0,1-.35,1.55,12.22,12.22,0,0,1-1.1,2,15,15,0,0,1-1.7,2.1,12.55,12.55,0,0,1-2.18,1.78,6.89,6.89,0,0,1-2.5,1,2.93,2.93,0,0,0-.76,1.41,3.72,3.72,0,0,0-.1,1.4.25.25,0,0,0,0,.15.86.86,0,0,0,.1.3A12.8,12.8,0,0,0,71,37.1a6.8,6.8,0,0,0,1.6,1.95,4.55,4.55,0,0,0,2.18,1,5,5,0,0,0,2.77-.38,4.25,4.25,0,0,1-2.55,0A5.16,5.16,0,0,1,72.49,38a7.58,7.58,0,0,0,2.43,1.35A2.76,2.76,0,0,0,76.84,39.45ZM73.66,15.27c.32-.56.66-1.15,1-1.75l1-1.63a9.74,9.74,0,0,1,.55-.82c-.13.27-.35.65-.65,1.15s-.61,1-.92,1.58-.63,1.06-.93,1.55-.52.84-.65,1.07A10.13,10.13,0,0,1,73.66,15.27ZM71,28.29a11.7,11.7,0,0,0-1,1.93,27.22,27.22,0,0,0-1,2.93,41.59,41.59,0,0,0-1,4.5c.07-.73.19-1.61.35-2.63a24.73,24.73,0,0,1,.73-3.1,19.06,19.06,0,0,1,1.18-3,6.62,6.62,0,0,1,1.65-2.2C71.64,27.27,71.32,27.79,71,28.29Zm5,.28a13.3,13.3,0,0,0,2-2.76,9.69,9.69,0,0,0,.88-2.3,9.21,9.21,0,0,0,.2-1.23,4.86,4.86,0,0,1-.23,2.38,10.22,10.22,0,0,1-1.28,2.53,10.87,10.87,0,0,1-2.12,2.3,11.53,11.53,0,0,1-2.78,1.7A13.42,13.42,0,0,0,76,28.57ZM73.39,36.9a8.45,8.45,0,0,1-1.25-1.58,5.65,5.65,0,0,1-.75-1.67,8.63,8.63,0,0,0,.62,1.1,12.27,12.27,0,0,0,1.13,1.5,9.28,9.28,0,0,0,1.45,1.35,2.9,2.9,0,0,0,1.55.65,1.77,1.77,0,0,1-1.3-.25A6,6,0,0,1,73.39,36.9Z"/><path class="cls-3" d="M77.34,17.15a4.43,4.43,0,0,0-1.7,1.23,4.89,4.89,0,0,1,1.3-.8,5.2,5.2,0,0,1,1.68-.43A3.82,3.82,0,0,1,82,18.63a2.79,2.79,0,0,0-1.1-1.28,3.36,3.36,0,0,0-1.68-.52A4.34,4.34,0,0,0,77.34,17.15Z"/><path class="cls-3" d="M65.88,33.65c.13-.77.27-1.48.43-2.13s.27-1.18.37-1.58a16.75,16.75,0,0,0-.58,1.8c-.18.71-.34,1.43-.47,2.18a22.07,22.07,0,0,0-.28,2.2,10.13,10.13,0,0,0,0,1.93,16.43,16.43,0,0,1,.15-2.1C65.63,35.18,65.75,34.41,65.88,33.65Z"/><path class="cls-2" d="M26,78.38H25.8A16.6,16.6,0,0,1,22,77.7a13.52,13.52,0,0,0,1.42.22l1.52.13c.28,0,.56,0,.85,0A6.62,6.62,0,0,1,25,76.92a3.49,3.49,0,0,1-.2-.44,11.18,11.18,0,0,1-3.15-.77,12.62,12.62,0,0,0,3.07.59c-.08-.2-.16-.41-.23-.61A9.6,9.6,0,0,1,18.58,73,6.52,6.52,0,0,1,17,68.81a9.59,9.59,0,0,1,.65-3.76c-.13-.2-.25-.41-.38-.62L17,65.1a8.7,8.7,0,0,0-.47,2.29,8.5,8.5,0,0,1,.65-3.11,13.91,13.91,0,0,1-1.5-3.67c-.07.08-.15.15-.22.24a11,11,0,0,0-2,3.51,13.24,13.24,0,0,0-.72,4.93c.06-.43.15-.94.27-1.52s.27-1.2.45-1.84a14.56,14.56,0,0,1,.72-2,12,12,0,0,1,1.14-2,12.33,12.33,0,0,0-1.76,5.5,9.38,9.38,0,0,0,1.22,5.5,8.93,8.93,0,0,0,4.25,4,16,16,0,0,0,3.86,1.19,21.51,21.51,0,0,0,3.2.32Z"/><path class="cls-2" d="M26,76.88a15.69,15.69,0,0,1-3.65-.63l-.79,2.89a20.16,20.16,0,0,0,4.18.41c1,0,2-1.31,1.29-2.25a7.33,7.33,0,0,1-.92-1.58,1.54,1.54,0,0,0-1.3-.74,11,11,0,0,1-2.76-.72l-.79,2.89a16.34,16.34,0,0,0,3.47.65,1.5,1.5,0,0,0,1.44-1.9c-.08-.2-.15-.4-.22-.61a1.57,1.57,0,0,0-1.45-1.1c-2.18-.23-4.61-1.32-5.59-3.4a6,6,0,0,1-.41-3.27A12,12,0,0,1,19,65.75a2.21,2.21,0,0,0-.42-2.07c-.52-.87-2.13-1.08-2.59,0A11.93,11.93,0,0,0,15,67.39h3a7.63,7.63,0,0,1,.23-1.64c.19-.71.57-1.3.29-2-.21-.56-.58-1.09-.82-1.65a11.64,11.64,0,0,1-.6-1.84,1.51,1.51,0,0,0-2.51-.66,13.89,13.89,0,0,0-3.37,9.74c0,1.62,2.67,2.12,2.94.39a16.75,16.75,0,0,1,2.44-7L14,61.16c-2.41,4.08-2.78,9.22-.1,13.27s7.55,5.33,12.16,5.51a1.52,1.52,0,0,0,1.07-2.56l-.06-.06a1.51,1.51,0,0,0-2.12,0,1.54,1.54,0,0,0,0,2.12l.05.06,1.06-2.56c-3.46-.13-7.51-.93-9.57-4a9.49,9.49,0,0,1,.1-10.24c1-1.68-1.52-3.1-2.59-1.52a18.83,18.83,0,0,0-2.74,7.73l3,.4a10.81,10.81,0,0,1,2.49-7.62L14.2,61a16.06,16.06,0,0,0,1.65,4l-.15-1.16A10.36,10.36,0,0,0,15,67.39c-.08,2,2.82,1.9,3,0a7.31,7.31,0,0,1,.54-2.2H15.94c.12.21.25.41.38.62l-.15-1.16a9.33,9.33,0,0,0,.75,8.62,10.47,10.47,0,0,0,7.59,3.92l-1.44-1.1c.07.2.14.41.22.61l1.45-1.9a12.25,12.25,0,0,1-2.68-.54,1.5,1.5,0,1,0-.79,2.89,13.9,13.9,0,0,0,3.55.83l-1.3-.74a8,8,0,0,0,.93,1.57l1.3-2.26a16,16,0,0,1-3.39-.3c-1.87-.38-2.67,2.37-.79,2.89a19.09,19.09,0,0,0,4.44.74C27.94,80,27.94,77,26,76.88Z"/><path class="cls-2" d="M24.35,75.14A9.1,9.1,0,0,1,22,74.46a7.61,7.61,0,0,1-2.41-1.69,6.06,6.06,0,0,1-1.32-2.19,10.21,10.21,0,0,1-.5-2.31,11.9,11.9,0,0,1,0-2.07c0-.28.07-.53.1-.75a.35.35,0,0,0-.05-.08,8.75,8.75,0,0,0-.45,3.74,6.61,6.61,0,0,0,4.29,5.6,8.57,8.57,0,0,0,2.72.59S24.36,75.19,24.35,75.14Z"/><path class="cls-2" d="M24.75,73.69a11.21,11.21,0,0,1-1.64-.4l-.29-.1c.22.08-.09,0-.13-.06-.25-.12-.5-.25-.74-.39s-.4-.25-.59-.39c-.38-.26.15.16-.18-.14L21,72a4.33,4.33,0,0,1-.87-1,4.12,4.12,0,0,1-.52-1.25,8.94,8.94,0,0,1-.3-1.45,12.81,12.81,0,0,1,0-1.75l0-.32c0-.53,0,.12,0-.14a1.93,1.93,0,0,0-.17-1.45,1.53,1.53,0,0,0-2.75.36,9.34,9.34,0,0,0,.83,8,9.19,9.19,0,0,0,7.18,3.8,1.51,1.51,0,0,0,1.45-1.9l-.05-.16a1.5,1.5,0,1,0-2.89.8l.05.16,1.44-1.9a7.34,7.34,0,0,1-1.52-.26A4.7,4.7,0,0,1,21.55,73a5.39,5.39,0,0,1-.6-.37c-.05,0-.27-.2-.12-.08l-.28-.24a5.29,5.29,0,0,1-.52-.54s-.23-.28-.1-.1l-.21-.31a6.65,6.65,0,0,1-.33-.58s-.16-.35-.12-.24-.07-.22-.08-.25a7.25,7.25,0,0,1-.22-.76c0-.14,0-.27-.08-.4-.05-.29,0,.32,0-.18a7.34,7.34,0,0,1,.41-3.18l-2.74.36.05.08-.15-1.16c-.41,2.55-.24,5.5,1.25,7.7A9.34,9.34,0,0,0,24,76.58a1.5,1.5,0,0,0,.8-2.89Z"/><path class="cls-3" d="M61.19,61.92a1.36,1.36,0,0,1,.57-.72.87.87,0,0,1,.57-.13.57.57,0,0,1,.38.28.62.62,0,0,1,0,.52,28.1,28.1,0,0,1-2.41,4.85,25.53,25.53,0,0,1-3,4A16.32,16.32,0,0,1,54,73.47a7.92,7.92,0,0,1-3.32,1.19,5.5,5.5,0,0,1-3-.77,5.37,5.37,0,0,1-1.91-2.07,4.61,4.61,0,0,0,1.42,2,5.14,5.14,0,0,0,1.71.92,4,4,0,0,1-2.24-.87,4.62,4.62,0,0,1-1.27-1.77,8.17,8.17,0,0,1-.54-2.29,13.45,13.45,0,0,1,0-2.36,19.48,19.48,0,0,1,.22-2c.1-.58.18-1,.25-1.27a15.92,15.92,0,0,1,1.57-4.11,12.7,12.7,0,0,1,2.56-3.33,7.74,7.74,0,0,1,3.36-1.84,6.61,6.61,0,0,1,4.06.37A3,3,0,0,1,58.52,57a5.67,5.67,0,0,1,.38,2.81A11.16,11.16,0,0,1,58,63.14a15.13,15.13,0,0,1-2.07,3.38,14.56,14.56,0,0,1-3.08,2.87,11.34,11.34,0,0,1-3.94,1.74,1.72,1.72,0,0,0,.85.89,3.26,3.26,0,0,0,3.09-.17,12.93,12.93,0,0,0,3.28-2.51,25.53,25.53,0,0,0,2.94-3.71A36.45,36.45,0,0,0,61.19,61.92Zm-10.85-.45a12.1,12.1,0,0,0-1.85,3.19,12.45,12.45,0,0,0-.79,3.23,7.65,7.65,0,0,0,.17,2.72A2.11,2.11,0,0,0,49,72.12a3.51,3.51,0,0,1-.94-2.36,11.66,11.66,0,0,1,.22-3.14,16.69,16.69,0,0,1,.9-3A8.78,8.78,0,0,1,50.34,61.47Zm-1.8,8.16A8.35,8.35,0,0,0,51.06,68a11.76,11.76,0,0,0,2-2.37A10.42,10.42,0,0,0,54.27,63a4.89,4.89,0,0,0,.1-2.56,3.63,3.63,0,0,1,.3.67,4.38,4.38,0,0,1,.2,1A4.34,4.34,0,0,0,55,60.65a1.22,1.22,0,0,0-.52-.92,1.76,1.76,0,0,0-2.09.22,7.7,7.7,0,0,0-2,2.39A14.62,14.62,0,0,0,49,65.9,12.17,12.17,0,0,0,48.54,69.63Zm.25-.64a12.9,12.9,0,0,1,.5-3.29,16.14,16.14,0,0,1,1-2.59,9.31,9.31,0,0,1,1.09-1.76,7,7,0,0,1,.85-.92,12.29,12.29,0,0,0-2.42,4.33A40.2,40.2,0,0,0,48.79,69Zm9.81-9.86a13.47,13.47,0,0,1-1.47,4.31,16.7,16.7,0,0,1-2.39,3.33,15,15,0,0,1-2.69,2.34,14.6,14.6,0,0,1-2.41,1.37A8.85,8.85,0,0,0,52.58,69a16.06,16.06,0,0,0,2.86-2.64A14.58,14.58,0,0,0,57.63,63,10.41,10.41,0,0,0,58.6,59.13Zm-1.89-3.48c-.33-.13-.7-.27-1.1-.4a4.48,4.48,0,0,0-1.39-.2,6.56,6.56,0,0,0-1.82.3,8.4,8.4,0,0,0-2.26,1.14c.23-.13.57-.3,1-.52a7.51,7.51,0,0,1,1.54-.52,8.63,8.63,0,0,1,1.89-.2A6.1,6.1,0,0,1,56.71,55.65ZM57.9,66.8A8.69,8.69,0,0,1,57,68a16.35,16.35,0,0,1-1.49,1.59A15.18,15.18,0,0,1,53.7,71.1a5.27,5.27,0,0,1-1.92.87c.2-.13.49-.29.87-.49a9.79,9.79,0,0,0,1.35-.9c.51-.4,1.1-.9,1.76-1.49A20.45,20.45,0,0,0,57.9,66.8Z"/><path class="cls-3" d="M76,61.92a1.46,1.46,0,0,1,.57-.72.89.89,0,0,1,.58-.13.55.55,0,0,1,.37.28.62.62,0,0,1,0,.52,27.4,27.4,0,0,1-2.41,4.85,25.53,25.53,0,0,1-3,4,16.32,16.32,0,0,1-3.33,2.77,7.93,7.93,0,0,1-3.31,1.19,5.45,5.45,0,0,1-3-.77,5.39,5.39,0,0,1-1.92-2.07,4.78,4.78,0,0,0,1.42,2,5.08,5.08,0,0,0,1.72.92,4,4,0,0,1-2.24-.87,4.42,4.42,0,0,1-1.27-1.77,8.17,8.17,0,0,1-.55-2.29,14.49,14.49,0,0,1,0-2.36,19.48,19.48,0,0,1,.22-2c.1-.58.19-1,.25-1.27a16.29,16.29,0,0,1,1.57-4.11,12.7,12.7,0,0,1,2.56-3.33,7.74,7.74,0,0,1,3.36-1.84,6.61,6.61,0,0,1,4.06.37A3.09,3.09,0,0,1,73.31,57a5.67,5.67,0,0,1,.37,2.81,11.16,11.16,0,0,1-.92,3.36,15.12,15.12,0,0,1-5.15,6.25,11.37,11.37,0,0,1-3.93,1.74,1.71,1.71,0,0,0,.84.89,3.26,3.26,0,0,0,3.09-.17,12.76,12.76,0,0,0,3.28-2.51,24.87,24.87,0,0,0,2.94-3.71A34.65,34.65,0,0,0,76,61.92Zm-10.85-.45a11.8,11.8,0,0,0-1.84,3.19,12.49,12.49,0,0,0-.8,3.23,7.41,7.41,0,0,0,.18,2.72,2.06,2.06,0,0,0,1.17,1.51,3.52,3.52,0,0,1-.95-2.36,12.08,12.08,0,0,1,.22-3.14,17.52,17.52,0,0,1,.9-3A8.78,8.78,0,0,1,65.12,61.47Zm-1.79,8.16A8.43,8.43,0,0,0,65.84,68a11.76,11.76,0,0,0,2-2.37A10.09,10.09,0,0,0,69.05,63a4.79,4.79,0,0,0,.1-2.56,3.63,3.63,0,0,1,.3.67,3.92,3.92,0,0,1,.2,1,4.34,4.34,0,0,0,.12-1.47,1.22,1.22,0,0,0-.52-.92,1.76,1.76,0,0,0-2.09.22,7.84,7.84,0,0,0-2,2.39,14.62,14.62,0,0,0-1.42,3.56A11.84,11.84,0,0,0,63.33,69.63Zm.25-.64a12.9,12.9,0,0,1,.49-3.29,16.14,16.14,0,0,1,1-2.59,9.31,9.31,0,0,1,1.09-1.76,7,7,0,0,1,.85-.92,12.1,12.1,0,0,0-2.41,4.33A35.77,35.77,0,0,0,63.58,69Zm9.8-9.86a13,13,0,0,1-1.47,4.31,16.7,16.7,0,0,1-2.39,3.33,15.67,15.67,0,0,1-5.1,3.71A8.85,8.85,0,0,0,67.36,69a15.73,15.73,0,0,0,2.86-2.64A14.58,14.58,0,0,0,72.41,63,10.22,10.22,0,0,0,73.38,59.13Zm-1.89-3.48c-.33-.13-.7-.27-1.09-.4a4.54,4.54,0,0,0-1.4-.2,6.43,6.43,0,0,0-1.81.3,8.3,8.3,0,0,0-2.27,1.14c.23-.13.57-.3,1-.52a7.51,7.51,0,0,1,1.54-.52,8.66,8.66,0,0,1,1.9-.2A6,6,0,0,1,71.49,55.65Zm1.2,11.15A9.93,9.93,0,0,1,71.81,68a16.35,16.35,0,0,1-1.49,1.59,14.45,14.45,0,0,1-1.84,1.49,5.27,5.27,0,0,1-1.92.87c.2-.13.49-.29.87-.49a9.23,9.23,0,0,0,1.35-.9c.51-.4,1.1-.9,1.77-1.49A22.49,22.49,0,0,0,72.69,66.8Z"/><path class="cls-3" d="M89.48,57.69a4.46,4.46,0,0,1-.82,2.39,2.38,2.38,0,0,0,.77-.92,3.7,3.7,0,0,0,.4-1.35,3.26,3.26,0,0,0-.15-1.39,2,2,0,0,0-.82-1.07A3.57,3.57,0,0,1,89.48,57.69Z"/><path class="cls-3" d="M80.52,73.57c.42-.9.74-1.69,1-2.37s.38-1.13.44-1.37h-.1A18.93,18.93,0,0,1,81,72.1c-.38.84-.79,1.7-1.24,2.56s-.92,1.7-1.42,2.52-1,1.5-1.39,2.06A19,19,0,0,0,79,76.4,30.67,30.67,0,0,0,80.52,73.57Z"/><path class="cls-2" d="M89.14,56.66a22.83,22.83,0,0,1-3.64,4.4l.13-.09a2.67,2.67,0,0,1,1.09-.34,2.41,2.41,0,0,0,.85-.15,1.94,1.94,0,0,0,1.29-1.25,4.31,4.31,0,0,0,.35-2.14A3,3,0,0,0,89.14,56.66Z"/><path class="cls-2" d="M87.84,55.91a18.23,18.23,0,0,1-1.08,1.57l.23-.31A28.46,28.46,0,0,1,84.44,60a1.5,1.5,0,0,0,1.82,2.36,2.78,2.78,0,0,1,.42-.22l-.36.15a3,3,0,0,1,.66-.2l-.4.05A10.09,10.09,0,0,0,87.67,62a4.4,4.4,0,0,0,.92-.33A3.25,3.25,0,0,0,90,60.39a5.68,5.68,0,0,0,.63-4.13,1.51,1.51,0,0,0-1.84-1,1.53,1.53,0,0,0-1,1.84c0,.12,0,.24.07.36L87.7,57a4.44,4.44,0,0,1,0,1l0-.39a4.84,4.84,0,0,1-.32,1.17l.15-.36a3.14,3.14,0,0,1-.37.64l.23-.3a1.67,1.67,0,0,1-.33.32l.31-.23a1.63,1.63,0,0,1-.34.19l.36-.15a3.09,3.09,0,0,1-.79.22l.4,0a6.13,6.13,0,0,0-1.13.14,4.2,4.2,0,0,0-1.17.51l1.82,2.36a24.9,24.9,0,0,0,3.87-4.7,1.5,1.5,0,0,0-2.59-1.51Z"/><path class="cls-2" d="M86.35,64.06a1.14,1.14,0,0,0-.37-.52c-.14-.09-.22,0-.25.22s-.11.37-.23.8-.25.92-.4,1.47-.33,1.12-.54,1.71a14.53,14.53,0,0,1-.68,1.6,38.12,38.12,0,0,0,1.2-3.86c.23-1,.38-1.65.45-2a1.85,1.85,0,0,0-.7-.35.56.56,0,0,0-.6.15c-.49.63-.94,1.21-1.34,1.75-.3.37-.56.71-.82,1-.53,1.07-1,2.16-1.54,3.24l.07-.05a1.74,1.74,0,0,0-.12.14c-.16.32-.32.64-.49,1a3.8,3.8,0,0,0-.09.59,17.85,17.85,0,0,1,1.37-1.32,18.27,18.27,0,0,0,1.47-1.42c-.3,1-.72,2.17-1.27,3.54a40.64,40.64,0,0,1-1.84,4A19.06,19.06,0,0,1,77.39,79a4.5,4.5,0,0,1-2.51,1.69,2.55,2.55,0,0,0,.59-1.46,1.48,1.48,0,0,0-.37-1.07,1.59,1.59,0,0,0-1-.48,2,2,0,0,0-1.3.33,2.73,2.73,0,0,1,1.75-.9,2.84,2.84,0,0,0-2.19.6,2.76,2.76,0,0,0-.65,3.51,2.68,2.68,0,0,0,1.64,1.27,4.46,4.46,0,0,0,2.17.07,6.65,6.65,0,0,0,2.56-1.17,12.87,12.87,0,0,0,2.69-2.69,21.57,21.57,0,0,0,2.54-4.48l0,0a1.71,1.71,0,0,1,.12-.23l.09-.15c.16-.36.36-.71.54-1.06a14.87,14.87,0,0,1,.72-1.51c.06-.21.14-.46.24-.76,0-.07.12-.31.25-.75s.28-.91.45-1.44.32-1,.47-1.47a3.54,3.54,0,0,1,.37-.87,2.14,2.14,0,0,0,.05-1A4.31,4.31,0,0,0,86.35,64.06ZM73,78.59a5.87,5.87,0,0,0-.94.7,1.94,1.94,0,0,1,1.32-1c.58-.14,1-.07,1.17.19A1.75,1.75,0,0,0,73,78.59Zm9-2.51a15.16,15.16,0,0,1-1.55,2.46,12.81,12.81,0,0,1-2.33,2.39,6.77,6.77,0,0,1-3.07,1.4A8.4,8.4,0,0,0,77.71,81a12.84,12.84,0,0,0,2.07-1.89,15.7,15.7,0,0,0,1.64-2.24c.48-.79.92-1.59,1.32-2.39A10.68,10.68,0,0,1,82.07,76.08Z"/><path class="cls-2" d="M87.64,63.3A2.09,2.09,0,0,0,85.86,62c-.94,0-1.4.75-1.64,1.54a33.93,33.93,0,0,1-1.63,5l2.74,1.15A39.6,39.6,0,0,0,87,63.86a1.56,1.56,0,0,0-.69-1.69A2.66,2.66,0,0,0,84,61.69c-.88.28-1.42,1.28-1.95,2a12.84,12.84,0,0,0-1.5,2.11c-.44.92-.86,1.85-1.3,2.76-.59,1.21.72,3,2.05,2l.07,0-1.82-2.35a4.92,4.92,0,0,0-1.14,2.75A1.51,1.51,0,0,0,81,72c.9-1,1.94-1.78,2.84-2.74l-2.51-1.46a40,40,0,0,1-2.62,6.49c-.87,1.7-2.16,4.52-4.19,5l1.69,2.2a3.45,3.45,0,0,0,.22-4A3.32,3.32,0,0,0,72,76.75l1.82,2.36a1.65,1.65,0,0,1,1.08-.51c1.72-.31,1.22-2.89-.4-2.95a4.33,4.33,0,0,0-4.7,4,4.42,4.42,0,0,0,4.52,4.49c5,.19,8.45-5.16,10.23-9.17l-2.35.3,0,0a1.52,1.52,0,0,0,2.36-.3,32,32,0,0,0,2.23-5.22c.29-1,.54-1.94.92-2.85a4.29,4.29,0,0,0,0-3.32c-.68-1.79-3.59-1-2.9.8a2.29,2.29,0,0,1,.25,1.06,7.24,7.24,0,0,1-.44,1.14c-.3.88-.56,1.76-.84,2.64A25.22,25.22,0,0,1,82,73.53l2.36-.3,0,0a1.52,1.52,0,0,0-2.36.31c-1.19,2.69-2.78,5.59-5.42,7.09-.89.51-2.55,1-3.4.16A1.27,1.27,0,0,1,73,79.27c.35-.62.89-.64,1.54-.62l-.4-3A4.33,4.33,0,0,0,71.72,77a1.51,1.51,0,0,0,1.82,2.35c.78-.41.32.23,0,.64-.79,1.13.51,2.48,1.69,2.2,2.7-.65,4.43-3.45,5.65-5.74a43.81,43.81,0,0,0,3.27-7.85,1.51,1.51,0,0,0-2.51-1.46c-.91,1-1.94,1.78-2.84,2.74l2.56,1.06c0,.11.17-.51.26-.63a1.53,1.53,0,0,0,.12-2,1.48,1.48,0,0,0-1.94-.39l-.07,0L81.83,70a28,28,0,0,1,1.6-3.31,11.83,11.83,0,0,1,2-2.53l-.66.38c-.3,0-.31,0,0,.18l-.69-1.7a41.35,41.35,0,0,1-1.64,5.88c-.56,1.59,2,2.69,2.74,1.15a35.35,35.35,0,0,0,2-6.11l-.38.66.08-.07L85.46,65l.12,0-.67-.38c.08-.08.13,0,.14.22C85.93,66.54,88.52,65,87.64,63.3Z"/><path class="cls-2" d="M72.28,77.3a6.34,6.34,0,0,0-.6.41,5.49,5.49,0,0,0-.65.52l2.35,1.82a2.64,2.64,0,0,1,.23-.35l-.24.3a1.88,1.88,0,0,1,.35-.34l-.31.23a1.76,1.76,0,0,1,.42-.24l-.36.15a2.46,2.46,0,0,1,.59-.16l-.4.06a1.55,1.55,0,0,1,.43,0l-.4,0a.79.79,0,0,1,.22,0l-.35-.15.15.09-.3-.23a1.14,1.14,0,0,1,.11.11L75,77a3.36,3.36,0,0,0-.63-.13,2.43,2.43,0,0,0-.6,0,3.31,3.31,0,0,0-1.47.47,1.52,1.52,0,0,0-.69.9,1.5,1.5,0,0,0,2.2,1.69l.26-.14-.36.15a1.85,1.85,0,0,1,.42-.11l-.4,0a1.62,1.62,0,0,1,.44,0l-.4,0a2.07,2.07,0,0,1,.43.1l.4,0a1.11,1.11,0,0,0,.57-.12,1.46,1.46,0,0,0,.72-.62,1.8,1.8,0,0,0,.21-.76,1.25,1.25,0,0,0-.13-.57,1.21,1.21,0,0,0-.31-.49,1.72,1.72,0,0,0-.52-.41,2.52,2.52,0,0,0-1-.28,1.88,1.88,0,0,0-.41,0,4.8,4.8,0,0,0-.83.14,3.56,3.56,0,0,0-2.06,1.69,1.57,1.57,0,0,0-.15,1.16l.15.36a1.31,1.31,0,0,0,.39.42,1.42,1.42,0,0,0,.91.32,1.56,1.56,0,0,0,1.06-.44l.25-.22-.3.24c.22-.17.46-.33.69-.48a1.5,1.5,0,0,0,.54-2,1.51,1.51,0,0,0-.9-.69A1.49,1.49,0,0,0,72.28,77.3Z"/><path class="cls-2" d="M80.77,75.32a14.23,14.23,0,0,1-1.19,2l-.21.3s-.21.27-.1.14-.07.08-.09.1L79,78a11.38,11.38,0,0,1-.82.88c-.27.27-.56.53-.86.78a1.84,1.84,0,0,1-.22.17c.12-.09.09-.06,0,0l-.5.32-.46.25c-.11.06-.25.12-.05,0l-.24.09a7.54,7.54,0,0,1-1.13.3l.79,2.89c4.09-1.3,6.67-4.83,8.52-8.5l-2.75-1.16a1.55,1.55,0,0,1-.07.23c0,.12-.09.45,0,0a4.65,4.65,0,0,1-.44.93,1.55,1.55,0,0,0,.54,2.06,1.53,1.53,0,0,0,2-.54,11.34,11.34,0,0,0,.83-1.93,1.5,1.5,0,0,0-2.75-1.15c-.43.85-.89,1.69-1.39,2.5a12.9,12.9,0,0,1-.78,1.15c-.06.09-.12.15,0,0l-.22.27c-.14.18-.3.36-.45.53-.3.32-.61.64-.94.93l-.48.41-.09.07-.27.2a8.21,8.21,0,0,1-1.06.63l-.3.15c-.21.11.32-.12-.07,0l-.64.22a1.5,1.5,0,1,0,.79,2.89,9.29,9.29,0,0,0,4.71-2.64,15.57,15.57,0,0,0,3.13-4.29,1.5,1.5,0,0,0-2.59-1.52Z"/><path class="cls-3" d="M89.38,56.67a3.21,3.21,0,0,0-.87-1.92,2.73,2.73,0,0,0-2.41-.62,2.79,2.79,0,0,1,1.69.55,2.66,2.66,0,0,1,.84,1.19,1.87,1.87,0,0,0-1.19-1.14,2.45,2.45,0,0,0-2.27.35,4.44,4.44,0,0,0-1.66,2.54A12.58,12.58,0,0,1,81.07,59a3,3,0,0,1-2,.3,1.69,1.69,0,0,0,.27-1.89,1.73,1.73,0,0,0-1.37-1,3.75,3.75,0,0,1,1.2-.1,2.41,2.41,0,0,0-2.22,0,3.41,3.41,0,0,0-1.44,1.52A4,4,0,0,0,75.14,60a2.37,2.37,0,0,0,1,1.8c-.13.2-.26.42-.4.67s-.28.5-.45.77c0,0,0,.09.15.17a1.77,1.77,0,0,0,.35.23,4.07,4.07,0,0,0,.38.17c.11,0,.19.06.22,0,.16-.27.31-.53.45-.8s.25-.51.35-.75a7.57,7.57,0,0,0,2,.28,4.25,4.25,0,0,0,2-.43,6.14,6.14,0,0,0-1.07,1A8.47,8.47,0,0,0,79,64.83,13.68,13.68,0,0,0,78.11,67a7,7,0,0,0-.33,2.41,20.24,20.24,0,0,1,.7-2.61,8.68,8.68,0,0,1,1.12-2.21,6.31,6.31,0,0,0-.4.74,11.35,11.35,0,0,0-.47,1.22c-.13.42-.25.81-.35,1.17a3.52,3.52,0,0,0-.15.85l.35-.9a4,4,0,0,1,.6-1.1,6.74,6.74,0,0,0-.75,2.17,4.25,4.25,0,0,0,0,2,11.23,11.23,0,0,1,.32-1.27,2.13,2.13,0,0,1,.58-1A4.13,4.13,0,0,0,79,69.64a3.54,3.54,0,0,0,.1,1.46A6,6,0,0,1,80,69.64a4.06,4.06,0,0,1,.77-.83,2.09,2.09,0,0,0-.6,1,5.93,5.93,0,0,0-.1.67,17.85,17.85,0,0,1,1.37-1.32,20.17,20.17,0,0,0,1.47-1.42c-.3,1-.72,2.17-1.27,3.53a42,42,0,0,1-1.84,4,19.06,19.06,0,0,1-2.24,3.36,4.5,4.5,0,0,1-2.51,1.69,2.55,2.55,0,0,0,.59-1.47,1.52,1.52,0,0,0-.37-1.07,1.63,1.63,0,0,0-1-.47,2,2,0,0,0-1.3.33,2.73,2.73,0,0,1,1.75-.9,2.84,2.84,0,0,0-2.19.6,2.76,2.76,0,0,0-.65,3.51A2.63,2.63,0,0,0,73.5,82.1a4.46,4.46,0,0,0,2.17.08A6.65,6.65,0,0,0,78.23,81a12.87,12.87,0,0,0,2.69-2.69,21.57,21.57,0,0,0,2.54-4.48l0,0a1.27,1.27,0,0,1,.12-.23l.09-.15c.16-.36.36-.72.54-1.06A13.92,13.92,0,0,1,85,70.92c.06-.21.14-.46.24-.76,0-.07.12-.32.25-.75s.28-.91.45-1.44.32-1,.47-1.47a3.54,3.54,0,0,1,.37-.87,2.18,2.18,0,0,0,.05-1,4.21,4.21,0,0,0-.27-.94,1.14,1.14,0,0,0-.37-.52c-.14-.09-.22,0-.25.22s-.11.37-.23.8-.25.92-.4,1.46-.33,1.12-.54,1.72a13.55,13.55,0,0,1-.68,1.59,37.3,37.3,0,0,0,1.2-3.85c.23-1,.38-1.65.45-2a1.85,1.85,0,0,0-.7-.35.56.56,0,0,0-.6.15c-.49.63-.94,1.21-1.34,1.74l-1,1.3a9.32,9.32,0,0,1-.62.74,14.06,14.06,0,0,1,1.37-2.91,12,12,0,0,1,1.54-2,5.49,5.49,0,0,1,1.47-1.15,2.72,2.72,0,0,1,1.09-.35,2.41,2.41,0,0,0,.85-.15A1.9,1.9,0,0,0,89,58.81,4.31,4.31,0,0,0,89.38,56.67Zm-12.94.6a5.56,5.56,0,0,0-.6,1.14,4,4,0,0,0-.25,1.4A2.4,2.4,0,0,0,76,61.2a1.36,1.36,0,0,1-.55-.85,3.1,3.1,0,0,1,0-1.29,4.29,4.29,0,0,1,.5-1.37A2.69,2.69,0,0,1,77,56.62,2.28,2.28,0,0,0,76.44,57.27ZM73.2,78.17a5.87,5.87,0,0,0-.94.7,2,2,0,0,1,1.32-1.05c.58-.13,1-.06,1.17.2A1.69,1.69,0,0,0,73.2,78.17Zm9-2.51a15.16,15.16,0,0,1-1.55,2.46,12.81,12.81,0,0,1-2.33,2.39,6.77,6.77,0,0,1-3.07,1.4,8.4,8.4,0,0,0,2.59-1.3A12.84,12.84,0,0,0,80,78.72a15.7,15.7,0,0,0,1.64-2.24c.48-.8.92-1.59,1.32-2.39A10.68,10.68,0,0,1,82.24,75.66ZM81.12,60.48a4.36,4.36,0,0,1-1.2.25.79.79,0,0,1-.74-.28,4,4,0,0,0,1.74-.1,7.63,7.63,0,0,0,2.34-1.09,4.79,4.79,0,0,1-.9.65A7.3,7.3,0,0,1,81.12,60.48ZM84,61.75a11.53,11.53,0,0,0-1.1,1.37,13.62,13.62,0,0,0-1,1.66,7,7,0,0,0-.67,1.79,6.55,6.55,0,0,1,1.12-3,10.68,10.68,0,0,1,2.51-2.76Q84.5,61.15,84,61.75Zm3.21-6.2a1.86,1.86,0,0,0-1.12.1,3.16,3.16,0,0,0-1,.67,4.52,4.52,0,0,0-.78,1,3.76,3.76,0,0,1,1-1.52,2.19,2.19,0,0,1,1.19-.52,1.75,1.75,0,0,1,1.1.25,1.86,1.86,0,0,1,.75.84A2.35,2.35,0,0,0,87.17,55.55Z"/><path class="cls-3" d="M48.94,41a2.07,2.07,0,0,1,.07.49,5.68,5.68,0,0,1,0,.9,4.15,4.15,0,0,0-1.74-1.94,6.75,6.75,0,0,0-2.74-.87,9.49,9.49,0,0,0-3.34.25,14,14,0,0,0-3.58,1.41,3.14,3.14,0,0,0-1.3,1.25,4.38,4.38,0,0,0-.54,1.44,13.28,13.28,0,0,1,3.36-2,10.72,10.72,0,0,1,3.08-.8,5,5,0,0,1,2.49.35,3.37,3.37,0,0,1,1.62,1.42,3.38,3.38,0,0,0-2.19-1.47,7.17,7.17,0,0,0-3.06,0,9.48,9.48,0,0,0-3.14,1.27A7.6,7.6,0,0,0,35.5,45,8.27,8.27,0,0,1,38,43.09a6.7,6.7,0,0,1,2.78-.85,13.05,13.05,0,0,0-1.94.7A9.7,9.7,0,0,0,37,44.08a9.09,9.09,0,0,0-1.64,1.69A7,7,0,0,0,34.25,48a9.77,9.77,0,0,1,2.87-2.78,11.25,11.25,0,0,1,3.48-1.57,5.58,5.58,0,0,1,3,0,2,2,0,0,1,1.46,1.92,4.77,4.77,0,0,1-.24,2.19,10.29,10.29,0,0,1-1.15,2.33,10.45,10.45,0,0,1-1.84,2.12,7.91,7.91,0,0,1-2.34,1.47A12.57,12.57,0,0,0,35,52a16.35,16.35,0,0,0-4.48-.25q.64-1.2,1.62-2.94T34,45.4q.9-1.62,2.24-3.91l-.05-.05a.66.66,0,0,0,0-.54c-.1.2-.3.55-.6,1.07s-.64,1.12-1,1.81L33.31,46l-1.22,2.21c-.38.7-.72,1.3-1,1.8s-.47.83-.57,1c.4-.86.9-1.87,1.49-3s1.18-2.27,1.75-3.33l1.46-2.74c.42-.76.64-1.18.68-1.24a3,3,0,0,0-1-.65,9.11,9.11,0,0,0-1.29-.4,2.3,2.3,0,0,0-1.7.33c-.63.34-1.46.83-2.48,1.46a8,8,0,0,1-2.14,1,1.74,1.74,0,0,1-.57,0c.11-.44.24-.87.39-1.3v0a1.69,1.69,0,0,0,.18-.47.58.58,0,0,0-.39-.7h0l.12-.2a9.11,9.11,0,0,0,.7-1.52.52.52,0,0,0,0-.25.57.57,0,0,0-.27-1.06.54.54,0,0,0-.53.66.61.61,0,0,0-.3.35A7.85,7.85,0,0,1,26,39.15c-.23.4-.51.76-.71,1.17l-.6,1.29a5.51,5.51,0,0,0-.46,1.31c0,.06,0,.11,0,.17A2,2,0,0,0,24,44.55a1.62,1.62,0,0,0,.72,1,2.57,2.57,0,0,0,1.22.37,4.59,4.59,0,0,0,1.25,0,4.45,4.45,0,0,1-2-.42,2,2,0,0,1-.87-.85,1.51,1.51,0,0,1-.15-.92c0-.15.06-.28.09-.4a2,2,0,0,0,1.07,2,3.48,3.48,0,0,0,1.14.33l.72.1a6.88,6.88,0,0,0,1.11,0,9.36,9.36,0,0,0,1.3-.06,30.39,30.39,0,0,0-2,4.43c-.66,1.84-1.51,4.11-2.53,6.79a4.63,4.63,0,0,0-1.57,0,11.8,11.8,0,0,0-2.49.52,12.89,12.89,0,0,0-2.86,1.32,11.14,11.14,0,0,0-2.72,2.31,11.63,11.63,0,0,0-2,3.51,13.7,13.7,0,0,0-.72,4.93c.07-.43.16-.94.27-1.52s.27-1.19.45-1.84a16,16,0,0,1,.72-2,11.82,11.82,0,0,1,1.15-2,12.22,12.22,0,0,0-1.77,5.5A9.44,9.44,0,0,0,14.74,73,9,9,0,0,0,19,77a15.84,15.84,0,0,0,3.86,1.19,24.25,24.25,0,0,0,5.27.33c-.4,0-1.18,0-2.34-.08A16.52,16.52,0,0,1,22,77.73a13.13,13.13,0,0,0,1.42.22c.48,0,1,.1,1.52.13a17.37,17.37,0,0,0,4.75-.45,16.65,16.65,0,0,0,4.55-1.79,17.94,17.94,0,0,0,7.22-7.67,15.57,15.57,0,0,0,1.74-6.92,10.18,10.18,0,0,0-1.59-5.77A16.25,16.25,0,0,0,45,53.22a13.62,13.62,0,0,0,2.81-3.29,11.63,11.63,0,0,0,1.55-4.13A10.14,10.14,0,0,0,48.94,41Zm-16,11.27a12,12,0,0,1,2,.32,8.34,8.34,0,0,1,1.71.65,3.11,3.11,0,0,1,1.1.9A5.12,5.12,0,0,0,36,53.07a10.87,10.87,0,0,0-2.07-.53,16.84,16.84,0,0,0-1.87-.17,8.15,8.15,0,0,0-1.19,0A7.81,7.81,0,0,1,32.93,52.27ZM36,53.54A7.9,7.9,0,0,0,34.15,53l-1.64-.28a7.42,7.42,0,0,1,1.42.08A5.46,5.46,0,0,1,36,53.54Zm.29,1.09a8.86,8.86,0,0,1-3-.1,6.9,6.9,0,0,1-2.41-.94A8.92,8.92,0,0,1,36.29,54.63Zm-8.06-10.7a4.46,4.46,0,0,0,1.57-.64l1.52-1a14.93,14.93,0,0,1,1.42-.9A1.41,1.41,0,0,1,34,41.2a1.76,1.76,0,0,0-1.22.29c-.45.27-.93.58-1.42.92s-1,.69-1.52,1A3.32,3.32,0,0,1,28.23,43.93ZM26.39,55l.9-2.37c.29-.79.58-1.5.84-2.11a6.28,6.28,0,0,1,.6-1.17q-.11.19-.45,1.14c-.23.63-.51,1.35-.82,2.14s-.63,1.59-.95,2.37-.57,1.38-.77,1.81C25.87,56.34,26.09,55.74,26.39,55Zm-9.08,9a8.83,8.83,0,0,1,2.51-3c-.3.26-.63.59-1,1a8,8,0,0,0-1,1.37A10.89,10.89,0,0,0,17,65.14a8.94,8.94,0,0,0-.48,2.29A8.32,8.32,0,0,1,17.31,63.92Zm14.5,11a11.85,11.85,0,0,1-3.35,1.37,11.22,11.22,0,0,1-3.46.25,11.41,11.41,0,0,1-3.34-.8A12.44,12.44,0,0,0,28.5,76a13.22,13.22,0,0,0,6.3-3.61A12,12,0,0,1,31.81,74.92Zm8-10.75A10.8,10.8,0,0,1,38.73,67c-.16.33-.33.65-.49.94s-.34.59-.5.85a11.34,11.34,0,0,0,.62-1.62,9.5,9.5,0,0,0,.32-1.47,18.31,18.31,0,0,1-5,6.82A14.21,14.21,0,0,1,28,75.49a10.46,10.46,0,0,1-5.4-.12,9.11,9.11,0,0,1-4-2.37A6.54,6.54,0,0,1,17,68.85a9.46,9.46,0,0,1,.94-4.48,9.6,9.6,0,0,1,2.91-3.54,6.4,6.4,0,0,1,4.33-1.27A4.11,4.11,0,0,1,28.26,61a3.89,3.89,0,0,1,.57,3.38,2.52,2.52,0,0,0-.15-1.29,1.76,1.76,0,0,0-.8-.9,3.46,3.46,0,0,1,.35,1.94A3.9,3.9,0,0,1,27.56,66a3.47,3.47,0,0,1-1.62,1.24,4.13,4.13,0,0,1-2.44.13A3.54,3.54,0,0,0,24.57,69a3.34,3.34,0,0,0,1.55.75,2.56,2.56,0,0,0,1.51-.15,1.66,1.66,0,0,0,.95-1.05,1.46,1.46,0,0,0,1.84,0,3.89,3.89,0,0,0,1.35-2.37,9.62,9.62,0,0,0-.25-5.42,5.74,5.74,0,0,0-3.74-3.39c.43-1,.9-2,1.4-2.93a4.58,4.58,0,0,0,1.39,1.24,7.32,7.32,0,0,0,2.09.85,12.29,12.29,0,0,0,2.59.34,12,12,0,0,0,2.84-.24l.2,0a.62.62,0,0,1,.19,0,6.27,6.27,0,0,1,1.15,2.14,10.19,10.19,0,0,1,.45,2.61A11.26,11.26,0,0,1,39.8,64.17Zm8.69-16.6a11.52,11.52,0,0,1-1.44,2.81,13.86,13.86,0,0,1-2.32,2.56,13.71,13.71,0,0,1-3.11,2,14.42,14.42,0,0,0,5-4.45,18.35,18.35,0,0,0,2.49-5.8A11.45,11.45,0,0,1,48.49,47.57Z"/><path class="cls-3" d="M19.59,72.8a5.9,5.9,0,0,1-1.31-2.19,9.59,9.59,0,0,1-.5-2.31,10.21,10.21,0,0,1,0-2.07A7.69,7.69,0,0,1,18,64.79a9,9,0,0,0-.65,4.35,6.93,6.93,0,0,0,1.34,3.44,6.85,6.85,0,0,0,2.94,2.16,9.24,9.24,0,0,0,4.13.6A10.73,10.73,0,0,1,22,74.5,7.68,7.68,0,0,1,19.59,72.8Z"/><path class="cls-3" d="M25.49,67.2a3,3,0,0,0,1.25-.64,3.76,3.76,0,0,0,.89-1.2A3.7,3.7,0,0,0,28,63.69a4.17,4.17,0,0,1-1.54,2.62,4.09,4.09,0,0,1-2.39.82A2.54,2.54,0,0,0,25.49,67.2Z"/><path class="cls-3" d="M35.79,20.73c.13,0,.23.14.3.43a4.76,4.76,0,0,1,.12,1,8.7,8.7,0,0,1,0,1.15,2.3,2.3,0,0,1-.15.76l-2.3,4.8c-.84,1.74-1.66,3.43-2.48,5.08s-1.59,3.16-2.3,4.51l-1.68,3.13a2.2,2.2,0,0,1-.75.77,3,3,0,0,1-1.25.43,1,1,0,0,0,.47-.43,8.94,8.94,0,0,0,.53-.82c.16-.3.31-.59.42-.85a1.69,1.69,0,0,0,.18-.6,2.45,2.45,0,0,1-.23.42c-.15.25-.34.54-.57.85a6.78,6.78,0,0,1-.8.9,1.93,1.93,0,0,1-1,.53,2.5,2.5,0,0,0,.68-.9c.25-.47.49-1,.73-1.5s.45-1,.65-1.56a10.21,10.21,0,0,0,.4-1.15,17.07,17.07,0,0,1-2.13,4c-.75,1-1.39,1.48-1.93,1.48a5.45,5.45,0,0,0,.83-1c.35-.51.69-1.07,1-1.67s.66-1.18,1-1.73.5-.94.6-1.18a15.1,15.1,0,0,1-1.46,1.55,10.39,10.39,0,0,1-1.77,1.36,9.78,9.78,0,0,1-2.08.95,7.63,7.63,0,0,1-2.3.35,5.32,5.32,0,0,1-2.38-.43,5,5,0,0,1-1.88-1.45,6.28,6.28,0,0,1-1.17-2.45,10.88,10.88,0,0,1-.23-3.53,10.67,10.67,0,0,0-.08,3A8.42,8.42,0,0,0,13.34,39a5.81,5.81,0,0,0,.8,1.4,10.5,10.5,0,0,0,.72.83,5.27,5.27,0,0,1-2.23-2.76,11.13,11.13,0,0,1-.57-4,22,22,0,0,1,.67-4.73,50,50,0,0,1,1.56-5.08c.61-1.71,1.29-3.35,2-4.93s1.44-3,2.11-4.29a38.83,38.83,0,0,1,4.65-6.78,21.48,21.48,0,0,1,4.41-3.9,10.44,10.44,0,0,1,3.95-1.61,7.49,7.49,0,0,1,3.31.18,4.57,4.57,0,0,1,2.38,1.78,7.49,7.49,0,0,1,1.17,3,12,12,0,0,1,.08,3.55,12.75,12.75,0,0,1-.93,3.53,10,10,0,0,1-1.85,2.91,5.55,5.55,0,0,1-2.65,1.65,3.5,3.5,0,0,1-2.61-.15,2.44,2.44,0,0,1-1.2-1.43,2.28,2.28,0,0,1,.15-1.7,1.74,1.74,0,0,1,1.4-1,.66.66,0,0,0-.47.61c-.05.33,0,.53.07.6a.79.79,0,0,1,.1-.53.68.68,0,0,1,.55-.32.49.49,0,0,0-.22.67.81.81,0,0,0,.77.48,1.61,1.61,0,0,0,1.28-.63,6.43,6.43,0,0,0,1.1-1.73,11.08,11.08,0,0,0,.75-2.3,9.12,9.12,0,0,0,.23-2.4,5.62,5.62,0,0,0-.43-2,1.89,1.89,0,0,0-1.22-1.11,4.85,4.85,0,0,0-3.46.63,13.65,13.65,0,0,0-3.85,3.18,36.54,36.54,0,0,0-3.63,5.06,55.71,55.71,0,0,0-3.13,5.93,49.48,49.48,0,0,0-2.33,6.11,32.11,32.11,0,0,0-1.23,5.5,10.79,10.79,0,0,0,.18,4.18,2.86,2.86,0,0,0,1.88,2.16,4.49,4.49,0,0,0,3.6-.48,15,15,0,0,0,3.56-2.83,29.81,29.81,0,0,0,3.12-4,36.39,36.39,0,0,0,2.28-3.86c.34-.67.63-1.27.88-1.8s.49-1,.72-1.5a20.33,20.33,0,0,0-2.17.77c-.75.32-1.47.65-2.16,1s-1.3.67-1.85,1-1,.6-1.28.8a6.77,6.77,0,0,1,1.21-1.07,18,18,0,0,1,3.2-1.83,7.23,7.23,0,0,0-1.35.55c-.54.27-1.07.57-1.6.9s-1,.67-1.46,1a6.88,6.88,0,0,0-.9.8,3.93,3.93,0,0,1,.68-1,11.53,11.53,0,0,1,1-1,8.89,8.89,0,0,1,1-.78,2.6,2.6,0,0,1,.83-.37,4.46,4.46,0,0,0-1.6.7A5.11,5.11,0,0,0,23.87,28a1.43,1.43,0,0,1-.07-.65,8.51,8.51,0,0,1,.12-.95c.07-.33.14-.64.2-.93a2.32,2.32,0,0,1,.2-.57,7.15,7.15,0,0,1,1.86-1.33A20.32,20.32,0,0,1,29,22.36a34.82,34.82,0,0,1,3.35-1A22.08,22.08,0,0,1,35.79,20.73ZM13.56,30.34c.3-1,.63-2.09,1-3.18S15.3,25,15.66,24s.75-2,1.13-2.88.76-1.7,1.13-2.4a11,11,0,0,0-1.23,2.18c-.45,1-.89,2.05-1.3,3.2s-.8,2.3-1.15,3.43A18.69,18.69,0,0,0,13.56,30.34ZM30,3.11a12.62,12.62,0,0,0-4.18,2.4,28.58,28.58,0,0,0-4,4.11,38.08,38.08,0,0,0-3.45,5.05,32,32,0,0,0-2.46,5.26,19,19,0,0,1,.9-2.78,29.3,29.3,0,0,1,1.66-3.4c.66-1.19,1.42-2.38,2.25-3.58a22.53,22.53,0,0,1,2.75-3.28,17.78,17.78,0,0,1,3.16-2.5A8.7,8.7,0,0,1,30,3.11ZM16.21,31.24a30.93,30.93,0,0,1,1.11-4.08q.75-2.22,1.75-4.53t2.18-4.53q1.17-2.22,2.4-4.1a31.8,31.8,0,0,1,2.43-3.28,10.52,10.52,0,0,1,2.2-2.05,40,40,0,0,0-3.35,4.55q-1.75,2.7-3.36,5.76c-1.07,2-2.07,4.12-3,6.26S16.85,29.38,16.21,31.24Zm8.57-7.1a11.06,11.06,0,0,1,3-2A18.86,18.86,0,0,1,31,21a16.25,16.25,0,0,1,2.78-.45,5.69,5.69,0,0,1,1.73.07,22.51,22.51,0,0,0-4.16.65,26.85,26.85,0,0,0-3.28,1.08,17.59,17.59,0,0,0-2.25,1.1C25.27,23.81,24.91,24,24.78,24.14Zm3.75.15.78-.33c.35-.15.71-.29,1.1-.42s.76-.26,1.12-.38a6.09,6.09,0,0,1,.95-.23c-.16-.1-.62,0-1.37.18A11.77,11.77,0,0,0,28.53,24.29Zm.25,12.81a11,11,0,0,0,.88-1.42l1.17-2.18c.44-.8.87-1.65,1.3-2.53s.85-1.73,1.23-2.53.73-1.5,1-2.1.5-1,.6-1.3c-.34.5-.78,1.24-1.33,2.22s-1.12,2.07-1.7,3.26-1.16,2.37-1.73,3.55Zm2.3-19.57a1.54,1.54,0,0,0,1.43.1A3.29,3.29,0,0,0,34,16.3a9,9,0,0,0,1.15-2.73,14.28,14.28,0,0,0,.35-4.2,16.6,16.6,0,0,1-.65,4.4,9.1,9.1,0,0,1-1.23,2.61,2.93,2.93,0,0,1-1.4,1.12A1.72,1.72,0,0,1,31.08,17.53Z"/></g></g></svg>