<svg xmlns="http://www.w3.org/2000/svg" xmlns:xlink="http://www.w3.org/1999/xlink" viewBox="0 0 433.96 401.36"><defs><style>.cls-1{stroke-miterlimit:10;stroke-width:24px;fill:url(#Dégradé_sans_nom_98);stroke:url(#COULEUR_GEEK_BEEZ);}.cls-2{fill:#fff;}.cls-3{fill:#353435;}.cls-4{fill:url(#COULEUR_GEEK_BEEZ-2);}.cls-5{fill:url(#COULEUR_GEEK_BEEZ-3);}.cls-6{fill:url(#COULEUR_GEEK_BEEZ-4);}.cls-7{fill:url(#COULEUR_GEEK_BEEZ-5);}.cls-8{fill:url(#COULEUR_GEEK_BEEZ-6);}.cls-9{fill:url(#COULEUR_GEEK_BEEZ-7);}.cls-10{fill:url(#COULEUR_GEEK_BEEZ-8);}.cls-11{fill:url(#COULEUR_GEEK_BEEZ-9);}</style><radialGradient id="Dégradé_sans_nom_98" cx="216.98" cy="192.73" r="193.24" gradientUnits="userSpaceOnUse"><stop offset="0" stop-color="#fdc32d" stop-opacity="0.4"/><stop offset="0.33" stop-color="#fcc233" stop-opacity="0.35"/><stop offset="0.92" stop-color="#fabe42" stop-opacity="0.22"/><stop offset="1" stop-color="#fabe44" stop-opacity="0.2"/></radialGradient><linearGradient id="COULEUR_GEEK_BEEZ" y1="192.73" x2="433.96" y2="192.73" gradientUnits="userSpaceOnUse"><stop offset="0" stop-color="#fabf44"/><stop offset="1" stop-color="#f39547"/></linearGradient><linearGradient id="COULEUR_GEEK_BEEZ-2" x1="187.85" y1="375.95" x2="219.39" y2="375.95" xlink:href="#COULEUR_GEEK_BEEZ"/><linearGradient id="COULEUR_GEEK_BEEZ-3" x1="199.47" y1="349.04" x2="207.63" y2="349.04" xlink:href="#COULEUR_GEEK_BEEZ"/><linearGradient id="COULEUR_GEEK_BEEZ-4" x1="193.45" y1="382.55" x2="216.76" y2="382.55" gradientTransform="translate(-1.64 -19.99)" xlink:href="#COULEUR_GEEK_BEEZ"/><linearGradient id="COULEUR_GEEK_BEEZ-5" x1="219.01" y1="356.53" x2="228.65" y2="356.53" xlink:href="#COULEUR_GEEK_BEEZ"/><linearGradient id="COULEUR_GEEK_BEEZ-6" x1="236.64" y1="356.53" x2="246.21" y2="356.53" xlink:href="#COULEUR_GEEK_BEEZ"/><linearGradient id="COULEUR_GEEK_BEEZ-7" x1="227.74" y1="364.69" x2="237.28" y2="364.69" xlink:href="#COULEUR_GEEK_BEEZ"/><linearGradient id="COULEUR_GEEK_BEEZ-8" x1="227.74" y1="347.8" x2="237.28" y2="347.8" xlink:href="#COULEUR_GEEK_BEEZ"/><linearGradient id="COULEUR_GEEK_BEEZ-9" x1="162.2" y1="356.1" x2="185.91" y2="356.1" xlink:href="#COULEUR_GEEK_BEEZ"/></defs><g id="Calque_2" data-name="Calque 2"><g id="Calque_2-2" data-name="Calque 2"><path class="cls-1" d="M108.52,365.24,14.17,200.88a16.41,16.41,0,0,1,0-16.3L108.52,20.22A16.38,16.38,0,0,1,122.72,12H311.24a16.38,16.38,0,0,1,14.2,8.22l94.34,164.36a16.36,16.36,0,0,1,0,16.3L325.44,365.24a16.36,16.36,0,0,1-14.2,8.22H122.72A16.36,16.36,0,0,1,108.52,365.24Z"/><path class="cls-2" d="M174.52,353.19c-3.85,0-7.35-2.2-11.2-2.2-5.86,0-11,7-11.57,13.88-.54,6.3-1.48,12,4.81,12a142.85,142.85,0,0,0,18.2-2c6.07-1.25,9.15-4.07,11-10S180.81,353.19,174.52,353.19Z"/><path class="cls-2" d="M234.56,356.59c3.55,0,6.76-2,10.31-2,5.4,0,10.11,6.42,10.66,12.78.49,5.79,1.35,11-4.43,11a133,133,0,0,1-16.76-1.83c-5.58-1.15-8.43-3.75-10.1-9.23S228.78,356.59,234.56,356.59Z"/><path class="cls-3" d="M224.48,373.68a18.34,18.34,0,0,1-1.7,4.85,21.36,21.36,0,0,1-3.09,4.43,22.65,22.65,0,0,1-6.55,4.88,15.27,15.27,0,0,0-7.41,8.52c-.6,1.62-1.26,3.21-2,5l-.88-2.55a25,25,0,0,0-3.77-7.3,11.8,11.8,0,0,0-3.68-3,36.31,36.31,0,0,1-5.9-3.62,21,21,0,0,1-4.45-5.25,20.17,20.17,0,0,1-2.31-5.92,36.78,36.78,0,0,1-4.23,2.45A45.15,45.15,0,0,1,167.25,380c-1.55.31-3.12.51-4.69.7a53.89,53.89,0,0,1-7.93.23,27.16,27.16,0,0,1-4-.36c-.31-.06-.41-.14-.4-.45,0-2.09-.1-4.19,0-6.27a55.73,55.73,0,0,1,3.13-16.06,40,40,0,0,1,6.23-11.35,32.17,32.17,0,0,1,10.31-8.7,29,29,0,0,1,9.16-3,24.29,24.29,0,0,1,5.24-.37,17.34,17.34,0,0,1,3.66.36c.44.13.58-.19.58-.53a13.12,13.12,0,0,1,1.22-5.36,11.49,11.49,0,0,1,1.75-2.82,14.77,14.77,0,0,1,5.82-4.23l.91-.35a7.33,7.33,0,0,0-2.53-2.39c-.22-.16-.47-.26-.68-.42a1,1,0,0,0-1.35,0,3,3,0,0,1-3.39.11,3.08,3.08,0,0,1-1.58-3.16,3.13,3.13,0,0,1,2.22-2.76,3.21,3.21,0,0,1,4,2,.57.57,0,0,0,.36.42,14,14,0,0,1,6.26,5.09.61.61,0,0,0,.76.28,7.85,7.85,0,0,1,2.56,0,.58.58,0,0,0,.72-.25,14,14,0,0,1,6.24-5.12.64.64,0,0,0,.4-.47,3.4,3.4,0,0,1,3.3-2.14,3.28,3.28,0,0,1,3,3.38,3.22,3.22,0,0,1-5.18,2.5c-.22-.15-.38-.28-.64-.16a9.79,9.79,0,0,0-3.56,2.76c-.23.31-.08.39.15.46a13.41,13.41,0,0,1,4.3,2.37,13.26,13.26,0,0,1,5.07,10.33c0,.44.2.5.53.44a24.33,24.33,0,0,1,5-.39,30.54,30.54,0,0,1,10.41,2.16,29.66,29.66,0,0,1,7.76,4.61,34.79,34.79,0,0,1,5.4,5.58,38.85,38.85,0,0,1,4.78,8,45.81,45.81,0,0,1,3,8.88c.44,1.88.74,3.79,1.06,5.69.16,1,.21,2,.29,3,.19,2.51.09,5,.16,7.54,0,.68-.3.84-.82.89A60.41,60.41,0,0,1,247,381a46.71,46.71,0,0,1-13.86-2.86A39.92,39.92,0,0,1,224.48,373.68ZM211.1,343.35c-.5,0-1-.06-1.39.5a2.36,2.36,0,0,0-.21,1.82,16.87,16.87,0,0,0,1,2.65,66.42,66.42,0,0,0,5.23,9.95,45.85,45.85,0,0,0,4,5.25,34.61,34.61,0,0,0,4.68,4.46,37.28,37.28,0,0,0,7.42,4.48,15.21,15.21,0,0,0,4.79,1.42c.69.08,1-.22,1.25-.86.18-.41,0-.69-.05-1a21,21,0,0,0-.93-5.16,25.19,25.19,0,0,0-5.52-9.81,29.76,29.76,0,0,0-5.83-5.08c-3.83-2.52-7.71-5-11.56-7.5A4.47,4.47,0,0,0,211.1,343.35ZM197.82,345c0-.92-.41-1.54-1.07-1.62a4.13,4.13,0,0,0-2.69.59c-1.48.92-2.92,1.91-4.39,2.85-2,1.28-4,2.52-6,3.82a41.11,41.11,0,0,0-5.78,4.39,27.88,27.88,0,0,0-5.17,6.38,25.61,25.61,0,0,0-2.89,7.56c-.26,1.22-.31,2.46-.53,3.68a1.15,1.15,0,0,0,.79,1.2,3,3,0,0,0,1.77-.15,26.25,26.25,0,0,0,8-3.66,33.39,33.39,0,0,0,7.63-6.5,52.36,52.36,0,0,0,3.31-4.27,65.69,65.69,0,0,0,6.19-11.54A6.67,6.67,0,0,0,197.82,345Zm5.41,37.1a18.8,18.8,0,0,0,3.7-.26c3.86-.69,7.36-2.06,10-5.12a10.11,10.11,0,0,0,2.45-6.42c0-.39-.09-.53-.51-.42A66.12,66.12,0,0,1,204.14,372c-1.76.06-3.53,0-5.29-.1-1.57-.1-3.13-.28-4.69-.46s-3.36-.62-5-.9c-.4-.07-.87-.49-1.16-.16s0,.81.06,1.23a10.46,10.46,0,0,0,5.73,8.29A17.76,17.76,0,0,0,203.23,382.06Zm-36.34-27.95a14.2,14.2,0,0,0,3.69-.78,67,67,0,0,0,8.74-3.57q3.45-1.63,6.78-3.49a72.26,72.26,0,0,0,6.61-4.06c.77-.54.71-1.19-.14-1.61a4.34,4.34,0,0,0-.54-.25,26.18,26.18,0,0,0-5.54-1.26,24.66,24.66,0,0,0-6.48,0,23.58,23.58,0,0,0-8.22,2.76,22.25,22.25,0,0,0-7.47,6.26,4.42,4.42,0,0,0-.92,3.64A3.25,3.25,0,0,0,166.89,354.11Zm73.16,0c2.83,0,4.11-1.65,3.86-3.5a6.69,6.69,0,0,0-1.95-3.7,25.12,25.12,0,0,0-8-5.77A24,24,0,0,0,223,339a27.94,27.94,0,0,0-4.2.43,16.76,16.76,0,0,0-4.29,1.3c-.64.31-.71.75-.21,1.26a5.47,5.47,0,0,0,.83.68,87.88,87.88,0,0,0,8.38,4.92,93.38,93.38,0,0,0,11.62,5.27A19.21,19.21,0,0,0,240.05,354.11Zm-82.81,22.36,2.44-.1a29.6,29.6,0,0,0,5.15-.74c1.15-.25,2.25-.75,2.41-2.14a19.21,19.21,0,0,0,.15-2,16.93,16.93,0,0,1,.8-4.85,37.78,37.78,0,0,1,2.43-5.85,7.06,7.06,0,0,0,.89-3.63,1.19,1.19,0,0,0-.84-1.15,2.71,2.71,0,0,0-1.46-.09,31.06,31.06,0,0,1-6.46.66,5.28,5.28,0,0,0-5.33,3.54,36,36,0,0,0-2,8.07c-.2,1.25-.34,2.52-.44,3.79s-.24,2.67-.24,4c0,.35.13.5.48.49C155.83,376.46,156.44,376.47,157.24,376.47Zm92.95,0c.59,0,1.18,0,1.77,0,.4,0,.56-.11.57-.54a30.55,30.55,0,0,0-.18-3.58,42.44,42.44,0,0,0-.93-6.53,26.46,26.46,0,0,0-2-6.48,4.81,4.81,0,0,0-4.2-2.73,50.7,50.7,0,0,1-7.27-.71,2,2,0,0,0-1.79.32c-.73.65-.44,1.49-.32,2.22a17,17,0,0,0,1.86,4.56A23.54,23.54,0,0,1,240,373a2.33,2.33,0,0,0,1.75,2.37A29.15,29.15,0,0,0,250.19,376.47Zm-47.62-9.83a51.29,51.29,0,0,0,6.87-.39c1.8-.2,3.58-.52,5.35-.83.4-.08.42-.24.16-.54a43.09,43.09,0,0,1-4.26-6.05c-.17-.28-.28-.4-.65-.37-1,.07-2,.23-2.94.33-.77.08-1.53,0-2.29.11a24,24,0,0,1-6.39-.15c-1.37-.18-1.64-.15-2.39,1.05a.93.93,0,0,1-.13.15,38.58,38.58,0,0,1-3.9,5.27c-.18.19-.36.41.13.48,1.5.21,3,.53,4.5.65A41.58,41.58,0,0,0,202.57,366.64Zm-3.1-13.14a6.24,6.24,0,0,0,1.47.19c1.25,0,2.5,0,3.74,0,.87,0,1.74-.14,2.61-.22.38,0,.41-.17.24-.53a77.57,77.57,0,0,1-3.38-8.3c-.1-.27-.19-.38-.46-.34s-.42-.07-.55.3A78.78,78.78,0,0,1,199.47,353.5Z"/><path class="cls-4" d="M203.23,382.07a17.67,17.67,0,0,1-9.49-2.19A10.45,10.45,0,0,1,188,371.6c0-.42-.31-1-.06-1.24s.76.09,1.16.16c1.69.29,3.36.7,5,.9s3.12.37,4.69.46c1.76.11,3.53.16,5.29.11a62.84,62.84,0,0,0,7.37-.65,61.26,61.26,0,0,0,7.37-1.49c.42-.11.52,0,.51.43a10.13,10.13,0,0,1-2.45,6.42c-2.65,3.06-6.15,4.42-10,5.12A18.77,18.77,0,0,1,203.23,382.07Z"/><path class="cls-5" d="M199.47,353.55a79.4,79.4,0,0,0,3.67-8.9c.13-.38.34-.27.55-.3s.36.06.46.33a77.73,77.73,0,0,0,3.38,8.31c.17.35.14.49-.24.52-.87.08-1.74.19-2.61.22-1.24,0-2.49,0-3.74,0A6.26,6.26,0,0,1,199.47,353.55Z"/><path class="cls-6" d="M202.57,366.64a41.58,41.58,0,0,1-5.94-.29c-1.51-.12-3-.44-4.5-.65-.49-.07-.31-.29-.13-.48a38.58,38.58,0,0,0,3.9-5.27.93.93,0,0,0,.13-.15c.75-1.2,1-1.23,2.39-1.05a24,24,0,0,0,6.39.15c.76-.1,1.52,0,2.29-.11,1-.1,2-.26,2.94-.33.37,0,.48.09.65.37a43.09,43.09,0,0,0,4.26,6.05c.26.3.24.46-.16.54-1.77.31-3.55.63-5.35.83A51.29,51.29,0,0,1,202.57,366.64Z"/><path class="cls-7" d="M228.65,356.42c-.18,3.22-2.05,4.9-4.71,4.91-2.93,0-4.88-1.67-4.93-4.85a4.52,4.52,0,0,1,4.82-4.76A4.7,4.7,0,0,1,228.65,356.42Z"/><path class="cls-8" d="M236.67,356.5c-.33-2.71,2.31-4.82,4.75-4.82a5,5,0,0,1,4.79,4.8,4.8,4.8,0,0,1-4.79,4.89C238.82,361.42,236.33,359.06,236.67,356.5Z"/><path class="cls-9" d="M237.24,364.6c0,3-1.79,4.84-4.74,4.87a4.67,4.67,0,0,1-4.76-4.81,4.81,4.81,0,0,1,5.06-4.75C234.85,359.91,237.64,362.14,237.24,364.6Z"/><path class="cls-10" d="M232.62,343.06c2.89,0,4.56,1.87,4.66,5a4.68,4.68,0,0,1-4.72,4.53,4.78,4.78,0,0,1-4.82-4.84C227.71,345.36,229.77,342.73,232.62,343.06Z"/><path class="cls-11" d="M162.24,356.13a28.37,28.37,0,0,0,0-3.06c-.1-1,.3-1.14,1.17-1.11,1.86.07,3.73,0,5.59,0,.66,0,.91-.13.89-.85-.06-2.07,0-4.15,0-6.23,0-.58.13-.77.74-.76q3.5,0,7,0c.6,0,.77.16.76.76,0,2.07,0,4.15,0,6.22,0,.71.2.88.87.86,2,0,4,0,5.92,0,.59,0,.86.06.85.78-.06,2.32,0,4.64,0,7,0,.64-.23.74-.78.73-2,0-4,0-5.92,0-.71,0-1,.14-.94.91.06,2,0,4,0,6,0,.54-.13.72-.7.72-2.36,0-4.71,0-7.07,0-.56,0-.71-.16-.7-.71,0-2,0-4.08,0-6.12,0-.67-.19-.82-.83-.8-2,0-3.94,0-5.91,0-.77,0-.94-.22-.9-.94C162.28,358.39,162.24,357.26,162.24,356.13Z"/><path class="cls-2" d="M134.77,17.07q12.87-9.18,25.21-11T180.6,8.7q8.27,4.5,10.51,14.9T185.8,49.52a141.33,141.33,0,0,1-19.29,30.11,117.57,117.57,0,0,1-24.19,21.94,100.2,100.2,0,0,1-27.45,13.06,84.49,84.49,0,0,1-29.08,3.47Q80.88,133,79.56,142.9a76.47,76.47,0,0,0-.92,15,8.91,8.91,0,0,1-2.14-4,27.72,27.72,0,0,1-.92-5.82,85.33,85.33,0,0,0-2.24,10c-.41,2.72-.69,5-.82,6.74q-1.63-3.89-.92-11.13a127.4,127.4,0,0,1,3.16-17.25,104,104,0,0,0-5.51,16.64,90.8,90.8,0,0,0-1.83,11.74Q65,162,65.88,151.78t7.86-25.51a79.43,79.43,0,0,0-7.55,19.08,96.67,96.67,0,0,0-2.65,14.8q-2.25-4.08-.72-14.9t10.31-29.39a6.35,6.35,0,0,1-4-2.25,8,8,0,0,1-1.84-4.18,9.76,9.76,0,0,1,.72-4.9,11,11,0,0,1,3.67-4.59,6.24,6.24,0,0,0-.81,2.35,16.23,16.23,0,0,0-.21,2.55,10.9,10.9,0,0,1,2.45-3.06A3.58,3.58,0,0,1,76.4,101a2.43,2.43,0,0,0-1.13,2.35A3.25,3.25,0,0,0,77,105.86q1.23-2.86,4.18-10.31t7-17.35q4.08-9.9,8.87-20.82t9.7-20.71q4.91-9.81,9.39-17.25t8.16-10.31q5.1-4.08,9.09-3.67a12.11,12.11,0,0,1,6.83,2.85q-1.42,2.25-2.75,4.39T134.77,17.07Zm-14.08-5.51q-2.25,1.83-6.12,8t-8.88,15.92q-5,9.8-10.72,23T83.54,87.49Q86,79.12,88.85,70.24T95,53q3.27-8.35,6.63-15.82a129.46,129.46,0,0,1,6.74-13.06,53.59,53.59,0,0,1,6.53-9Q118,11.77,120.69,11.56Zm56.13,24.29q1.43-7.55-1.53-11.64a13.27,13.27,0,0,0-8.37-5.2,29.53,29.53,0,0,0-12.55.51,59.16,59.16,0,0,0-14.19,5.31A63.84,63.84,0,0,0,127,34a39.73,39.73,0,0,0-9.39,12.25q-8.17,16.13-15,31.12T89.26,107.49A61.55,61.55,0,0,1,91,99a57.39,57.39,0,0,1,3-8.67,95.49,95.49,0,0,0-6.33,16.73c0,.14-.13.28-.41.41a3.09,3.09,0,0,1-2.24,0,9,9,0,0,0,4.08.82,74.2,74.2,0,0,0,25.92-4.8A92.47,92.47,0,0,0,136.3,92,100.42,100.42,0,0,0,153,76.67a134.85,134.85,0,0,0,12.25-16.33,113.52,113.52,0,0,0,7.86-14.49A65.23,65.23,0,0,0,176.82,35.85ZM91.71,110.14a82.34,82.34,0,0,0,18.37-2.24,75.68,75.68,0,0,0,19.59-7.65,89.05,89.05,0,0,0,19.08-14.5A94.6,94.6,0,0,0,165.39,63.2a142,142,0,0,1-11.63,15.72,91.22,91.22,0,0,1-15.82,14.59,94.66,94.66,0,0,1-20.52,11.23A81,81,0,0,1,91.71,110.14Zm33.88-98.58c-1,.54-2.35,2.21-4.19,5s-3.81,6.06-5.92,9.8-4.18,7.72-6.22,11.94-3.75,8-5.1,11.22q7.14-14.49,13-24.18T125.59,11.56Zm43.27,5.71c-2.32-1.35-5.61-2-9.9-2A40.91,40.91,0,0,0,145,18a55.18,55.18,0,0,0-15,8.57,53.13,53.13,0,0,0-13,15.21,64.65,64.65,0,0,1,11.23-11.94,62.11,62.11,0,0,1,13.37-8.47A53.34,53.34,0,0,1,155.69,17,34,34,0,0,1,168.86,17.27Zm-43.27,88.18a22,22,0,0,0,4.59-1.74c1.84-.88,3.74-1.9,5.72-3.06s3.8-2.34,5.51-3.57a23.81,23.81,0,0,0,4-3.47c-1,.55-2.25,1.36-3.88,2.45s-3.37,2.21-5.21,3.37-3.71,2.28-5.61,3.37S127.08,104.77,125.59,105.45ZM182.33,8.5q7.54,1.83,10.51,7.55A24.5,24.5,0,0,1,195.5,28.6a40.39,40.39,0,0,1-3,13.37,35.55,35.55,0,0,1-5.92,10.21q5.91-12.26,6.43-20.31t-1.53-13a17.34,17.34,0,0,0-5.11-7.25C184.37,10.1,183,9,182.33,8.5Z"/><path class="cls-2" d="M136.29,19.66A61.12,61.12,0,0,1,155.74,10c6.26-1.67,13.19-2.2,19.41-.33A17.81,17.81,0,0,1,186.8,19.79c2.23,5.06,2.22,10.53.91,16C186,43,182.6,49.65,179.05,56.05a135.42,135.42,0,0,1-11.86,18,115.08,115.08,0,0,1-32.4,28.67c-13.08,7.59-27.91,12.26-43.09,12.48-2,0-3.94,0-5.91-.13a3.06,3.06,0,0,0-2.9,2.21,159.82,159.82,0,0,0-5.65,21.19c-1.14,6.29-2.08,13-1.6,19.41l5.12-2.13c-1.65-1.74-2-5.14-2.18-7.67-.22-3.27-5-4.2-5.89-.8a94.11,94.11,0,0,0-3.17,17.54l5.89-.8c-1.56-3.85-1.11-8.22-.57-12.45a133.23,133.23,0,0,1,2.82-14.33,3,3,0,0,0-5.79-1.59,98.51,98.51,0,0,0-7.45,29.17l5.12-2.12c.55.67.08.1,0-.1s-.37-.87-.11-.14a14.4,14.4,0,0,1-.42-1.42c-.09-.37-.15-.74-.21-1.11.08.53,0-.38,0-.45-.06-.7-.09-1.41-.1-2.11a52.71,52.71,0,0,1,.24-5.62,30.89,30.89,0,0,1,.56-3.78,93.34,93.34,0,0,1,6.89-20.22,3.08,3.08,0,0,0-1.07-4.1,3,3,0,0,0-4.11,1.08,89.85,89.85,0,0,0-10.61,35.39l5.59-1.51c-.09-.17-.39-1-.15-.28-.1-.3-.21-.6-.3-.91s-.17-.68-.23-1c0-.18-.07-.36-.1-.55,0,.32,0,.3,0-.07a33.12,33.12,0,0,1-.07-5.27,52,52,0,0,1,1.59-10.15,131.82,131.82,0,0,1,8.85-23c.76-1.6.26-4-1.79-4.4a3.79,3.79,0,0,1-2.66-1.48,5.15,5.15,0,0,1-1-2.85c-.15-2.78,1.5-4.94,3.57-6.58l-4.71-3.63a13.35,13.35,0,0,0-1.43,6.41,3,3,0,0,0,5.59,1.51c.42-.73,1.56-2.63,2.33-2.5l-.72-5.48a5.67,5.67,0,0,0-2.59,5.1,6.54,6.54,0,0,0,3.2,5,3,3,0,0,0,4.11-1.08c2.75-6.44,5.25-13,7.89-19.49,3.27-8,6.6-16.06,10.05-24,3.6-8.3,7.33-16.54,11.35-24.65,3.74-7.53,7.59-15.22,12.4-22.15a23.51,23.51,0,0,1,7.86-7.57,7,7,0,0,1,4.15-1.06,9.16,9.16,0,0,1,4.86,2l-.47-3.63c-1.85,2.91-3.66,5.86-5.51,8.78-2.07,3.27,3.12,6.28,5.18,3,1.85-2.91,3.66-5.86,5.51-8.77a3,3,0,0,0-.46-3.64,14.73,14.73,0,0,0-11.9-3.54c-3.71.67-7.26,3.18-9.88,5.8a50.09,50.09,0,0,0-7.23,9.81c-2.18,3.64-4.24,7.36-6.21,11.12C98.39,46.08,91,63.54,83.86,81q-2.7,6.6-5.35,13.23-1.26,3.18-2.54,6.35l-1,2.33L74.57,104a3.6,3.6,0,0,1-.15.36l4.1-1.07c-.14-.1-.46-.43-.24,0,0,.08,0-.26,0-.24s-.23.45-.36.55a3,3,0,0,0,1.43-3,2.94,2.94,0,0,0-2.15-2.49,6.92,6.92,0,0,0-5.86,1.33,13.92,13.92,0,0,0-3.24,3.92l5.59,1.52a7.26,7.26,0,0,1,.61-3.39,3,3,0,0,0-.77-3.87,3.06,3.06,0,0,0-3.94.24,13.34,13.34,0,0,0-5.27,11.61c.49,4.45,3.49,8.46,8,9.32l-1.79-4.4c-5.65,12-11.24,24.81-11.34,38.3a18.9,18.9,0,0,0,1.75,9A3,3,0,0,0,64.34,163a3.1,3.1,0,0,0,2.2-2.89,54.28,54.28,0,0,1,.9-6.43c.55-2.95,1.19-5.9,2-8.81a78.06,78.06,0,0,1,6.93-17.13l-5.18-3c-3.27,7.23-6.3,14.77-7.67,22.63a50.37,50.37,0,0,0-.81,11.1c.16,3,.65,6.07,2.62,8.48a3,3,0,0,0,3.28.62,3.09,3.09,0,0,0,1.85-2.74c.79-9.6,3.63-18.7,7.24-27.58l-5.79-1.59a140.93,140.93,0,0,0-3,15.92c-.57,4.56-1,9.68.79,14a3,3,0,0,0,5.89-.79,86.25,86.25,0,0,1,3-15.94l-5.89-.8c.28,4.19.93,8.75,3.94,11.92,1.71,1.8,5.32.5,5.12-2.12a72,72,0,0,1,1.45-18.16,161.9,161.9,0,0,1,5.59-20.85l-2.89,2.2c16.56.88,33-3.18,47.67-10.78a117.06,117.06,0,0,0,36-29.54,140.9,140.9,0,0,0,13.25-19c4-6.9,7.85-14.17,10.13-21.84,1.89-6.37,2.52-13.13.55-19.57A23.87,23.87,0,0,0,181.32,5.7c-13.67-6.77-30.5-2.11-42.86,5.35-1.78,1.08-3.51,2.23-5.2,3.43a3.08,3.08,0,0,0-1.08,4.1A3,3,0,0,0,136.29,19.66Z"/><path class="cls-2" d="M118.57,9.44a25.5,25.5,0,0,0-4.12,4.85c-1.46,2.06-2.81,4.2-4.11,6.37-2.88,4.82-5.5,9.79-8,14.81C97.1,45.84,92.39,56.48,88,67.24q-3.9,9.65-7.39,19.45l5.78,1.6C89.71,77.12,93.17,66,97.35,55.12c3.93-10.22,8.13-20.53,13.83-29.91a52.46,52.46,0,0,1,4.63-6.63,20.15,20.15,0,0,1,2.81-2.88,8,8,0,0,1,1.41-.89c.48-.25-.31.09.17-.08.14-.05,1.1-.24.49-.17a3.1,3.1,0,0,0,3-3c0-1.49-1.38-3.18-3-3-5.48.59-9.15,5.46-12.11,9.66A99.51,99.51,0,0,0,100.24,33,299,299,0,0,0,86.79,66.88c-2.17,6.57-4.2,13.18-6.14,19.81a3,3,0,1,0,5.78,1.6c7.69-21.41,16.48-42.74,27.85-62.49,1.4-2.41,2.85-4.8,4.41-7.12a22,22,0,0,1,4.12-5,3,3,0,0,0,0-4.24A3.06,3.06,0,0,0,118.57,9.44Z"/><path class="cls-2" d="M179.71,36.65c.81-4.47,1-9.44-1.49-13.44A16.36,16.36,0,0,0,167.36,16c-10.14-1.91-21.07,2-29.86,6.82s-17,11.63-21.72,20.44c-5,9.32-9.5,19-13.94,28.65C96.62,83.22,91.6,94.58,86.67,106l5.59,1.51c.09-.73.35-2.19.57-3.26.32-1.55.7-3.1,1.11-4.64a55.24,55.24,0,0,1,2.6-7.73,3.09,3.09,0,0,0-1.08-4.1,3,3,0,0,0-4.1,1.07C90,91.56,88.8,94.36,87.72,97.2c-.53,1.39-1,2.79-1.49,4.2-.27.8-.52,1.6-.77,2.4-.18.59-.38,1.68-.53,2L86,104.7c.07,0,.81.2-.24-.1a3,3,0,0,0-3.54,1.74,3,3,0,0,0,1.23,3.74c4,1.87,8.69,1.24,12.94.81a79.53,79.53,0,0,0,12.9-2.35,89.26,89.26,0,0,0,23.35-10.47c14.82-9.27,26.89-22.65,36-37.46a110.63,110.63,0,0,0,6.62-12.21,66.92,66.92,0,0,0,4.44-11.75c.91-3.76-4.87-5.36-5.78-1.6-1.64,6.78-5,13.29-8.52,19.29a132.23,132.23,0,0,1-14.49,20.21,92.24,92.24,0,0,1-39.13,26.94,70.14,70.14,0,0,1-12.85,3.09c-2.2.32-4.42.51-6.63.62-1.23.06-2.47.14-3.7.1a8.08,8.08,0,0,1-2.13-.4l-2.31,5.48c2.47.71,5.39.17,6.35-2.5.67-1.88,1.13-3.85,1.78-5.75a85,85,0,0,1,4.24-10.27l-5.18-3a66.44,66.44,0,0,0-5.1,18.66c-.36,2.89,4.43,4.19,5.59,1.52,8.08-18.7,16.42-37.29,25.5-55.53,2.05-4.11,3.93-8.38,6.76-12a48.17,48.17,0,0,1,10-9.39c7.42-5.35,16.62-9.74,25.86-10.43,4.08-.31,8.59.11,11.51,2.84a7.71,7.71,0,0,1,2.52,4.29,17.33,17.33,0,0,1-.12,6.28A3.08,3.08,0,0,0,176,38.74,3,3,0,0,0,179.71,36.65Z"/><path class="cls-2" d="M91.71,113.14a82.12,82.12,0,0,0,36.86-8.92,89.73,89.73,0,0,0,28-22.57A107.94,107.94,0,0,0,168,64.71c1.86-3.39-3.11-6.29-5.18-3C156.54,71.56,149,80.8,140,88.2A86,86,0,0,1,110.43,104a82.56,82.56,0,0,1-18.72,3.15,3.07,3.07,0,0,0-3,3,3,3,0,0,0,3,3,92,92,0,0,0,18.3-2.8,86.94,86.94,0,0,0,16.82-6.57A93.15,93.15,0,0,0,155,82,141.64,141.64,0,0,0,168,64.71l-5.18-3a94.22,94.22,0,0,1-21,26.41,77.11,77.11,0,0,1-30.54,16.43,78.58,78.58,0,0,1-19.53,2.61C87.85,107.16,87.84,113.16,91.71,113.14Z"/><path class="cls-2" d="M124.07,9c-2.69,1.65-4.46,4.81-6.11,7.4-2.18,3.4-4.21,6.89-6.15,10.43a230.08,230.08,0,0,0-10.55,21.93A3,3,0,0,0,106.75,51a370.78,370.78,0,0,1,21.43-38A3,3,0,0,0,123,10a370.78,370.78,0,0,0-21.43,38l5.48,2.31a216.89,216.89,0,0,1,9.72-20.09c1.81-3.32,3.7-6.6,5.71-9.8,1-1.51,1.91-3,3-4.47a13.51,13.51,0,0,1,1-1.17,6.5,6.5,0,0,0,.52-.53c.34-.44-.49.28.15-.11C130.39,12.13,127.37,6.94,124.07,9Z"/><path class="cls-2" d="M170.37,14.68c-3.54-2-7.79-2.5-11.8-2.44a42.64,42.64,0,0,0-12.8,2.3,57,57,0,0,0-22.38,13.88,61.15,61.15,0,0,0-9,11.83,3,3,0,0,0,5.19,3C128.24,31.49,141.32,22.5,155.83,20a31.46,31.46,0,0,1,12.23.2,3.07,3.07,0,0,0,3.69-2.1,3,3,0,0,0-2.09-3.69c-16.44-3.7-33.9,4.48-45.88,15.35a70.36,70.36,0,0,0-9.36,10.52l5.19,3a51.61,51.61,0,0,1,15.32-16.65c6.38-4.36,13.87-7.72,21.65-8.31a29.22,29.22,0,0,1,6.34.14,18.75,18.75,0,0,1,2.5.57,7.35,7.35,0,0,1,1.92.83C170.71,21.77,173.74,16.59,170.37,14.68Z"/><path class="cls-2" d="M126.39,108.34c3.89-.91,7.6-3.09,11-5.1s7.33-4.4,10.1-7.51A3,3,0,0,0,143.87,91c-3.22,1.86-6.25,4-9.41,6a89.57,89.57,0,0,1-10.39,5.82A3,3,0,0,0,123,107a3.06,3.06,0,0,0,4.1,1.08,90.4,90.4,0,0,0,10.39-5.82c3.16-2,6.19-4.16,9.41-6l-3.63-4.71c-2.46,2.75-5.7,4.7-8.89,6.57s-6.23,3.71-9.59,4.5a3,3,0,1,0,1.6,5.78Z"/><path class="cls-2" d="M181.53,11.39c3.17.8,6.2,2.31,7.86,4.74a19.9,19.9,0,0,1,3.13,11.12,36.49,36.49,0,0,1-2.53,13,33.28,33.28,0,0,1-5.49,9.76l4.71,3.63c3.09-6.44,5.85-13.18,6.7-20.32.81-6.83,0-14.3-4-20.08-2-2.94-4.8-4.79-7.46-6.91a3.08,3.08,0,0,0-4.24,0,3,3,0,0,0,0,4.24c2.67,2.13,5.54,3.94,7.24,6.82a20.8,20.8,0,0,1,2.69,10.38,32.94,32.94,0,0,1-1.36,10.73A75.32,75.32,0,0,1,184,50.66a3,3,0,0,0,.77,3.87,3,3,0,0,0,3.94-.23A41.73,41.73,0,0,0,198,33.48c1.15-7.6.43-16.28-4.9-22.29a19.57,19.57,0,0,0-10-5.59C179.38,4.66,177.79,10.44,181.53,11.39Z"/><path class="cls-3" d="M134.46,17.07q12.85-9.18,25.2-11T180.28,8.7q8.26,4.5,10.51,14.9t-5.31,25.92A141.69,141.69,0,0,1,166.2,79.63,117.82,117.82,0,0,1,142,101.57a100.34,100.34,0,0,1-27.45,13.06,84.54,84.54,0,0,1-29.09,3.47,144.52,144.52,0,0,0-6.23,24.8,76.29,76.29,0,0,0-.91,15,8.92,8.92,0,0,1-2.15-4,28.39,28.39,0,0,1-.92-5.82,87.43,87.43,0,0,0-2.24,10q-.61,4.08-.82,6.74-1.64-3.89-.92-11.13a126.06,126.06,0,0,1,3.17-17.25,103,103,0,0,0-5.51,16.64,89.27,89.27,0,0,0-1.84,11.74q-2.44-2.86-1.53-13.07t7.86-25.51a79.48,79.48,0,0,0-7.56,19.08,97.92,97.92,0,0,0-2.65,14.8q-2.23-4.08-.71-14.9t10.3-29.39a6.37,6.37,0,0,1-4-2.25A8,8,0,0,1,67,109.43a9.64,9.64,0,0,1,.71-4.9,11,11,0,0,1,3.68-4.59,6.25,6.25,0,0,0-.82,2.35,16.19,16.19,0,0,0-.2,2.55,10.7,10.7,0,0,1,2.44-3.06,3.58,3.58,0,0,1,3.27-.82A2.43,2.43,0,0,0,75,103.31a3.22,3.22,0,0,0,1.73,2.55q1.23-2.86,4.19-10.31t7-17.35Q92,68.3,96.8,57.38t9.69-20.71q4.91-9.81,9.39-17.25t8.17-10.31q5.1-4.08,9.08-3.67A12.17,12.17,0,0,1,140,8.29q-1.44,2.25-2.76,4.39C136.32,14.11,135.41,15.57,134.46,17.07Zm-14.09-5.51q-2.25,1.83-6.12,8t-8.88,15.92q-5,9.8-10.72,23T83.22,87.49q2.46-8.37,5.31-17.25T94.65,53q3.27-8.35,6.64-15.82A129.53,129.53,0,0,1,108,24.11a53,53,0,0,1,6.54-9Q117.71,11.77,120.37,11.56ZM176.5,35.85q1.42-7.55-1.53-11.64A13.22,13.22,0,0,0,166.6,19a29.54,29.54,0,0,0-12.55.51,59.31,59.31,0,0,0-14.19,5.31A63.84,63.84,0,0,0,126.7,34a40,40,0,0,0-9.39,12.25q-8.16,16.13-15,31.12T88.94,107.49A63.09,63.09,0,0,1,90.67,99a58.53,58.53,0,0,1,3-8.67,94.71,94.71,0,0,0-6.32,16.73c0,.14-.14.28-.41.41a3.11,3.11,0,0,1-2.25,0,9,9,0,0,0,4.09.82,74.29,74.29,0,0,0,25.92-4.8A92.67,92.67,0,0,0,136,92a100.74,100.74,0,0,0,16.73-15.31A134.85,134.85,0,0,0,165,60.34a113.52,113.52,0,0,0,7.86-14.49A64.16,64.16,0,0,0,176.5,35.85ZM91.39,110.14a82.27,82.27,0,0,0,18.37-2.24,75.68,75.68,0,0,0,19.59-7.65,89.35,89.35,0,0,0,19.09-14.5A94.58,94.58,0,0,0,165.07,63.2a140.78,140.78,0,0,1-11.63,15.72,90.86,90.86,0,0,1-15.82,14.59,94.58,94.58,0,0,1-20.51,11.23A81.07,81.07,0,0,1,91.39,110.14Zm33.88-98.58c-1,.54-2.35,2.21-4.18,5s-3.81,6.06-5.92,9.8S111,34.08,108.94,38.3s-3.74,8-5.1,11.22Q111,35,116.8,25.34T125.27,11.56Zm43.27,5.71c-2.31-1.35-5.61-2-9.9-2a41,41,0,0,0-14,2.76,55.48,55.48,0,0,0-15,8.57,53,53,0,0,0-13,15.21,64.6,64.6,0,0,1,11.22-11.94,62.11,62.11,0,0,1,13.37-8.47A53.41,53.41,0,0,1,155.38,17,34,34,0,0,1,168.54,17.27Zm-43.27,88.18a21.64,21.64,0,0,0,4.59-1.74c1.84-.88,3.74-1.9,5.72-3.06s3.81-2.34,5.51-3.57a23.41,23.41,0,0,0,4-3.47c-.95.55-2.25,1.36-3.88,2.45s-3.37,2.21-5.2,3.37-3.71,2.28-5.62,3.37S126.77,104.77,125.27,105.45ZM182,8.5q7.56,1.83,10.52,7.55a24.49,24.49,0,0,1,2.65,12.55,39.9,39.9,0,0,1-3,13.37,35.32,35.32,0,0,1-5.92,10.21q5.92-12.26,6.43-20.31t-1.53-13a17.24,17.24,0,0,0-5.1-7.25C184.06,10.1,182.69,9,182,8.5Z"/><path class="cls-3" d="M229.68,97.49a6,6,0,0,1,2.35-3,3.55,3.55,0,0,1,2.35-.51,2.17,2.17,0,0,1,1.53,1.12,2.6,2.6,0,0,1,.1,2.15,115.37,115.37,0,0,1-9.9,19.9,105.61,105.61,0,0,1-12.45,16.33A66.25,66.25,0,0,1,200,144.84a32,32,0,0,1-13.58,4.9,22.67,22.67,0,0,1-12.35-3.16,22.38,22.38,0,0,1-7.85-8.47,19.42,19.42,0,0,0,5.81,8.06,21.64,21.64,0,0,0,7,3.78,16.43,16.43,0,0,1-9.18-3.58,18.52,18.52,0,0,1-5.21-7.24,34.16,34.16,0,0,1-2.24-9.39,59,59,0,0,1-.21-9.7q.32-4.59.92-8.16c.41-2.38.75-4.11,1-5.21a67.27,67.27,0,0,1,6.43-16.83,52,52,0,0,1,10.52-13.68,31.64,31.64,0,0,1,13.77-7.55q7.67-1.94,16.64,1.53a12.7,12.7,0,0,1,7.24,7,23.36,23.36,0,0,1,1.53,11.53,44.79,44.79,0,0,1-3.77,13.78,62.06,62.06,0,0,1-8.47,13.88,59.71,59.71,0,0,1-12.66,11.74,46.47,46.47,0,0,1-16.12,7.14,7,7,0,0,0,3.47,3.67q5.72,2.87,12.65-.71a52.2,52.2,0,0,0,13.47-10.31,100.75,100.75,0,0,0,12-15.2A142,142,0,0,0,229.68,97.49Zm-44.49-1.84a48.42,48.42,0,0,0-7.55,13.07A51,51,0,0,0,174.37,122a30.79,30.79,0,0,0,.71,11.13q1.33,4.8,4.8,6.22-3.47-3.47-3.88-9.69a48.89,48.89,0,0,1,.92-12.86,69.89,69.89,0,0,1,3.67-12.45A36.86,36.86,0,0,1,185.19,95.65Zm-7.35,33.48a34.67,34.67,0,0,0,10.31-6.64,47.71,47.71,0,0,0,8.16-9.69,42.45,42.45,0,0,0,5-10.92,19.84,19.84,0,0,0,.41-10.51A15.62,15.62,0,0,1,203,94.12a17.5,17.5,0,0,1,.81,4.19,17.51,17.51,0,0,0,.51-6,5,5,0,0,0-2.14-3.78q-4.09-2.45-8.57.92a31.51,31.51,0,0,0-8.17,9.79,60.15,60.15,0,0,0-5.82,14.6A49.58,49.58,0,0,0,177.84,129.13Zm1-2.66a51.76,51.76,0,0,1,2-13.47A66.84,66.84,0,0,1,185,102.39a39.85,39.85,0,0,1,4.49-7.25,31.14,31.14,0,0,1,3.47-3.77,50.51,50.51,0,0,0-9.9,17.75A152.92,152.92,0,0,0,178.86,126.47Zm40.21-40.41a54.24,54.24,0,0,1-6,17.65,70.07,70.07,0,0,1-9.8,13.68,63.69,63.69,0,0,1-11,9.59,62.44,62.44,0,0,1-9.9,5.62,36.5,36.5,0,0,0,12-5.92,64.7,64.7,0,0,0,11.74-10.82,60.67,60.67,0,0,0,9-14.08A42.52,42.52,0,0,0,219.07,86.06Zm-7.76-14.29c-1.36-.54-2.85-1.09-4.49-1.63a18.2,18.2,0,0,0-5.71-.82,26.77,26.77,0,0,0-7.45,1.23,33.86,33.86,0,0,0-9.29,4.69q1.42-.81,4.19-2.14A29.25,29.25,0,0,1,194.88,71a34.47,34.47,0,0,1,7.76-.82A25.25,25.25,0,0,1,211.31,71.77Zm4.9,45.72a38.52,38.52,0,0,1-3.57,5A68.8,68.8,0,0,1,199,135.15a21.75,21.75,0,0,1-7.86,3.57q1.21-.81,3.57-2a38.53,38.53,0,0,0,5.51-3.68q3.17-2.44,7.25-6.12A87.17,87.17,0,0,0,216.21,117.49Z"/><path class="cls-3" d="M293,45l9,1.43q5.1.82,9.18,1.63-1.64,0-7.24.11t-12.56.1H266.83c.14,1-.51,2.93-1.94,5.92s-3.23,6.57-5.41,10.71-4.52,8.61-7,13.37S247.78,87.63,246,92q-9.8,21.22-13.78,32.76t-2.75,11.73q1.64,0,5.1-4.38t7.55-10.62q4.08-6.23,8.17-13.16t7.14-12a4.29,4.29,0,0,1,2-1.93,3.08,3.08,0,0,1,2.15-.21,1.9,1.9,0,0,1,1.22,1.43,3.86,3.86,0,0,1-.3,2.55,92.24,92.24,0,0,1-5.82,11.64q-4.19,7.33-8.88,15.1-9.39,15.32-16.13,20.92t-10.2,4q-5.52-2.64-4.29-13.88c-1.08,5.45-1.36,9.43-.81,11.94s1.36,4.25,2.45,5.21q-3.68-1.23-4.29-6.13a41.77,41.77,0,0,1,.71-12.24,111.47,111.47,0,0,1,4.39-16.23q3.06-8.88,6.84-18.16t7.76-18.17q4-8.88,7.45-16t5.81-11.94c1.57-3.2,2.48-5.14,2.76-5.82h-4.39q-3.78,0-8.16.1c-2.93.07-5.59.1-8,.1H226a5.72,5.72,0,0,1,.1-.81,5.29,5.29,0,0,1,.51-1.43,4.2,4.2,0,0,1,1-1.33,2.18,2.18,0,0,1,1.43-.51,10.56,10.56,0,0,0,2.45.21h3.57c1.29,0,2.55,0,3.78-.11s2.24-.1,3.06-.1c-.27,0-.89-.07-1.84-.2s-2-.27-3.26-.41l-3.68-.41a30,30,0,0,0-3.06-.2q-1,0-.3-1A8.81,8.81,0,0,1,232.23,40a24.75,24.75,0,0,1,4-2,11.31,11.31,0,0,1,4.28-.92c1.09,0,3,0,5.72-.1s6.05-.1,10-.1c1.09-2.72,1.9-4.8,2.45-6.23a15.82,15.82,0,0,1,1.83-3.57c.55-1.77,1.16-2.86,1.84-3.26a2.43,2.43,0,0,1,2-.31,3.42,3.42,0,0,1,1.74,1.22,3.63,3.63,0,0,1,.71,1.13,6.43,6.43,0,0,1,1.53-.41c.75-.14,1.67-.27,2.76-.41A12.63,12.63,0,0,0,270,28.09a15.59,15.59,0,0,1-.92,2.86,20.69,20.69,0,0,0,2.24-3.27c.41-.81.95-1.76,1.63-2.85a29.52,29.52,0,0,1,3.48.2q1.62.21,2,1a39,39,0,0,0-2,4.29,26,26,0,0,0-1.84,3.47A21.18,21.18,0,0,1,273,36.87q4.91,0,10.31.1c3.61.07,7,.1,10.31.1s6.16,0,8.67.1,4.32.11,5.41.11a55.72,55.72,0,0,1-7.75.92q-4.9.3-10.11.51t-10,.2h-7.45c1.36.14,3.85.2,7.45.2h11.53q6.14,0,11.95.11t8.67.3a11.06,11.06,0,0,1-4.08.92c-2,.2-4.29.38-6.74.51s-4.79.24-7,.31-3.91.1-5,.1c3.27.14,6.22.38,8.88.71s5.68.72,9.08,1.13c-1,.27-2.18.54-3.67.81s-3,.48-4.39.62-2.69.23-3.78.3S293.37,45,293,45Zm-62,69.6a24.26,24.26,0,0,0-3,6.84c-.61,2.39-1.26,5.34-1.94,8.88q1.23-4.29,2.55-8.67C229.44,118.75,230.23,116.41,230.91,114.63Zm-3.06,20A51.86,51.86,0,0,1,231.21,122q3-8,6.43-16t6.64-14.7q3.16-6.63,4-8.47-4.5,7.77-8.58,16.13t-6.94,15.71a123.1,123.1,0,0,0-4.28,12.76C227.51,131,227.3,133.41,227.85,134.64Zm4.69-49.4a63.51,63.51,0,0,1,3.16-10.41q2.36-6.12,4.9-11.73a89.07,89.07,0,0,1,5-9.6c1.64-2.65,2.86-4.11,3.68-4.38l-3,5.91q-2.15,4.29-4.7,9.6t-5.1,10.82A96,96,0,0,0,232.54,85.24Zm8.78-42.86a22.92,22.92,0,0,0,4.49.51,35.4,35.4,0,0,0,6.73-.51,52.27,52.27,0,0,0-5.92-.41A37.91,37.91,0,0,0,241.32,42.38Zm21.43-7.55c.41-.68.92-1.67,1.53-3a18.41,18.41,0,0,0,1.33-3.78c-.41.68-1,1.81-1.74,3.37A9.33,9.33,0,0,0,262.75,34.83Z"/><path class="cls-3" d="M289.89,96.06a4.33,4.33,0,0,1,2.05-1.94,2.65,2.65,0,0,1,2.14-.1,2.15,2.15,0,0,1,1.22,1.43,4.2,4.2,0,0,1-.3,2.65q-1.23,2.66-3.37,6.84t-4.9,9.08q-2.76,4.91-6,10.11t-6.53,9.9q-9,12.85-14.9,15.3t-8.78-4.69a32.11,32.11,0,0,1,.41,4.29,1.76,1.76,0,0,0,1.43,1.83q-3.27,0-5.92-3.37t-2.25-11.83q.42-8.48,5.41-23.27t17-37.87a44,44,0,0,0-4.9,8.07q-2.46,5-4.7,10.1a41.52,41.52,0,0,1,1.74-6,64.2,64.2,0,0,1,3.16-7.45,55.47,55.47,0,0,1,3.88-6.63c1.36-2,2.65-3.17,3.88-3.58a4,4,0,0,1,1.83-.4H273c-.27.54-.95,2-2,4.38s-2.31,5-3.67,7.76-2.59,5.41-3.68,7.86-1.77,3.95-2,4.49q1.23-2.25,3.27-6.12T269,79.22c1.43-2.51,2.69-4.8,3.78-6.84s1.77-3.33,2-3.87a4.06,4.06,0,0,0,1.23.2,4,4,0,0,1,1.22.2c-.14.28-.44.92-.92,1.94s-1,2.18-1.53,3.47-1.09,2.62-1.63,4-1,2.52-1.43,3.47a33.05,33.05,0,0,0,1.84-3.26q1-2,2.14-4c.75-1.29,1.39-2.45,1.94-3.47a9.63,9.63,0,0,1,1.22-1.94,42,42,0,0,1,4.6,1.12A6.5,6.5,0,0,1,286.63,72a2,2,0,0,1,.51,1.73,5.83,5.83,0,0,1-.92,2.45,14.3,14.3,0,0,1-2.14,2.65,16.54,16.54,0,0,1-3,2.35c.13,1.09-.51,3.23-1.94,6.43s-3.13,6.87-5.1,11-4.09,8.51-6.33,13.07-4.12,8.81-5.61,12.75a56.26,56.26,0,0,0-3,10c-.48,2.73,0,4.29,1.53,4.7.81.27,1.9-.31,3.26-1.74a50.55,50.55,0,0,0,4.6-5.81c1.69-2.45,3.5-5.28,5.4-8.47s3.85-6.43,5.82-9.7S283.6,107,285.3,104,288.53,98.38,289.89,96.06Zm-42.65,43.48a38.21,38.21,0,0,1,.1-8.37,59.32,59.32,0,0,1,1.73-9.39,36.63,36.63,0,0,0-2.24,8.57A26.24,26.24,0,0,0,247.24,139.54Zm26.12-42a52.14,52.14,0,0,0-6,9,104.25,104.25,0,0,0-5.61,11.84A83.62,83.62,0,0,0,258,129.94c-.89,3.68-1.05,6.53-.51,8.58a26.6,26.6,0,0,1,1.53-9.19,112.94,112.94,0,0,1,4.39-11.53q2.65-6,5.41-11.43T273.36,97.49Zm5.51-31.23a13,13,0,0,1-3.26-1.84,6.18,6.18,0,0,1-2.25-3.06,6.06,6.06,0,0,1,.31-4.18q.91-2.34,4.59-5A14.91,14.91,0,0,0,275,57.89a14.37,14.37,0,0,1,2.35-3.57,17.72,17.72,0,0,1,3.37-3,19.15,19.15,0,0,1,3.67-1.94,7.24,7.24,0,0,1,3.47-.51c1.64.28,2.86,1.53,3.68,3.78a13.41,13.41,0,0,1,.61,6.94,10,10,0,0,1-3.47,6c-1.91,1.63-4.69,2-8.37,1A8.58,8.58,0,0,0,278.87,66.26Zm11-14.9a3.87,3.87,0,0,0-3.67-.92,11.38,11.38,0,0,0-4,1.94,24.24,24.24,0,0,0-3.37,3,13.19,13.19,0,0,0-1.63,1.94,34.09,34.09,0,0,1,7.86-5.2C287.21,51.19,288.8,51,289.89,51.36Z"/><path class="cls-3" d="M353.37,45l9,1.43c3.4.55,6.47,1.09,9.19,1.63q-1.64,0-7.25.11t-12.55.1H327.25c.13,1-.51,2.93-1.94,5.92s-3.24,6.57-5.41,10.71-4.53,8.61-7,13.37A149.5,149.5,0,0,0,306.43,92q-9.8,21.22-13.78,32.76t-2.76,11.73q1.64,0,5.11-4.38t7.55-10.62q4.08-6.23,8.16-13.16t7.15-12a4.24,4.24,0,0,1,2-1.93,3.06,3.06,0,0,1,2.14-.21,1.93,1.93,0,0,1,1.23,1.43A3.87,3.87,0,0,1,323,98.1a90.88,90.88,0,0,1-5.82,11.64q-4.18,7.33-8.88,15.1-9.39,15.32-16.12,20.92t-10.21,4q-5.51-2.64-4.28-13.88Q276,144,276.83,147.8c.55,2.52,1.36,4.25,2.45,5.21q-3.67-1.23-4.29-6.13a41.83,41.83,0,0,1,.72-12.24,110.21,110.21,0,0,1,4.39-16.23q3.06-8.88,6.83-18.16t7.76-18.17q4-8.88,7.45-16T308,54.12q2.34-4.8,2.75-5.82h-4.38q-3.78,0-8.17.1t-8,.1h-3.78a6.31,6.31,0,0,1,.11-.81,5.29,5.29,0,0,1,.51-1.43,4.06,4.06,0,0,1,1-1.33,2.16,2.16,0,0,1,1.43-.51,10.5,10.5,0,0,0,2.45.21h3.57c1.29,0,2.55,0,3.77-.11s2.25-.1,3.06-.1c-.27,0-.88-.07-1.83-.2s-2-.27-3.27-.41l-3.67-.41a30.32,30.32,0,0,0-3.06-.2c-.69,0-.79-.34-.31-1A8.88,8.88,0,0,1,292.65,40a24.22,24.22,0,0,1,4-2,11.36,11.36,0,0,1,4.29-.92c1.08,0,3,0,5.71-.1s6.05-.1,10-.1q1.64-4.08,2.45-6.23a15.82,15.82,0,0,1,1.84-3.57c.54-1.77,1.15-2.86,1.84-3.26a2.42,2.42,0,0,1,2-.31,3.4,3.4,0,0,1,1.73,1.22,3.55,3.55,0,0,1,.72,1.13,6.43,6.43,0,0,1,1.53-.41c.74-.14,1.66-.27,2.75-.41a13.06,13.06,0,0,0-1.12,3.06,14.86,14.86,0,0,1-.92,2.86,20.21,20.21,0,0,0,2.25-3.27c.41-.81.95-1.76,1.63-2.85a29.34,29.34,0,0,1,3.47.2q1.64.21,2,1a39,39,0,0,0-2,4.29A28.53,28.53,0,0,0,335,33.81a21.22,21.22,0,0,1-1.63,3.06c3.27,0,6.7,0,10.31.1s7,.1,10.31.1,6.15,0,8.67.1,4.32.11,5.41.11a55.89,55.89,0,0,1-7.76.92q-4.89.3-10.1.51c-3.47.13-6.81.2-10,.2h-7.45c1.36.14,3.84.2,7.45.2h11.53q6.12,0,11.94.11t8.68.3a11.19,11.19,0,0,1-4.09.92c-2,.2-4.28.38-6.73.51s-4.8.24-7,.31-3.92.1-5,.1q4.9.21,8.88.71c2.66.35,5.68.72,9.09,1.13-1,.27-2.18.54-3.68.81s-3,.48-4.39.62-2.68.23-3.77.3S353.78,45,353.37,45Zm-62.05,69.6a24.55,24.55,0,0,0-3,6.84c-.61,2.39-1.25,5.34-1.94,8.88q1.23-4.29,2.56-8.67C289.86,118.75,290.64,116.41,291.32,114.63Zm-3.06,20A52,52,0,0,1,291.63,122q3-8,6.43-16t6.63-14.7q3.17-6.63,4-8.47-4.49,7.77-8.57,16.13t-6.94,15.71a121.07,121.07,0,0,0-4.29,12.76C287.92,131,287.72,133.41,288.26,134.64Zm4.7-49.4a62.54,62.54,0,0,1,3.16-10.41q2.34-6.12,4.9-11.73a89.07,89.07,0,0,1,5-9.6c1.63-2.65,2.86-4.11,3.67-4.38l-3,5.91q-2.14,4.29-4.69,9.6t-5.1,10.82A93.75,93.75,0,0,0,293,85.24Zm8.77-42.86a23.12,23.12,0,0,0,4.49.51,35.5,35.5,0,0,0,6.74-.51A52.57,52.57,0,0,0,307,42,38.16,38.16,0,0,0,301.73,42.38Zm21.43-7.55c.41-.68.92-1.67,1.54-3A17.78,17.78,0,0,0,326,28.09c-.41.68-1,1.81-1.73,3.37A9.41,9.41,0,0,0,323.16,34.83Z"/><path class="cls-2" d="M206.68,157c-10.69,16.28-20.1,33.43-29.21,50.63-9.63,18.21-18.75,36.7-27.12,55.53-4,9-7.86,18.09-11.37,27.3a44.26,44.26,0,0,0-2.18,6.06c-.46,2.06-.84,4.14-1.34,6.19a23.63,23.63,0,0,1-2.36,5.91c-.73,1.31-.38,2.57-.35,4a15.66,15.66,0,0,1-.23,3.28,12.25,12.25,0,0,1-2.09,5.33,5.9,5.9,0,0,1-.79.79c.23-.2-.21.1-.21.1s.21,0,.2,0c.14-.4.06.9,0-.1,0,0,.36.6,0,0l-.28-.47c-.1-.17-.18-.34-.27-.51.2.41,0,0,0-.11-.15-.41-.28-.83-.39-1.25a13.81,13.81,0,0,1-.4-2.55,32.72,32.72,0,0,1,.1-5.51,49.67,49.67,0,0,1,.86-5.3c.47-2.29,1-4.57,1.67-6.82,1.08-3.88,2.33-7.72,3.66-11.52,5.94-16.95,13.27-33.24,20.89-49.5q1.65-3.51,3.32-7a3,3,0,0,0-5.18-3,269.36,269.36,0,0,1-17.93,24.31c-3.12,3.75-6.34,7.43-9.7,11a85.73,85.73,0,0,1-9.19,8.66l1.52-.41H116c-.46,0-.92,0-1.38,0-.69,0,.29.13-.44-.08l1.32,5c8.88-8.86,17.73-17.64,25.38-27.61a3,3,0,0,0-.77-3.87,3,3,0,0,0-3.94.23q-7.56,7.93-15.29,15.71c-4.33,4.35-8.54,8.95-13.18,13l2.92-.77.37.17c-.22-.13-.23-.13,0,0l.14.11a1.88,1.88,0,0,1-.24-.25c-.26-.38.3.65-.08-.15-.09-.18-.21-.36-.31-.54a4.91,4.91,0,0,1-.55-2.47c0-2.32.22-4.63.46-6.94.56-5.46,1.59-10.87,2.67-16.24a329.15,329.15,0,0,1,8.18-32.49c1.4-4.53,2.82-9.07,4.48-13.51,1.19-3.19-3.91-5.3-5.49-2.32C107.45,223.1,94.9,247.59,84.63,273c-2.69,6.65-5.19,13.37-7.42,20.19-1,3.19,4,5.4,5.49,2.31q2.72-5.62,5.54-11.21a71.27,71.27,0,0,1,4.5-8l-5.48-2.31q-3.48,11.35-7.82,22.41c-1.28,3.27-2.61,6.53-4,9.74-.29.67-.55,1.36-.89,2,0,.1.08.08-.2.25a2.05,2.05,0,0,1-.73.28,5.22,5.22,0,0,1-.79.14,2.84,2.84,0,0,0-.66,0c.26-.26,2,2.35,1.49,1a8.22,8.22,0,0,0-.63-.94c.28.4-.11-.24-.18-.34-.28-.38.08.42,0-.08-.06-.24-.15-.47-.2-.7s-.11-.53-.16-.79c.09.53,0-.51,0-.7a30.65,30.65,0,0,1,.17-4.79c.15-1.52.31-2.58.62-4.31.27-1.54.58-3.06.91-4.58a198.15,198.15,0,0,1,6-21,380.12,380.12,0,0,1,18-43.26c1.82-3.74,3.82-7.39,5.59-11.15,1.68-3.57,3.26-7.2,5-10.77,3.15-6.63,6.52-13.14,9.9-19.65,3.29-6.35,6.67-12.64,10.25-18.83,1.47-2.55,2.89-6.05,5.25-7.64a6.66,6.66,0,0,1,3.36-1.18c1.67-.11,3.33-.13,5-.12,2,0,3.94.11,5.91.24l-3-3c0,.2,0,.39-.07.59.06-.46,0,.07,0,.14-.06.44-.13.88-.2,1.32-.15.95-.32,1.91-.51,2.86-.43,2.23-.93,4.45-1.46,6.66-1.14,4.74-2.43,9.43-3.81,14.1-3,10-6.34,19.92-10,29.71-1.87,5-3.8,10-5.83,15l5.78,1.59c5.12-16.14,10-32.37,14.24-48.78,1-3.77-4.55-5.22-5.79-1.59-7.25,21.24-14.65,42.47-20,64.29a175.13,175.13,0,0,0-3.45,17.56,3.13,3.13,0,0,0,1.38,3.39,3.06,3.06,0,0,0,3.63-.47c6.39-6.14,11.92-13.19,17.33-20.19,6.41-8.3,12.52-16.84,18.53-25.43,11.21-16,22.1-32.29,33-48.53,1.11-1.65,2.22-3.3,3.38-4.91s1.34-2.06,3.05-2.84a19.85,19.85,0,0,1,7.13-1.56,23,23,0,0,1,4.07.1c.23,0,.71.12,1.13.22a6.77,6.77,0,0,0,.7.2c-1.16-.1,0-3.87-.93-2.65a3,3,0,1,0,5.18,3,3.72,3.72,0,0,0,.41-3.68,4.91,4.91,0,0,0-3.26-2.55,21.39,21.39,0,0,0-7.3-.67c-4.79.23-10.79,1.37-13.91,5.38-2.3,2.95-4.33,6.13-6.39,9.24q-4,6-8,12c-12.25,18.11-24.45,36.33-37.56,53.85-6.42,8.58-13,17.3-20.78,24.75l5,2.92c1.54-10.88,4.33-21.53,7.32-32.09,3.14-11,6.66-21.94,10.35-32.79q2.88-8.49,5.78-17l-5.79-1.59c-4.19,16.41-9.11,32.64-14.23,48.78a3,3,0,0,0,2.09,3.69,3.07,3.07,0,0,0,3.69-2.1,413.83,413.83,0,0,0,19.33-57.65,116.34,116.34,0,0,0,2.76-14.32c.2-1.69-1.54-2.91-3-3a90,90,0,0,0-9.58-.19c-2.93.12-5.73.6-8.15,2.37s-4,4.21-5.45,6.84-3.1,5.33-4.61,8c-6,10.75-11.68,21.79-17,32.92q-2.11,4.45-4.14,9c-1.48,3.28-3.18,6.45-4.78,9.67Q90.13,231,86,240.29a343.57,343.57,0,0,0-13.87,36.42,151.76,151.76,0,0,0-4.91,19.68,47.47,47.47,0,0,0-.86,9.51c.1,2.56.58,5.23,2.39,7.15L68,311.73c1,2.86,3.52,3.28,6.24,2.86a7.55,7.55,0,0,0,5.26-3.11,34.09,34.09,0,0,0,2.12-4.73c.85-2,1.69-4,2.5-6.05q5-12.4,8.93-25.19A3,3,0,0,0,91.31,272a3,3,0,0,0-3.75,1.22,70.54,70.54,0,0,0-4.5,8.06q-2.84,5.57-5.54,11.2L83,294.77c8-24.59,19.44-48,31.11-71q5.55-11,11.29-21.82l-5.48-2.31a302.6,302.6,0,0,0-12.75,46.47c-1.64,8.23-3.17,16.6-3.26,25a10.48,10.48,0,0,0,1.84,5.57c1.08,1.65,3.14,3.4,5.24,2.47,1.47-.64,2.78-2.26,3.91-3.37,1.45-1.42,2.88-2.86,4.31-4.29,7.14-7.15,14.24-14.33,21.22-21.64l-4.72-3.63c-7.32,9.54-16,17.92-24.44,26.4a3,3,0,0,0,1.32,5,18.69,18.69,0,0,0,5.23.32c2.06-.05,3.55-1.65,5-2.94a112.15,112.15,0,0,0,9-8.95,256,256,0,0,0,17.72-21.59q4.72-6.39,9.09-13l-5.18-3c-7.65,16.06-15.06,32.27-21.46,48.87a207.85,207.85,0,0,0-7.67,23.07c-1.84,7.14-3.84,16-.81,23.07.89,2.09,2.41,4.07,4.75,4.57,2.75.58,5.19-1,6.82-3.09,3.13-4.05,4-9.61,3.44-14.58l-.41,1.51a25,25,0,0,0,3-7.28c.56-2.26.86-4.6,1.47-6.84a74.58,74.58,0,0,1,2.64-7q1.45-3.78,3-7.53c4.2-10.3,8.74-20.45,13.43-30.53q14.66-31.4,31.65-61.64c5.87-10.48,11.9-20.88,18.49-30.92a3,3,0,0,0-5.18-3Z"/><path class="cls-2" d="M87.09,258.65q11.14-22.5,22.31-45c6.16-12.4,12.44-24.74,18.45-37.21,2.18-4.52,4.51-9.07,6.23-13.79a3,3,0,0,0-1.74-3.54,3,3,0,0,0-3.74,1.22c-3,4.81-5.63,9.92-8.32,14.92-3.31,6.15-6.59,12.32-9.71,18.57-6.69,13.36-13.24,26.8-19.45,40.38-3.34,7.3-6.56,14.64-9.51,22.1A3,3,0,0,0,83.7,260a3.06,3.06,0,0,0,3.69-2.09c5.27-13.3,11.4-26.25,17.63-39.12s12.52-25.73,19.28-38.35c3.07-5.72,6-11.58,9.48-17.07l-5.49-2.31c-.21.59-.46,1.17-.69,1.76,0,0,.26-.6,0,0l-.25.58c-.2.46-.41.92-.61,1.37-1,2.32-2.12,4.61-3.22,6.9-3.23,6.74-6.57,13.43-9.91,20.12q-9.21,18.45-18.37,36.93-6.68,13.46-13.34,26.91a3.07,3.07,0,0,0,1.08,4.1A3,3,0,0,0,87.09,258.65Z"/><path class="cls-2" d="M119.72,265.58c5.92-3.67,10.68-9.35,15.22-14.54,5.53-6.33,10.73-12.94,15.85-19.61a518.64,518.64,0,0,0,30-43.27c4.57-7.4,9.11-14.88,12.38-23a3,3,0,0,0-1.74-3.54,3,3,0,0,0-3.75,1.23c-8.42,14.13-17.79,27.72-27.24,41.18S141.2,231,131,244c-2.47,3.16-5,6.29-7.6,9.35-1.34,1.57-2.71,3.13-4.14,4.62-.53.56-1.08,1.1-1.64,1.63l-.74.67-.26.21c-.32.28.57-.42,0,0a3.09,3.09,0,0,0-1.07,4.11,3,3,0,0,0,4.1,1.07,42.17,42.17,0,0,0,6.31-6.15c2.39-2.7,4.68-5.5,6.94-8.32,5.11-6.41,10-13,14.92-19.56q15.63-21.09,30.32-42.86c5-7.49,10-15,14.6-22.79l-5.48-2.31c-.45,1.11-1.12,2.6-1.77,3.95-.8,1.66-1.65,3.3-2.53,4.92-1.91,3.52-4,7-6.06,10.37q-6.6,10.81-13.71,21.31a474.46,474.46,0,0,1-30.28,40c-2.76,3.24-5.58,6.43-8.54,9.49-1.42,1.46-2.88,2.9-4.42,4.24a20.38,20.38,0,0,1-3.33,2.52C113.42,262.44,116.43,267.63,119.72,265.58Z"/><path class="cls-2" d="M138.13,259.47c0,.12-.38.94-.25.63s-.16.36-.15.35c-.08.18-.16.36-.23.54-.43,1-.87,2-1.31,2.95-1,2.32-2.09,4.64-3.08,7q-3.31,7.86-6.15,15.9A136.37,136.37,0,0,0,122,303c-1.15,5.19-1.91,10.59-1.19,15.89a15.1,15.1,0,0,0,2.6,7.29,11,11,0,0,0,6.32,4l.8-5.9a13.55,13.55,0,0,1-1.56.05,4.58,4.58,0,0,1-.64,0c-.52-.06.38.08-.11,0l-.57-.14c-.14,0-.72-.25-.21,0a3.75,3.75,0,0,1-.49-.25c-.06,0-.66-.43-.38-.22a3.25,3.25,0,0,1-1-1.3,8.65,8.65,0,0,1-.73-2.27,23,23,0,0,1-.4-5.64,43.91,43.91,0,0,1,.85-7.14,130.63,130.63,0,0,1,9.79-29,183.58,183.58,0,0,1,8.52-16.42c1.95-3.35-3.24-6.37-5.18-3a181.69,181.69,0,0,0-15,32.65A102.71,102.71,0,0,0,119.26,307c-.85,5-1.31,10.23-.05,15.19a11,11,0,0,0,4.06,6.32,10.83,10.83,0,0,0,7.29,1.72,3,3,0,0,0,2.94-2.6,3,3,0,0,0-2.14-3.29,8.53,8.53,0,0,1-1.31-.38c.34.14-.14-.06-.17-.08a5.86,5.86,0,0,1-.55-.3,4.41,4.41,0,0,1-1.3-1.28,12.09,12.09,0,0,1-1.36-4.81,43.13,43.13,0,0,1,1.39-14,146.35,146.35,0,0,1,4.76-15.3c1.74-4.9,3.59-9.77,5.6-14.56,1.78-4.21,3.79-8.33,5.5-12.57.6-1.5-.66-3.3-2.1-3.69A3.08,3.08,0,0,0,138.13,259.47Z"/><path class="cls-2" d="M155.39,245.36c-3.59,5.44-6.24,11.54-8.89,17.48-2.53,5.65-5.15,11.5-6.48,17.57A3,3,0,0,0,145.8,282c2.14-5.78,4.86-11.33,7.37-16.95s5-11.08,7.4-16.66a3.1,3.1,0,0,0-1.07-4.11c-1.27-.74-3.47-.42-4.11,1.08-2.45,5.73-5,11.39-7.59,17.09-2.66,5.95-5.52,11.84-7.78,18L145.8,282c1.26-5.72,3.69-11.25,6.08-16.58,2.59-5.79,5.18-11.72,8.69-17a3,3,0,0,0-1.07-4.11A3.07,3.07,0,0,0,155.39,245.36Z"/><path class="cls-2" d="M173.65,233.23c3.57-8.91,8.42-18.13,13-26.89q8-15.27,16.61-30.19c2.86-4.93,5.77-9.82,8.8-14.64l-5.18-3c-4,9.26-8.76,18.19-13.51,27.07s-9.63,17.7-14.55,26.49q-5.29,9.47-10.67,18.87c-1.91,3.37,3.27,6.39,5.18,3,11.11-19.51,22.25-39.06,32.39-59.1,2.22-4.39,4.4-8.81,6.34-13.33A3.11,3.11,0,0,0,211,157.4a3.06,3.06,0,0,0-4.11,1.08,662,662,0,0,0-32.26,58.25c-2.42,4.89-4.73,9.84-6.77,14.9-.6,1.51.66,3.3,2.1,3.69A3.07,3.07,0,0,0,173.65,233.23Z"/><path class="cls-3" d="M209.27,159.3q-5.24,8-11.41,18.53t-12.77,22.72q-6.59,12.13-13.19,25.12t-12.56,25.75q-6,12.77-11,24.59t-8.58,21.67q-.42,2.31-1.36,6.39a22,22,0,0,1-2.83,7,20.49,20.49,0,0,1-.21,6.59,16.24,16.24,0,0,1-1.88,5.13,6.83,6.83,0,0,1-2.83,2.83,2.64,2.64,0,0,1-3-.52c-1.68-1.82-2.51-5-2.51-9.42s1.11-10.51,3.35-18.11a290.8,290.8,0,0,1,10.15-27.95q6.8-16.53,17.48-38.94-4.4,6.7-9.53,13.61t-10.36,13.08q-5.24,6.18-9.94,11a73.1,73.1,0,0,1-8.06,7.33H115.8a9,9,0,0,1-2.41-.21c.84-.84,2.3-2.27,4.4-4.29s4.36-4.32,6.8-6.91,4.89-5.27,7.33-8.06,4.57-5.37,6.38-7.74q-4.4,4.6-8.89,9.21T121,266.18l-6.8,6.8c-2,1.95-3.42,3.35-4.4,4.19-1.12-.28-2.09-1.82-2.93-4.61a107.57,107.57,0,0,1,2-18.74q2-11,4.61-21.56t5.33-19.15q2.73-8.58,4-11.94Q106.9,231.32,96.43,254a378.72,378.72,0,0,0-16.32,40.72q2.92-6.08,5.75-11.62a76.76,76.76,0,0,1,4.29-7.64Q87,285.75,83.56,294.75t-6.39,15.49a2.83,2.83,0,0,1-1,1.26,6.71,6.71,0,0,1-4,1.05,1.13,1.13,0,0,1-1.26-.84q-2.3-2.31-1.15-11.1a139.06,139.06,0,0,1,5.13-21.77q4-13,10.68-29.1T101,216.66q5.24-11.72,9.74-20.51t8-15.39q3.45-6.58,6.07-11.09c1.74-3,3.25-5.62,4.5-7.85q3.15-4.6,8-4.92a84.92,84.92,0,0,1,11.09.1,118.33,118.33,0,0,1-2.82,14.24Q143.32,180,140.19,190t-6.81,20q-3.66,10-7,18.21,4.19-13.19,8-26.07t6.28-22.71q-2.94,8.59-6.49,19t-6.91,21.46q-3.36,11-6.07,21.67a181.19,181.19,0,0,0-4,19.68,146.12,146.12,0,0,0,11.62-13q6.79-8.37,14.23-18.64t15-21.24q7.54-11,14-20.52t11.2-16.64q4.71-7.12,6.59-9.63a9,9,0,0,1,5.13-3.46,26.91,26.91,0,0,1,7.22-1.25,20.49,20.49,0,0,1,5.87.52C209.55,157.84,210,158.47,209.27,159.3ZM84.5,257.91q20.94-42.29,32.87-66.16t13.82-29.1q-1.47,2.31-4.61,8.06t-7.33,13.61q-4.19,7.85-8.89,17.48t-9.42,19.37q-4.71,9.74-9,19.26T84.5,257.91Zm33.71,5.86q3.77-2.31,9.84-8.8t13.19-15.38q7.11-8.9,14.75-19.26t14.34-20.62q6.71-10.26,12-19.26a114.6,114.6,0,0,0,7.85-15.28q-4.6,7.74-11.2,17.68t-13.81,20.31q-7.23,10.36-14.66,20.52t-13.82,18.53q-6.37,8.37-11.3,14.13A53,53,0,0,1,118.21,263.77ZM141,261.05q-.84,2.08-3.35,7.64t-5.24,12.66q-2.72,7.13-5.23,14.87a78.33,78.33,0,0,0-3.35,14.44,29.19,29.19,0,0,0,.52,11.52,7.75,7.75,0,0,0,6.18,5.86c-4.47.42-7.26-1.44-8.38-5.55s-1-9.53.42-16.23a128.94,128.94,0,0,1,7-22.08A181.24,181.24,0,0,1,141,261.05ZM158,247.65a68.69,68.69,0,0,0-4.39,7.85q-2.31,4.71-4.5,9.63t-3.88,9.42a55.6,55.6,0,0,0-2.3,7.43c1-2.65,2.2-5.58,3.66-8.79s2.9-6.39,4.29-9.53,2.73-6.1,4-8.89S157.15,249.6,158,247.65Zm12.77-14.45q2.52-6.27,7.23-15.7t10.15-19.57q5.44-10.16,11.09-20t10.26-17.16q-3.76,8.79-13.08,26.27T170.75,233.2Z"/><path class="cls-3" d="M207,249a4.34,4.34,0,0,1,2.09-2,2.71,2.71,0,0,1,2.2-.11,2.18,2.18,0,0,1,1.25,1.47,4.35,4.35,0,0,1-.31,2.72c-.84,1.82-2,4.15-3.45,7s-3.14,6-5,9.32-3.94,6.8-6.17,10.36-4.47,6.95-6.7,10.16q-9.22,13.18-15.28,15.7t-9-4.82a34.11,34.11,0,0,1,.42,4.4,1.8,1.8,0,0,0,1.47,1.88c-2.23,0-4.26-1.15-6.07-3.45s-2.58-6.35-2.31-12.14,2.13-13.75,5.55-23.87,9.25-23.06,17.48-38.83a45.21,45.21,0,0,0-5,8.26q-2.52,5.15-4.82,10.37a43,43,0,0,1,1.78-6.18,65.81,65.81,0,0,1,3.25-7.64,56.17,56.17,0,0,1,4-6.8c1.4-2,2.73-3.25,4-3.67a4.3,4.3,0,0,1,1.89-.41h1.46c-.28.55-1,2.06-2.09,4.5s-2.38,5.09-3.77,7.95-2.65,5.55-3.77,8.06-1.81,4.05-2.09,4.61c.84-1.54,1.95-3.63,3.35-6.28s2.82-5.27,4.29-7.85,2.75-4.92,3.87-7,1.81-3.42,2.1-4a3.85,3.85,0,0,0,1.25.2,4.26,4.26,0,0,1,1.26.21c-.14.29-.46.95-.94,2s-1,2.24-1.57,3.56-1.12,2.69-1.68,4.08-1.05,2.59-1.46,3.56a34,34,0,0,0,1.88-3.35q1-2.09,2.2-4.08c.76-1.32,1.43-2.51,2-3.56a9.86,9.86,0,0,1,1.25-2,43.54,43.54,0,0,1,4.71,1.15,6.68,6.68,0,0,1,3.25,1.78,2.12,2.12,0,0,1,.52,1.78,5.92,5.92,0,0,1-.94,2.52,15.36,15.36,0,0,1-2.2,2.72,16.84,16.84,0,0,1-3,2.4q.19,1.68-2,6.6t-5.24,11.3q-3,6.39-6.49,13.4t-5.75,13.09a58.23,58.23,0,0,0-3,10.25c-.49,2.8,0,4.4,1.57,4.82.84.28,1.95-.31,3.35-1.78a51.93,51.93,0,0,0,4.71-6q2.61-3.76,5.55-8.68t6-9.95q3-5,5.66-9.63T207,249Zm-43.76,44.59a40.31,40.31,0,0,1,.11-8.59,60.51,60.51,0,0,1,1.78-9.63,36.66,36.66,0,0,0-2.3,8.8A27.07,27.07,0,0,0,163.21,293.56ZM190,250.43a54.22,54.22,0,0,0-6.18,9.21,107.14,107.14,0,0,0-5.75,12.15,86.64,86.64,0,0,0-3.88,11.93q-1.35,5.65-.52,8.79a27.37,27.37,0,0,1,1.57-9.42,117.31,117.31,0,0,1,4.5-11.83c1.81-4.11,3.67-8,5.55-11.72S188.75,252.81,190,250.43Zm5.65-32a13.48,13.48,0,0,1-3.35-1.88,6.41,6.41,0,0,1-2.3-3.14,6.25,6.25,0,0,1,.31-4.29q.94-2.42,4.71-5.13a15.4,15.4,0,0,0-3.35,5.86,14.46,14.46,0,0,1,2.41-3.66,17.68,17.68,0,0,1,3.46-3,19.32,19.32,0,0,1,3.77-2,7.21,7.21,0,0,1,3.55-.52c1.68.28,2.93,1.57,3.77,3.87a13.67,13.67,0,0,1,.63,7.12,10.21,10.21,0,0,1-3.56,6.17q-2.93,2.52-8.58,1A8.78,8.78,0,0,0,195.66,218.4ZM207,203.12a4,4,0,0,0-3.77-.94,11.52,11.52,0,0,0-4.08,2,24.91,24.91,0,0,0-3.46,3,13.58,13.58,0,0,0-1.67,2,35,35,0,0,1,8.06-5.34C204.21,203,205.85,202.7,207,203.12Z"/><path class="cls-3" d="M264.54,249.18a4.48,4.48,0,0,1,2-2,2.46,2.46,0,0,1,2.09-.11,2.57,2.57,0,0,1,1.36,1.47,3.79,3.79,0,0,1-.21,2.72c-.84,2-2.13,4.57-3.87,7.85s-3.74,6.8-6,10.57-4.6,7.61-7.12,11.52-5,7.46-7.43,10.67a80.47,80.47,0,0,1-7,8.17q-3.36,3.34-5.86,4a17.76,17.76,0,0,0,2.93-.42q-6.49,3.13-8.79-1.05t0-14.24a45.27,45.27,0,0,1-3,5.13,33.11,33.11,0,0,1-4,4.82A29.12,29.12,0,0,1,215,302a13,13,0,0,1-4.92,2,9.22,9.22,0,0,1-8.17-1.68,15.8,15.8,0,0,1-4.92-8.16,39.26,39.26,0,0,1-1-13.3A69.9,69.9,0,0,1,199.43,264a85,85,0,0,1,9.73-20.73,58.2,58.2,0,0,1,11.62-13A37.46,37.46,0,0,1,233,223.64a45.26,45.26,0,0,1,11.31-2.1,26.44,26.44,0,0,1,8.79.94,16.09,16.09,0,0,1,4.92,2.2,8.37,8.37,0,0,1,2.82,6.6,13,13,0,0,1-1.78,6.59q-.21-5.24-5.33-7.22t-12.46-.94a25.31,25.31,0,0,1,8,.73,15.29,15.29,0,0,1,5.33,2.51,7.5,7.5,0,0,1,2.62,3.46,6.89,6.89,0,0,1,.21,3.76,10.42,10.42,0,0,0-5-4.39,20.68,20.68,0,0,0-7.23-1.68,23.75,23.75,0,0,0-14.55,4.19,24.12,24.12,0,0,1,8.38-3.56,19.28,19.28,0,0,1,7.74-.1,13.4,13.4,0,0,1,5.86,2.61,7.19,7.19,0,0,1,2.73,4.4c-1.68-1.68-4.33-2.79-8-3.35s-7.54.18-11.72,2.2-8.41,5.65-12.67,10.88-7.85,12.81-10.78,22.72q-3.55,11.31-3.87,16.43t2.61,5.13q3.78-.42,7.33-5.86a62,62,0,0,0,6.49-14.24,17.9,17.9,0,0,1-.1,2c-.08.63-.18,1.29-.32,2q4-8.58,7.33-16.85a117.65,117.65,0,0,1,6.07-13.09,8.7,8.7,0,0,1,3.14-3.66,9.69,9.69,0,0,1,4.19-1.36,29.89,29.89,0,0,0-3.14,6.8q-1.68,4.71-3.77,11,2.72-5.87,4.61-10.16a38.47,38.47,0,0,1,4.18-7.43c.84.28,1.71.6,2.62.94a9.42,9.42,0,0,1,2.41,1.36,28.12,28.12,0,0,1-2.31,6.91q-1.87,4.18-4,8.38-2.31,4.81-5.45,10.25-1.45,4-2.72,7.75T235.44,287a43.61,43.61,0,0,0-1.15,4.61c-.21,1.19-.18,1.78.1,1.78q1.68.21,5.44-4.71t8.27-12q4.5-7.11,8.9-14.65T264.54,249.18Zm-52.13,19.26a122.42,122.42,0,0,0-5.13,14.86,37,37,0,0,0-1.46,9.84c.07,2.51.59,4.33,1.57,5.44a4.75,4.75,0,0,0,3.76,1.68q-3.56-.42-3.87-4.92a41.53,41.53,0,0,1,.63-9.95A77.65,77.65,0,0,1,210.42,275Q212,270.11,212.41,268.44ZM244,222.38a44.84,44.84,0,0,0-11.09,2.51,45.85,45.85,0,0,0-8.9,4.4,34.63,34.63,0,0,0-6.6,5.44,37,37,0,0,0-4.39,5.65,38.22,38.22,0,0,1,7-7.22,59.78,59.78,0,0,1,8.27-5.55,43.53,43.53,0,0,1,8.37-3.56A49.23,49.23,0,0,1,244,222.38Zm-30.77,77.67a14.53,14.53,0,0,0,6.28-4.5,38.81,38.81,0,0,0,4.6-6.81,46.84,46.84,0,0,0,2.93-6.59,39.16,39.16,0,0,0,1.26-4.08q-4.19,9.84-8,14.65A40,40,0,0,1,213.25,300.05Zm8.16-44.17a35.42,35.42,0,0,1,7.12-8.9,32,32,0,0,1,7.43-4.92,24.47,24.47,0,0,1,6.81-2.1,23.65,23.65,0,0,1,5.23-.2,30.92,30.92,0,0,0-15,5.12A57.15,57.15,0,0,0,221.41,255.88Zm22.82-.21q-1.89,3.77-4.19,9.63T236,276.92a105.45,105.45,0,0,0-2.72,10.46q-.94,4.71-.31,6.39a35.93,35.93,0,0,1,1.36-8.27q1.35-5.34,3.35-11.2t3.87-11C242.77,259.89,243.67,257.34,244.23,255.67Z"/><path class="cls-3" d="M362.09,249.18a4.53,4.53,0,0,1,2-2,2.46,2.46,0,0,1,2.09-.11,2.57,2.57,0,0,1,1.36,1.47,3.37,3.37,0,0,1-.42,2.72q-1.67,3.76-5,10t-7.54,13.19q-4.19,6.9-8.79,13.5a139,139,0,0,1-8.58,11.2,15,15,0,0,1-7.22,4.71,9.74,9.74,0,0,1-7.33-.52c-2.17-1.12-3.7-3.28-4.61-6.49s-.59-7.75.94-13.61,3.28-11.79,5.24-17.8,3.84-11.44,5.65-16.32q2.92-8.37-.31-10t-11.2,7.85a54.09,54.09,0,0,0-4.19,6.18c-1.26,2.16-2.44,4.29-3.56,6.38a9.89,9.89,0,0,1,4.61-2.72,54,54,0,0,0-5.87,8,85.28,85.28,0,0,0-6,11.62,117.64,117.64,0,0,0-5,14.34,92.44,92.44,0,0,0-3,16.12,15,15,0,0,1-7.85-1.26,8.21,8.21,0,0,1-4.71-4.61,62,62,0,0,1,2.51-20,178.9,178.9,0,0,1,6.38-18.53q3.47-8.37,6-13.81c1.68-3.63,2.09-5.65,1.26-6.07q-1.68-.84-4.71.52t-7.23,6.18a10.18,10.18,0,0,1,3.25-1.26,7.25,7.25,0,0,0,1.78-.42q-4.18,1.68-10.47,9.94t-13,23.77q-1.68,3.76-3.56,9.31t-3.56,10.36a4.53,4.53,0,0,1-2.4,2.31,11.16,11.16,0,0,1-4.19,1.25,7.68,7.68,0,0,1-3.87-.52,2.49,2.49,0,0,1-1.47-2.83,169.91,169.91,0,0,1,4.61-25.22,208.92,208.92,0,0,1,6.7-21.15,150.67,150.67,0,0,1,7-15.91,80.4,80.4,0,0,1,5.76-9.73,11.94,11.94,0,0,1,6.07-4.19,36.31,36.31,0,0,0-5.65,9.42c.41-.55.94-1.32,1.57-2.3a35.37,35.37,0,0,1,2.09-2.93c.76-1,1.53-1.89,2.3-2.72s1.36-1.47,1.78-1.89a53,53,0,0,1-4.08,7.33,67.81,67.81,0,0,0-5.76,11.93q4.18-6.69,7.22-12.45c2-3.84,4.36-6.32,7-7.44a11.85,11.85,0,0,1,3-.83,13.25,13.25,0,0,1,2.83-.11,4.38,4.38,0,0,1,1.78.42c.35.21.38.52.1.94-.28,0-1.15,1.05-2.61,3.14s-3.14,4.58-5,7.43-3.73,5.76-5.55,8.69a52.81,52.81,0,0,0-3.76,6.91q11.3-16.11,19.88-21.56T311,226.15a4.77,4.77,0,0,1,2.83,2.93,11.55,11.55,0,0,1,.52,4.71,24.54,24.54,0,0,1-1.26,5.76,59.53,59.53,0,0,1-2.51,6.28,82.67,82.67,0,0,1,10.05-15.08,29.73,29.73,0,0,1,10.15-8.47,24.76,24.76,0,0,1,11.2-3,10.79,10.79,0,0,1,8.48,3.66q3.24,3.67,2.2,11.62a11.71,11.71,0,0,0-2.72-8,18,18,0,0,1,1.15,9.94A46.05,46.05,0,0,1,347,249.8q-2.52,5.65-5.45,13.19t-5.33,14.24q-2.42,6.7-3.67,11.41t-.63,4.71q1.68.21,5.45-4.71t8.16-12q4.4-7.11,8.9-14.65T362.09,249.18ZM257.42,299.42q1.24-5.24,3.56-12t5-13.4c1.81-4.39,3.52-8.48,5.13-12.24a86.11,86.11,0,0,1,4.08-8.59,31.29,31.29,0,0,0-4.08,7.12q-2.42,5.24-5,11.93t-5,13.93A117,117,0,0,0,257.42,299.42Zm24.07,1.05a46.18,46.18,0,0,1-.21-11.73,74.33,74.33,0,0,1,6.7-24.28,29.92,29.92,0,0,1,5.44-8.17c-.41.84-1.29,2.69-2.61,5.55s-2.69,6.28-4.08,10.26a108.25,108.25,0,0,0-3.67,13.4A71.94,71.94,0,0,0,281.49,300.47Zm11.1,2.51a41.6,41.6,0,0,1,1.67-11.83q1.89-7.23,4.29-14.44t4.71-13.19c1.54-4,2.58-6.67,3.14-8.06q-3.13,7.11-6,14.34t-4.82,13.6a99.62,99.62,0,0,0-2.93,11.52A18.36,18.36,0,0,0,292.59,303ZM320,276.39a60.05,60.05,0,0,0-2.2,6.6,37.32,37.32,0,0,0-1.36,8.37,19.33,19.33,0,0,0,1.26,8.06,8.83,8.83,0,0,0,5.86,5.23q-4.6,0-6.59-3.24a15.39,15.39,0,0,1-2.1-7.85,30.09,30.09,0,0,1,1.36-9.42A23.63,23.63,0,0,1,320,276.39Zm6.07-11.93q2.31-4.4,4.19-8.58A49,49,0,0,0,333.1,248a17.51,17.51,0,0,0,.62-6.28,4.39,4.39,0,0,0-2.4-3.66,18.25,18.25,0,0,1,.94,1.68,7.94,7.94,0,0,1,.31,3.76,40,40,0,0,1-1.67,7.65Q329.43,256.09,326.08,264.46Zm20.52-17.38q-3.57,7.33-7.12,15.39t-6.07,15.07a74.79,74.79,0,0,0-3.35,11.83c-.56,3.21-.21,5,1.05,5.44-.56-.41-.67-1.7-.32-3.87a56,56,0,0,1,2-7.85q1.47-4.6,3.46-10t4.08-10.47c1.39-3.35,2.65-6.41,3.77-9.21S346,248.48,346.6,247.08Z"/></g></g></svg>