<svg xmlns="http://www.w3.org/2000/svg" xmlns:xlink="http://www.w3.org/1999/xlink" viewBox="0 0 433.96 404.21"><defs><style>.cls-1,.cls-2,.cls-4{stroke-miterlimit:10;}.cls-1{stroke-width:24px;fill:url(#Dégradé_sans_nom_98);stroke:url(#COULEUR_GEEK_BEEZ);}.cls-2,.cls-4,.cls-5{fill:#fff;}.cls-2,.cls-4{stroke:#fff;}.cls-2{stroke-width:6px;}.cls-3{fill:#353435;}.cls-4{stroke-width:4px;}.cls-6{fill:url(#COULEUR_GEEK_BEEZ-2);}.cls-7{fill:url(#COULEUR_GEEK_BEEZ-3);}.cls-8{fill:url(#COULEUR_GEEK_BEEZ-4);}.cls-9{fill:url(#COULEUR_GEEK_BEEZ-5);}.cls-10{fill:url(#COULEUR_GEEK_BEEZ-6);}.cls-11{fill:url(#COULEUR_GEEK_BEEZ-7);}.cls-12{fill:url(#COULEUR_GEEK_BEEZ-8);}.cls-13{fill:url(#COULEUR_GEEK_BEEZ-9);}</style><radialGradient id="Dégradé_sans_nom_98" cx="216.98" cy="192.73" r="193.24" gradientUnits="userSpaceOnUse"><stop offset="0" stop-color="#fdc32d" stop-opacity="0.4"/><stop offset="0.33" stop-color="#fcc233" stop-opacity="0.35"/><stop offset="0.92" stop-color="#fabe42" stop-opacity="0.22"/><stop offset="1" stop-color="#fabe44" stop-opacity="0.2"/></radialGradient><linearGradient id="COULEUR_GEEK_BEEZ" y1="192.73" x2="433.96" y2="192.73" gradientUnits="userSpaceOnUse"><stop offset="0" stop-color="#fabf44"/><stop offset="1" stop-color="#f39547"/></linearGradient><linearGradient id="COULEUR_GEEK_BEEZ-2" x1="204.09" y1="378.8" x2="235.63" y2="378.8" xlink:href="#COULEUR_GEEK_BEEZ"/><linearGradient id="COULEUR_GEEK_BEEZ-3" x1="215.71" y1="351.89" x2="223.87" y2="351.89" xlink:href="#COULEUR_GEEK_BEEZ"/><linearGradient id="COULEUR_GEEK_BEEZ-4" x1="209.7" y1="385.41" x2="233" y2="385.41" gradientTransform="translate(-1.64 -19.99)" xlink:href="#COULEUR_GEEK_BEEZ"/><linearGradient id="COULEUR_GEEK_BEEZ-5" x1="235.25" y1="359.38" x2="244.89" y2="359.38" xlink:href="#COULEUR_GEEK_BEEZ"/><linearGradient id="COULEUR_GEEK_BEEZ-6" x1="252.88" y1="359.38" x2="262.45" y2="359.38" xlink:href="#COULEUR_GEEK_BEEZ"/><linearGradient id="COULEUR_GEEK_BEEZ-7" x1="243.98" y1="367.54" x2="253.52" y2="367.54" xlink:href="#COULEUR_GEEK_BEEZ"/><linearGradient id="COULEUR_GEEK_BEEZ-8" x1="243.99" y1="350.65" x2="253.52" y2="350.65" xlink:href="#COULEUR_GEEK_BEEZ"/><linearGradient id="COULEUR_GEEK_BEEZ-9" x1="178.44" y1="358.95" x2="202.15" y2="358.95" xlink:href="#COULEUR_GEEK_BEEZ"/></defs><g id="Calque_2" data-name="Calque 2"><g id="Calque_2-2" data-name="Calque 2"><path class="cls-1" d="M108.52,365.24,14.17,200.88a16.41,16.41,0,0,1,0-16.3L108.52,20.22A16.38,16.38,0,0,1,122.72,12H311.24a16.38,16.38,0,0,1,14.2,8.22l94.34,164.36a16.36,16.36,0,0,1,0,16.3L325.44,365.24a16.36,16.36,0,0,1-14.2,8.22H122.72A16.36,16.36,0,0,1,108.52,365.24Z"/><path class="cls-2" d="M200.57,19.14a36.4,36.4,0,0,1,1.67,18.66,43.5,43.5,0,0,1-6.46,16A54.66,54.66,0,0,1,184,66.61a68.66,68.66,0,0,1-14.29,8.79q6.67,9.28,6.68,22.43t-7.3,26.87a72,72,0,0,1-13.35,17.6,75,75,0,0,1-36,19.14,79.58,79.58,0,0,1-19.91,1.74c-2.22-.13-4.35-.29-6.36-.48s-4-.49-5.94-.87a75.63,75.63,0,0,0,16,2.61q7.31.28,9.8.29a111.24,111.24,0,0,1-22.1-1.26,70.16,70.16,0,0,1-16.16-4.64,38.43,38.43,0,0,1-11.05-7.06,36.49,36.49,0,0,1-6.78-8.5,34.59,34.59,0,0,1-5.11-21.37,45.12,45.12,0,0,1,7.41-21.36,44.85,44.85,0,0,0-4.8,7.83,56.15,56.15,0,0,0-3,7.73c-.76,2.51-1.39,4.9-1.88,7.15s-.87,4.23-1.15,5.9a49.1,49.1,0,0,1,3-19.14,43.23,43.23,0,0,1,8.34-13.63,45.81,45.81,0,0,1,11.36-9,57.08,57.08,0,0,1,12-5.12,54.27,54.27,0,0,1,10.43-2,19.69,19.69,0,0,1,6.57.19Q106.94,64.77,111.12,54A108.41,108.41,0,0,1,119.88,36a30.36,30.36,0,0,1-10.64,1.16,19.43,19.43,0,0,1-8.34-2.22,5.77,5.77,0,0,1-3.12-5.22q0-3.39,5-8c-2.37,3-2.57,5.55-.63,7.74a2.66,2.66,0,0,1-.41-2.13,7.83,7.83,0,0,1,1-2.8A9.64,9.64,0,0,1,105,21.85a8.75,8.75,0,0,1,3.23-1.74,8.82,8.82,0,0,0-1.46,2c-.56,1-.66,1.71-.31,2.22s1.42.61,3.23.29,4.8-1.64,9-4,7.78-4.35,10.42-5.71,5-1.77,7.09-1.25a41.9,41.9,0,0,1,5.42,1.54,12.63,12.63,0,0,1,4.38,2.52q-.21.39-2.81,4.83T137,33.25q-3.55,6.2-7.3,13T123.42,58q.63-1,2.4-3.87t4.17-7q2.4-4.05,5.11-8.6t5.11-8.6q2.4-4.06,4.27-7.06c1.25-2,2.09-3.38,2.51-4.16a2.41,2.41,0,0,1,.2,2.13l.21.19Q141.78,30,138,36.25t-7.82,13q-4.06,6.77-6.78,11.41a73.37,73.37,0,0,1,18.77,1,54.7,54.7,0,0,1,19,6.76,33.72,33.72,0,0,0,9.8-5.7,41.36,41.36,0,0,0,7.72-8.22,38.31,38.31,0,0,0,4.8-9.09,17,17,0,0,0,1-8.5,8.07,8.07,0,0,0-6.15-7.45,25,25,0,0,0-12.72,0,50.29,50.29,0,0,0-14.6,6.09,39.88,39.88,0,0,0-12,10.83,25.26,25.26,0,0,1,4.59-8.7,35.46,35.46,0,0,1,6.88-6.57,39.22,39.22,0,0,1,7.92-4.45A55.45,55.45,0,0,1,166.59,24a30.17,30.17,0,0,0-11.68,3.29,35.26,35.26,0,0,0-10.64,7.54,30.9,30.9,0,0,1,10.12-9.09,41.45,41.45,0,0,1,13.13-4.93,33.34,33.34,0,0,1,12.83,0,14.22,14.22,0,0,1,9.17,5.71A13.93,13.93,0,0,0,182.75,21a22.43,22.43,0,0,0-10.43-1.36,48.86,48.86,0,0,0-12.93,3.1,58.13,58.13,0,0,0-14.07,7.83,16,16,0,0,1,2.29-5.61A12.71,12.71,0,0,1,153,20.11a61.22,61.22,0,0,1,15-5.51,43.83,43.83,0,0,1,14-1A30.58,30.58,0,0,1,193.48,17a16.52,16.52,0,0,1,7.3,7.54,20.61,20.61,0,0,0,.11-3.48A8.1,8.1,0,0,0,200.57,19.14Zm-122,77.53q-7.31,5.42-10.53,11.5a30.56,30.56,0,0,0-3.44,13.63,32.56,32.56,0,0,1,2-8.89,38.74,38.74,0,0,1,3.55-7.15,29.51,29.51,0,0,1,4.27-5.32Q76.72,98.22,78.59,96.67Zm79.24,23.59a41.48,41.48,0,0,0,5.63-22.14A35.28,35.28,0,0,0,161.58,88a24,24,0,0,0-4.79-8.31,4,4,0,0,0-.84.09,3.42,3.42,0,0,1-.83.1,53.77,53.77,0,0,1-11.89,1,55.84,55.84,0,0,1-10.84-1.36,32.39,32.39,0,0,1-8.76-3.28,19.14,19.14,0,0,1-5.84-4.84q-3.12,5.61-5.84,11.41,11.89,3.87,15.64,13.15t1,21.07q-1.68,6.57-5.63,9.18a6.45,6.45,0,0,1-7.72.1,6.63,6.63,0,0,1-4,4.06,11.68,11.68,0,0,1-6.36.58,14.35,14.35,0,0,1-6.46-2.9A13.56,13.56,0,0,1,94,121.61a18.61,18.61,0,0,0,10.22-.48,14.69,14.69,0,0,0,6.78-4.84,14.32,14.32,0,0,0,2.81-7.25,12.78,12.78,0,0,0-1.46-7.54,7.1,7.1,0,0,1,3.34,3.48,8.8,8.8,0,0,1,.62,5q1.88-8.12-2.39-13.15t-13-5.6a28,28,0,0,0-18.14,4.93,37.86,37.86,0,0,0-12.2,13.72,34.55,34.55,0,0,0-4,17.4,24.29,24.29,0,0,0,6.78,16.15q6.25,6.19,16.78,9.18a46.91,46.91,0,0,0,22.63.49q12.09-2.52,24.08-11.41t20.75-26.49a38.34,38.34,0,0,1-1.36,5.7,40.61,40.61,0,0,1-2.6,6.29c.69-1,1.39-2.13,2.08-3.29S157.13,121.55,157.83,120.26Zm-86.74-8.7a30.37,30.37,0,0,0-1,5.6,38.42,38.42,0,0,0,0,8,36.85,36.85,0,0,0,2.09,9,23.09,23.09,0,0,0,5.52,8.51,32,32,0,0,0,10.12,6.57,47.61,47.61,0,0,0,15.84,3.29,41.75,41.75,0,0,1-17.3-2.32A28.86,28.86,0,0,1,74,141.82a25.78,25.78,0,0,1-5.63-13.35Q67.34,120.64,71.09,111.56Zm15.22,42.53a50.72,50.72,0,0,0,14,3.1,50.09,50.09,0,0,0,14.49-1,51.52,51.52,0,0,0,14.07-5.32,50.15,50.15,0,0,0,12.52-9.76,57,57,0,0,1-26.38,14A56.19,56.19,0,0,1,86.31,154.09Zm22.93-116.2a22.33,22.33,0,0,1-5.21.2,11.65,11.65,0,0,1-5.11-1.45,6.53,6.53,0,0,1-3-3.68q-.84-2.41,1.46-6.28a12.94,12.94,0,0,0-.73,2.71A5.56,5.56,0,0,0,97.25,33a8.28,8.28,0,0,0,3.65,3.29Q103.61,37.71,109.24,37.89Zm3.55,69.41a13.88,13.88,0,0,1-1.46,6.48,14.34,14.34,0,0,1-3.75,4.64,12.86,12.86,0,0,1-5.22,2.51,11.26,11.26,0,0,1-6-.29,17.78,17.78,0,0,0,10-3.19Q111.12,114.27,112.79,107.3Zm3.13-55.87A23.86,23.86,0,0,0,113.41,56c-1.11,2.39-2.29,5.12-3.54,8.22s-2.5,6.16-3.75,9.18-2.16,5.39-2.71,7.06c.83-1.67,1.9-4,3.23-7.06s2.64-6.09,4-9.18,2.47-5.87,3.44-8.31S115.64,51.94,115.92,51.43Zm-2.09-20.88a15.07,15.07,0,0,0,6.57-2q3.22-1.85,6.36-3.87c2.08-1.35,4.07-2.54,5.94-3.58a8,8,0,0,1,5.11-1.16,6.47,6.47,0,0,0-5.11.68c-1.87,1-3.86,2.13-5.94,3.48s-4.21,2.68-6.36,4A19.3,19.3,0,0,1,113.83,30.55Zm40,39.63a13,13,0,0,0-4.59-3.48,34.37,34.37,0,0,0-7.19-2.51,52.69,52.69,0,0,0-8.55-1.26,34.92,34.92,0,0,0-8.66.49,36.78,36.78,0,0,1,5-.1,71.61,71.61,0,0,1,7.82.68,48.2,48.2,0,0,1,8.65,2A22,22,0,0,1,153.87,70.18Zm-6.26,1.94q-9.81-5.22-22.73-4.06A31,31,0,0,0,135,71.73,41.2,41.2,0,0,0,147.61,72.12Zm-1.25-4.26a24.43,24.43,0,0,0-8.65-2.8,30.91,30.91,0,0,0-6-.29c2.23.39,4.52.74,6.89,1.06A37.17,37.17,0,0,1,146.36,67.86Zm23.56,5.61a59.14,59.14,0,0,0,13-7.93,55.36,55.36,0,0,0,9.69-10,43.84,43.84,0,0,0,6-10.92,40.57,40.57,0,0,0,2.5-11,68.89,68.89,0,0,1-10.43,22.52Q183.69,66.14,169.92,73.47Z"/><path class="cls-3" d="M225.39,99.18a4.23,4.23,0,0,1,2.08-1.83,2.9,2.9,0,0,1,2.19-.1,2.1,2.1,0,0,1,1.25,1.35,3.76,3.76,0,0,1-.31,2.52q-1.24,2.5-3.44,6.47c-1.46,2.65-3.13,5.51-5,8.61s-3.93,6.28-6.16,9.57-4.45,6.41-6.67,9.38q-9.18,12.18-15.22,14.5t-9-4.45a29.19,29.19,0,0,1,.42,4.06A1.7,1.7,0,0,0,187,151a7.87,7.87,0,0,1-6.05-3.19q-2.7-3.19-2.29-11.21t5.53-22q5.1-14,17.41-35.86a41.08,41.08,0,0,0-5,7.64q-2.51,4.74-4.79,9.57a36.1,36.1,0,0,1,1.77-5.71,58.47,58.47,0,0,1,3.23-7,51.43,51.43,0,0,1,4-6.29,8.79,8.79,0,0,1,4-3.38,4.39,4.39,0,0,1,1.88-.39h1.46q-.42.78-2.08,4.16t-3.76,7.35q-2.09,4-3.75,7.44c-1.12,2.32-1.81,3.74-2.09,4.25.84-1.41,1.95-3.35,3.34-5.8s2.81-4.86,4.27-7.25,2.75-4.54,3.86-6.47,1.81-3.16,2.09-3.68a4.13,4.13,0,0,0,1.25.2,4.17,4.17,0,0,1,1.25.19c-.14.26-.45.87-.94,1.84s-1,2.06-1.56,3.28-1.12,2.49-1.67,3.77-1,2.39-1.46,3.29a30.35,30.35,0,0,0,1.88-3.09c.69-1.29,1.42-2.55,2.19-3.77s1.42-2.32,2-3.29a8.84,8.84,0,0,1,1.25-1.84,45.48,45.48,0,0,1,4.69,1.07,6.75,6.75,0,0,1,3.23,1.64,1.86,1.86,0,0,1,.52,1.64,5.14,5.14,0,0,1-.94,2.32,13.69,13.69,0,0,1-2.19,2.52,16.45,16.45,0,0,1-3,2.22q.21,1.55-2,6.09t-5.21,10.44q-3,5.9-6.47,12.37T197,126.06a50.37,50.37,0,0,0-3,9.47q-.73,3.87,1.56,4.45c.83.26,1.94-.29,3.34-1.64a49,49,0,0,0,4.69-5.52c1.73-2.31,3.58-5,5.52-8s3.93-6.09,5.95-9.18,3.89-6.06,5.63-8.9S224,101.38,225.39,99.18Zm-43.58,41.19a34.31,34.31,0,0,1,.1-7.93,52.72,52.72,0,0,1,1.77-8.9,32.55,32.55,0,0,0-2.29,8.12A23,23,0,0,0,181.81,140.37Zm26.69-39.83a49.21,49.21,0,0,0-6.15,8.5,95.56,95.56,0,0,0-5.74,11.22,76.81,76.81,0,0,0-3.86,11c-.9,3.48-1.07,6.18-.52,8.12a23.51,23.51,0,0,1,1.57-8.7,101.57,101.57,0,0,1,4.48-10.93q2.72-5.7,5.53-10.82T208.5,100.54ZM214.13,71a13.89,13.89,0,0,1-3.34-1.74,5.94,5.94,0,0,1-2.29-2.9,5.34,5.34,0,0,1,.31-4q.94-2.22,4.69-4.73A13.8,13.8,0,0,0,210.17,63a13.24,13.24,0,0,1,2.39-3.39,18,18,0,0,1,3.44-2.8A21.35,21.35,0,0,1,219.76,55a7.74,7.74,0,0,1,3.54-.48q2.5.39,3.76,3.58a11.8,11.8,0,0,1,.62,6.57,9.34,9.34,0,0,1-3.54,5.71c-1.95,1.54-4.8,1.87-8.55,1A10.37,10.37,0,0,0,214.13,71Zm11.26-14.12a4.21,4.21,0,0,0-3.76-.87,12,12,0,0,0-4.06,1.84,23.84,23.84,0,0,0-3.44,2.8,12.71,12.71,0,0,0-1.67,1.84,35.23,35.23,0,0,1,8-4.93Q223.71,56.26,225.39,56.84Z"/><path class="cls-3" d="M287.52,100.54a5.93,5.93,0,0,1,2.4-2.81,3.84,3.84,0,0,1,2.4-.48,2.19,2.19,0,0,1,1.56,1.06,2.27,2.27,0,0,1,.11,2,106.06,106.06,0,0,1-10.11,18.85,101.54,101.54,0,0,1-12.72,15.47,66.83,66.83,0,0,1-14,10.73A34.27,34.27,0,0,1,243.32,150a24.56,24.56,0,0,1-12.62-3,21.9,21.9,0,0,1-8-8,18.57,18.57,0,0,0,5.94,7.64,22.89,22.89,0,0,0,7.19,3.58A16.75,16.75,0,0,1,221.11,140a30.32,30.32,0,0,1-2.29-8.9,50.93,50.93,0,0,1-.21-9.18,70.25,70.25,0,0,1,.94-7.73c.42-2.26.76-3.9,1-4.93a60.39,60.39,0,0,1,6.57-15.95,50.27,50.27,0,0,1,10.74-13A33.28,33.28,0,0,1,252,73.18q7.83-1.83,17,1.45a12.61,12.61,0,0,1,7.4,6.67,20.64,20.64,0,0,1,1.56,10.92,40.15,40.15,0,0,1-3.85,13,57.87,57.87,0,0,1-8.66,13.15,59.1,59.1,0,0,1-12.93,11.12A49.39,49.39,0,0,1,236,136.31a7,7,0,0,0,3.55,3.48q5.84,2.7,12.92-.68a53.24,53.24,0,0,0,13.77-9.77,96.69,96.69,0,0,0,12.3-14.4A132.9,132.9,0,0,0,287.52,100.54ZM242.07,98.8a46.31,46.31,0,0,0-11,24.94,26.8,26.8,0,0,0,.73,10.53q1.35,4.54,4.9,5.9-3.56-3.28-4-9.18a43.21,43.21,0,0,1,.94-12.18,63.08,63.08,0,0,1,3.76-11.8A33.62,33.62,0,0,1,242.07,98.8Zm-7.51,31.71a35.94,35.94,0,0,0,10.53-6.29,46.17,46.17,0,0,0,8.34-9.18,38.63,38.63,0,0,0,5.11-10.35,17.56,17.56,0,0,0,.42-10,14.58,14.58,0,0,1,1.25,2.61,14.8,14.8,0,0,1,.83,4,15.32,15.32,0,0,0,.52-5.7A4.62,4.62,0,0,0,259.37,92q-4.17-2.32-8.75.87a30.61,30.61,0,0,0-8.34,9.28A54.3,54.3,0,0,0,236.33,116,43.4,43.4,0,0,0,234.56,130.51Zm1-2.52a45.86,45.86,0,0,1,2.09-12.76,60,60,0,0,1,4.17-10,37.1,37.1,0,0,1,4.59-6.87A28.61,28.61,0,0,1,250,94.74a46.87,46.87,0,0,0-10.11,16.82A134,134,0,0,0,235.6,128Zm41.08-38.28a48.72,48.72,0,0,1-6.15,16.72,67.18,67.18,0,0,1-10,13,66.75,66.75,0,0,1-21.37,14.4,38.43,38.43,0,0,0,12.3-5.61,64.41,64.41,0,0,0,12-10.24,57.35,57.35,0,0,0,9.18-13.34A38,38,0,0,0,276.68,89.71Zm-7.92-13.53c-1.39-.52-2.92-1-4.59-1.55a20.06,20.06,0,0,0-5.84-.77A29.19,29.19,0,0,0,250.72,75a35.84,35.84,0,0,0-9.49,4.44q1.46-.76,4.28-2a33.19,33.19,0,0,1,6.46-2,38.65,38.65,0,0,1,7.93-.77A27.76,27.76,0,0,1,268.76,76.18Zm5,43.3a36.41,36.41,0,0,1-3.65,4.74,65.51,65.51,0,0,1-6.25,6.19,66.78,66.78,0,0,1-7.72,5.8,23.06,23.06,0,0,1-8,3.38c.83-.51,2-1.16,3.64-1.93a38.7,38.7,0,0,0,5.63-3.48c2.16-1.55,4.62-3.48,7.41-5.8A85.53,85.53,0,0,0,273.76,119.48Z"/><path class="cls-3" d="M359.05,101.12q-1.89,4-6.05,11.21t-9.28,14.89q-5.12,7.72-10.53,14.89a67.73,67.73,0,0,1-9.8,10.82,20.87,20.87,0,0,0,7.19-6.09,88.41,88.41,0,0,1,5.95-7.05,46,46,0,0,1-7.93,10.82,21.69,21.69,0,0,1-6.88,4.64q-7.31,2.33-10.84-2.32-2.72-3.28-2.4-9.18A64.55,64.55,0,0,1,310.57,131a130.92,130.92,0,0,1,4.48-14q2.7-7.16,5.11-13t3.75-9.76c.9-2.58,1-4.06.31-4.45q-1.87-1-8,2.61t-13,12.86a13.18,13.18,0,0,1,5.63-3.48,61.39,61.39,0,0,0-15.74,20.59,123.78,123.78,0,0,0-8.24,24.26,4.31,4.31,0,0,1-2,2.13,9.07,9.07,0,0,1-3.33,1.26,4,4,0,0,1-3-.58c-.83-.58-1.25-1.77-1.25-3.58a118.41,118.41,0,0,1,2.4-15.18q2-9.37,4.8-19.14t6-18.08q3.24-8.31,6.36-12.18a11.66,11.66,0,0,1,2.3-1.93A41,41,0,0,0,294.51,84c-1,2.12-2.12,4.48-3.23,7s-2.19,5.22-3.23,7.93a63.29,63.29,0,0,0-2.4,7.35q1.46-3.48,3.23-7.93t3.65-8.6q1.88-4.16,3.75-7.45a15.76,15.76,0,0,1,3.34-4.44,19.17,19.17,0,0,1,4.48-1,12.59,12.59,0,0,1,3.86.19,4.81,4.81,0,0,1,2.4,1.16,1.29,1.29,0,0,1,.1,1.74,24.14,24.14,0,0,0-2.81,3.29q-1.57,2.13-3.13,4.74c-1,1.74-2.09,3.57-3.13,5.51l-2.81,5.22A81.23,81.23,0,0,1,309,84.49a63.66,63.66,0,0,1,10.53-9.28,33.11,33.11,0,0,1,9.7-4.74,19.24,19.24,0,0,1,8.13-.67q7.5,1.35,7.61,9.57T339,99.76q-1.68,3.48-3.86,8.22t-4.48,10q-2.29,5.22-4.38,10.24t-3.65,9c-1,2.64-1.81,4.8-2.29,6.47s-.53,2.52-.11,2.52c.84,0,2-.84,3.55-2.52a79.5,79.5,0,0,0,5.31-6.67q3-4.15,6.57-9.37t6.88-10.54q3.33-5.32,6.26-10t5-7.93a3.79,3.79,0,0,1,2.09-1.74,3.69,3.69,0,0,1,2.19-.09,1.84,1.84,0,0,1,1.25,1.35A3.45,3.45,0,0,1,359.05,101.12Zm-76.32,43.31a87.72,87.72,0,0,1,5.42-17,135.69,135.69,0,0,1,7.3-14.5,101.85,101.85,0,0,1,7-10.54,53.19,53.19,0,0,1,4.49-5.31,47.69,47.69,0,0,0-5.22,5.8,98.67,98.67,0,0,0-8.13,11.79,118.4,118.4,0,0,0-7.51,14.89A38.56,38.56,0,0,0,282.73,144.43ZM323.81,93c-.14.51-.73,2-1.78,4.44s-2.29,5.45-3.75,9-2.92,7.45-4.38,11.7-2.75,8.35-3.86,12.28a74.53,74.53,0,0,0-2.29,10.92q-.63,5,.63,7.54-2.92-.76-3-6.09a47,47,0,0,1,2.19-13.34A141.3,141.3,0,0,1,314,111.85,155.17,155.17,0,0,1,323.81,93Zm8.75,15.46a197.86,197.86,0,0,0-12,25.62q-3.65,10.15-2.19,12.47,0-2.31,1.88-7.83t4.28-11.5q2.38-6,4.79-11.31T332.56,108.46ZM343,81c.42-2.83.17-5-.73-6.57a7.07,7.07,0,0,0-3.75-3.19,10.77,10.77,0,0,0-5.42-.39,22.6,22.6,0,0,0-5.95,1.84q2.5-.58,5.11-1a12.49,12.49,0,0,1,4.9.19A7,7,0,0,1,341,74.53Q342.57,76.57,343,81Z"/><path class="cls-4" d="M383.34,124.13a10.11,10.11,0,0,0,4.06,1.35,29.3,29.3,0,0,0,5.43.29,29,29,0,0,0,5.42-.68,8.13,8.13,0,0,0,3.85-1.74,8.55,8.55,0,0,1-.52,2.71,28.56,28.56,0,0,1-1.25,3.09c-.49,1-1,2-1.46,2.81a4,4,0,0,1-1.14,1.45,18.29,18.29,0,0,1-6.05,1.45,30.74,30.74,0,0,1-5.42-.29q-2.72-.39-5.53-1a25.17,25.17,0,0,0-6.36-.39c-.28.91-1.15,1.45-2.6,1.65a21,21,0,0,1-4.49.09,44,44,0,0,1-6.25-1c-.28-.13-.7-.9-1.25-2.32l1.35.09c.76.07,1.6.17,2.5.29s1.74.23,2.51.29a10.11,10.11,0,0,1,1.77.29,25.14,25.14,0,0,0-4.49-1,20.93,20.93,0,0,1-3.85-.78,10.67,10.67,0,0,1,0-3,4.7,4.7,0,0,1,1-2.61,4.36,4.36,0,0,1,3-1.16,24.42,24.42,0,0,1,4.8.09,52.42,52.42,0,0,1,5.21.87,43.09,43.09,0,0,0,4.28.78q-10.23-3.87-16.68-1.94a7.89,7.89,0,0,1,1.87-2.12,11,11,0,0,1,4.28-1c1.32,0,2.74-.06,4.27-.19v-.39c0-.13.07-.19.21-.19a8.1,8.1,0,0,1,3-1,21.52,21.52,0,0,1,8.66.29,3.16,3.16,0,0,1,2.29,1.45,56,56,0,0,0,8.44,1.74,13.91,13.91,0,0,0,7.82-1,4,4,0,0,1-2.29,2,18.69,18.69,0,0,1-4.59,1.36,24.57,24.57,0,0,1-5.83.29A24,24,0,0,1,383.34,124.13Zm-15.85,5.41a32.79,32.79,0,0,1,5.73.77q3.87.78,8.14,1.45a52.76,52.76,0,0,0,8.44.68,14,14,0,0,0,6.67-1.35,23.93,23.93,0,0,1-7.92.67c-2.92-.19-5.81-.48-8.65-.87s-5.39-.77-7.61-1.16A12.64,12.64,0,0,0,367.49,129.54ZM380.84,134q1.25.39,3.33,1a19.27,19.27,0,0,0,4.48.68,29.66,29.66,0,0,0,4.8-.19,9.08,9.08,0,0,0,4.28-1.65c-.14.65-.73,1.2-1.78,1.65a11.08,11.08,0,0,1-4,.77,25.4,25.4,0,0,1-5.32-.39A22.58,22.58,0,0,1,380.84,134Z"/><path class="cls-3" d="M187.67,171.65q10.64,2.13,16,8.51a24.69,24.69,0,0,1,5.84,14.6,34.49,34.49,0,0,1-3.54,16.92A42.94,42.94,0,0,1,193.72,227a7.82,7.82,0,0,1-8.45.58,9.31,9.31,0,0,1-3-2.61,7,7,0,0,1-1.46-3.38,8.81,8.81,0,0,1,.21-5,16.38,16.38,0,0,1,2.4-4.64,19.53,19.53,0,0,1,3.33-3.58,9.76,9.76,0,0,1,3-1.83,9.24,9.24,0,0,0-2.09,3.38,17.25,17.25,0,0,0-.83,3.38,36.12,36.12,0,0,0,5.52-7.34,20.61,20.61,0,0,0,2.92-9.09,13.28,13.28,0,0,0-2.29-8.51q-2.61-3.87-10.12-5.61a25.25,25.25,0,0,0-14.17.58,31.89,31.89,0,0,0-11.89,7.06,32.43,32.43,0,0,0-7.71,11.22,26.47,26.47,0,0,0-2,13.24,25,25,0,0,0,5.53,12.86q4.8,6.09,14.8,10.15c1.67.64,2.51,1.51,2.51,2.61a7.73,7.73,0,0,1-1.25,3.77,40.84,40.84,0,0,0-7.93-3.39,56,56,0,0,0-11.26-2.32,62.18,62.18,0,0,0-13.34.1,47.66,47.66,0,0,0-14.39,4.06,47.47,47.47,0,0,1,12.93-3.19,66.35,66.35,0,0,1,12.82-.1A56.73,56.73,0,0,1,159,241.55a40.28,40.28,0,0,1,8.86,3.77,25,25,0,0,1-5.63,4.83q-3.33,2.13-4.79,1.93A46.83,46.83,0,0,0,141.8,250a37.21,37.21,0,0,0-12.72,2.8,33.2,33.2,0,0,0-9.91,6.48,42.31,42.31,0,0,0-7.19,8.89q-5.83,10-5.53,18.47a24.94,24.94,0,0,0,4.7,14.3,25.47,25.47,0,0,0,11.67,8.7,30.11,30.11,0,0,0,15.33,1.65,36,36,0,0,0,15.74-6.67q7.71-5.52,12.93-16.34a32.08,32.08,0,0,1-5,13.34,37,37,0,0,0,7.09-17.11q1.68-10.16-2.08-22.14a16.1,16.1,0,0,1,2.19,3,25.23,25.23,0,0,1,2.4,5.61,51.86,51.86,0,0,1,1.66,7.44,25.23,25.23,0,0,1-.2,8.51,24.37,24.37,0,0,0,.93-4.74,39.51,39.51,0,0,0,.21-5.8,48.43,48.43,0,0,0-.52-5.71,23.29,23.29,0,0,0-1.25-4.83,16.27,16.27,0,0,1,2.5,4,23.66,23.66,0,0,1,1.88,6.38,36.26,36.26,0,0,1,.21,8.79,48.57,48.57,0,0,1-2.5,11.22,28,28,0,0,0,3.65-8.7,47.12,47.12,0,0,0,1.25-9.67,35.26,35.26,0,0,0-1-9.38,26.6,26.6,0,0,0-3.23-7.83,16.59,16.59,0,0,1,5.21,7,27.82,27.82,0,0,1,2.09,9.86A41.51,41.51,0,0,1,181,288.82a45.17,45.17,0,0,1-4.8,11.79,37.5,37.5,0,0,1-11.36,12.57,49.49,49.49,0,0,1-15.12,7.06A55.89,55.89,0,0,1,133,322.17a50,50,0,0,1-15.85-3,34.54,34.54,0,0,1-20.85-19,39.21,39.21,0,0,1-3.13-13.34,46.68,46.68,0,0,1,1.36-14.11,49,49,0,0,1,15.53-25A37,37,0,0,0,100,257.59a52.25,52.25,0,0,0-5.53,10.64,49.31,49.31,0,0,0-2.5,9.09c-.42,2.64-.69,4.41-.83,5.31a44,44,0,0,1,15-35.38,51.43,51.43,0,0,1,17.62-9.86,66.6,66.6,0,0,1,22.42-3.29,34.55,34.55,0,0,1-8.45-11.79,36.25,36.25,0,0,1-3-13.34,33.2,33.2,0,0,1,2.08-12.86A26.2,26.2,0,0,1,143.47,186a18,18,0,0,0-3.65,3.58A35.25,35.25,0,0,1,136,193.7a41.9,41.9,0,0,1,20.95-19.34Q170.79,168.38,187.67,171.65ZM110.52,296a24.06,24.06,0,0,1-2.09-10.73,33.59,33.59,0,0,1,2.09-10.53,32.93,32.93,0,0,1,4.9-8.9A19.13,19.13,0,0,1,122,260.2a36.58,36.58,0,0,0-7.51,9.87,42.05,42.05,0,0,0-3.54,9.76,36.84,36.84,0,0,0-.94,8.89A67.18,67.18,0,0,0,110.52,296Zm43.16-47a36,36,0,0,0-13.86-2.51q-7.83,0-16.58,6.38c1.8-.9,3.75-1.81,5.84-2.71A35.55,35.55,0,0,1,136,248a36.88,36.88,0,0,1,8.24-.67A34.54,34.54,0,0,1,153.68,249Zm20,48.72a40.1,40.1,0,0,1-6.88,9.38,42,42,0,0,1-8.65,6.67,43.61,43.61,0,0,1-9.8,4.16,65.24,65.24,0,0,1-10.12,2A40,40,0,0,0,154,316.76a42.23,42.23,0,0,0,10.84-6.87,32.13,32.13,0,0,0,6.36-7.44A37.74,37.74,0,0,0,173.7,297.71Zm-29-89.9q1.67-9.09,6-14.6a36.94,36.94,0,0,1,9.39-8.6,30.19,30.19,0,0,1,9.59-4.06,26.22,26.22,0,0,1,6.88-.78q-8.55-.57-14.49,2.32a29.42,29.42,0,0,0-9.7,7.35,30.31,30.31,0,0,0-5.52,9.47A39.49,39.49,0,0,0,144.72,207.81Zm63.39-43.5c.55.77,1,1.42,1.46,1.93a2.88,2.88,0,0,1,.62,1c.55.51.49,1.22-.21,2.12a22.14,22.14,0,0,1-3.33-3.57,39.54,39.54,0,0,0-3.13-3.58,6.41,6.41,0,0,0,1.15,2c.62.84,1.25,1.71,1.87,2.61s1.22,1.71,1.77,2.42a13.11,13.11,0,0,1,1.05,1.45,9.8,9.8,0,0,1-2.71-1.84,12.67,12.67,0,0,1-2.3-2.42c.7,1,1.32,1.94,1.88,2.71s1.11,1.48,1.67,2.13c.27.38.21.67-.21.87a4.1,4.1,0,0,1-1.67.29,13,13,0,0,1-2.19-.2,2.22,2.22,0,0,1-1.56-.77c-.7-1-1.46-2.06-2.3-3.09l-2.5-3.1a9.3,9.3,0,0,1-1.25.78l-2.29,1.25c-.84.46-1.6.84-2.3,1.16a5,5,0,0,1-1.25.49c-.28.26-.83.22-1.67-.1a9.43,9.43,0,0,1-2.29-1.26,5.39,5.39,0,0,1-1.46-1.45q-.42-.67.63-.87a20.35,20.35,0,0,0,3.12-1.64c1.39-.84,2.57-1.58,3.55-2.22q-1.26.57-4.17,1.74c-2,.77-3.2,1.29-3.76,1.54s-.87-.22-.52-1.06.8-1.32,1.36-1.45a19.53,19.53,0,0,1,2-1.16l4-2.13q2.19-1.15,4.07-2.12a12.11,12.11,0,0,1,2.08-1,3.84,3.84,0,0,1,2.61-.29,3.58,3.58,0,0,1,2.19,1.06,15.49,15.49,0,0,0,1.46,1.84c.83,1,1.73,2,2.71,3.09s1.91,2.2,2.81,3.29a29.06,29.06,0,0,1,2,2.61,7,7,0,0,0-1-1.26C209.42,165.56,208.8,165,208.11,164.31Zm-22.94,53.75a22.54,22.54,0,0,0,5.73-5.22,34.67,34.67,0,0,0,4.28-6.87,25.7,25.7,0,0,0,2.19-7.25,12.14,12.14,0,0,0-.73-6.57,15.47,15.47,0,0,1-.21,8.31,36.55,36.55,0,0,1-3.23,7.74,30.55,30.55,0,0,1-4.28,5.89c-1.53,1.62-2.57,2.49-3.13,2.61a5.66,5.66,0,0,1-.2-2.8,10.21,10.21,0,0,1,1.25-3.77,10.17,10.17,0,0,0-1.78,4.45A7.91,7.91,0,0,0,185.17,218.06Zm.21-56.85a33,33,0,0,1,6.88-4.15q3.33-1.45,4.38-1.84a11.51,11.51,0,0,1-2.3,1.45c-1.11.58-2.26,1.19-3.44,1.84s-2.29,1.22-3.33,1.74A18,18,0,0,1,185.38,161.21Zm2.92,4.26a5.36,5.36,0,0,0,2.19-.68c.9-.45,1.87-1,2.91-1.55a30.34,30.34,0,0,0,2.92-1.83l2.4-1.74q-.83.39-2.4,1.35L193.2,163q-1.57,1-3,1.74A5.91,5.91,0,0,1,188.3,165.47Zm5.42,7a21.27,21.27,0,0,1,9.9,4.64,20.61,20.61,0,0,1,5.95,8.41,27.4,27.4,0,0,1,1.66,10.83,37.15,37.15,0,0,1-2.71,12.27q4.17-14.1-.21-23.2T193.72,172.43Z"/><path class="cls-3" d="M266.07,208l9.18,1.36c3.47.51,6.6,1,9.38,1.54-1.11,0-3.58,0-7.4.1s-8.1.1-12.83.1h-25q.21,1.35-2,5.6t-5.52,10.15q-3.34,5.91-7.2,12.67a140.13,140.13,0,0,0-6.57,12.95q-10,20.11-14.07,31t-2.82,11.12c1.12,0,2.85-1.38,5.22-4.16s4.93-6.12,7.71-10,5.56-8.09,8.34-12.47,5.22-8.19,7.3-11.41a4.28,4.28,0,0,1,2.09-1.84,3.35,3.35,0,0,1,2.19-.19,1.86,1.86,0,0,1,1.25,1.35,3.46,3.46,0,0,1-.32,2.42,83,83,0,0,1-5.94,11q-4.27,7-9.07,14.31-9.6,14.5-16.47,19.82t-10.43,3.77q-5.62-2.52-4.38-13.15-1.67,7.74-.83,11.31c.56,2.38,1.39,4,2.5,4.93-2.5-.77-4-2.71-4.38-5.8a36.73,36.73,0,0,1,.73-11.6,99.12,99.12,0,0,1,4.49-15.37q3.12-8.42,7-17.21t7.92-17.21q4.06-8.4,7.62-15.17t5.94-11.31q2.38-4.55,2.81-5.51H218q-3.85,0-8.34.09t-8.13.1h-3.86a5.07,5.07,0,0,1,.1-.77,5.37,5.37,0,0,1,.52-1.36,3.91,3.91,0,0,1,1-1.25,2.32,2.32,0,0,1,1.46-.49,11.68,11.68,0,0,0,2.5.2H207c1.32,0,2.6,0,3.86-.1s2.29-.1,3.12-.1a18.24,18.24,0,0,1-1.87-.19c-1-.13-2.09-.26-3.34-.39l-3.75-.38c-1.25-.13-2.3-.2-3.13-.2s-.8-.32-.31-1a8.68,8.68,0,0,1,2.5-2,24.89,24.89,0,0,1,4.07-1.94,12.26,12.26,0,0,1,4.37-.87c1.11,0,3.06,0,5.84-.1s6.19-.09,10.22-.09q1.67-3.87,2.5-5.9a14.63,14.63,0,0,1,1.88-3.38c.55-1.68,1.18-2.71,1.87-3.1a2.73,2.73,0,0,1,2.09-.29,3.57,3.57,0,0,1,1.77,1.16,3.22,3.22,0,0,1,.73,1.07,7.05,7.05,0,0,1,1.57-.39c.76-.13,1.7-.26,2.81-.39a11.76,11.76,0,0,0-1.15,2.91,13.72,13.72,0,0,1-.93,2.7,19.67,19.67,0,0,0,2.29-3.09,31.3,31.3,0,0,1,1.67-2.71,32.9,32.9,0,0,1,3.54.19c1.11.13,1.81.46,2.09,1a36.66,36.66,0,0,0-2.09,4.06,25.7,25.7,0,0,0-1.87,3.29,20,20,0,0,1-1.67,2.9q5,0,10.53.09t10.53.1c3.33,0,6.29,0,8.86.1s4.41.1,5.53.1a63.2,63.2,0,0,1-7.93.87q-5,.28-10.32.48t-10.22.19H245q2.09.2,7.61.2H264.4q6.25,0,12.2.09c4,.07,6.92.16,8.86.29a12,12,0,0,1-4.17.87q-3.12.3-6.88.49c-2.5.13-4.9.22-7.19.29s-4,.09-5.11.09q5,.19,9.07.68c2.71.32,5.8.68,9.28,1.06q-1.45.39-3.75.78c-1.53.26-3,.45-4.49.58s-2.74.22-3.85.29S266.49,208,266.07,208Zm-63.39,65.93a22.41,22.41,0,0,0-3,6.48c-.63,2.26-1.28,5.06-2,8.41.83-2.71,1.7-5.44,2.61-8.22S202,275.61,202.68,273.93Zm-3.12,18.95a46.26,46.26,0,0,1,3.44-12q3-7.53,6.56-15.18t6.78-13.92q3.22-6.27,4.07-8-4.59,7.35-8.76,15.27t-7.09,14.89A108.25,108.25,0,0,0,200.18,286Q198.73,291.14,199.56,292.88Zm4.79-46.79a56.73,56.73,0,0,1,3.23-9.86q2.4-5.8,5-11.12A79.63,79.63,0,0,1,217.7,216c1.67-2.52,2.92-3.9,3.75-4.16-.56,1-1.56,2.9-3,5.61s-3.06,5.73-4.8,9.08-3.48,6.77-5.21,10.25A86,86,0,0,0,204.35,246.09Zm9-40.6a24.4,24.4,0,0,0,4.58.48,38.59,38.59,0,0,0,6.89-.48,56.73,56.73,0,0,0-6-.39A41,41,0,0,0,213.32,205.49Zm21.89-7.15c.42-.65.94-1.58,1.57-2.81a16.59,16.59,0,0,0,1.35-3.57c-.42.64-1,1.7-1.77,3.19A8.29,8.29,0,0,0,235.21,198.34Z"/><path class="cls-3" d="M282.75,256.53a5.79,5.79,0,0,1,2.19-1.84,3,3,0,0,1,2.09-.19,1.86,1.86,0,0,1,1.25,1.35,4,4,0,0,1-.31,2.61c-1,1.94-2.33,4.48-4.07,7.64s-3.72,6.54-5.94,10.15-4.66,7.25-7.3,10.93-5.21,7-7.72,9.95a51.11,51.11,0,0,1-7.29,7.25c-2.37,1.87-4.38,2.81-6.05,2.81a9,9,0,0,1-4.69-1.07,5.74,5.74,0,0,1-2.4-4,25.79,25.79,0,0,1,0-8.12,107.73,107.73,0,0,1,2.71-13.34q.83-4.06,1.88-7.54a91,91,0,0,0-5.42,18.75,31.55,31.55,0,0,1,.62-7.83,68.11,68.11,0,0,1,2.29-8.7,75.87,75.87,0,0,1,3.24-8.12,44.55,44.55,0,0,1,3.65-6.48,9.25,9.25,0,0,1,2.5-3.28,1.38,1.38,0,0,1,.42-.29,2,2,0,0,0,.41-.29,25.58,25.58,0,0,1-10.53,3.19,39.85,39.85,0,0,1-10.11-.29c-.56,1-1.18,2.16-1.88,3.38s-1.39,2.55-2.08,4c-.14.13-.46.1-.94-.09a10.3,10.3,0,0,1-1.56-.78,12.33,12.33,0,0,1-1.46-1q-.63-.48-.63-.87c.7-1,1.36-2.06,2-3.1s1.22-2.06,1.77-3.09q-3.75-1.93-4.38-7.54a22.78,22.78,0,0,1,1.67-11.21,20.42,20.42,0,0,1,7.72-9.28q5.42-3.68,14-1.94a16.37,16.37,0,0,0-7.82.68,15.36,15.36,0,0,0-5.74,3.58,13.76,13.76,0,0,1,5.74-2.61,7.41,7.41,0,0,1,4.69.48,4.88,4.88,0,0,1,2.5,3.19,7.68,7.68,0,0,1-.83,5.32q-.84,1.55-2.5,4.35t-2.92,4.93a22.94,22.94,0,0,0,8.75-2.71,40.8,40.8,0,0,0,6.47-4.45q2.7-2.31,4.79-4.35a11,11,0,0,1,3.76-2.61,12,12,0,0,1,5.63-.19,10.38,10.38,0,0,1-1,2.51L268,239.9q-1.05,1.93-2.29,3.87a24.1,24.1,0,0,1-2.51,3.29,14.37,14.37,0,0,0,2.4-2.42,39.36,39.36,0,0,0,2.61-3.58c.83-1.28,1.67-2.54,2.5-3.77s1.53-2.28,2.08-3.19a13.71,13.71,0,0,1,3.55,1.45,5.73,5.73,0,0,1,2.5,2.42,65.59,65.59,0,0,1-3.13,7.93q-1.46,3.09-3,6a12.78,12.78,0,0,1-2.81,3.87q-3.34,7.15-6.68,14.5t-5.84,13.34q-2.49,6-3.75,9.86c-.83,2.58-1,3.87-.62,3.87,1.11.13,2.91-1.32,5.42-4.35a137.54,137.54,0,0,0,8.13-11.12q4.38-6.57,8.76-13.53T282.75,256.53ZM240,235.46a3.26,3.26,0,0,0-2.61,1,8.7,8.7,0,0,0-2.19,3,9.59,9.59,0,0,0-.83,4,4.89,4.89,0,0,0,1.25,3.48,6.93,6.93,0,0,1-.63-2.32,8.29,8.29,0,0,1,.21-3.19,10,10,0,0,1,1.57-3.28A7.76,7.76,0,0,1,240,235.46Zm-4.17,23.39a27.4,27.4,0,0,0,7.19.39,25.48,25.48,0,0,0,10.32-2.9A42.13,42.13,0,0,1,235.84,258.85ZM240.63,237c.14-.38-.07-.41-.62-.09a6.68,6.68,0,0,0-1.77,1.64,9.6,9.6,0,0,0-1.57,3,5.8,5.8,0,0,0,0,3.77c.7-1.16,1.49-2.71,2.4-4.64A33.32,33.32,0,0,0,240.63,237Zm19.81-1.93a10.89,10.89,0,0,1-2.6,3.77,35.55,35.55,0,0,1-4.38,3.77,39.39,39.39,0,0,1-4.8,3,9.37,9.37,0,0,1-4.27,1.25,22.73,22.73,0,0,0,7.5-4.54Q255.85,238.95,260.44,235.07Zm-11.26,65.74q-1.45-1.74-.41-7.06a97.48,97.48,0,0,1,3-11.41q2-6.09,4.06-11.5c1.39-3.61,2.37-6.06,2.92-7.35a71.07,71.07,0,0,0-4.69,9.28,100.87,100.87,0,0,0-4.38,12.09,65.16,65.16,0,0,0-2.29,10.82Q246.89,300.42,249.18,300.81Zm-.83,7.15a8.06,8.06,0,0,0,4.9-.87,22.49,22.49,0,0,0,5.11-3.48,38.72,38.72,0,0,0,4.58-4.83,54.83,54.83,0,0,0,3.55-4.93,49.09,49.09,0,0,1-8.76,11.4Q253.14,309.51,248.35,308Z"/><path class="cls-3" d="M344.89,257.69a5.75,5.75,0,0,1,2.4-2.8,3.92,3.92,0,0,1,2.4-.49,2.22,2.22,0,0,1,1.56,1.07,2.3,2.3,0,0,1,.1,2,106.75,106.75,0,0,1-10.11,18.85,100.37,100.37,0,0,1-12.72,15.47,67.26,67.26,0,0,1-14,10.73,34.58,34.58,0,0,1-13.87,4.64,24.52,24.52,0,0,1-12.61-3,22,22,0,0,1-8-8A18.61,18.61,0,0,0,286,303.8a22.61,22.61,0,0,0,7.2,3.58,16.68,16.68,0,0,1-14.7-10.25,30.26,30.26,0,0,1-2.3-8.89,52.84,52.84,0,0,1-.21-9.18,73.3,73.3,0,0,1,.94-7.74c.42-2.25.77-3.89,1-4.93a60.7,60.7,0,0,1,6.56-15.95,50.05,50.05,0,0,1,10.74-12.95,33.17,33.17,0,0,1,14.08-7.16q7.82-1.83,17,1.45a12.64,12.64,0,0,1,7.4,6.67,20.76,20.76,0,0,1,1.57,10.93,40.57,40.57,0,0,1-3.86,13.05,58.38,58.38,0,0,1-8.65,13.15,59.53,59.53,0,0,1-12.93,11.11,49.35,49.35,0,0,1-16.47,6.77,6.9,6.9,0,0,0,3.54,3.48q5.83,2.71,12.93-.68a53.32,53.32,0,0,0,13.76-9.76,95.7,95.7,0,0,0,12.3-14.41A132.18,132.18,0,0,0,344.89,257.69ZM299.43,256a46.59,46.59,0,0,0-11.05,24.94,27,27,0,0,0,.73,10.54c.9,3,2.54,5,4.9,5.9q-3.54-3.29-4-9.19A42.85,42.85,0,0,1,291,276a62,62,0,0,1,3.75-11.79A34,34,0,0,1,299.43,256Zm-7.5,31.71a35.91,35.91,0,0,0,10.53-6.28,46.56,46.56,0,0,0,8.34-9.19,39.33,39.33,0,0,0,5.11-10.34,17.5,17.5,0,0,0,.41-10,13.92,13.92,0,0,1,1.25,2.61,15,15,0,0,1,.84,4,15.53,15.53,0,0,0,.52-5.7,4.69,4.69,0,0,0-2.19-3.58q-4.17-2.31-8.76.87a30.61,30.61,0,0,0-8.34,9.28,54.55,54.55,0,0,0-5.94,13.83A43.38,43.38,0,0,0,291.93,287.66Zm1-2.51a45.8,45.8,0,0,1,2.08-12.76,60.45,60.45,0,0,1,4.17-10.06,37.33,37.33,0,0,1,4.59-6.86,29.51,29.51,0,0,1,3.55-3.58,46.91,46.91,0,0,0-10.12,16.82A135.35,135.35,0,0,0,293,285.15Zm41.08-38.29a49.19,49.19,0,0,1-6.15,16.73,67.5,67.5,0,0,1-10,13,64,64,0,0,1-11.26,9.09A65.09,65.09,0,0,1,296.51,291a38.47,38.47,0,0,0,12.31-5.61,64.74,64.74,0,0,0,12-10.25A56.8,56.8,0,0,0,330,261.75,38.05,38.05,0,0,0,334.05,246.86Zm-7.93-13.53q-2.08-.77-4.58-1.55a20.06,20.06,0,0,0-5.84-.77,29.49,29.49,0,0,0-7.61,1.16,35.76,35.76,0,0,0-9.49,4.45c1-.52,2.4-1.19,4.27-2a31.78,31.78,0,0,1,6.47-2,37.85,37.85,0,0,1,7.92-.78A27.72,27.72,0,0,1,326.12,233.33Zm5,43.31a38.32,38.32,0,0,1-3.65,4.74,68.87,68.87,0,0,1-14,12,23.25,23.25,0,0,1-8,3.39c.83-.52,2-1.16,3.65-1.94a39.24,39.24,0,0,0,5.63-3.48q3.23-2.31,7.4-5.8A85.34,85.34,0,0,0,331.13,276.64Z"/><path class="cls-3" d="M200.62,18.2a36.47,36.47,0,0,1,1.66,18.65,43.31,43.31,0,0,1-6.46,16A54.42,54.42,0,0,1,184,65.66a68.3,68.3,0,0,1-14.29,8.8q6.67,9.29,6.68,22.43t-7.3,26.87a71.68,71.68,0,0,1-13.35,17.6,75.34,75.34,0,0,1-16.89,12.18,74.24,74.24,0,0,1-19.07,7,80.65,80.65,0,0,1-19.92,1.74q-3.33-.19-6.36-.49a57.79,57.79,0,0,1-5.94-.87,74.36,74.36,0,0,0,16.06,2.61c4.86.2,8.13.29,9.8.29a110.66,110.66,0,0,1-22.11-1.25,70.66,70.66,0,0,1-16.16-4.64,38.43,38.43,0,0,1-11-7.06,36.53,36.53,0,0,1-6.78-8.51A34.47,34.47,0,0,1,52.26,121a45.07,45.07,0,0,1,7.4-21.37,44.85,44.85,0,0,0-4.8,7.83,56.26,56.26,0,0,0-3,7.74c-.76,2.51-1.39,4.9-1.88,7.15s-.86,4.23-1.14,5.9a49.11,49.11,0,0,1,3-19.14,43.12,43.12,0,0,1,8.34-13.63,45.58,45.58,0,0,1,11.36-9,57.68,57.68,0,0,1,12-5.13,55.2,55.2,0,0,1,10.43-2,19.88,19.88,0,0,1,6.57.2q6.45-15.66,10.63-26.4A108.66,108.66,0,0,1,119.92,35a30.33,30.33,0,0,1-10.63,1.16A19.29,19.29,0,0,1,100.94,34a5.75,5.75,0,0,1-3.12-5.22q0-3.37,5-8-3.54,4.45-.62,7.73a2.59,2.59,0,0,1-.42-2.12,8.14,8.14,0,0,1,1-2.81A10.15,10.15,0,0,1,105,20.9a9.05,9.05,0,0,1,3.23-1.74,9.65,9.65,0,0,0-1.46,2c-.55,1-.66,1.71-.31,2.23s1.42.61,3.23.29,4.8-1.65,9-4,7.78-4.35,10.42-5.7,5-1.77,7.09-1.26a44.26,44.26,0,0,1,5.43,1.55A12.66,12.66,0,0,1,146,16.84c-.14.26-1.07,1.87-2.81,4.84s-3.79,6.51-6.15,10.63-4.8,8.44-7.3,12.95-4.59,8.45-6.26,11.8q.63-1,2.4-3.87t4.17-7q2.4-4.06,5.11-8.6T140.25,29q2.4-4.05,4.27-7c1.26-2,2.09-3.39,2.51-4.16a2.46,2.46,0,0,1,.21,2.13l.2.19q-5.62,8.9-9.38,15.18t-7.82,13q-4.07,6.77-6.78,11.41a73.33,73.33,0,0,1,18.77,1,55,55,0,0,1,19,6.77,34.21,34.21,0,0,0,9.8-5.7,41.87,41.87,0,0,0,7.71-8.22,38.69,38.69,0,0,0,4.8-9.09,17,17,0,0,0,1-8.51,8.07,8.07,0,0,0-6.15-7.44,25,25,0,0,0-12.72,0,50.4,50.4,0,0,0-14.6,6.09,39.75,39.75,0,0,0-12,10.83,25.43,25.43,0,0,1,4.59-8.7,36.12,36.12,0,0,1,6.88-6.58,39.46,39.46,0,0,1,7.93-4.44A55.34,55.34,0,0,1,166.63,23,30.17,30.17,0,0,0,155,26.32a34.91,34.91,0,0,0-10.63,7.54,30.77,30.77,0,0,1,10.11-9.09,41.18,41.18,0,0,1,13.14-4.93,32.9,32.9,0,0,1,12.82,0,14.24,14.24,0,0,1,9.17,5.7A14,14,0,0,0,182.79,20a22.57,22.57,0,0,0-10.43-1.35,48.42,48.42,0,0,0-12.93,3.09,58.13,58.13,0,0,0-14.07,7.83,16.27,16.27,0,0,1,2.29-5.6,12.73,12.73,0,0,1,5.42-4.84,62,62,0,0,1,15-5.51,44.09,44.09,0,0,1,14-1,30.69,30.69,0,0,1,11.47,3.38,16.54,16.54,0,0,1,7.29,7.54,20.66,20.66,0,0,0,.11-3.48A8.68,8.68,0,0,0,200.62,18.2Zm-122,77.53q-7.29,5.42-10.53,11.5a30.52,30.52,0,0,0-3.44,13.63,32.48,32.48,0,0,1,2-8.89,40.49,40.49,0,0,1,3.55-7.16,29.42,29.42,0,0,1,4.27-5.31Q76.76,97.28,78.63,95.73Zm79.24,23.58a40.8,40.8,0,0,0,4.48-11.11,40.39,40.39,0,0,0,1.15-11A35.22,35.22,0,0,0,161.62,87a24.05,24.05,0,0,0-4.79-8.32,4,4,0,0,0-.84.1,3.37,3.37,0,0,1-.83.1,53.7,53.7,0,0,1-11.89,1,55.86,55.86,0,0,1-10.84-1.35,32.4,32.4,0,0,1-8.76-3.29,19,19,0,0,1-5.84-4.83Q114.71,76,112,81.81,123.88,85.68,127.64,95t1,21.08q-1.68,6.57-5.63,9.18a6.45,6.45,0,0,1-7.72.1,6.58,6.58,0,0,1-4,4.06A11.68,11.68,0,0,1,105,130a14.46,14.46,0,0,1-6.46-2.9,13.61,13.61,0,0,1-4.49-6.38,18.52,18.52,0,0,0,10.22-.49,14.6,14.6,0,0,0,6.78-4.83,14.35,14.35,0,0,0,2.81-7.25,12.77,12.77,0,0,0-1.46-7.54,7,7,0,0,1,3.34,3.48,8.88,8.88,0,0,1,.63,5q1.88-8.13-2.4-13.15t-13-5.61A28.15,28.15,0,0,0,82.8,95.24,37.77,37.77,0,0,0,70.61,109a34.66,34.66,0,0,0-4,17.4,24.31,24.31,0,0,0,6.78,16.15q6.26,6.18,16.79,9.18a46.75,46.75,0,0,0,22.62.48q12.09-2.51,24.08-11.4t20.75-26.49a40.17,40.17,0,0,1-1.35,5.7,41.63,41.63,0,0,1-2.61,6.28c.69-1,1.39-2.12,2.08-3.28S157.17,120.6,157.87,119.31Zm-86.74-8.7a30.34,30.34,0,0,0-1,5.61,38.42,38.42,0,0,0,0,8,37.32,37.32,0,0,0,2.09,9,22.88,22.88,0,0,0,5.53,8.5,32.13,32.13,0,0,0,10.11,6.58,47.38,47.38,0,0,0,15.85,3.28,41.45,41.45,0,0,1-17.31-2.32,28.6,28.6,0,0,1-12.3-8.41,25.59,25.59,0,0,1-5.63-13.34Q67.37,119.7,71.13,110.61Zm15.22,42.54a50.79,50.79,0,0,0,14,3.09,49.72,49.72,0,0,0,14.49-1A52.36,52.36,0,0,0,128.89,150a50.52,50.52,0,0,0,12.51-9.76,56.92,56.92,0,0,1-26.38,14A56.2,56.2,0,0,1,86.35,153.15ZM109.29,37a22.48,22.48,0,0,1-5.22.19A11.52,11.52,0,0,1,99,35.69a6.51,6.51,0,0,1-3-3.67q-.84-2.42,1.46-6.28a12.65,12.65,0,0,0-.73,2.7A5.54,5.54,0,0,0,97.3,32a8.25,8.25,0,0,0,3.64,3.29Q103.66,36.75,109.29,37Zm3.54,69.41a13.88,13.88,0,0,1-1.46,6.48,14.31,14.31,0,0,1-3.75,4.64A12.93,12.93,0,0,1,102.4,120a11.36,11.36,0,0,1-6-.29,17.81,17.81,0,0,0,10-3.19Q111.16,113.32,112.83,106.36ZM116,50.48a23.63,23.63,0,0,0-2.5,4.55q-1.68,3.57-3.55,8.22t-3.75,9.18c-1.25,3-2.16,5.38-2.71,7.06q1.24-2.52,3.23-7.06t4-9.18q2-4.65,3.44-8.32T116,50.48ZM113.87,29.6a14.81,14.81,0,0,0,6.57-2c2.15-1.22,4.28-2.51,6.36-3.86s4.07-2.55,5.94-3.58A7.92,7.92,0,0,1,137.85,19a6.47,6.47,0,0,0-5.11.68,67.46,67.46,0,0,0-5.94,3.48c-2.08,1.35-4.21,2.67-6.36,4A19.07,19.07,0,0,1,113.87,29.6Zm40,39.64a12.65,12.65,0,0,0-4.59-3.48,33.61,33.61,0,0,0-7.19-2.51A50.28,50.28,0,0,0,133.58,62a35.42,35.42,0,0,0-8.66.48,37.31,37.31,0,0,1,5-.09,74,74,0,0,1,7.82.67,48.91,48.91,0,0,1,8.65,2A22,22,0,0,1,153.91,69.24Zm-6.26,1.93q-9.79-5.22-22.73-4.06A31.08,31.08,0,0,0,135,70.79,40.89,40.89,0,0,0,147.65,71.17Zm-1.25-4.25a24.17,24.17,0,0,0-8.65-2.8,30.89,30.89,0,0,0-5.95-.29c2.23.38,4.52.74,6.89,1.06A36.55,36.55,0,0,1,146.4,66.92ZM170,72.53a59.52,59.52,0,0,0,13-7.93,55.36,55.36,0,0,0,9.69-10,43.84,43.84,0,0,0,6.05-10.92,40.57,40.57,0,0,0,2.5-11,69,69,0,0,1-10.42,22.52Q183.73,65.18,170,72.53Z"/><path class="cls-3" d="M383.34,123.53a10.11,10.11,0,0,0,4.06,1.35,29.3,29.3,0,0,0,5.43.29,29,29,0,0,0,5.42-.68,8.13,8.13,0,0,0,3.85-1.74,8.55,8.55,0,0,1-.52,2.71,28.56,28.56,0,0,1-1.25,3.09c-.49,1-1,2-1.46,2.81a4,4,0,0,1-1.14,1.45,18,18,0,0,1-6.05,1.45,30.74,30.74,0,0,1-5.42-.29q-2.72-.39-5.53-1a25.17,25.17,0,0,0-6.36-.39c-.28.91-1.15,1.45-2.6,1.65a21.64,21.64,0,0,1-4.49.1,45.62,45.62,0,0,1-6.25-1c-.28-.13-.7-.9-1.25-2.32l1.35.09c.76.07,1.6.17,2.5.3s1.74.22,2.51.28a10.11,10.11,0,0,1,1.77.29,25.14,25.14,0,0,0-4.49-1,20.93,20.93,0,0,1-3.85-.78,10.67,10.67,0,0,1,0-3,4.7,4.7,0,0,1,1-2.61,4.36,4.36,0,0,1,3-1.16,24.42,24.42,0,0,1,4.8.09,52.42,52.42,0,0,1,5.21.87,43.09,43.09,0,0,0,4.28.78q-10.23-3.87-16.68-1.94a7.89,7.89,0,0,1,1.87-2.12,11,11,0,0,1,4.28-1c1.32,0,2.74-.06,4.27-.19v-.39c0-.13.07-.19.21-.19a8.1,8.1,0,0,1,3-1,21.52,21.52,0,0,1,8.66.29,3.16,3.16,0,0,1,2.29,1.45,56,56,0,0,0,8.44,1.74,13.91,13.91,0,0,0,7.82-1,4,4,0,0,1-2.29,2,18.69,18.69,0,0,1-4.59,1.36,24.57,24.57,0,0,1-5.83.29A24,24,0,0,1,383.34,123.53Zm-15.85,5.41a32.79,32.79,0,0,1,5.73.77q3.87.78,8.14,1.45a52.76,52.76,0,0,0,8.44.68,14,14,0,0,0,6.67-1.35,23.93,23.93,0,0,1-7.92.67c-2.92-.19-5.81-.48-8.65-.87s-5.39-.77-7.61-1.16A12.64,12.64,0,0,0,367.49,128.94Zm13.35,4.45c.83.26,1.94.58,3.33,1a19.82,19.82,0,0,0,4.48.67,29.66,29.66,0,0,0,4.8-.19,9,9,0,0,0,4.28-1.65c-.14.65-.73,1.2-1.78,1.65a11.08,11.08,0,0,1-4,.77,25.4,25.4,0,0,1-5.32-.39A22.58,22.58,0,0,1,380.84,133.39Z"/><path class="cls-5" d="M190.76,356.05c-3.85,0-7.34-2.21-11.2-2.21-5.86,0-11,7-11.57,13.89-.54,6.29-1.48,12,4.81,12a142.85,142.85,0,0,0,18.2-2c6.07-1.25,9.16-4.07,11-10S197.05,356,190.76,356.05Z"/><path class="cls-5" d="M250.8,359.44c3.55,0,6.77-2,10.32-2,5.39,0,10.1,6.43,10.65,12.78.5,5.8,1.36,11.05-4.43,11a131.12,131.12,0,0,1-16.76-1.83c-5.58-1.15-8.42-3.75-10.1-9.23S245,359.44,250.8,359.44Z"/><path class="cls-3" d="M240.72,376.53a18.34,18.34,0,0,1-1.7,4.85,21.09,21.09,0,0,1-3.09,4.43,22.65,22.65,0,0,1-6.55,4.88,15.24,15.24,0,0,0-7.4,8.53c-.61,1.61-1.27,3.2-2,5l-.88-2.55a25.07,25.07,0,0,0-3.77-7.3,11.69,11.69,0,0,0-3.68-3,35.62,35.62,0,0,1-5.9-3.62,21,21,0,0,1-4.45-5.25,20.17,20.17,0,0,1-2.31-5.92,33.35,33.35,0,0,1-4.23,2.45,44.88,44.88,0,0,1-11.29,3.87c-1.55.31-3.12.51-4.69.7a53.75,53.75,0,0,1-7.92.23,26.92,26.92,0,0,1-4-.36c-.32-.06-.41-.13-.41-.45,0-2.09-.1-4.19,0-6.27a55.73,55.73,0,0,1,3.13-16.06,40.27,40.27,0,0,1,6.23-11.35,32,32,0,0,1,10.31-8.69,28.93,28.93,0,0,1,9.16-3.05,24.29,24.29,0,0,1,5.24-.37,17.34,17.34,0,0,1,3.66.36c.44.13.58-.19.58-.52a13.29,13.29,0,0,1,1.22-5.37,11.49,11.49,0,0,1,1.75-2.82,14.77,14.77,0,0,1,5.82-4.23l.92-.35a7.45,7.45,0,0,0-2.54-2.39c-.22-.15-.47-.26-.68-.42a1,1,0,0,0-1.35,0,2.93,2.93,0,0,1-3.39.11,3.07,3.07,0,0,1-1.58-3.15,3.13,3.13,0,0,1,2.22-2.77,3.2,3.2,0,0,1,4,2,.57.57,0,0,0,.36.42,14,14,0,0,1,6.27,5.1c.23.32.39.33.75.27a7.92,7.92,0,0,1,2.57,0,.57.57,0,0,0,.71-.25,14,14,0,0,1,6.25-5.12.69.69,0,0,0,.4-.46,3.39,3.39,0,0,1,3.29-2.15,3.28,3.28,0,0,1,3,3.38,3.23,3.23,0,0,1-5.18,2.51c-.22-.16-.38-.29-.63-.16a9.8,9.8,0,0,0-3.57,2.75c-.23.31-.08.39.15.46a13.41,13.41,0,0,1,4.3,2.37,13.17,13.17,0,0,1,3.89,5,13,13,0,0,1,1.18,5.36c0,.45.2.5.54.44a24.22,24.22,0,0,1,5-.39,30.53,30.53,0,0,1,10.4,2.16,29.66,29.66,0,0,1,7.76,4.61,34.79,34.79,0,0,1,5.4,5.58,38.85,38.85,0,0,1,4.78,8,45.39,45.39,0,0,1,3,8.88c.43,1.88.74,3.79,1.05,5.7.16,1,.21,2,.29,3,.19,2.51.09,5,.16,7.54,0,.68-.3.84-.82.89a60.31,60.31,0,0,1-9.21.25A46.78,46.78,0,0,1,249.4,381,39.48,39.48,0,0,1,240.72,376.53ZM227.34,346.2c-.5,0-1.05-.06-1.38.51a2.34,2.34,0,0,0-.22,1.81,16,16,0,0,0,1,2.65,65.46,65.46,0,0,0,5.22,9.95,47,47,0,0,0,4,5.25,35.28,35.28,0,0,0,4.68,4.47,38,38,0,0,0,7.42,4.47,15.21,15.21,0,0,0,4.79,1.42c.69.08,1-.22,1.26-.86.18-.41-.05-.69-.06-1a21.12,21.12,0,0,0-.93-5.16,25.26,25.26,0,0,0-5.52-9.81,29.61,29.61,0,0,0-5.82-5.07c-3.84-2.53-7.72-5-11.57-7.51A4.47,4.47,0,0,0,227.34,346.2Zm-13.27,1.61c0-.92-.42-1.54-1.08-1.61a4.08,4.08,0,0,0-2.69.58c-1.48.92-2.92,1.91-4.39,2.85-2,1.28-4,2.52-6,3.82a41.11,41.11,0,0,0-5.78,4.39,27.72,27.72,0,0,0-5.17,6.39,25.45,25.45,0,0,0-2.89,7.55c-.26,1.22-.31,2.46-.52,3.68a1.14,1.14,0,0,0,.78,1.2,3.08,3.08,0,0,0,1.78-.15,26.2,26.2,0,0,0,8-3.66,33.39,33.39,0,0,0,7.63-6.5,52.36,52.36,0,0,0,3.31-4.27,65.69,65.69,0,0,0,6.19-11.54A6.84,6.84,0,0,0,214.07,347.81Zm5.4,37.1a19.57,19.57,0,0,0,3.7-.25c3.86-.7,7.36-2.06,10-5.13a10.11,10.11,0,0,0,2.45-6.42c0-.39-.09-.53-.5-.42a63.86,63.86,0,0,1-7.38,1.49,62.82,62.82,0,0,1-7.37.64c-1.76.06-3.53,0-5.29-.1-1.57-.1-3.13-.28-4.69-.46s-3.36-.62-5.05-.9c-.39-.07-.87-.49-1.16-.16s0,.81.06,1.23a10.48,10.48,0,0,0,5.73,8.29A17.78,17.78,0,0,0,219.47,384.91Zm-36.34-28a14.2,14.2,0,0,0,3.69-.78,67,67,0,0,0,8.74-3.57q3.45-1.64,6.79-3.49a74.28,74.28,0,0,0,6.6-4.05c.77-.55.71-1.2-.14-1.62a4.34,4.34,0,0,0-.54-.25,26.18,26.18,0,0,0-5.54-1.26,24.23,24.23,0,0,0-6.48.05,23.36,23.36,0,0,0-8.22,2.75,22.37,22.37,0,0,0-7.47,6.26,4.42,4.42,0,0,0-.91,3.64A3.23,3.23,0,0,0,183.13,357Zm73.16,0c2.83,0,4.11-1.65,3.86-3.5a6.67,6.67,0,0,0-1.94-3.7,25.09,25.09,0,0,0-8-5.76,23.83,23.83,0,0,0-11-2.19,28.21,28.21,0,0,0-4.2.43,16.88,16.88,0,0,0-4.29,1.3c-.64.32-.71.75-.21,1.26a4.93,4.93,0,0,0,.83.68,87.88,87.88,0,0,0,8.38,4.92,94,94,0,0,0,11.62,5.27A18.91,18.91,0,0,0,256.29,357Zm-82.81,22.37,2.45-.11a29.48,29.48,0,0,0,5.14-.74c1.15-.25,2.25-.75,2.41-2.14a19.21,19.21,0,0,0,.15-2,16.93,16.93,0,0,1,.8-4.85,37.68,37.68,0,0,1,2.43-5.84,7.12,7.12,0,0,0,.89-3.64,1.19,1.19,0,0,0-.84-1.15,2.71,2.71,0,0,0-1.46-.09,31,31,0,0,1-6.45.66,5.29,5.29,0,0,0-5.34,3.54,36,36,0,0,0-2,8.07c-.2,1.26-.33,2.52-.44,3.79s-.24,2.68-.24,4c0,.35.13.5.49.49Zm93,0c.59,0,1.18,0,1.77,0,.4,0,.56-.11.58-.54a30.55,30.55,0,0,0-.19-3.58,41,41,0,0,0-.93-6.52,26.4,26.4,0,0,0-2-6.49,4.82,4.82,0,0,0-4.19-2.73,49,49,0,0,1-7.27-.71,2,2,0,0,0-1.79.32c-.73.65-.45,1.49-.33,2.22a17.09,17.09,0,0,0,1.86,4.56,23.54,23.54,0,0,1,2.29,10,2.33,2.33,0,0,0,1.75,2.37A29.51,29.51,0,0,0,266.43,379.33Zm-47.62-9.84a49.74,49.74,0,0,0,6.88-.39c1.79-.2,3.57-.52,5.34-.83.41-.07.42-.24.16-.54a43.93,43.93,0,0,1-4.26-6.05c-.17-.28-.28-.4-.65-.37-1,.07-2,.23-2.94.33-.76.08-1.53,0-2.29.11a24,24,0,0,1-6.39-.15c-1.36-.18-1.64-.15-2.38,1,0,.06-.1.1-.14.15a37.19,37.19,0,0,1-3.9,5.27c-.18.2-.36.41.14.48,1.5.21,3,.53,4.49.65A41.65,41.65,0,0,0,218.81,369.49Zm-3.1-13.14a6.83,6.83,0,0,0,1.47.2c1.25,0,2.5,0,3.74,0,.87,0,1.74-.14,2.61-.22.38,0,.41-.17.25-.52a76.59,76.59,0,0,1-3.39-8.31c-.09-.27-.19-.38-.45-.34s-.43-.07-.56.3A78.78,78.78,0,0,1,215.71,356.35Z"/><path class="cls-6" d="M219.47,384.92a17.69,17.69,0,0,1-9.49-2.19,10.48,10.48,0,0,1-5.73-8.28c0-.42-.31-.95-.06-1.24s.77.09,1.16.16c1.69.29,3.36.7,5.05.9s3.12.37,4.69.46c1.76.11,3.53.16,5.29.11a65,65,0,0,0,7.37-.64,66,66,0,0,0,7.38-1.49c.41-.12.51,0,.5.42a10.11,10.11,0,0,1-2.45,6.42c-2.65,3.06-6.15,4.42-10,5.12A18.77,18.77,0,0,1,219.47,384.92Z"/><path class="cls-7" d="M215.71,356.4a79.4,79.4,0,0,0,3.67-8.9c.13-.38.34-.27.56-.3s.36.07.45.33a75.77,75.77,0,0,0,3.39,8.31c.16.35.13.49-.25.52-.87.08-1.74.2-2.61.22-1.24,0-2.49,0-3.74,0A6.26,6.26,0,0,1,215.71,356.4Z"/><path class="cls-8" d="M218.81,369.49a41.65,41.65,0,0,1-5.94-.29c-1.5-.12-3-.44-4.49-.65-.5-.07-.32-.28-.14-.48a37.19,37.19,0,0,0,3.9-5.27c0-.05.1-.09.14-.15.74-1.2,1-1.23,2.38-1a24,24,0,0,0,6.39.15c.76-.1,1.53,0,2.29-.11,1-.1,2-.26,2.94-.33.37,0,.48.09.65.37a43.93,43.93,0,0,0,4.26,6.05c.26.3.25.47-.16.54-1.77.31-3.55.63-5.34.83A49.74,49.74,0,0,1,218.81,369.49Z"/><path class="cls-9" d="M244.89,359.27c-.18,3.22-2,4.91-4.71,4.91-2.93,0-4.88-1.67-4.93-4.84a4.53,4.53,0,0,1,4.83-4.77A4.7,4.7,0,0,1,244.89,359.27Z"/><path class="cls-10" d="M252.91,359.35c-.33-2.71,2.31-4.82,4.75-4.82a5,5,0,0,1,4.79,4.8,4.8,4.8,0,0,1-4.79,4.89C255.06,364.27,252.57,361.91,252.91,359.35Z"/><path class="cls-11" d="M253.49,367.45c0,3-1.8,4.84-4.75,4.87a4.67,4.67,0,0,1-4.76-4.8,4.81,4.81,0,0,1,5.06-4.76C251.09,362.76,253.88,365,253.49,367.45Z"/><path class="cls-12" d="M248.86,345.91c2.9,0,4.56,1.87,4.66,5a4.67,4.67,0,0,1-4.72,4.53,4.77,4.77,0,0,1-4.81-4.84C244,348.21,246,345.58,248.86,345.91Z"/><path class="cls-13" d="M178.48,359a28.37,28.37,0,0,0,0-3.06c-.1-1,.3-1.13,1.17-1.1,1.86.06,3.73,0,5.59,0,.66,0,.91-.12.89-.85,0-2.07,0-4.15,0-6.23,0-.58.14-.77.75-.76q3.48,0,7,0c.6,0,.77.16.76.76,0,2.07,0,4.15,0,6.23,0,.7.2.87.88.85,2,0,3.94,0,5.91,0,.59,0,.86.06.85.78q-.08,3.48,0,7c0,.64-.22.73-.78.72-2,0-3.94,0-5.91,0-.72,0-1,.14-.94.91.06,2,0,4,0,6,0,.53-.13.72-.7.71q-3.53,0-7.07,0c-.55,0-.71-.16-.7-.71,0-2,0-4.08,0-6.12,0-.67-.19-.82-.83-.8-2,0-3.94,0-5.91,0-.77,0-.94-.22-.9-.94C178.52,361.24,178.48,360.11,178.48,359Z"/></g></g></svg>