<svg xmlns="http://www.w3.org/2000/svg" xmlns:xlink="http://www.w3.org/1999/xlink" viewBox="0 0 450.23 401.36"><defs><style>.cls-1{stroke-miterlimit:10;stroke-width:24px;fill:url(#Dégradé_sans_nom_98);stroke:url(#COULEUR_GEEK_BEEZ);}.cls-2{fill:#fff;}.cls-3{fill:#353435;}.cls-4{fill:url(#COULEUR_GEEK_BEEZ-2);}.cls-5{fill:url(#COULEUR_GEEK_BEEZ-3);}.cls-6{fill:url(#COULEUR_GEEK_BEEZ-4);}.cls-7{fill:url(#COULEUR_GEEK_BEEZ-5);}.cls-8{fill:url(#COULEUR_GEEK_BEEZ-6);}.cls-9{fill:url(#COULEUR_GEEK_BEEZ-7);}.cls-10{fill:url(#COULEUR_GEEK_BEEZ-8);}.cls-11{fill:url(#COULEUR_GEEK_BEEZ-9);}</style><radialGradient id="Dégradé_sans_nom_98" cx="216.98" cy="192.73" r="193.24" gradientUnits="userSpaceOnUse"><stop offset="0" stop-color="#fdc32d" stop-opacity="0.4"/><stop offset="0.33" stop-color="#fcc233" stop-opacity="0.35"/><stop offset="0.92" stop-color="#fabe42" stop-opacity="0.22"/><stop offset="1" stop-color="#fabe44" stop-opacity="0.2"/></radialGradient><linearGradient id="COULEUR_GEEK_BEEZ" y1="192.73" x2="433.96" y2="192.73" gradientUnits="userSpaceOnUse"><stop offset="0" stop-color="#fabf44"/><stop offset="1" stop-color="#f39547"/></linearGradient><linearGradient id="COULEUR_GEEK_BEEZ-2" x1="187.85" y1="375.95" x2="219.39" y2="375.95" xlink:href="#COULEUR_GEEK_BEEZ"/><linearGradient id="COULEUR_GEEK_BEEZ-3" x1="199.47" y1="349.04" x2="207.63" y2="349.04" xlink:href="#COULEUR_GEEK_BEEZ"/><linearGradient id="COULEUR_GEEK_BEEZ-4" x1="193.45" y1="382.55" x2="216.76" y2="382.55" gradientTransform="translate(-1.64 -19.99)" xlink:href="#COULEUR_GEEK_BEEZ"/><linearGradient id="COULEUR_GEEK_BEEZ-5" x1="219.01" y1="356.53" x2="228.65" y2="356.53" xlink:href="#COULEUR_GEEK_BEEZ"/><linearGradient id="COULEUR_GEEK_BEEZ-6" x1="236.64" y1="356.53" x2="246.21" y2="356.53" xlink:href="#COULEUR_GEEK_BEEZ"/><linearGradient id="COULEUR_GEEK_BEEZ-7" x1="227.74" y1="364.69" x2="237.28" y2="364.69" xlink:href="#COULEUR_GEEK_BEEZ"/><linearGradient id="COULEUR_GEEK_BEEZ-8" x1="227.74" y1="347.8" x2="237.28" y2="347.8" xlink:href="#COULEUR_GEEK_BEEZ"/><linearGradient id="COULEUR_GEEK_BEEZ-9" x1="162.2" y1="356.1" x2="185.91" y2="356.1" xlink:href="#COULEUR_GEEK_BEEZ"/></defs><g id="Calque_2" data-name="Calque 2"><g id="Calque_2-2" data-name="Calque 2"><path class="cls-1" d="M108.52,365.24,14.17,200.88a16.41,16.41,0,0,1,0-16.3L108.52,20.22A16.38,16.38,0,0,1,122.72,12H311.24a16.38,16.38,0,0,1,14.2,8.22l94.34,164.36a16.36,16.36,0,0,1,0,16.3L325.44,365.24a16.36,16.36,0,0,1-14.2,8.22H122.72A16.36,16.36,0,0,1,108.52,365.24Z"/><path class="cls-2" d="M174.52,353.19c-3.85,0-7.35-2.2-11.2-2.2-5.86,0-11,7-11.57,13.88-.54,6.3-1.48,12,4.81,12a142.85,142.85,0,0,0,18.2-2c6.07-1.25,9.15-4.07,11-10S180.81,353.19,174.52,353.19Z"/><path class="cls-2" d="M234.56,356.59c3.55,0,6.76-2,10.31-2,5.4,0,10.11,6.42,10.66,12.78.49,5.79,1.35,11-4.43,11a133,133,0,0,1-16.76-1.83c-5.58-1.15-8.43-3.75-10.1-9.23S228.78,356.59,234.56,356.59Z"/><path class="cls-3" d="M224.48,373.68a18.34,18.34,0,0,1-1.7,4.85,21.36,21.36,0,0,1-3.09,4.43,22.65,22.65,0,0,1-6.55,4.88,15.27,15.27,0,0,0-7.41,8.52c-.6,1.62-1.26,3.21-2,5l-.88-2.55a25,25,0,0,0-3.77-7.3,11.8,11.8,0,0,0-3.68-3,36.31,36.31,0,0,1-5.9-3.62,21,21,0,0,1-4.45-5.25,20.17,20.17,0,0,1-2.31-5.92,36.78,36.78,0,0,1-4.23,2.45A45.15,45.15,0,0,1,167.25,380c-1.55.31-3.12.51-4.69.7a53.89,53.89,0,0,1-7.93.23,27.16,27.16,0,0,1-4-.36c-.31-.06-.41-.14-.4-.45,0-2.09-.1-4.19,0-6.27a55.73,55.73,0,0,1,3.13-16.06,40,40,0,0,1,6.23-11.35,32.17,32.17,0,0,1,10.31-8.7,29,29,0,0,1,9.16-3,24.29,24.29,0,0,1,5.24-.37,17.34,17.34,0,0,1,3.66.36c.44.13.58-.19.58-.53a13.12,13.12,0,0,1,1.22-5.36,11.49,11.49,0,0,1,1.75-2.82,14.77,14.77,0,0,1,5.82-4.23l.91-.35a7.33,7.33,0,0,0-2.53-2.39c-.22-.16-.47-.26-.68-.42a1,1,0,0,0-1.35,0,3,3,0,0,1-3.39.11,3.08,3.08,0,0,1-1.58-3.16,3.13,3.13,0,0,1,2.22-2.76,3.21,3.21,0,0,1,4,2,.57.57,0,0,0,.36.42,14,14,0,0,1,6.26,5.09.61.61,0,0,0,.76.28,7.85,7.85,0,0,1,2.56,0,.58.58,0,0,0,.72-.25,14,14,0,0,1,6.24-5.12.64.64,0,0,0,.4-.47,3.4,3.4,0,0,1,3.3-2.14,3.28,3.28,0,0,1,3,3.38,3.22,3.22,0,0,1-5.18,2.5c-.22-.15-.38-.28-.64-.16a9.79,9.79,0,0,0-3.56,2.76c-.23.31-.08.39.15.46a13.41,13.41,0,0,1,4.3,2.37,13.26,13.26,0,0,1,5.07,10.33c0,.44.2.5.53.44a24.33,24.33,0,0,1,5-.39,30.54,30.54,0,0,1,10.41,2.16,29.66,29.66,0,0,1,7.76,4.61,34.79,34.79,0,0,1,5.4,5.58,38.85,38.85,0,0,1,4.78,8,45.81,45.81,0,0,1,3,8.88c.44,1.88.74,3.79,1.06,5.69.16,1,.21,2,.29,3,.19,2.51.09,5,.16,7.54,0,.68-.3.84-.82.89A60.41,60.41,0,0,1,247,381a46.71,46.71,0,0,1-13.86-2.86A39.92,39.92,0,0,1,224.48,373.68ZM211.1,343.35c-.5,0-1-.06-1.39.5a2.36,2.36,0,0,0-.21,1.82,16.87,16.87,0,0,0,1,2.65,66.42,66.42,0,0,0,5.23,9.95,45.85,45.85,0,0,0,4,5.25,34.61,34.61,0,0,0,4.68,4.46,37.28,37.28,0,0,0,7.42,4.48,15.21,15.21,0,0,0,4.79,1.42c.69.08,1-.22,1.25-.86.18-.41,0-.69-.05-1a21,21,0,0,0-.93-5.16,25.19,25.19,0,0,0-5.52-9.81,29.76,29.76,0,0,0-5.83-5.08c-3.83-2.52-7.71-5-11.56-7.5A4.47,4.47,0,0,0,211.1,343.35ZM197.82,345c0-.92-.41-1.54-1.07-1.62a4.13,4.13,0,0,0-2.69.59c-1.48.92-2.92,1.91-4.39,2.85-2,1.28-4,2.52-6,3.82a41.11,41.11,0,0,0-5.78,4.39,27.88,27.88,0,0,0-5.17,6.38,25.61,25.61,0,0,0-2.89,7.56c-.26,1.22-.31,2.46-.53,3.68a1.15,1.15,0,0,0,.79,1.2,3,3,0,0,0,1.77-.15,26.25,26.25,0,0,0,8-3.66,33.39,33.39,0,0,0,7.63-6.5,52.36,52.36,0,0,0,3.31-4.27,65.69,65.69,0,0,0,6.19-11.54A6.67,6.67,0,0,0,197.82,345Zm5.41,37.1a18.8,18.8,0,0,0,3.7-.26c3.86-.69,7.36-2.06,10-5.12a10.11,10.11,0,0,0,2.45-6.42c0-.39-.09-.53-.51-.42A66.12,66.12,0,0,1,204.14,372c-1.76.06-3.53,0-5.29-.1-1.57-.1-3.13-.28-4.69-.46s-3.36-.62-5-.9c-.4-.07-.87-.49-1.16-.16s0,.81.06,1.23a10.46,10.46,0,0,0,5.73,8.29A17.76,17.76,0,0,0,203.23,382.06Zm-36.34-27.95a14.2,14.2,0,0,0,3.69-.78,67,67,0,0,0,8.74-3.57q3.45-1.63,6.78-3.49a72.26,72.26,0,0,0,6.61-4.06c.77-.54.71-1.19-.14-1.61a4.34,4.34,0,0,0-.54-.25,26.18,26.18,0,0,0-5.54-1.26,24.66,24.66,0,0,0-6.48,0,23.58,23.58,0,0,0-8.22,2.76,22.25,22.25,0,0,0-7.47,6.26,4.42,4.42,0,0,0-.92,3.64A3.25,3.25,0,0,0,166.89,354.11Zm73.16,0c2.83,0,4.11-1.65,3.86-3.5a6.69,6.69,0,0,0-1.95-3.7,25.12,25.12,0,0,0-8-5.77A24,24,0,0,0,223,339a27.94,27.94,0,0,0-4.2.43,16.76,16.76,0,0,0-4.29,1.3c-.64.31-.71.75-.21,1.26a5.47,5.47,0,0,0,.83.68,87.88,87.88,0,0,0,8.38,4.92,93.38,93.38,0,0,0,11.62,5.27A19.21,19.21,0,0,0,240.05,354.11Zm-82.81,22.36,2.44-.1a29.6,29.6,0,0,0,5.15-.74c1.15-.25,2.25-.75,2.41-2.14a19.21,19.21,0,0,0,.15-2,16.93,16.93,0,0,1,.8-4.85,37.78,37.78,0,0,1,2.43-5.85,7.06,7.06,0,0,0,.89-3.63,1.19,1.19,0,0,0-.84-1.15,2.71,2.71,0,0,0-1.46-.09,31.06,31.06,0,0,1-6.46.66,5.28,5.28,0,0,0-5.33,3.54,36,36,0,0,0-2,8.07c-.2,1.25-.34,2.52-.44,3.79s-.24,2.67-.24,4c0,.35.13.5.48.49C155.83,376.46,156.44,376.47,157.24,376.47Zm92.95,0c.59,0,1.18,0,1.77,0,.4,0,.56-.11.57-.54a30.55,30.55,0,0,0-.18-3.58,42.44,42.44,0,0,0-.93-6.53,26.46,26.46,0,0,0-2-6.48,4.81,4.81,0,0,0-4.2-2.73,50.7,50.7,0,0,1-7.27-.71,2,2,0,0,0-1.79.32c-.73.65-.44,1.49-.32,2.22a17,17,0,0,0,1.86,4.56A23.54,23.54,0,0,1,240,373a2.33,2.33,0,0,0,1.75,2.37A29.15,29.15,0,0,0,250.19,376.47Zm-47.62-9.83a51.29,51.29,0,0,0,6.87-.39c1.8-.2,3.58-.52,5.35-.83.4-.08.42-.24.16-.54a43.09,43.09,0,0,1-4.26-6.05c-.17-.28-.28-.4-.65-.37-1,.07-2,.23-2.94.33-.77.08-1.53,0-2.29.11a24,24,0,0,1-6.39-.15c-1.37-.18-1.64-.15-2.39,1.05a.93.93,0,0,1-.13.15,38.58,38.58,0,0,1-3.9,5.27c-.18.19-.36.41.13.48,1.5.21,3,.53,4.5.65A41.58,41.58,0,0,0,202.57,366.64Zm-3.1-13.14a6.24,6.24,0,0,0,1.47.19c1.25,0,2.5,0,3.74,0,.87,0,1.74-.14,2.61-.22.38,0,.41-.17.24-.53a77.57,77.57,0,0,1-3.38-8.3c-.1-.27-.19-.38-.46-.34s-.42-.07-.55.3A78.78,78.78,0,0,1,199.47,353.5Z"/><path class="cls-4" d="M203.23,382.07a17.67,17.67,0,0,1-9.49-2.19A10.45,10.45,0,0,1,188,371.6c0-.42-.31-1-.06-1.24s.76.09,1.16.16c1.69.29,3.36.7,5,.9s3.12.37,4.69.46c1.76.11,3.53.16,5.29.11a62.84,62.84,0,0,0,7.37-.65,61.26,61.26,0,0,0,7.37-1.49c.42-.11.52,0,.51.43a10.13,10.13,0,0,1-2.45,6.42c-2.65,3.06-6.15,4.42-10,5.12A18.77,18.77,0,0,1,203.23,382.07Z"/><path class="cls-5" d="M199.47,353.55a79.4,79.4,0,0,0,3.67-8.9c.13-.38.34-.27.55-.3s.36.06.46.33a77.73,77.73,0,0,0,3.38,8.31c.17.35.14.49-.24.52-.87.08-1.74.19-2.61.22-1.24,0-2.49,0-3.74,0A6.26,6.26,0,0,1,199.47,353.55Z"/><path class="cls-6" d="M202.57,366.64a41.58,41.58,0,0,1-5.94-.29c-1.51-.12-3-.44-4.5-.65-.49-.07-.31-.29-.13-.48a38.58,38.58,0,0,0,3.9-5.27.93.93,0,0,0,.13-.15c.75-1.2,1-1.23,2.39-1.05a24,24,0,0,0,6.39.15c.76-.1,1.52,0,2.29-.11,1-.1,2-.26,2.94-.33.37,0,.48.09.65.37a43.09,43.09,0,0,0,4.26,6.05c.26.3.24.46-.16.54-1.77.31-3.55.63-5.35.83A51.29,51.29,0,0,1,202.57,366.64Z"/><path class="cls-7" d="M228.65,356.42c-.18,3.22-2.05,4.9-4.71,4.91-2.93,0-4.88-1.67-4.93-4.85a4.52,4.52,0,0,1,4.82-4.76A4.7,4.7,0,0,1,228.65,356.42Z"/><path class="cls-8" d="M236.67,356.5c-.33-2.71,2.31-4.82,4.75-4.82a5,5,0,0,1,4.79,4.8,4.8,4.8,0,0,1-4.79,4.89C238.82,361.42,236.33,359.06,236.67,356.5Z"/><path class="cls-9" d="M237.24,364.6c0,3-1.79,4.84-4.74,4.87a4.67,4.67,0,0,1-4.76-4.81,4.81,4.81,0,0,1,5.06-4.75C234.85,359.91,237.64,362.14,237.24,364.6Z"/><path class="cls-10" d="M232.62,343.06c2.89,0,4.56,1.87,4.66,5a4.68,4.68,0,0,1-4.72,4.53,4.78,4.78,0,0,1-4.82-4.84C227.71,345.36,229.77,342.73,232.62,343.06Z"/><path class="cls-11" d="M162.24,356.13a28.37,28.37,0,0,0,0-3.06c-.1-1,.3-1.14,1.17-1.11,1.86.07,3.73,0,5.59,0,.66,0,.91-.13.89-.85-.06-2.07,0-4.15,0-6.23,0-.58.13-.77.74-.76q3.5,0,7,0c.6,0,.77.16.76.76,0,2.07,0,4.15,0,6.22,0,.71.2.88.87.86,2,0,4,0,5.92,0,.59,0,.86.06.85.78-.06,2.32,0,4.64,0,7,0,.64-.23.74-.78.73-2,0-4,0-5.92,0-.71,0-1,.14-.94.91.06,2,0,4,0,6,0,.54-.13.72-.7.72-2.36,0-4.71,0-7.07,0-.56,0-.71-.16-.7-.71,0-2,0-4.08,0-6.12,0-.67-.19-.82-.83-.8-2,0-3.94,0-5.91,0-.77,0-.94-.22-.9-.94C162.28,358.39,162.24,357.26,162.24,356.13Z"/><path class="cls-3" d="M177.21,180.54a4.48,4.48,0,0,1,2-2,2.48,2.48,0,0,1,2.1-.11,2.57,2.57,0,0,1,1.36,1.47,3.82,3.82,0,0,1-.21,2.73q-1.26,2.94-3.88,7.86t-6,10.59q-3.36,5.67-7.13,11.54T158,223.33a82,82,0,0,1-7,8.18c-2.24,2.24-4.2,3.56-5.87,4a17.76,17.76,0,0,0,2.93-.42q-6.5,3.15-8.81-1t0-14.26a44.76,44.76,0,0,1-3,5.14,33.23,33.23,0,0,1-4,4.82,28.78,28.78,0,0,1-4.62,3.78,12.85,12.85,0,0,1-4.93,2,9.21,9.21,0,0,1-8.18-1.68,15.83,15.83,0,0,1-4.93-8.18,39.34,39.34,0,0,1-1-13.32A70.21,70.21,0,0,1,112,195.43a84.49,84.49,0,0,1,9.75-20.76,57.77,57.77,0,0,1,11.64-13A37.52,37.52,0,0,1,145.64,155a45.41,45.41,0,0,1,11.33-2.1,26,26,0,0,1,8.81,1,15.73,15.73,0,0,1,4.92,2.2,8.36,8.36,0,0,1,2.84,6.61,13.13,13.13,0,0,1-1.79,6.6q-.21-5.24-5.34-7.23T153.93,161a25.35,25.35,0,0,1,8,.74,15.26,15.26,0,0,1,5.34,2.51,7.57,7.57,0,0,1,2.63,3.46,7.06,7.06,0,0,1,.21,3.78,10.45,10.45,0,0,0-5-4.41,20.9,20.9,0,0,0-7.23-1.67,23.76,23.76,0,0,0-14.58,4.19,24.16,24.16,0,0,1,8.39-3.56,19.39,19.39,0,0,1,7.76-.11,13.39,13.39,0,0,1,5.87,2.62A7.17,7.17,0,0,1,168,173q-2.52-2.52-8-3.36t-11.75,2.2q-6.28,3-12.69,10.91t-10.8,22.76q-3.57,11.33-3.88,16.46t2.62,5.14q3.78-.42,7.34-5.87A62.37,62.37,0,0,0,137.36,207a18,18,0,0,1-.11,2c-.07.63-.18,1.29-.31,2q4-8.59,7.34-16.88A115.36,115.36,0,0,1,150.36,181a8.69,8.69,0,0,1,3.15-3.67,9.66,9.66,0,0,1,4.19-1.37,30.29,30.29,0,0,0-3.15,6.82q-1.68,4.72-3.77,11c1.81-3.91,3.36-7.3,4.61-10.17a39.54,39.54,0,0,1,4.2-7.45c.84.29,1.71.6,2.62,1a9,9,0,0,1,2.41,1.36,28.5,28.5,0,0,1-2.3,6.92q-1.89,4.2-4,8.39Q156,198.58,152.88,204c-1,2.66-1.89,5.24-2.73,7.76s-1.54,4.72-2.1,6.61A44.22,44.22,0,0,0,146.9,223c-.21,1.19-.18,1.78.1,1.78,1.12.15,2.94-1.43,5.46-4.71s5.27-7.31,8.28-12.06,6-9.65,8.92-14.69S175.11,184,177.21,180.54ZM125,199.83a123.57,123.57,0,0,0-5.14,14.9,37.12,37.12,0,0,0-1.47,9.86c.08,2.51.6,4.33,1.58,5.45a4.76,4.76,0,0,0,3.77,1.68q-3.57-.42-3.88-4.93a41.7,41.7,0,0,1,.63-10A78,78,0,0,1,123,206.44Q124.57,201.52,125,199.83Zm31.67-46.14a44.45,44.45,0,0,0-11.11,2.52,46,46,0,0,0-8.92,4.4,34.78,34.78,0,0,0-6.61,5.46,37.31,37.31,0,0,0-4.4,5.66,38.14,38.14,0,0,1,7-7.24,60.25,60.25,0,0,1,8.28-5.56,43.69,43.69,0,0,1,8.39-3.56A48.26,48.26,0,0,1,156.65,153.69Zm-30.83,77.82a14.44,14.44,0,0,0,6.29-4.51,39,39,0,0,0,4.62-6.82,48.19,48.19,0,0,0,2.93-6.61,38.35,38.35,0,0,0,1.26-4.09q-4.2,9.87-8,14.69A40.47,40.47,0,0,1,125.82,231.51ZM134,187.25a35.28,35.28,0,0,1,7.13-8.91,31.85,31.85,0,0,1,7.45-4.93,24.24,24.24,0,0,1,6.81-2.1,23.32,23.32,0,0,1,5.25-.21,30.87,30.87,0,0,0-15,5.14A57,57,0,0,0,134,187.25Zm22.86-.21q-1.89,3.78-4.19,9.65t-4.09,11.64a106.84,106.84,0,0,0-2.73,10.49c-.63,3.14-.73,5.28-.31,6.39a36.16,36.16,0,0,1,1.36-8.28q1.36-5.35,3.35-11.22t3.89-11Q156,189.56,156.86,187Z"/><path class="cls-3" d="M240,178.34a2.79,2.79,0,0,0-2.09.21,4.55,4.55,0,0,0-2,2q-3.13,5.25-7.55,12.79t-8.81,14.58q-4.4,7-8.18,12t-5.45,4.92q-.84,0,.42-5.13t4.51-14.16q3.24-9,8.28-21.19t12-26.21a113.82,113.82,0,0,1,7.34-13.43q3.57-5.44,6.19-9.23a36.32,36.32,0,0,0,3.67-6.29,4.94,4.94,0,0,0-.42-4.82,8.8,8.8,0,0,0-3.46-2,11.13,11.13,0,0,0-4.51-.52,22.37,22.37,0,0,0-2.2,3q-1.58,2.41-3.57,5.77t-4.09,7.23q-2.1,3.89-4,7.66a103.26,103.26,0,0,1,6.39-14.68q3-5.46,4.93-8.18a13.24,13.24,0,0,0-5.24,4.4,181.87,181.87,0,0,0-8.29,17.1q-3.45,8.28-7.44,17.09a8.25,8.25,0,0,0-2-6,10.53,10.53,0,0,0-6-3.46,17.68,17.68,0,0,0-8.6.53,24.51,24.51,0,0,0-9.86,6.08,56.71,56.71,0,0,0-9.86,13.11,97.43,97.43,0,0,0-8.6,21.6q-1.68,5.67-3.25,12.9A77,77,0,0,0,166.51,220a27.82,27.82,0,0,0,1.78,11.54q2,4.83,7.66,5.66a43.42,43.42,0,0,1-4-3.57q-2.1-2.08-2.73-7.34,1.68,5.67,5.14,8.08a9.63,9.63,0,0,0,7.45,1.68,16.93,16.93,0,0,0,8.07-4.41,32.42,32.42,0,0,0,7.24-10.17q-1.26,6.92.42,10.49a6.3,6.3,0,0,0,5,4q2.31.21,5.67-2.83a64.1,64.1,0,0,0,7.13-7.87q3.78-4.82,7.76-11T230.69,202q3.57-6,6.4-11.22a89.92,89.92,0,0,0,4.09-8.39,3.57,3.57,0,0,0,.21-2.63A2.25,2.25,0,0,0,240,178.34Zm-48.34-2.63a33.7,33.7,0,0,1,3.56-5.76,15.84,15.84,0,0,1,4.09-3.78,6.62,6.62,0,0,1,4.72-.94,14.83,14.83,0,0,0-7.34,4.19q-3.78,3.57-8,13.43A54.43,54.43,0,0,1,191.68,175.71Zm-3.36,50.87q-3.36,1.57-5.77.31c-1.61-.84-2.76-2.51-3.46-5s-.49-5.66.63-9.44a17.3,17.3,0,0,0,.11,5.66,12,12,0,0,0,2.2,5.56,4.89,4.89,0,0,0,4.72,1.89q3-.32,7.86-5.35Q191.67,225,188.32,226.58Zm14.58-32.93q-2.21,6.81-4.09,13.95-2.94,8.18-6.92,12.48c-2.66,2.86-4.93,4-6.82,3.46s-3-3-3.25-7.34,1-10.84,3.77-19.51a88.58,88.58,0,0,1,6.93-17.2,41.27,41.27,0,0,1,6.6-9.23q3-2.94,5.35-2.94a3.56,3.56,0,0,1,3.36,1.89,5.91,5.91,0,0,0-2.21-.42,4.14,4.14,0,0,0-1.57.21,5.61,5.61,0,0,1,3.36,4.3,19.92,19.92,0,0,1,0,5.77Q205.1,186.84,202.9,193.65Zm2.52,20.24q2-6.93,5.24-15.94T218,178.86q4.09-10.06,8.6-19.19a186.51,186.51,0,0,1,9.12-16.47,44.71,44.71,0,0,1,9-10.9,42.91,42.91,0,0,0-6.5,8.6q-3.78,6.07-8.07,14.47t-8.71,18q-4.41,9.65-8.07,19T207,209.9a111.34,111.34,0,0,0-3.78,13.64A56.79,56.79,0,0,1,205.42,213.89Z"/><path class="cls-3" d="M194.93,153.69a24.52,24.52,0,0,1,9.75-3.25,13.22,13.22,0,0,1,9.65,3,10,10,0,0,0-5.24-3.67,15.37,15.37,0,0,0-8.6-.31A24.71,24.71,0,0,0,190.31,155q-5.34,4.41-10,13.42a39.63,39.63,0,0,1,6-7.86A37.83,37.83,0,0,1,194.93,153.69Z"/><path class="cls-3" d="M263.8,112c1.25-1,2.59-2.15,4-3.53a45.9,45.9,0,0,0,4.14-4.56q2-2.5,3.79-5c.8-1.14,1.53-2.25,2.2-3.34a39.14,39.14,0,0,1-4.68,5.46A124.64,124.64,0,0,0,263.8,112Z"/><path class="cls-3" d="M302.63,180.33a4.4,4.4,0,0,1,2.1-2,2.71,2.71,0,0,1,2.2-.11,2.22,2.22,0,0,1,1.26,1.47,4.4,4.4,0,0,1-.32,2.73c-.83,2.09-2.17,4.89-4,8.39S300,198.05,297.6,202s-4.9,8-7.55,12-5.28,7.59-7.87,10.8a62.06,62.06,0,0,1-7.24,7.77c-2.23,2-4.05,2.86-5.45,2.72a5.72,5.72,0,0,1-3.15-1.26,89.22,89.22,0,0,1-8.28,16.78,64,64,0,0,1-9.12,11.33,34,34,0,0,1-9.23,6.5,24,24,0,0,1-8.6,2.31v.21q-5.88.42-9.34-2.31a13.73,13.73,0,0,1-4.72-6.71,16.18,16.18,0,0,1,4-15.94,17.11,17.11,0,0,0-1.89,6.08,10.59,10.59,0,0,1,5.77-5.77,9.74,9.74,0,0,1,6.71-.31,7.93,7.93,0,0,1,4.62,4.3c1,2.17.94,4.86-.32,8.07a31.26,31.26,0,0,0,7.34-7.13,62.13,62.13,0,0,0,7.34-12.79c.14-.42.39-1.09.74-2s.76-1.89,1.26-2.94.94-2.13,1.36-3.25a30.83,30.83,0,0,1,1.26-2.94q-4.41,6.51-9.86,8.29a11.06,11.06,0,0,1-9.86-1.05q-4.41-2.83-6.71-10.38t-.42-19.93a96.1,96.1,0,0,1,5.14-20.77,70.76,70.76,0,0,1,9-17.19,44.45,44.45,0,0,1,12.16-11.65,27.25,27.25,0,0,1,14.79-4.29,14.57,14.57,0,0,1,7,1.36,7.31,7.31,0,0,1,3.25,3.25,6.25,6.25,0,0,1,.42,3.88,10.1,10.1,0,0,1-1.05,3,4.57,4.57,0,0,0-1.68-3.57,9.07,9.07,0,0,0-4.09-2,14.85,14.85,0,0,0-10.8,2,20.34,20.34,0,0,1,6.92-1.78,9.36,9.36,0,0,1,4.72.84,5.46,5.46,0,0,1,2.52,2.62,5.77,5.77,0,0,1,.52,3.15,4.93,4.93,0,0,0-3.88-2.83c-1.89-.35-3.18-.18-3.88.52a4.73,4.73,0,0,1,4,2.94,11.33,11.33,0,0,1,.83,5.24,7.9,7.9,0,0,0-4-4,10,10,0,0,0-5.14-.74,14.46,14.46,0,0,0-5,1.58,9.62,9.62,0,0,0-3.67,3.14,13.55,13.55,0,0,1,6.29-3,7.66,7.66,0,0,1,4.51.63,4.85,4.85,0,0,1,2.41,2.83,5.83,5.83,0,0,1,0,3.78c-.42-1.4-1.65-2.13-3.67-2.21s-4.3.84-6.82,2.73a34.43,34.43,0,0,0-7.76,9.13q-4,6.28-6.71,17-2.94,12.18-2,18.67c.63,4.34,2.13,6.5,4.51,6.5a11.07,11.07,0,0,0,6.18-3.77,38.62,38.62,0,0,0,5.25-7.66,65.47,65.47,0,0,0,4.19-9.75q1.78-5.24,3-9.65a26,26,0,0,1,.21,3.88,18.17,18.17,0,0,1-.42,4.3q1.89-5.87,4-12.9t4.3-13.32a103.55,103.55,0,0,1,4.4-10.8c1.47-3,2.84-4.86,4.09-5.56.7-.42,1.61-.9,2.73-1.47a17,17,0,0,1,3.36-1.25,30.79,30.79,0,0,1-.95,4q-.74,2.52-1.67,5.35t-1.79,5.56q-.84,2.73-1.47,4.82l1.89-4.4q1.26-2.94,2.52-6.19c.84-2.17,1.6-4.12,2.31-5.87s1.18-2.9,1.46-3.46a20.47,20.47,0,0,1,5.46.31c1.81.35,2.65.81,2.52,1.37a10.16,10.16,0,0,1-.95,4.19q-.95,2.1-2.1,4.19c-.77,1.4-1.57,2.84-2.41,4.3a29.6,29.6,0,0,0-2.1,4.51q-3.57,8.4-7.86,19t-8.92,21.29q-3.34,8.18-1.88,8.39c1.11.14,2.93-1.44,5.45-4.72s5.24-7.31,8.18-12.06,5.87-9.65,8.81-14.69S300.53,183.83,302.63,180.33ZM220,256.05a6,6,0,0,0,.31,2.83,5.47,5.47,0,0,0,1.89,2.62,7,7,0,0,0,3.67,1.26,10,10,0,0,0,5.46-1.47,9.47,9.47,0,0,1-7.66.11A5.86,5.86,0,0,1,220,256.05Zm18-4.62q-1.26-5-5-6.29a12.91,12.91,0,0,0-8,0,12.65,12.65,0,0,1,6.3-1.78,8.18,8.18,0,0,1,4.4,1.26,5.94,5.94,0,0,1,2.31,6.81Zm24.33-100.68q-1.89.63-5.14,1.89a27.44,27.44,0,0,0-7,4.3,54.38,54.38,0,0,0-7.86,8.08,57.2,57.2,0,0,0-7.66,13.21,23.09,23.09,0,0,1,2.73-8.39,46.47,46.47,0,0,1,6.29-9.44,36,36,0,0,1,8.6-7.34A15.44,15.44,0,0,1,262.36,150.75ZM240.76,216A67.25,67.25,0,0,1,242,202.77a73,73,0,0,1,3.15-11.32,61.44,61.44,0,0,1,4-8.71,46.73,46.73,0,0,1,3.78-5.77,20,20,0,0,0-5.66,7.34,63.36,63.36,0,0,0-4.2,10.91,69.1,69.1,0,0,0-2.3,11.54A33.54,33.54,0,0,0,240.76,216Zm.41,49.5A28.54,28.54,0,0,0,250.3,258a74.73,74.73,0,0,0,7-10,76,76,0,0,0,4.61-9.13,33.33,33.33,0,0,0,1.89-5.35q-1.68,3.78-4,8.08a95.68,95.68,0,0,1-5.24,8.6c-2,2.86-4.06,5.63-6.29,8.28A47.44,47.44,0,0,1,241.17,265.49Zm.63-29.58a19.1,19.1,0,0,0,7.14-2.83q4-2.42,6.5-8.49a19.55,19.55,0,0,1-4.93,6.29A23.93,23.93,0,0,1,241.8,235.91Zm51.6-73.2q-1.68,3.57-4.82,10.59T282,188.51q-3.47,8.18-6.61,16.25a139.49,139.49,0,0,0-4.61,13.53q3.35-7.33,6.92-15.73t6.71-16.15q3.15-7.75,5.56-14.16T293.4,162.71Z"/><path class="cls-3" d="M364.92,181.8a6.19,6.19,0,0,1,2.41-3,3.65,3.65,0,0,1,2.42-.53,2.24,2.24,0,0,1,1.57,1.16,2.64,2.64,0,0,1,.1,2.2A117.78,117.78,0,0,1,361.25,202a108.24,108.24,0,0,1-12.79,16.78,68.47,68.47,0,0,1-14.06,11.64,33,33,0,0,1-13.94,5,22.15,22.15,0,0,1-20.77-12,20,20,0,0,0,6,8.28,22.22,22.22,0,0,0,7.23,3.88,16.9,16.9,0,0,1-9.43-3.67,19,19,0,0,1-5.35-7.44,34.89,34.89,0,0,1-2.31-9.65,60.06,60.06,0,0,1-.21-10c.21-3.14.53-5.94.94-8.39s.77-4.22,1-5.34a68.62,68.62,0,0,1,6.61-17.31A53.92,53.92,0,0,1,315,159.88a32.57,32.57,0,0,1,14.16-7.76q7.86-2,17.09,1.57a13.07,13.07,0,0,1,7.45,7.24,24,24,0,0,1,1.57,11.85,46.37,46.37,0,0,1-3.88,14.16,63.74,63.74,0,0,1-8.7,14.26,61.24,61.24,0,0,1-13,12.06,47.69,47.69,0,0,1-16.57,7.34,7.28,7.28,0,0,0,3.57,3.78q5.86,2.94,13-.74a53.74,53.74,0,0,0,13.85-10.59,103.08,103.08,0,0,0,12.37-15.63A146.16,146.16,0,0,0,364.92,181.8Zm-45.72-1.89a49.68,49.68,0,0,0-7.76,13.42A52.41,52.41,0,0,0,308.08,207a31.52,31.52,0,0,0,.73,11.43c.91,3.28,2.55,5.42,4.93,6.39q-3.57-3.56-4-10a50.29,50.29,0,0,1,.94-13.21,71.92,71.92,0,0,1,3.78-12.8A37.45,37.45,0,0,1,319.2,179.91Zm-7.55,34.4a35.62,35.62,0,0,0,10.59-6.82,49.19,49.19,0,0,0,8.39-10,43.78,43.78,0,0,0,5.14-11.22,20.55,20.55,0,0,0,.42-10.81,16.38,16.38,0,0,1,1.26,2.84,17.83,17.83,0,0,1,.83,4.3,18,18,0,0,0,.53-6.19,5.14,5.14,0,0,0-2.2-3.88q-4.2-2.52-8.81.94a32.31,32.31,0,0,0-8.39,10.07,61.58,61.58,0,0,0-6,15A50.21,50.21,0,0,0,311.65,214.31Zm1.05-2.73a52.72,52.72,0,0,1,2.09-13.84,68.51,68.51,0,0,1,4.2-10.91,40,40,0,0,1,4.61-7.44,31.8,31.8,0,0,1,3.57-3.89A51.92,51.92,0,0,0,317,193.75,155.41,155.41,0,0,0,312.7,211.58ZM354,170.05a55.81,55.81,0,0,1-6.18,18.14,72.63,72.63,0,0,1-10.07,14.06,66,66,0,0,1-11.33,9.86,64.17,64.17,0,0,1-10.17,5.76,37.34,37.34,0,0,0,12.38-6.08,66.48,66.48,0,0,0,12.06-11.12,61.83,61.83,0,0,0,9.22-14.47A43.66,43.66,0,0,0,354,170.05Zm-8-14.68q-2.09-.84-4.61-1.68a18.59,18.59,0,0,0-5.87-.84,27.64,27.64,0,0,0-7.66,1.26,35,35,0,0,0-9.54,4.82c1-.55,2.41-1.29,4.3-2.2a30.75,30.75,0,0,1,6.5-2.2,35.63,35.63,0,0,1,8-.84A26,26,0,0,1,346,155.37Zm5,47a40.86,40.86,0,0,1-3.67,5.14,68,68,0,0,1-6.29,6.71,67.2,67.2,0,0,1-7.76,6.3,22.62,22.62,0,0,1-8.08,3.67,41.9,41.9,0,0,1,3.67-2.1,39.5,39.5,0,0,0,5.66-3.78q3.25-2.52,7.45-6.29A90.23,90.23,0,0,0,351.08,202.35Z"/><path class="cls-3" d="M246.29,102q2.47-4,4.54-7.3l2.86-4.5q-1,.23-3.3,3.21a68.24,68.24,0,0,0-4.79,7.28q-2.5,4.29-4.89,9a51.51,51.51,0,0,0-3.38,8.08,74.18,74.18,0,0,1,4-7.52C243,107.43,244.64,104.69,246.29,102Z"/><path class="cls-2" d="M113.77,161.9c.56,0,1,.6,1.26,1.78a24.23,24.23,0,0,1,.53,4.3,36.53,36.53,0,0,1-.11,4.83,9.86,9.86,0,0,1-.63,3.14q-4.39,9.24-9.65,20.14T94.79,217.38q-5.15,10.38-9.65,18.88t-7,13.11A9.36,9.36,0,0,1,75,252.62a12.72,12.72,0,0,1-5.24,1.78,4.37,4.37,0,0,0,2-1.78,33.69,33.69,0,0,0,2.2-3.46c.7-1.26,1.29-2.45,1.78-3.57a7.15,7.15,0,0,0,.74-2.52,9.08,9.08,0,0,1-.94,1.79c-.63,1-1.44,2.23-2.42,3.56a28.17,28.17,0,0,1-3.35,3.78,8.23,8.23,0,0,1-4,2.2,10.78,10.78,0,0,0,2.83-3.78c1.05-2,2.06-4.05,3-6.29s1.89-4.4,2.73-6.5A40.42,40.42,0,0,0,76,233a71.83,71.83,0,0,1-8.91,16.68q-4.72,6.18-8.08,6.19a23,23,0,0,0,3.46-4.3q2.2-3.25,4.3-7t4-7.24q1.88-3.45,2.51-4.92a66.82,66.82,0,0,1-6.08,6.5,46.37,46.37,0,0,1-7.45,5.66,39.19,39.19,0,0,1-8.7,4A31.91,31.91,0,0,1,41.41,250a22.15,22.15,0,0,1-10-1.78,21.17,21.17,0,0,1-7.87-6.08,26.07,26.07,0,0,1-4.93-10.28,47,47,0,0,1-.94-14.79,43.72,43.72,0,0,0-.31,12.38,34.53,34.53,0,0,0,2.3,8.91,25.08,25.08,0,0,0,3.36,5.88c1.19,1.46,2.2,2.62,3,3.46a22,22,0,0,1-9.33-11.54,46,46,0,0,1-2.42-16.57,91.35,91.35,0,0,1,2.84-19.82,208.54,208.54,0,0,1,6.5-21.29q3.87-10.69,8.49-20.66T41,139.88q9.85-17.62,19.51-28.42T79,95.1q8.81-5.56,16.57-6.71a31,31,0,0,1,13.84.73,19.07,19.07,0,0,1,10,7.45,31.28,31.28,0,0,1,4.93,12.37,50.49,50.49,0,0,1,.32,14.89,54.51,54.51,0,0,1-3.88,14.79,42,42,0,0,1-7.77,12.16,23,23,0,0,1-11.11,6.93q-6.93,1.68-10.91-.63a10.12,10.12,0,0,1-5-6,9.7,9.7,0,0,1,.63-7.13,7.24,7.24,0,0,1,5.87-4.09,2.69,2.69,0,0,0-2,2.52c-.21,1.39-.11,2.23.31,2.51a3.2,3.2,0,0,1,.42-2.2,2.82,2.82,0,0,1,2.31-1.36,2.08,2.08,0,0,0-1,2.83,3.47,3.47,0,0,0,3.26,2q2.72.21,5.34-2.62a26.84,26.84,0,0,0,4.62-7.24,48.52,48.52,0,0,0,3.14-9.65,38.83,38.83,0,0,0,1-10.06,23.37,23.37,0,0,0-1.78-8.39,7.87,7.87,0,0,0-5.14-4.62q-6.3-1.68-14.48,2.62T72.24,119.53A156.09,156.09,0,0,0,57,140.72a237.76,237.76,0,0,0-13.11,24.85,208.07,208.07,0,0,0-9.75,25.59A135.38,135.38,0,0,0,29,214.23q-1.26,10.38.73,17.52t7.87,9q7.34,2.29,15.1-2a61.82,61.82,0,0,0,14.89-11.85,123.17,123.17,0,0,0,13.11-16.57,157.33,157.33,0,0,0,9.54-16.15q2.1-4.19,3.67-7.55t3-6.29a80.59,80.59,0,0,0-9.12,3.25q-4.73,2-9,4.09c-2.87,1.4-5.45,2.8-7.76,4.2s-4.09,2.51-5.35,3.35a28,28,0,0,1,5-4.51,77.68,77.68,0,0,1,13.42-7.65,31.69,31.69,0,0,0-5.66,2.3q-3.36,1.68-6.72,3.78t-6.08,4.19A24.7,24.7,0,0,0,62,196.72a15.76,15.76,0,0,1,2.83-4.09A46.11,46.11,0,0,1,69,188.54a35.53,35.53,0,0,1,4.41-3.25,10.66,10.66,0,0,1,3.46-1.57,18.63,18.63,0,0,0-6.71,2.93,21.39,21.39,0,0,0-6.3,5.87,5.73,5.73,0,0,1-.31-2.72,28.39,28.39,0,0,1,.52-4c.28-1.39.56-2.69.84-3.88a8.35,8.35,0,0,1,.84-2.41A30.22,30.22,0,0,1,73.5,174a90.21,90.21,0,0,1,11.85-5.24,144.58,144.58,0,0,1,14.06-4.3A92.48,92.48,0,0,1,113.77,161.9ZM20.65,202.17q1.89-6.49,4.19-13.32t4.62-13.21c1.53-4.26,3.11-8.29,4.72-12.06s3.17-7.13,4.71-10.07a46.8,46.8,0,0,0-5.13,9.13q-2.83,6.18-5.46,13.42t-4.82,14.37A76.59,76.59,0,0,0,20.65,202.17ZM89.44,88.07A53.46,53.46,0,0,0,71.93,98.14,119.32,119.32,0,0,0,55,115.34a162.26,162.26,0,0,0-14.47,21.18,134.41,134.41,0,0,0-10.28,22,75.74,75.74,0,0,1,3.78-11.65A120.63,120.63,0,0,1,41,132.64q4.2-7.44,9.44-15A95.18,95.18,0,0,1,62,103.91,76.21,76.21,0,0,1,75.18,93.42,36.68,36.68,0,0,1,89.44,88.07ZM31.76,206a129.71,129.71,0,0,1,4.62-17.1q3.15-9.33,7.34-19t9.12-19q4.94-9.33,10.07-17.2A134.91,134.91,0,0,1,73.08,120a45.91,45.91,0,0,1,9.23-8.6,175,175,0,0,0-14,19.09q-7.35,11.33-14.05,24.12T41.62,180.78Q35.74,194.21,31.76,206Zm35.87-29.79a46.74,46.74,0,0,1,12.69-8.39,77.83,77.83,0,0,1,13.53-4.71,67.52,67.52,0,0,1,11.64-1.89,23.47,23.47,0,0,1,7.23.31,92.42,92.42,0,0,0-17.4,2.73,105.06,105.06,0,0,0-13.74,4.51,74.05,74.05,0,0,0-9.44,4.61Q68.47,175.54,67.63,176.16Zm15.73.63c.7-.27,1.78-.73,3.25-1.36s3-1.22,4.62-1.78,3.18-1.08,4.72-1.58a23.42,23.42,0,0,1,4-.94c-.7-.42-2.62-.17-5.77.73A49.69,49.69,0,0,0,83.36,176.79Zm1,53.7a45.57,45.57,0,0,0,3.67-6q2.2-4.09,4.93-9.12t5.45-10.6q2.73-5.55,5.14-10.59t4.3-8.81q1.89-3.76,2.52-5.45-2.1,3.15-5.56,9.33t-7.13,13.64q-3.67,7.44-7.24,14.89T84.41,230.49Zm9.65-82a6.35,6.35,0,0,0,6,.42q3.45-1.26,6.39-5.56a37.26,37.26,0,0,0,4.83-11.43,60.44,60.44,0,0,0,1.46-17.62q-.42,11.33-2.72,18.46a37.78,37.78,0,0,1-5.14,10.9Q102,147.43,99,148.37A7,7,0,0,1,94.06,148.48Z"/><path class="cls-2" d="M113,164.79c.89.13-1.08-.52-1-.73a6.24,6.24,0,0,0,.25,1.09,15.13,15.13,0,0,1,.23,1.94,37.5,37.5,0,0,1,0,5.3,13.56,13.56,0,0,1-.19,1.56c-.06.28-.14.54-.21.81.25-.9-.15.3-.22.44l-2.22,4.65q-4.8,10-9.63,20c-6.27,13-12.67,25.86-19.44,38.57-1.5,2.8-3,5.61-4.52,8.4a7.82,7.82,0,0,1-2.26,2.93,10.38,10.38,0,0,1-4.87,1.72l1.59,5.78c2.82-1,4.48-4,5.87-6.41s2.91-5,3-7.81c.17-3.34-5.22-4.13-5.89-.79-.06.26.17-.37.17-.37a2.55,2.55,0,0,0-.32.59c-.28.5-.58,1-.89,1.49-.66,1-1.35,2.06-2.1,3-1.4,1.83-3.13,3.94-5.47,4.49L67.26,257c3.45-2.49,5.19-7.16,6.85-10.92a83.22,83.22,0,0,0,4.8-12.27,3,3,0,1,0-5.78-1.59,75.13,75.13,0,0,1-6.89,13.52A30.66,30.66,0,0,1,62,251a8.16,8.16,0,0,1-1.93,1.53c-.15.09-.31.17-.47.25s.43-.07-.09,0a2.5,2.5,0,0,0-.45.12c-.64.22.59,0-.06,0L61.15,258a24.57,24.57,0,0,0,3.93-4.91c1.5-2.2,2.88-4.49,4.18-6.82,2.27-4,4.76-8.1,6.62-12.37a3,3,0,0,0-.77-3.87,3,3,0,0,0-3.94.24c-6.61,8.07-15.67,15.51-26.45,16.57-5,.5-10,.14-14.36-2.59a19.82,19.82,0,0,1-7.95-10.32c-1.92-5.44-2.1-11.13-1.7-16.86a3,3,0,0,0-2.6-2.94c-1.33-.16-3.08.65-3.29,2.15a47,47,0,0,0,.63,18.82A32.38,32.38,0,0,0,24,249.81l3.63-4.71a19.33,19.33,0,0,1-7.82-9.38,41.85,41.85,0,0,1-2.45-14.5c-.06-11,2.72-21.78,6-32.21a247.36,247.36,0,0,1,12.31-31.48A231.63,231.63,0,0,1,51.1,128.91a124,124,0,0,1,18.72-22.77c7-6.57,15.29-12.59,24.83-14.56a27.39,27.39,0,0,1,14.29.56,17,17,0,0,1,9.09,8c5.07,8.92,4.77,20.42,2.32,30.09-2.28,9-7.29,19.07-16,23.37a18,18,0,0,1-6.41,1.76,9.79,9.79,0,0,1-5.24-.72c-3.51-1.87-5.54-5.76-3.35-9.62.81-1.43,1.94-1.93,3.84-2.25L91.58,137a5.78,5.78,0,0,0-4,4.24c-.46,1.85-.54,4.42,1,5.8a3,3,0,0,0,3.28.62,2.94,2.94,0,0,0,1.84-2.74,6.63,6.63,0,0,1,0-.68c0-.08.12.42-.1.14l-.17.09.26-.15c-.18.09-.17.1,0,0a3.1,3.1,0,0,1,.53-.1l-2.32-5.48a5.39,5.39,0,0,0-2.57,3.71,5.69,5.69,0,0,0,1.22,4.27c1.74,2.21,4.85,2.83,7.5,2.2,2.92-.7,5.08-3,6.83-5.31a32,32,0,0,0,3.9-7,48.82,48.82,0,0,0,4-17.4c.17-5.2-.54-11.48-4.16-15.53s-9.67-4.14-14.52-3c-5.48,1.33-10.43,4.43-14.82,7.88-9,7-15.95,16.6-22.08,26.12a229,229,0,0,0-17.1,32,196.32,196.32,0,0,0-11.77,34.42,105.5,105.5,0,0,0-2.65,16.57,41.58,41.58,0,0,0,1.4,15.54c1.53,4.74,4.65,8.58,9.42,10.25,5.6,2,11.7.9,16.87-1.73,10.35-5.25,18.47-14.37,25.36-23.49a165.15,165.15,0,0,0,17.11-28.71c1.23-2.59,2.45-5.18,3.72-7.75,1.13-2.25-.74-5.17-3.38-4.4a116.54,116.54,0,0,0-17.63,7,117.88,117.88,0,0,0-14.34,8.15l4.1,4.1c.21-.29-.52.51.09-.06.23-.23.45-.47.69-.69.56-.53,1.15-1,1.75-1.52a40.37,40.37,0,0,1,3.91-2.9,96.91,96.91,0,0,1,10.94-5.91c3.11-1.49.91-6.4-2.31-5.49-4.56,1.29-8.88,3.77-12.88,6.26-2,1.27-4,2.61-6,4.06a29.25,29.25,0,0,0-4.72,4.09l4.71,3.63c1.32-2.83,3.74-5.09,6-7.13,2-1.77,4.68-4,7-4.49a3,3,0,0,0,2.09-3.69,3.08,3.08,0,0,0-3.69-2.1,21.65,21.65,0,0,0-8,3.61A25.38,25.38,0,0,0,61.26,191h5.18c.18.41.09-.07.09-.14a10.9,10.9,0,0,1,0-1.28,23,23,0,0,1,.41-3c.18-1,.39-1.91.6-2.86.11-.49.22-1,.34-1.45,0-.19.1-.38.16-.57s.11-.64.11-.4.21-.19,0,0l.15-.12c.3-.25.57-.55.86-.8A18.51,18.51,0,0,1,71,179a48.53,48.53,0,0,1,5.35-3.13,111,111,0,0,1,23.21-8.39,91,91,0,0,1,14.26-2.59,3.08,3.08,0,0,0,3-3,3,3,0,0,0-3-3,117.21,117.21,0,0,0-28.18,6.55,98.49,98.49,0,0,0-13.06,5.63,41.79,41.79,0,0,0-5.73,3.56c-1.44,1.08-3.21,2.31-4,4a30.42,30.42,0,0,0-1.84,7.3c-.46,2.71-.86,5.51.26,8.1,1,2.26,4,1.62,5.18,0a18.24,18.24,0,0,1,5-4.68,16.72,16.72,0,0,1,6.19-2.75l-1.6-5.79c-3.47.71-6.76,3.49-9.36,5.74-2.79,2.42-5.75,5.26-7.32,8.65a3,3,0,0,0,.77,3.87,3,3,0,0,0,3.94-.24c2.54-3,6.18-5.17,9.46-7.21,3.57-2.22,7.38-4.5,11.45-5.65l-2.31-5.48a91.48,91.48,0,0,0-11.47,6.25c-2.85,1.9-6.08,4.14-8.07,7-1.72,2.45,1.67,5.72,4.11,4.1a116.13,116.13,0,0,1,13.93-8,108,108,0,0,1,16.6-6.64l-3.39-4.41c-2.34,4.7-4.51,9.49-6.87,14.17-2.12,4.2-4.52,8.25-7,12.22-5.61,8.84-12,17.41-19.92,24.34-3.51,3.08-7.63,6.27-12.06,7.89a16.29,16.29,0,0,1-6.76,1.08,10.71,10.71,0,0,1-5.36-1.68,8,8,0,0,1-1.64-1.54,4.61,4.61,0,0,1-.51-.72,14.15,14.15,0,0,1-.84-1.53,22.47,22.47,0,0,1-1.49-5.61,51.3,51.3,0,0,1,.22-14A148.52,148.52,0,0,1,39.8,183.7a222.17,222.17,0,0,1,13.26-29.9A187.34,187.34,0,0,1,70,127c5.92-7.64,13-15.33,22.06-19.2a19.38,19.38,0,0,1,6.13-1.6,14.66,14.66,0,0,1,1.48,0c.17,0,1.14.08,1,.06a6.72,6.72,0,0,1,2.54.8,5,5,0,0,1,1.42,1.32,9.42,9.42,0,0,1,1.19,2.65,23.42,23.42,0,0,1,1,7,42.21,42.21,0,0,1-3,15,31.24,31.24,0,0,1-3.12,6.19c-1,1.51-2.45,3.49-4.11,4,0,0-.57.1-.21.07a3.86,3.86,0,0,1-.68,0c.16,0-.92-.09-.43-.12-.7,0-.09-.29-.08,0,0,.59,0-.35,0,0s0,.75-.29,1a3,3,0,0,0-2.31-5.49,5.94,5.94,0,0,0-4.93,6.46l5.12-2.12a1.33,1.33,0,0,1,.47,1c0,.25,0,.19,0-.18,0-.21.08-.59.07-.78,0-.64.2,0-.09-.1l-.18.09c.3-.17.33-.19.1,0a3,3,0,0,0-1.6-5.78,11.17,11.17,0,0,0-9.08,12,13.4,13.4,0,0,0,9.63,11.87c5.19,1.54,11.29.1,15.93-2.41,4.9-2.64,8.72-7,11.7-11.6,6.38-9.89,9.13-22.65,8-34.31-1.08-11-6.08-22.29-17.22-26.16-5.45-1.89-11.7-1.72-17.29-.6a47.39,47.39,0,0,0-15.59,6.63c-9.12,5.7-17,13.68-23.57,22.09a172.35,172.35,0,0,0-18.39,29.17,313.27,313.27,0,0,0-14.81,33.81c-4.23,11.64-7.9,23.76-9.15,36.12-1.08,10.71-.37,23.31,7,31.82a26.54,26.54,0,0,0,5.83,4.89c2.91,1.85,6-2.32,3.63-4.71a26,26,0,0,1-7-12.08,39.56,39.56,0,0,1-.63-15.63l-5.89-.8c-.78,11.18,1.18,23.57,10.55,30.88,9.91,7.72,24.13,5.85,34.51.07A55.2,55.2,0,0,0,75.41,234.5l-4.71-3.64c-1.8,4.12-4.2,8-6.38,12-1.24,2.21-2.53,4.39-3.93,6.5a20.77,20.77,0,0,1-3.48,4.43c-2,1.71-.39,5.19,2.12,5.12,5.24-.15,9.08-5.32,11.79-9.22a79.44,79.44,0,0,0,8.09-15.85l-5.78-1.59a73,73,0,0,1-4,10.38c-.84,1.94-1.74,3.85-2.72,5.73a27.24,27.24,0,0,1-1.5,2.62c-.54.81.21-.18-.34.47-.11.13-1,.85-.33.4-2.69,1.94-1.16,6.29,2.31,5.48s6-3.37,8.12-6a50.28,50.28,0,0,0,3-4.24,10.64,10.64,0,0,0,1.64-3.15l-5.89-.8c0-.8-.11.37-.18.58s-.2.54-.31.8c-.44,1-1,2-1.5,3s-1.08,1.88-1.69,2.77a10.13,10.13,0,0,1-.72,1c-.35.4-.81.55-.11.31a3,3,0,1,0,1.59,5.78,14.07,14.07,0,0,0,9.36-5.2,54.2,54.2,0,0,0,4.21-7.48c3.53-6.6,7-13.22,10.39-19.91,7.21-14.3,14.1-28.75,21-43.2a37.75,37.75,0,0,0,2.46-5.38,23.33,23.33,0,0,0,.64-5.89,34.42,34.42,0,0,0-.49-6.49c-.34-1.91-1.3-4.42-3.53-4.73a3.11,3.11,0,0,0-3.69,2.09C110.5,162.51,111.36,164.57,113,164.79Z"/><path class="cls-2" d="M23.54,203c2.48-8.5,5.34-16.87,8.33-25.2A181,181,0,0,1,41.48,155a3,3,0,0,0-.77-3.87c-1.07-.81-3-1-3.94.23a51.87,51.87,0,0,0-6,10.51c-1.94,4.31-3.7,8.7-5.32,13.14q-2.55,7-4.76,14.13a78.79,78.79,0,0,0-3,12.21,3.11,3.11,0,0,0,2.1,3.69c1.4.38,3.46-.49,3.69-2.1a76.73,76.73,0,0,1,2.83-11.75q2.11-6.89,4.57-13.66c1.49-4.14,3.08-8.23,4.88-12.24.89-2,1.82-4,2.86-5.88.4-.74.82-1.47,1.27-2.19.22-.36.45-.72.69-1.07.06-.09.75-1,.38-.55L36.3,152a191.22,191.22,0,0,0-10.06,23.73c-3,8.47-6,17-8.49,25.65C16.67,205.09,22.46,206.68,23.54,203Z"/><path class="cls-2" d="M88.65,85.18C76.8,89,67,97.6,58.65,106.59A156.8,156.8,0,0,0,36.31,138a137,137,0,0,0-8.91,19.76l5.79,1.59c2.58-11.68,8.53-22.62,14.85-32.66C54.6,116.27,62.2,106.38,72.21,99c5.46-4,11.28-7.07,18-8.08,1.6-.24,2.49-2.26,2.1-3.69a3.09,3.09,0,0,0-3.69-2.09,42.27,42.27,0,0,0-17.51,7.3,84.58,84.58,0,0,0-14.53,12.65A121,121,0,0,0,44.55,121a157.2,157.2,0,0,0-10.08,17.6,89.56,89.56,0,0,0-7.07,19.13,3,3,0,0,0,5.79,1.59,142,142,0,0,1,17-32.45,127.76,127.76,0,0,1,23.89-26.63A50.35,50.35,0,0,1,90.24,91a3.07,3.07,0,0,0,2.1-3.69A3,3,0,0,0,88.65,85.18Z"/><path class="cls-2" d="M34.66,206.75C37.28,193,42.48,179.7,48.25,167c6-13.12,12.85-26,21.29-37.71,4-5.57,8.66-11.65,14.29-15.37l-3.64-4.71c-9.08,10.54-16.63,22.4-23.48,34.48a384.84,384.84,0,0,0-19.24,39.16c-3.12,7.33-6,14.74-8.6,22.28a3,3,0,0,0,2.1,3.69,3.07,3.07,0,0,0,3.69-2.09A343.47,343.47,0,0,1,50.6,168.38a329.35,329.35,0,0,1,20.79-37.26,166.7,166.7,0,0,1,13-17.65,3,3,0,0,0,.24-3.94,3,3,0,0,0-3.87-.77c-5.67,3.74-10.08,9.11-14.16,14.45a167.59,167.59,0,0,0-12,18.2,264.68,264.68,0,0,0-19.17,41,146.77,146.77,0,0,0-6.61,22.77,3.08,3.08,0,0,0,2.1,3.69A3,3,0,0,0,34.66,206.75Z"/><path class="cls-2" d="M69.75,178.29c5.94-5.45,13.21-8.87,20.86-11.23a71.22,71.22,0,0,1,11.71-2.6,49.86,49.86,0,0,1,5.86-.4c.83,0,1.67,0,2.5.08.15,0,1,.16.34,0,.3.06.61.12.91.2l.79-5.89a104.78,104.78,0,0,0-26.62,5.35c-6.91,2.35-14.06,5.39-20,9.74A3.09,3.09,0,0,0,65,177.68a3,3,0,0,0,4.1,1.07,68.85,68.85,0,0,1,18.56-9.14,98.62,98.62,0,0,1,25-5.13c3.28-.22,4.2-4.94.8-5.89s-7.61-.57-11.2-.13A78.26,78.26,0,0,0,89,161.27C80.36,164,72.22,167.88,65.51,174a3,3,0,1,0,4.24,4.25Z"/><path class="cls-2" d="M84.16,179.69c1.23-.5,2.46-1,3.68-1.55l.12,0,.56-.23q.57-.24,1.14-.45c.74-.29,1.47-.56,2.21-.82,1.47-.51,2.95-1,4.44-1.48.72-.24,1.44-.46,2.18-.65.35-.08.7-.17,1.05-.24.15,0,1.24-.2.39-.09a3.11,3.11,0,0,0,2.89-2.2,3,3,0,0,0-1.38-3.39,6.92,6.92,0,0,0-4.47-.41,28.5,28.5,0,0,0-4.83,1.23,55.84,55.84,0,0,0-10.29,4.84,3,3,0,1,0,3,5.18c1.51-.87,3-1.71,4.6-2.47.38-.19.76-.36,1.15-.54l.5-.22s.56-.25.25-.12l.37-.15.48-.19,1-.39a34,34,0,0,1,4.31-1.21l.88-.16c.4-.07-.67,0-.13,0l.34,0a5.47,5.47,0,0,0,.57,0c-.74.13-.69-.16-.4,0s-.8-.38-.42-.18l1.51-5.59a48.35,48.35,0,0,0-9.35,2.57c-1.52.53-3,1.1-4.49,1.72l-1.56.66-.52.22c-.48.21-1,.41-1.45.6a3.07,3.07,0,0,0-2.09,3.69C80.92,179,82.6,180.31,84.16,179.69Z"/><path class="cls-2" d="M87,232a63.84,63.84,0,0,0,5.06-8.55c1.91-3.55,3.86-7.08,5.72-10.66,3.73-7.18,7.14-14.52,10.69-21.79,1.66-3.39,3.49-6.73,4.84-10.26a3,3,0,0,0-1.74-3.54,3,3,0,0,0-3.74,1.23A184.67,184.67,0,0,0,97.7,196.29C94,203.6,90.42,211,86.87,218.43Q84.35,223.7,81.82,229a3.1,3.1,0,0,0,1.07,4.11A3,3,0,0,0,87,232c6.63-13.81,13-27.83,20.45-41.21,1.77-3.16,3.56-6.32,5.56-9.34l-5.49-2.31c-.08.22-.17.44-.26.66.2-.47-.1.22-.16.36-.38.83-.77,1.64-1.16,2.45-.75,1.54-1.53,3.07-2.28,4.6-1.7,3.47-3.35,7-5,10.43-3.54,7.3-7.26,14.48-11.12,21.62A71.23,71.23,0,0,1,81.82,229c-1,1.29-.2,3.36,1.07,4.11A3.09,3.09,0,0,0,87,232Z"/><path class="cls-2" d="M92.54,151.07c4,2.47,8.78,1.22,12.24-1.5a24.48,24.48,0,0,0,6.92-9.72c3.47-8.14,4.35-16.79,4-25.56a3,3,0,0,0-6,0c-.27,6.94-1.09,13.76-3.53,20.29a26.14,26.14,0,0,1-4.31,8c-1.84,2.15-4.42,4-7,3-1.51-.6-3.3.66-3.7,2.1a3.08,3.08,0,0,0,2.1,3.69c4,1.6,8.8-.5,11.71-3.3a28.54,28.54,0,0,0,6.22-9.89c3.16-7.6,4.21-15.71,4.53-23.89h-6c.28,7.36-.23,14.38-2.76,21.33a23.33,23.33,0,0,1-4.62,8.08A9.11,9.11,0,0,1,99.18,146a3.79,3.79,0,0,1-3.61-.14C92.29,143.84,89.27,149,92.54,151.07Z"/><path class="cls-3" d="M113.77,161.9c.56,0,1,.6,1.26,1.78a24.23,24.23,0,0,1,.53,4.3,36.53,36.53,0,0,1-.11,4.83,9.86,9.86,0,0,1-.63,3.14q-4.39,9.24-9.65,20.14T94.79,217.38q-5.15,10.38-9.65,18.88t-7,13.11A9.36,9.36,0,0,1,75,252.62a12.72,12.72,0,0,1-5.24,1.78,4.37,4.37,0,0,0,2-1.78,33.69,33.69,0,0,0,2.2-3.46c.7-1.26,1.29-2.45,1.78-3.57a7.15,7.15,0,0,0,.74-2.52,9.08,9.08,0,0,1-.94,1.79c-.63,1-1.44,2.23-2.42,3.56a28.17,28.17,0,0,1-3.35,3.78,8.23,8.23,0,0,1-4,2.2,10.78,10.78,0,0,0,2.83-3.78c1.05-2,2.06-4.05,3-6.29s1.89-4.4,2.73-6.5A40.42,40.42,0,0,0,76,233a71.83,71.83,0,0,1-8.91,16.68q-4.72,6.18-8.08,6.19a23,23,0,0,0,3.46-4.3q2.2-3.25,4.3-7t4-7.24q1.88-3.45,2.51-4.92a66.82,66.82,0,0,1-6.08,6.5,46.37,46.37,0,0,1-7.45,5.66,39.19,39.19,0,0,1-8.7,4A31.91,31.91,0,0,1,41.41,250a22.15,22.15,0,0,1-10-1.78,21.17,21.17,0,0,1-7.87-6.08,26.07,26.07,0,0,1-4.93-10.28,47,47,0,0,1-.94-14.79,43.72,43.72,0,0,0-.31,12.38,34.53,34.53,0,0,0,2.3,8.91,25.08,25.08,0,0,0,3.36,5.88c1.19,1.46,2.2,2.62,3,3.46a22,22,0,0,1-9.33-11.54,46,46,0,0,1-2.42-16.57,91.35,91.35,0,0,1,2.84-19.82,208.54,208.54,0,0,1,6.5-21.29q3.87-10.69,8.49-20.66T41,139.88q9.85-17.62,19.51-28.42T79,95.1q8.81-5.56,16.57-6.71a31,31,0,0,1,13.84.73,19.07,19.07,0,0,1,10,7.45,31.28,31.28,0,0,1,4.93,12.37,50.49,50.49,0,0,1,.32,14.89,54.51,54.51,0,0,1-3.88,14.79,42,42,0,0,1-7.77,12.16,23,23,0,0,1-11.11,6.93q-6.93,1.68-10.91-.63a10.12,10.12,0,0,1-5-6,9.7,9.7,0,0,1,.63-7.13,7.24,7.24,0,0,1,5.87-4.09,2.69,2.69,0,0,0-2,2.52c-.21,1.39-.11,2.23.31,2.51a3.2,3.2,0,0,1,.42-2.2,2.82,2.82,0,0,1,2.31-1.36,2.08,2.08,0,0,0-1,2.83,3.47,3.47,0,0,0,3.26,2q2.72.21,5.34-2.62a26.84,26.84,0,0,0,4.62-7.24,48.52,48.52,0,0,0,3.14-9.65,38.83,38.83,0,0,0,1-10.06,23.37,23.37,0,0,0-1.78-8.39,7.87,7.87,0,0,0-5.14-4.62q-6.3-1.68-14.48,2.62T72.24,119.53A156.09,156.09,0,0,0,57,140.72a237.76,237.76,0,0,0-13.11,24.85,208.07,208.07,0,0,0-9.75,25.59A135.38,135.38,0,0,0,29,214.23q-1.26,10.38.73,17.52t7.87,9q7.34,2.29,15.1-2a61.82,61.82,0,0,0,14.89-11.85,123.17,123.17,0,0,0,13.11-16.57,157.33,157.33,0,0,0,9.54-16.15q2.1-4.19,3.67-7.55t3-6.29a80.59,80.59,0,0,0-9.12,3.25q-4.73,2-9,4.09c-2.87,1.4-5.45,2.8-7.76,4.2s-4.09,2.51-5.35,3.35a28,28,0,0,1,5-4.51,77.68,77.68,0,0,1,13.42-7.65,31.69,31.69,0,0,0-5.66,2.3q-3.36,1.68-6.72,3.78t-6.08,4.19A24.7,24.7,0,0,0,62,196.72a15.76,15.76,0,0,1,2.83-4.09A46.11,46.11,0,0,1,69,188.54a35.53,35.53,0,0,1,4.41-3.25,10.66,10.66,0,0,1,3.46-1.57,18.63,18.63,0,0,0-6.71,2.93,21.39,21.39,0,0,0-6.3,5.87,5.73,5.73,0,0,1-.31-2.72,28.39,28.39,0,0,1,.52-4c.28-1.39.56-2.69.84-3.88a8.35,8.35,0,0,1,.84-2.41A30.22,30.22,0,0,1,73.5,174a90.21,90.21,0,0,1,11.85-5.24,144.58,144.58,0,0,1,14.06-4.3A92.48,92.48,0,0,1,113.77,161.9ZM20.65,202.17q1.89-6.49,4.19-13.32t4.62-13.21c1.53-4.26,3.11-8.29,4.72-12.06s3.17-7.13,4.71-10.07a46.8,46.8,0,0,0-5.13,9.13q-2.83,6.18-5.46,13.42t-4.82,14.37A76.59,76.59,0,0,0,20.65,202.17ZM89.44,88.07A53.46,53.46,0,0,0,71.93,98.14,119.32,119.32,0,0,0,55,115.34a162.26,162.26,0,0,0-14.47,21.18,134.41,134.41,0,0,0-10.28,22,75.74,75.74,0,0,1,3.78-11.65A120.63,120.63,0,0,1,41,132.64q4.2-7.44,9.44-15A95.18,95.18,0,0,1,62,103.91,76.21,76.21,0,0,1,75.18,93.42,36.68,36.68,0,0,1,89.44,88.07ZM31.76,206a129.71,129.71,0,0,1,4.62-17.1q3.15-9.33,7.34-19t9.12-19q4.94-9.33,10.07-17.2A134.91,134.91,0,0,1,73.08,120a45.91,45.91,0,0,1,9.23-8.6,175,175,0,0,0-14,19.09q-7.35,11.33-14.05,24.12T41.62,180.78Q35.74,194.21,31.76,206Zm35.87-29.79a46.74,46.74,0,0,1,12.69-8.39,77.83,77.83,0,0,1,13.53-4.71,67.52,67.52,0,0,1,11.64-1.89,23.47,23.47,0,0,1,7.23.31,92.42,92.42,0,0,0-17.4,2.73,105.06,105.06,0,0,0-13.74,4.51,74.05,74.05,0,0,0-9.44,4.61Q68.47,175.54,67.63,176.16Zm15.73.63c.7-.27,1.78-.73,3.25-1.36s3-1.22,4.62-1.78,3.18-1.08,4.72-1.58a23.42,23.42,0,0,1,4-.94c-.7-.42-2.62-.17-5.77.73A49.69,49.69,0,0,0,83.36,176.79Zm1,53.7a45.57,45.57,0,0,0,3.67-6q2.2-4.09,4.93-9.12t5.45-10.6q2.73-5.55,5.14-10.59t4.3-8.81q1.89-3.76,2.52-5.45-2.1,3.15-5.56,9.33t-7.13,13.64q-3.67,7.44-7.24,14.89T84.41,230.49Zm9.65-82a6.35,6.35,0,0,0,6,.42q3.45-1.26,6.39-5.56a37.26,37.26,0,0,0,4.83-11.43,60.44,60.44,0,0,0,1.46-17.62q-.42,11.33-2.72,18.46a37.78,37.78,0,0,1-5.14,10.9Q102,147.43,99,148.37A7,7,0,0,1,94.06,148.48Z"/><path class="cls-2" d="M427.73,131.12c.42,0,1.18,0,2.31-.11s2.41-.17,3.88-.31,3-.35,4.5-.63,2.8-.56,3.78-.84q-5.25-.63-9.33-1.15t-9.13-.74c1.12,0,2.83,0,5.14-.1s4.72-.18,7.24-.32,4.82-.31,6.92-.52a11.44,11.44,0,0,0,4.19-1c-2-.13-4.92-.24-8.91-.31s-8.08-.1-12.27-.1H414.2q-5.56,0-7.66-.22h7.66c3.28,0,6.71-.06,10.28-.2s7-.32,10.38-.53a56.76,56.76,0,0,0,8-.94c-1.12,0-3,0-5.56-.11s-5.56-.1-8.91-.1-6.89,0-10.59-.11-7.24-.1-10.6-.1a21.4,21.4,0,0,0,1.68-3.15,28.64,28.64,0,0,1,1.89-3.56,41.27,41.27,0,0,1,2.1-4.41c-.29-.56-1-.91-2.1-1a28.81,28.81,0,0,0-3.57-.21q-1.05,1.68-1.68,2.94a19.64,19.64,0,0,1-2.3,3.35,15.58,15.58,0,0,0,.94-2.93,13,13,0,0,1,1.16-3.15c-1.13.14-2.07.28-2.84.42a6.65,6.65,0,0,0-1.57.42,3.78,3.78,0,0,0-.73-1.15,3.57,3.57,0,0,0-1.79-1.26,2.5,2.5,0,0,0-2.09.31c-.71.42-1.33,1.54-1.89,3.36a16.28,16.28,0,0,0-1.89,3.67q-.84,2.2-2.52,6.4c-4.05,0-7.48,0-10.27.1s-4.76.11-5.88.11a11.59,11.59,0,0,0-4.4.94,24.79,24.79,0,0,0-4.09,2.1,9.08,9.08,0,0,0-2.52,2.2c-.49.7-.38,1,.32,1a29.28,29.28,0,0,1,3.14.21l3.78.42c1.26.14,2.37.28,3.35.42a18,18,0,0,0,1.89.21c-.84,0-1.89,0-3.14.1s-2.56.11-3.88.11h-3.68a11,11,0,0,1-2.51-.21,2.28,2.28,0,0,0-1.47.52,4.2,4.2,0,0,0-1.05,1.37,5.29,5.29,0,0,0-.52,1.46,7,7,0,0,0-.11.84h3.88c2.45,0,5.17,0,8.18-.1s5.8-.11,8.39-.11h4.51c-.28.7-1.22,2.7-2.83,6s-3.6,7.38-6,12.27-4.93,10.38-7.65,16.47-5.39,12.3-8,18.66c-.79,2-1.55,3.87-2.29,5.79.52-1,1.07-2,1.57-3.07,0-.12.07-.24.11-.36a5,5,0,0,1,9.64,2.66c-.05.15-.09.3-.13.45a5.07,5.07,0,0,1-.21,1.44v0a6.4,6.4,0,0,1-.11,1.3,13.86,13.86,0,0,1-1.32,3.62l-.45,1.9c1.88-4.74,4.1-9.77,6.71-15.12q4.2-8.6,8.81-16.57-.84,1.89-4.09,8.7t-6.81,15.11q-3.57,8.28-6.61,16.46a53.22,53.22,0,0,0-3.46,13c-.52-1.17-.37-3.4.44-6.67-.31.78-.61,1.56-.88,2.34a5.51,5.51,0,0,1-2.81,3.18,4.42,4.42,0,0,1-2.67,2.26,3.57,3.57,0,0,1-.46.16l-1.33.18a3.82,3.82,0,0,1-1.92-.43,3.71,3.71,0,0,1-1.61-1,4.42,4.42,0,0,1-.57-.66c-.36.22-.72.44-1.08.64v0a42.77,42.77,0,0,0-.73,12.58c.42,3.36,1.88,5.45,4.4,6.29q-1.68-1.47-2.52-5.35t.84-12.27q-1.26,11.55,4.41,14.27,3.57,1.67,10.48-4.09t16.57-21.5q4.83-8,9.13-15.52a94.55,94.55,0,0,0,6-12,3.94,3.94,0,0,0,.31-2.62,2,2,0,0,0-1.26-1.47,3.11,3.11,0,0,0-2.2.21,4.45,4.45,0,0,0-2.1,2q-3.15,5.25-7.34,12.38t-8.39,13.53q-4.2,6.39-7.76,10.9t-5.24,4.51c-.84-.13.1-4.16,2.83-12.06s7.44-19.12,14.16-33.66a152.21,152.21,0,0,1,6.6-14.05q3.89-7.35,7.24-13.74t5.56-11q2.21-4.62,2-6.09h25.17q7.13,0,12.9-.1t7.45-.11q-4.2-.82-9.44-1.67Zm-48.45-2.2a23.34,23.34,0,0,1-4.62-.53,38.77,38.77,0,0,1,5.46-.42,53.35,53.35,0,0,1,6.08.42A36.81,36.81,0,0,1,379.28,128.92Zm19-11.33c-.63,1.33-1.15,2.34-1.57,3a9.56,9.56,0,0,1,1.15-3.46c.77-1.61,1.36-2.76,1.78-3.46A18.38,18.38,0,0,1,398.26,117.59Z"/><path class="cls-2" d="M427.73,134.12a59.59,59.59,0,0,0,15.27-2,3,3,0,0,0,2.15-3.29,3.06,3.06,0,0,0-2.95-2.6c-6.15-.74-12.27-1.62-18.46-1.89v6c4.21,0,8.42-.19,12.61-.43q3.25-.18,6.49-.49a15.22,15.22,0,0,0,5.91-1.38c2.77-1.51,1.3-5.39-1.52-5.59-10.8-.73-21.7-.41-32.52-.41-2.72,0-5.46,0-8.17-.22v6c4.08,0,8.15,0,12.23,0,4.44-.08,8.88-.28,13.32-.52A78.28,78.28,0,0,0,443.63,126c3.36-.7,2.53-5.89-.8-5.89-11.88,0-23.77-.42-35.66-.42l2.59,4.51c1.11-1.7,1.81-3.6,2.78-5.37s1.87-3.85,2.89-5.74a3,3,0,0,0,0-3,5.38,5.38,0,0,0-3.69-2.4c-1.57-.28-3.81-.67-5.36-.24s-2.56,2.56-3.31,4a19.74,19.74,0,0,1-2,3.07l5,2.92c.73-1.75,1-3.65,1.8-5.36s-.13-4.83-2.59-4.52a20.38,20.38,0,0,0-5.21,1l3.69,2.09a6.84,6.84,0,0,0-5.43-4.64,5.82,5.82,0,0,0-6,3.78c-.92,2.11-2,4.1-2.88,6.28-.76,2-1.54,3.94-2.33,5.91l2.89-2.2c-4.17,0-8.35.07-12.52.16-1.63,0-3.29,0-4.9.13a20.13,20.13,0,0,0-7,2.36,14.45,14.45,0,0,0-5.14,4.05,3.52,3.52,0,0,0,2.73,5.8c2.16.13,4.29.34,6.45.58,1.91.21,3.79.61,5.71.68v-6c-3.42,0-6.83.21-10.25.21-.58,0-1.15,0-1.73,0l-.36,0c.22,0,.24,0,.05,0a6.1,6.1,0,0,0-1.13-.11,5.19,5.19,0,0,0-2.27.6c-2.36,1.23-3.51,4-3.67,6.57a3,3,0,0,0,3,3c8.32,0,16.64-.21,25-.21L381,133.68c.18-.44.25-.59,0-.13-.1.23-.2.46-.31.69-.33.71-.67,1.42-1,2.13-.82,1.7-1.66,3.4-2.49,5.1-1.85,3.8-3.72,7.6-5.55,11.41q-5.93,12.31-11.26,24.91c-2.12,5-4.19,10-6.14,15.05a3,3,0,0,0,5.48,2.31c.59-1.13,1.24-2.25,1.72-3.43.34-.82.33-1.2,1.06-1.8a1.26,1.26,0,0,1,.54-.28,1.31,1.31,0,0,1,.87-.1,2.11,2.11,0,0,1,1.25.75,3,3,0,0,1,.49,1.11c0,.59,0,.28-.16.89s-.19,1.19-.27,1.67a15.44,15.44,0,0,1-.58,3c-.2.55-.49,1-.71,1.59a17.45,17.45,0,0,0-.59,2.26,3,3,0,1,0,5.78,1.6,238.38,238.38,0,0,1,15.22-31l-5.18-3c-2.75,6.16-5.79,12.2-8.53,18.37-3.6,8.1-7.1,16.29-10,24.66a50.2,50.2,0,0,0-2.83,11.76l5.89-.8c-.07-.18-.23-1-.2-.62s0-.29,0-.38c0-.25,0-.5,0-.75a19.17,19.17,0,0,1,.61-3.32,3,3,0,0,0-5.79-1.6,11.63,11.63,0,0,1-1.24,3,4.3,4.3,0,0,1-.6.53,6,6,0,0,0-1.71,1.63,2.11,2.11,0,0,1-3.2.16,3.08,3.08,0,0,0-4.11-1.07c-1.38.84-2.32,1.54-2.6,3.19q-.37,2.22-.63,4.47a38.25,38.25,0,0,0-.21,6.85c.32,4.69,2,8.84,6.73,10.53,2.85,1,5-3,2.92-5a6.28,6.28,0,0,1-1.42-2.73,15.07,15.07,0,0,1-.45-2c.11.74,0-.14,0-.24,0-.28,0-.57,0-.85a41,41,0,0,1,1-8.89l-5.9-.8c-.42,4-.39,8.27,1.32,12a9.25,9.25,0,0,0,7.56,5.62c4,.23,7.82-2.64,10.76-5a47.41,47.41,0,0,0,6.87-7.15c6-7.52,11-15.84,15.83-24.14,2.49-4.25,5-8.5,7.22-12.88.89-1.77,1.73-3.56,2.48-5.38.89-2.16,1.43-4.51.15-6.66-1.57-2.64-4.91-2.88-7.44-1.59-2.07,1.06-3.12,3.16-4.26,5.07-2.46,4.12-4.87,8.27-7.33,12.39-2.6,4.35-5.29,8.65-8.1,12.86a89,89,0,0,1-8,10.86c-.31.34-.64.68-1,1l-.33.31c-.07,0-.54.42-.23.2s-.88.5-.29.2c.39-.19.08,0-.05,0-.92.22-.11.47,2.42.76l.4.52c0-.07.33.86.24.51,0,.07,0,.81.07.52a1.65,1.65,0,0,0,0-.5c-.05-.39-.16.76,0,0,0-.28.1-.55.16-.82a90.19,90.19,0,0,1,3.31-10.67c2.53-7.08,5.46-13.93,8.5-20.79,4-9.08,8-18.18,12.61-27,2.31-4.37,4.62-8.73,6.9-13.12,2.15-4.12,4.39-8.27,6.13-12.59a10.07,10.07,0,0,0,1-4.5l-3,3c9.67,0,19.33,0,29,0,5.51,0,11-.2,16.52-.21,3.28,0,4.2-5.21.79-5.89-6.19-1.23-12.43-2.16-18.66-3.15a3.09,3.09,0,0,0-3.69,2.1c-.4,1.43.48,3.44,2.09,3.69,6.23,1,12.48,1.92,18.67,3.15l.8-5.9c-7.49,0-15,.21-22.45.21H400.88a3,3,0,0,0-3,3c0,.27-.09.87.07.08-.06.28-.11.56-.19.83a18.23,18.23,0,0,1-.88,2.41c-.83,1.88-1.77,3.72-2.7,5.56-2.07,4.14-4.24,8.24-6.4,12.33-2.31,4.4-4.7,8.76-6.87,13.22-2.08,4.24-3.87,8.61-5.83,12.91-3.49,7.66-6.89,15.36-10,23.2-1.2,3-2.33,6.11-3.36,9.22a43.53,43.53,0,0,0-2.53,9.58,4.07,4.07,0,0,0,1,3.31c1.36,1.38,3.39,1.06,4.92.17a16.34,16.34,0,0,0,4.13-3.87c1.41-1.71,2.73-3.49,4-5.27,5.68-7.85,10.62-16.19,15.55-24.53q1.65-2.81,3.32-5.6l1.46-2.43a4,4,0,0,1,.53-.8s.77-.48.76-.38c-.05.51-1-.58-1-.58-.19-.06.38-.3,0,.07.05-.05-.1.39-.09.34a9,9,0,0,1-.42,1.13c-.07.18-.14.35-.22.53.18-.42-.08.2-.12.27-.77,1.73-1.61,3.43-2.49,5.12-4.55,8.65-9.6,17.17-14.95,25.35-3.87,5.93-8,12.05-13.66,16.47a24.94,24.94,0,0,1-2.31,1.6c-.41.25-.82.49-1.25.7a2.55,2.55,0,0,1-.74.33c-.35.13-.71.22-1.07.32-.65.16.13.1-.32,0a2.36,2.36,0,0,0-.46,0c.11,0,.64.16.14,0l-.42-.12c.24.06.42.25.11,0s-.55-.32-.81-.5c.53.36-.14-.16-.29-.3s-.16-.18-.25-.26c-.31-.3.27.4,0,0a9.6,9.6,0,0,1-.6-1c-.08-.16-.15-.32-.23-.47,0,0,.17.42.05.09a10.63,10.63,0,0,1-.35-1.09,9.05,9.05,0,0,1-.24-1,5,5,0,0,1-.14-1,31.1,31.1,0,0,1,.13-6.1c.35-3.34-5.24-4.1-5.89-.79a45.29,45.29,0,0,0-1.2,11.06c.18,3.3,1.15,7.14,3.65,9.47l2.92-5-.11,0a2.93,2.93,0,0,1-.39-.21l-.36-.23c.23.18.21.16-.06-.07-.07-.08-.58-.69-.28-.27a5.14,5.14,0,0,1-.46-.78c-.26-.49,0,0-.19-.47a9.91,9.91,0,0,1-.31-1.19,12.47,12.47,0,0,1-.2-1.83,41.51,41.51,0,0,1,.79-10.13l-1.38,1.79,1.09-.64L346.42,224a8,8,0,0,0,7.36,3.53,8.07,8.07,0,0,0,6.38-4l-1.08,1.07c3-1.55,3.93-4.37,5.07-7.31l-5.79-1.6c-.6,2.5-1.44,5.75-.43,8.26a3,3,0,0,0,5.89-.79c0-.29.05-.57.09-.86-.06.5.08-.42.1-.57.14-.79.31-1.57.5-2.35.43-1.79,1-3.55,1.55-5.29,1.36-4.06,2.95-8,4.55-12q4.54-11.25,9.79-22.2c1.34-2.82,2.71-5.63,4-8.49a3.09,3.09,0,0,0-1.07-4.1,3,3,0,0,0-4.11,1.08,248.14,248.14,0,0,0-15.82,32.4l5.78,1.6a13.14,13.14,0,0,1,.69-2.34,19.22,19.22,0,0,0,.88-2.33,11.37,11.37,0,0,0,.27-1.29c0,.15.11-1.94.05-.9a13.78,13.78,0,0,1,.33-1.89,8.11,8.11,0,0,0-2.84-8.41,7.88,7.88,0,0,0-8.83-.62c-2.83,1.65-3.7,4.76-5.13,7.49l5.48,2.31c6.51-16.79,14.13-33.08,22-49.26,1.6-3.27,3.32-6.52,4.7-9.9.76-1.85-1.13-3.8-2.89-3.8-8.32,0-16.64.21-25,.21l3,3a1.82,1.82,0,0,1,.18-.72c.07-.16.41-.55.41-.69,0,.49-1.62-.05-.69.21a7.31,7.31,0,0,0,1.48.18c1,.07,2,0,3,0,3,0,6-.2,9-.21,3.87,0,3.86-5.87,0-6-2-.07-4-.49-6-.71-2.17-.24-4.35-.37-6.51-.58l1.51.41-.2-.09,1.07,1.08-.1-.15.41,1.52a6.78,6.78,0,0,1-.21.86,7.18,7.18,0,0,1,.62-.6,8.08,8.08,0,0,1,1.08-.76,21.41,21.41,0,0,1,3.1-1.65,14.14,14.14,0,0,1,5.68-.9c4.73-.08,9.46-.19,14.18-.19a3.12,3.12,0,0,0,2.9-2.2,77.31,77.31,0,0,1,3.2-7.88,31.35,31.35,0,0,0,1.95-3.94l-.06.07c.16-.16.1-.12-.18.11.35,0-.26-.06-.27,0,0-.18.18.11.29.23.26.31.41,1,.19.11.37,1.42,2.2,2.72,3.69,2.09a14.65,14.65,0,0,1,3.61-.73l-2.6-4.51c-1.06,2.2-1.47,4.55-2.4,6.8-1.12,2.72,3.2,5.21,5,2.92a68.69,68.69,0,0,0,4.45-6.9l-2.59,1.48c.91,0,1.82,0,2.72.12a7.65,7.65,0,0,1,.81.13s-.45-.48-.45-.47v-3c-1,1.89-1.86,3.88-2.89,5.74s-1.68,3.67-2.78,5.37a3,3,0,0,0,2.59,4.52c11.89,0,23.78.4,35.66.42l-.8-5.9a73.08,73.08,0,0,1-10.87,1.06c-4.28.23-8.57.41-12.86.48-3.92.07-7.84,0-11.76,0a3,3,0,0,0,0,6c4.29.42,8.67.22,13,.22,5,0,10.07,0,15.1.05,4.21,0,8.43.08,12.62.36l-1.51-5.59c-.27.14-.23.13.12,0l-.52.16c-.32.09-.64.16-1,.22-.83.15-1.67.22-2.51.29-2.14.2-4.28.34-6.43.45-3.88.21-7.78.37-11.67.38s-3.84,5.83,0,6c6.19.27,12.31,1.15,18.46,1.89l-.8-5.89a53.42,53.42,0,0,1-13.67,1.78C423.87,128.16,423.86,134.16,427.73,134.12Z"/><path class="cls-2" d="M379.28,125.92c-.85,0-1.69-.08-2.54-.18-.11,0-.77-.09-.2,0s-.05,0-.16,0c-.31,0-.62-.12-.92-.19v5.78c.34,0,.3,0-.13,0l.45-.05.65-.08c.49,0,1-.09,1.48-.12.92-.06,1.85-.09,2.77-.07,1.84,0,3.69.2,5.52.41l-.8-5.89-.9.13c-.58.09.42,0,0,0l-.43.05c-.58.07-1.15.12-1.73.16a29.24,29.24,0,0,1-3.1.08,3,3,0,0,0-3,3,3.06,3.06,0,0,0,3,3,41.76,41.76,0,0,0,7.72-.64,3,3,0,0,0,1.79-1.38,3,3,0,0,0-2.59-4.51,56.88,56.88,0,0,0-5.68-.42,45,45,0,0,0-6.66.53,2.65,2.65,0,0,0-1.55,1.07,2.88,2.88,0,0,0-.65,1.82,3.07,3.07,0,0,0,2.2,2.89,26.67,26.67,0,0,0,5.42.64,3,3,0,1,0,0-6Z"/><path class="cls-2" d="M395.67,116.07c-.49,1-1,2.07-1.57,3.05l5.59,1.51c0-.12,0-.24,0-.35l-.1.79a8.37,8.37,0,0,1,.65-2.06l-.3.72a37.91,37.91,0,0,1,2.25-4.51l-5.48-2.31a18.57,18.57,0,0,1-1,3l.31-.71-.39.86a3.23,3.23,0,0,0-.3,2.32,3.08,3.08,0,0,0,1.37,1.79,3,3,0,0,0,2.32.3,3,3,0,0,0,1.79-1.38,22.68,22.68,0,0,0,1.66-4.59,3,3,0,0,0-5.48-2.32c-.68,1.16-1.27,2.38-1.84,3.59a12.09,12.09,0,0,0-1.5,4.85,3,3,0,0,0,2.2,2.89,3.1,3.1,0,0,0,3.39-1.38c.58-1,1.08-2,1.57-3a3.2,3.2,0,0,0,.3-2.31,3.05,3.05,0,0,0-1.38-1.79,3,3,0,0,0-2.31-.3A2.92,2.92,0,0,0,395.67,116.07Z"/><path class="cls-2" d="M375,151.25q2.61-5.44,4.82-9.85l3-6.09c-.84.28-2.1,1.79-3.77,4.51a91,91,0,0,0-5.14,9.86q-2.62,5.77-5,12.06a65.72,65.72,0,0,0-3.25,10.7,97.73,97.73,0,0,1,4.09-10.07Q372.36,156.7,375,151.25Z"/><path class="cls-2" d="M377.57,152.77c2.57-5.34,5.21-10.64,7.86-15.94a3.05,3.05,0,0,0-.23-3.34,3,3,0,0,0-3.16-1.07c-2.92,1.16-4.62,4.27-6.15,6.85a104.32,104.32,0,0,0-5.21,10.35c-3.14,7-6.44,14.4-7.93,22a3,3,0,0,0,5.79,1.59c2.37-7.06,5.81-13.76,9-20.46a3.09,3.09,0,0,0-1.08-4.11,3,3,0,0,0-4.1,1.08c-3.45,7.17-7.1,14.35-9.64,21.9l5.79,1.59c1.33-6.83,4.17-13.41,7-19.75,1.44-3.27,2.95-6.52,4.7-9.64.78-1.42,1.61-2.82,2.53-4.16a8,8,0,0,1,.94-1.22c.16-.18.33-.34.51-.51s.1-.1-.23.16c.28-.16.18-.13-.31.1l-3.39-4.41c-2.65,5.3-5.3,10.6-7.86,15.94a3.07,3.07,0,0,0,1.07,4.1A3,3,0,0,0,377.57,152.77Z"/><path class="cls-3" d="M427.3,131.14l9.23,1.47c3.5.56,6.64,1.12,9.44,1.68-1.12,0-3.6,0-7.45.1s-8.14.11-12.9.11H400.46c.13,1-.53,3-2,6.08s-3.32,6.75-5.56,11-4.65,8.85-7.23,13.74-4.79,9.58-6.61,14Q369,201.21,364.9,213.05t-2.83,12.06q1.68,0,5.25-4.51t7.76-10.91q4.19-6.39,8.39-13.53t7.34-12.37a4.38,4.38,0,0,1,2.09-2,3.13,3.13,0,0,1,2.21-.21,2,2,0,0,1,1.26,1.47,4,4,0,0,1-.32,2.62,93.2,93.2,0,0,1-6,11.95q-4.29,7.56-9.12,15.52-9.65,15.73-16.57,21.5t-10.49,4.09q-5.65-2.72-4.4-14.26-1.68,8.39-.84,12.27t2.52,5.35q-3.78-1.26-4.41-6.29a43.2,43.2,0,0,1,.73-12.59A116,116,0,0,1,352,206.55q3.15-9.13,7-18.67t8-18.67q4.1-9.12,7.66-16.46t6-12.27c1.61-3.29,2.55-5.28,2.84-6H379c-2.59,0-5.39,0-8.39.1s-5.74.11-8.18.11h-3.88a6.14,6.14,0,0,1,.1-.84,5.4,5.4,0,0,1,.53-1.47,4.13,4.13,0,0,1,1-1.36,2.25,2.25,0,0,1,1.47-.53,10.63,10.63,0,0,0,2.52.21h3.67c1.33,0,2.62,0,3.88-.1s2.31-.11,3.15-.11a15.29,15.29,0,0,1-1.89-.21l-3.36-.42-3.77-.41a29.44,29.44,0,0,0-3.15-.21c-.7,0-.8-.35-.31-1A9.18,9.18,0,0,1,364.9,126a25.58,25.58,0,0,1,4.09-2.09,11.66,11.66,0,0,1,4.41-1c1.12,0,3.07,0,5.87-.1s6.22-.11,10.28-.11c1.12-2.79,2-4.93,2.52-6.39a15.88,15.88,0,0,1,1.88-3.67q.84-2.73,1.89-3.36a2.52,2.52,0,0,1,2.1-.31,3.42,3.42,0,0,1,1.78,1.25,3.68,3.68,0,0,1,.74,1.16A6.5,6.5,0,0,1,402,111c.77-.14,1.71-.28,2.83-.42a13.46,13.46,0,0,0-1.15,3.14,16,16,0,0,1-.95,2.94,21.33,21.33,0,0,0,2.31-3.35q.63-1.26,1.68-2.94a28.65,28.65,0,0,1,3.56.21q1.68.21,2.1,1a42.1,42.1,0,0,0-2.1,4.4,27.45,27.45,0,0,0-1.88,3.57,22.23,22.23,0,0,1-1.68,3.14q5,0,10.59.11c3.7.07,7.24.1,10.59.1s6.33,0,8.92.11,4.43.1,5.55.1a56.52,56.52,0,0,1-8,1q-5,.31-10.38.52t-10.28.21h-7.65c1.39.14,3.95.21,7.65.21h11.85q6.3,0,12.28.11t8.91.31a11.56,11.56,0,0,1-4.2.94q-3.14.31-6.92.53c-2.51.14-4.93.24-7.23.31s-4,.11-5.14.11c3.35.14,6.4.38,9.12.73s5.84.74,9.34,1.16a38,38,0,0,1-3.78.83c-1.54.29-3,.5-4.51.63s-2.76.25-3.88.32S427.72,131.14,427.3,131.14Zm-63.76,71.53a24.84,24.84,0,0,0-3,7q-.94,3.67-2,9.13,1.26-4.41,2.62-8.92T363.54,202.67Zm-3.15,20.55a54.11,54.11,0,0,1,3.46-13q3-8.19,6.61-16.47t6.82-15.1c2.16-4.54,3.53-7.45,4.09-8.7q-4.62,8-8.81,16.57t-7.13,16.15A124.73,124.73,0,0,0,361,215.78Q359.57,221.33,360.39,223.22Zm4.83-50.76a64.67,64.67,0,0,1,3.25-10.69q2.41-6.3,5-12.06a89.19,89.19,0,0,1,5.14-9.86q2.52-4.09,3.78-4.51c-.56,1.12-1.58,3.14-3,6.08s-3.08,6.22-4.83,9.86-3.49,7.34-5.24,11.12A96.32,96.32,0,0,0,365.22,172.46Zm9-44a23.25,23.25,0,0,0,4.61.52,36.6,36.6,0,0,0,6.92-.52,53.2,53.2,0,0,0-6.08-.42A38.53,38.53,0,0,0,374.24,128.42Zm22-7.76c.42-.7.94-1.71,1.57-3a18.24,18.24,0,0,0,1.37-3.88c-.42.71-1,1.86-1.79,3.47A9.51,9.51,0,0,0,396.26,120.66Z"/><path class="cls-3" d="M274.84,90.82A10.57,10.57,0,0,0,271,87.87a13.42,13.42,0,0,0-5.34-1.35,28.79,28.79,0,0,0-3.13,3.31q-2.28,2.65-5.21,6.36t-6.08,8q-3.13,4.33-6,8.57a125.8,125.8,0,0,1,10-16.63c3-4.05,5.43-7.06,7.23-9.05a16,16,0,0,0-7,4.46c-4.81,6.55-9.35,11.94-13.54,18.64-2.95,4.73-6.7,7.55-19.28,36.89l20.12-9.22s6-9.52,7.54-11.74a129.91,129.91,0,0,1,9.91-12.38q5.16-6,8.92-10.11a44,44,0,0,0,5.42-7A6,6,0,0,0,274.84,90.82Z"/><path class="cls-3" d="M272.1,88.14c-.53.65-1.05,1.31-1.57,2a72.19,72.19,0,0,0-7,10.38,109.29,109.29,0,0,1,7.69-9.43l1.94-2.15A7.86,7.86,0,0,1,272.1,88.14Z"/></g></g></svg>