<svg xmlns="http://www.w3.org/2000/svg" xmlns:xlink="http://www.w3.org/1999/xlink" viewBox="0 0 101.96 90.85"><defs><style>.cls-1,.cls-2{stroke-miterlimit:10;stroke-width:5px;stroke:url(#COULEUR_GEEK_BEEZ);}.cls-1{fill:url(#Dégradé_sans_nom_98);}.cls-2{fill:none;}.cls-3{fill:#49676d;}.cls-4{fill:#ffa91a;}.cls-5{fill:#fff;opacity:0.29;}.cls-6{fill:#3d5858;}</style><radialGradient id="Dégradé_sans_nom_98" cx="50.98" cy="45.43" r="45.79" gradientUnits="userSpaceOnUse"><stop offset="0" stop-color="#fdc32d" stop-opacity="0.4"/><stop offset="0.33" stop-color="#fcc233" stop-opacity="0.35"/><stop offset="0.92" stop-color="#fabe42" stop-opacity="0.22"/><stop offset="1" stop-color="#fabe44" stop-opacity="0.2"/></radialGradient><linearGradient id="COULEUR_GEEK_BEEZ" y1="45.43" x2="101.96" y2="45.43" gradientUnits="userSpaceOnUse"><stop offset="0" stop-color="#fabf44"/><stop offset="1" stop-color="#f39547"/></linearGradient></defs><g id="Calque_2" data-name="Calque 2"><g id="Calque_4" data-name="Calque 4"><path class="cls-1" d="M24.83,85.73,3.19,48a5.26,5.26,0,0,1,0-5.21L24.83,5.13A5.22,5.22,0,0,1,29.37,2.5H72.59a5.24,5.24,0,0,1,4.54,2.63L98.77,42.82a5.26,5.26,0,0,1,0,5.21L77.13,85.73a5.25,5.25,0,0,1-4.54,2.62H29.37A5.23,5.23,0,0,1,24.83,85.73Z"/><path class="cls-2" d="M24.83,85.73,3.19,48a5.26,5.26,0,0,1,0-5.21L24.83,5.13A5.22,5.22,0,0,1,29.37,2.5H72.59a5.24,5.24,0,0,1,4.54,2.63L98.77,42.82a5.26,5.26,0,0,1,0,5.21L77.13,85.73a5.25,5.25,0,0,1-4.54,2.62H29.37A5.23,5.23,0,0,1,24.83,85.73Z"/><path class="cls-3" d="M40.67,58.84l-4-4,7.48-7.49a42.48,42.48,0,0,0,4,4Z"/><path class="cls-3" d="M39,63.43c-1,1.29-1.94,2.59-2.92,3.89s-2,2.62-3,4A6.7,6.7,0,0,1,29.25,74c-.1,0-.24,0-.21.19H26.37c0-.21-.15-.17-.25-.2a6.45,6.45,0,0,1-4.62-4.62c0-.1,0-.28-.19-.24V66.44c.23,0,.17-.18.21-.29a6.41,6.41,0,0,1,2.35-3.5l8-6.07.16-.09Z"/><path class="cls-3" d="M39,63.43l-6.94-6.94c1.47-1.11,2.94-2.21,4.41-3.33.2-.15.3-.06.43.08l1.35,1.34c.11.11.18.27.36.29l2,2a18,18,0,0,0,1.6,1.67c.12.14.28.24.1.47C41.21,60.48,40.1,62,39,63.43Z"/><path class="cls-4" d="M41.9,59.6l-6-6,3.8-2.87c.17-.13.26-.06.38.06L41.26,52c.09.09.16.22.31.24l1.73,1.73a17.23,17.23,0,0,0,1.38,1.45c.11.12.25.2.09.4Z"/><circle class="cls-3" cx="60.22" cy="34.91" r="19.26"/><path class="cls-4" d="M78.72,34.91A18.5,18.5,0,1,1,63.77,16.74,18.7,18.7,0,0,1,78.72,34.91a.75.75,0,0,0,1.5,0A20,20,0,1,0,43.05,45.19,20,20,0,0,0,80.22,34.91.75.75,0,0,0,78.72,34.91Z"/><path class="cls-5" d="M49.64,46.19a17.17,17.17,0,0,0,14.58,3.52,11.39,11.39,0,0,0,5.24-2.37c1.42-1.29-.45-3.62-1.88-2.33-2.15,2-5.8,2.33-8.57,2a14.44,14.44,0,0,1-7.61-3.27C49.91,42.55,48.15,45,49.64,46.19Z"/><path class="cls-5" d="M74,41.78a14,14,0,0,0,1.36-3.42,1.56,1.56,0,0,0-.15-1.12,1.48,1.48,0,0,0-.92-.7,1.5,1.5,0,0,0-1.12.15,1.53,1.53,0,0,0-.71.92A10.92,10.92,0,0,1,72,39.08c-.18.42-.37.82-.58,1.21A1.5,1.5,0,0,0,72,42.34,1.52,1.52,0,0,0,74,41.78Z"/><path class="cls-6" d="M79.9,34.91a19.69,19.69,0,1,1-15.77-19.3A19.89,19.89,0,0,1,79.9,34.91a.75.75,0,0,0,1.5,0,21.19,21.19,0,1,0-39.31,11,21.19,21.19,0,0,0,39.31-11A.75.75,0,0,0,79.9,34.91Z"/></g></g></svg>