<svg xmlns="http://www.w3.org/2000/svg" xmlns:xlink="http://www.w3.org/1999/xlink" viewBox="0 0 433.96 418.66"><defs><style>.cls-1,.cls-4{stroke-miterlimit:10;}.cls-1{stroke-width:24px;fill:url(#Dégradé_sans_nom_98);stroke:url(#COULEUR_GEEK_BEEZ);}.cls-2,.cls-4{fill:#fff;}.cls-3{fill:#353435;}.cls-4{stroke:#fff;stroke-width:4px;}.cls-5{fill:url(#COULEUR_GEEK_BEEZ-2);}.cls-6{fill:url(#COULEUR_GEEK_BEEZ-3);}.cls-7{fill:url(#COULEUR_GEEK_BEEZ-4);}.cls-8{fill:url(#COULEUR_GEEK_BEEZ-5);}.cls-9{fill:url(#COULEUR_GEEK_BEEZ-6);}.cls-10{fill:url(#COULEUR_GEEK_BEEZ-7);}.cls-11{fill:url(#COULEUR_GEEK_BEEZ-8);}.cls-12{fill:url(#COULEUR_GEEK_BEEZ-9);}</style><radialGradient id="Dégradé_sans_nom_98" cx="216.98" cy="207.79" r="193.24" gradientUnits="userSpaceOnUse"><stop offset="0" stop-color="#fdc32d" stop-opacity="0.4"/><stop offset="0.33" stop-color="#fcc233" stop-opacity="0.35"/><stop offset="0.92" stop-color="#fabe42" stop-opacity="0.22"/><stop offset="1" stop-color="#fabe44" stop-opacity="0.2"/></radialGradient><linearGradient id="COULEUR_GEEK_BEEZ" y1="207.79" x2="433.96" y2="207.79" gradientUnits="userSpaceOnUse"><stop offset="0" stop-color="#fabf44"/><stop offset="1" stop-color="#f39547"/></linearGradient><linearGradient id="COULEUR_GEEK_BEEZ-2" x1="205.12" y1="393.25" x2="236.66" y2="393.25" xlink:href="#COULEUR_GEEK_BEEZ"/><linearGradient id="COULEUR_GEEK_BEEZ-3" x1="216.74" y1="366.34" x2="224.91" y2="366.34" xlink:href="#COULEUR_GEEK_BEEZ"/><linearGradient id="COULEUR_GEEK_BEEZ-4" x1="210.73" y1="399.85" x2="234.04" y2="399.85" gradientTransform="translate(-1.64 -19.99)" xlink:href="#COULEUR_GEEK_BEEZ"/><linearGradient id="COULEUR_GEEK_BEEZ-5" x1="236.28" y1="373.82" x2="245.92" y2="373.82" xlink:href="#COULEUR_GEEK_BEEZ"/><linearGradient id="COULEUR_GEEK_BEEZ-6" x1="253.92" y1="373.82" x2="263.48" y2="373.82" xlink:href="#COULEUR_GEEK_BEEZ"/><linearGradient id="COULEUR_GEEK_BEEZ-7" x1="245.02" y1="381.99" x2="254.56" y2="381.99" xlink:href="#COULEUR_GEEK_BEEZ"/><linearGradient id="COULEUR_GEEK_BEEZ-8" x1="245.02" y1="365.1" x2="254.56" y2="365.1" xlink:href="#COULEUR_GEEK_BEEZ"/><linearGradient id="COULEUR_GEEK_BEEZ-9" x1="179.47" y1="373.4" x2="203.18" y2="373.4" xlink:href="#COULEUR_GEEK_BEEZ"/></defs><g id="Calque_2" data-name="Calque 2"><g id="Calque_2-2" data-name="Calque 2"><path class="cls-1" d="M108.52,380.3,14.17,215.94a16.41,16.41,0,0,1,0-16.3L108.52,35.28a16.36,16.36,0,0,1,14.2-8.22H311.24a16.36,16.36,0,0,1,14.2,8.22l94.34,164.36a16.36,16.36,0,0,1,0,16.3L325.44,380.3a16.38,16.38,0,0,1-14.2,8.22H122.72A16.38,16.38,0,0,1,108.52,380.3Z"/><path class="cls-2" d="M61.41,256.19Q54.06,267,52.13,277.41a60.27,60.27,0,0,0-.72,19.29,50.48,50.48,0,0,0,4.7,15.82,37.94,37.94,0,0,0,7.34,10.62,31.77,31.77,0,0,1-9-10.31A42.56,42.56,0,0,1,50,300.07a53.64,53.64,0,0,1-.71-13.57,68.36,68.36,0,0,1,2.14-12.86A44.62,44.62,0,0,1,55.7,263,21.81,21.81,0,0,1,61.41,256.19ZM158,198a50.14,50.14,0,0,0,5.3,9.89,32.65,32.65,0,0,0,6.13,6.84,10.85,10.85,0,0,0,5.92,2.66q2.85.19,5.1-2.86,0,9.39-4.59,15.2A20.19,20.19,0,0,1,165,237.2a18,18,0,0,1-12.55-1.32q-6.33-3-9.6-11.13-6.73-15.92-13-24.18t-11.63-11.23q-5.42-3-9.6-1.84a13.53,13.53,0,0,0-6.63,3.78q-4.69,5.1-1.12,13.57t16.23,20.31q6.74,6.54,13.36,14a85,85,0,0,1,11.33,16.13,65.2,65.2,0,0,1,6.64,18.67,52.19,52.19,0,0,1-.72,21.64A48.44,48.44,0,0,1,129,325a49.22,49.22,0,0,1-14.79,7.35,50.71,50.71,0,0,1-16,2.25q-15.51-.42-25.51-6.74a41.83,41.83,0,0,1-15-15.72,45.72,45.72,0,0,1-5.31-20.61A57.58,57.58,0,0,1,55.8,270,52.49,52.49,0,0,1,67.13,251.7,38.25,38.25,0,0,1,85.5,240.88c-1,.68-2.28,1.67-4,3s-3.57,2.89-5.62,4.8Q85.1,241.7,94.58,241t16.33,3.16a21,21,0,0,1,9.59,11.43q2.76,7.56-1.32,17.35a21.71,21.71,0,0,0-1.13-10.81,13.44,13.44,0,0,0-6-7.56,13.28,13.28,0,0,1,3,4.9,25.34,25.34,0,0,1,1.43,6.64,24.05,24.05,0,0,1-.41,7,14.68,14.68,0,0,1-2.55,5.92q1-9.19-3.26-15.21a20.64,20.64,0,0,0-11-8.06,24.9,24.9,0,0,0-14.28.1A23.45,23.45,0,0,0,72.23,265q6.33-6.52,13.68-8.06a22.7,22.7,0,0,1,13.26.82,18,18,0,0,1,9.09,7.65c2.1,3.54,2.55,7.69,1.32,12.45q-.4-9-5.92-13.47a17.48,17.48,0,0,0-12.45-4.08q-6.93.41-13.57,6t-9.08,16.84q-2.86,12,.61,20.61a29.16,29.16,0,0,0,10.31,13.37A34.48,34.48,0,0,0,95.3,323a38.38,38.38,0,0,0,17.35-1.73,37.1,37.1,0,0,0,14.9-9.7q6.53-6.83,8.57-17.86a61.91,61.91,0,0,0,.81-15.71,45.5,45.5,0,0,0-3.87-14.9,60.31,60.31,0,0,0-9.49-14.6A140.06,140.06,0,0,0,108,233.33q-9.8-8.16-14.59-15.82a38.44,38.44,0,0,1-5.82-14.29,22.61,22.61,0,0,1,1.22-12.14,27.42,27.42,0,0,1,6.54-9.6,29.4,29.4,0,0,0-4.8,4.19c-1.3,1.43-2.42,2.68-3.37,3.77a27,27,0,0,1,8-10.2,33.28,33.28,0,0,1,9.39-5,34,34,0,0,1,8.67-1.74q4-.19,6-.2H120a45.76,45.76,0,0,1,20.52,4.49q9.08,4.49,18.88,15.51a79.38,79.38,0,0,1,5.81,7.35,80.77,80.77,0,0,0,5,6.53,19.78,19.78,0,0,0,4.9,4.29,6.58,6.58,0,0,0,5.31.61,7.35,7.35,0,0,1-2.45,3.57,5.23,5.23,0,0,1-4.69.92q-2.86-.62-6.74-4.59T158,198Zm-92.87,102q2.64,10.81,8.57,17a33.1,33.1,0,0,0,13.47,8.78,35.52,35.52,0,0,0,15.62,1.63,46.13,46.13,0,0,0,15-4.28,38.7,38.7,0,0,0,11.84-8.78,22.91,22.91,0,0,0,5.92-11.94A33.32,33.32,0,0,1,127,315.07a39.67,39.67,0,0,1-12.65,8,42.93,42.93,0,0,1-14.7,3,35.69,35.69,0,0,1-14.49-2.55A34.49,34.49,0,0,1,73,315,33.89,33.89,0,0,1,65.09,300.07ZM108,211.49a40.55,40.55,0,0,0,6.23,7.24l8.67,8.27q4.7,4.49,9.59,9.69A75.33,75.33,0,0,1,141.22,248a59.08,59.08,0,0,1,6.23,13.37,47.68,47.68,0,0,1,2.14,15.82,55.74,55.74,0,0,0-4.08-17,77.87,77.87,0,0,0-7.66-14,81.11,81.11,0,0,0-9.39-11.33q-5-5-9.39-9.19c-2.92-2.78-5.4-5.34-7.45-7.65A14.6,14.6,0,0,1,108,211.49Zm1.43-26.33a14.94,14.94,0,0,1,3.88.1,18.47,18.47,0,0,1,6.73,2.45,35.39,35.39,0,0,1,8.47,7.14A60.19,60.19,0,0,1,137.55,209a28.4,28.4,0,0,0-3.37-8.17,43.33,43.33,0,0,0-6.74-9,30.51,30.51,0,0,0-8.67-6.33A11.34,11.34,0,0,0,109.38,185.16Zm31,38q3.89,9.6,9,12.86a19.12,19.12,0,0,0,9.89,3.37,19.4,19.4,0,0,0,8.58-1.63q3.76-1.74,4.79-2.35a17.14,17.14,0,0,1-8.47,5.81,16.88,16.88,0,0,1-9.9.11,18.38,18.38,0,0,1-8.77-5.92Q141.63,230.89,140.4,223.12Z"/><path class="cls-2" d="M58.82,254.67a68.91,68.91,0,0,0-7.28,13.83,60.82,60.82,0,0,0,1.12,43.73,41.32,41.32,0,0,0,8.67,13L65,320.54c-15-11.42-15.29-34.53-9.17-50.77A35.29,35.29,0,0,1,59,263.38a19,19,0,0,1,3.94-4.6A3.1,3.1,0,0,0,64,254.67c-.74-1.27-2.8-2-4.1-1.07-8,6.06-11.47,17-12.91,26.58-1.67,11.13-.9,22.55,4.16,32.75a36.34,36.34,0,0,0,10.79,12.8,3,3,0,0,0,3.87-.78,3,3,0,0,0-.23-3.94c-6-5.78-9.37-14.34-10.85-22.42a54.38,54.38,0,0,1,2-26.7A60.4,60.4,0,0,1,64,257.7a3,3,0,0,0-1.07-4.1A3.06,3.06,0,0,0,58.82,254.67Z"/><path class="cls-2" d="M155.06,198.81C157.6,205,161,211,165.87,215.66c2.31,2.18,5.09,4.12,8.28,4.6,3.8.58,6.61-1.27,8.85-4.2l-5.59-1.51a25.52,25.52,0,0,1-1.63,9.42,18.76,18.76,0,0,1-5.57,7.28,15.39,15.39,0,0,1-18.13,1,16.29,16.29,0,0,1-5.28-6.09c-1.83-3.4-3.13-7.11-4.79-10.6a94.58,94.58,0,0,0-9.44-16.39c-4.27-5.71-9.23-11.29-16-13.91a14.41,14.41,0,0,0-10.65,0,15,15,0,0,0-8,6.73c-3.15,6.09-.71,13.1,2.65,18.55,3.61,5.87,8.47,11,13.44,15.73a200,200,0,0,1,16.64,17.56A72.6,72.6,0,0,1,142.17,263a52.28,52.28,0,0,1-1.26,43.32A46.56,46.56,0,0,1,106.75,331,52.87,52.87,0,0,1,85,329.83,39.38,39.38,0,0,1,68.45,321c-10.91-9.73-14.62-24.54-12.66-38.72,1.89-13.6,9.24-27.67,21.39-34.75a37,37,0,0,1,9.12-3.73L84,238.29a104.46,104.46,0,0,0-10.2,8.22,3,3,0,0,0,3.64,4.72c7.12-5.33,15.63-8.57,24.6-7,7.61,1.31,14.09,6.13,16.09,13.78,1.22,4.66,0,9.66-1.83,14.15l5.79,1.59c1.09-8-1-17.49-8.52-21.76a3,3,0,0,0-3.64,4.72c2.37,2.44,3.32,6.45,3.55,9.88.25,3.84-.29,7.8-2.59,11l5.59,1.52a26.29,26.29,0,0,0-1.6-12.91,23.84,23.84,0,0,0-7.9-9.8c-7.52-5.57-18-5.71-26.38-2.06a27.72,27.72,0,0,0-10.94,9.17,3,3,0,0,0,4.71,3.63,25.58,25.58,0,0,1,9.81-6.6A21.14,21.14,0,0,1,96.63,260a15.28,15.28,0,0,1,8.52,6.07c2.25,3.36,2.51,7,1.54,10.95l5.89.79c-.26-4.91-1.53-9.66-4.71-13.51a20.34,20.34,0,0,0-13.08-6.91c-10.11-1.25-20.21,5.31-25.07,13.92A44.62,44.62,0,0,0,64.92,286,37.17,37.17,0,0,0,65.39,302a33.1,33.1,0,0,0,19.9,21.64,41.39,41.39,0,0,0,32.76-1.29,37.72,37.72,0,0,0,19.47-21.94,56.27,56.27,0,0,0,2.59-16.7,50.75,50.75,0,0,0-2.5-17.08c-3.6-10.67-10.68-19.5-18.63-27.29-7.54-7.39-16.58-13.51-22.46-22.41a37.47,37.47,0,0,1-6-13.74A20.3,20.3,0,0,1,93,189.19a25.35,25.35,0,0,1,4.41-5.59,3,3,0,0,0-3.64-4.71A53,53,0,0,0,85,187.32L89.72,191a26.94,26.94,0,0,1,6-8.35,27.92,27.92,0,0,1,9.2-5.35c6.33-2.18,13.38-2.35,20-1.75A40.65,40.65,0,0,1,144,182.29a74.57,74.57,0,0,1,16.67,16.17c4.92,6.35,10.77,18,20.57,15.51l-3.69-3.69c-.66,2-2.11,2.83-4,2.26a4.56,4.56,0,0,1-.52-.18c.46.19-.16-.1-.23-.14-.49-.29-1-.57-1.44-.9a22.63,22.63,0,0,1-2.81-2.56,29.33,29.33,0,0,1-3.63-4.69c-1.6-2.44-3-5-4.38-7.57a3,3,0,1,0-5.18,3c2.94,5.6,6.25,11.42,11.15,15.55,2.42,2,5.29,3.83,8.6,3.65,4-.21,7-3.18,8.18-6.85.74-2.24-1.57-4.24-3.69-3.69-3.29.84-6-2.52-7.83-4.78-2.66-3.18-4.89-6.69-7.48-9.92a78.9,78.9,0,0,0-17.77-16.69,46.51,46.51,0,0,0-21-7.22,65.82,65.82,0,0,0-9.1-.22,45.73,45.73,0,0,0-12.31,1.83,36,36,0,0,0-12,6.58,30.49,30.49,0,0,0-7.59,10.16,3,3,0,0,0,.77,3.87,3,3,0,0,0,3.94-.24,47,47,0,0,1,7.56-7.49l-3.64-4.71a30.07,30.07,0,0,0-8,12.85,27.58,27.58,0,0,0,.18,15.1c2.69,9.55,9,17.73,16.2,24.4,4,3.72,8.28,7.12,12.23,10.91a99.91,99.91,0,0,1,9.89,10.78c6.42,8.34,10.33,18.07,10.43,28.67.08,9.14-1.64,19.3-7.72,26.34a34.38,34.38,0,0,1-25,11.92c-9.32.26-19-2.91-25.05-10.18a26.69,26.69,0,0,1-5.54-11.43,33.58,33.58,0,0,1,.46-13.85A34.68,34.68,0,0,1,76,272.55a23.42,23.42,0,0,1,9.85-8,15.56,15.56,0,0,1,12.23-.19,15.18,15.18,0,0,1,4.67,3.2,12.58,12.58,0,0,1,2.69,4.31,20.21,20.21,0,0,1,1.13,5.93c.18,3.26,5,4.22,5.9.8a19.94,19.94,0,0,0-.32-12,20.72,20.72,0,0,0-7.27-9.22c-6.59-4.76-16-5.25-23.39-2.32a32.77,32.77,0,0,0-11.39,7.75l4.71,3.64a21.55,21.55,0,0,1,18.08-8.69,18.19,18.19,0,0,1,16.1,9.88c1.7,3.39,1.87,7.5,1.46,11.38a3,3,0,0,0,2.2,2.89,3.12,3.12,0,0,0,3.39-1.38c3-4.06,3.79-9.57,3.37-14.47s-1.77-10-5.27-13.66l-3.63,4.71a10.51,10.51,0,0,1,4.49,5.37,19,19,0,0,1,1.27,9.62,3,3,0,1,0,5.79,1.59A28.84,28.84,0,0,0,124.25,258a23.67,23.67,0,0,0-6.38-12.3c-7-7.22-17.87-9.05-27.44-7.2a39.89,39.89,0,0,0-16,7.5L78,250.76a92.21,92.21,0,0,1,9-7.29,3,3,0,0,0,1.23-3.75A3,3,0,0,0,84.7,238a42.27,42.27,0,0,0-19,10.86,56.09,56.09,0,0,0-12.28,18.94c-5.85,14.74-5.84,32.49,2,46.52a45.56,45.56,0,0,0,15.16,15.76,47,47,0,0,0,19.36,6.81,58,58,0,0,0,25-1.67,52.15,52.15,0,0,0,20.37-11.62c11.63-10.83,17.52-27,16.91-42.8-.63-16.13-8.72-31.32-19.17-43.26-5.57-6.35-11.64-12.14-17.58-18.13-4.44-4.47-8.69-9.13-11.44-14.83-1.24-2.55-2.15-5.83-1.44-8.39a6.63,6.63,0,0,1,1.78-3,9.79,9.79,0,0,1,3.65-2.3,7.83,7.83,0,0,1,4.12-.58,14.41,14.41,0,0,1,4.83,1.81,28.36,28.36,0,0,1,7,6,74.66,74.66,0,0,1,10.78,16.31c1.8,3.52,3.45,7.12,5,10.75a30.22,30.22,0,0,0,5.56,9.24,21.27,21.27,0,0,0,21.34,5.46,24.3,24.3,0,0,0,15-14.58,31.19,31.19,0,0,0,1.73-10.71,3,3,0,0,0-2.2-2.89,3.14,3.14,0,0,0-3.39,1.37,3.68,3.68,0,0,1-1.68,1.32c-.11,0-.49.09-.17.06-.07,0-.65,0-.62,0a7.88,7.88,0,0,1-1.42-.37,14.85,14.85,0,0,1-5.2-4.05,43.11,43.11,0,0,1-7.88-12.78,3.1,3.1,0,0,0-3.69-2.1C155.74,195.51,154.44,197.31,155.06,198.81Z"/><path class="cls-2" d="M62.19,300.87A42.21,42.21,0,0,0,70.39,318,36,36,0,0,0,86,328.65c13.3,4.69,29.31,1.28,40.38-7.19,5.92-4.54,10.81-10.62,12.06-18.14a3,3,0,0,0-5.79-1.6c-4.09,10.34-13.64,17.42-24.23,20.09-11.21,2.82-23.25.63-31.78-7.43A31.47,31.47,0,0,1,68,299.27c-1-3.72-6.8-2.14-5.79,1.6a36.43,36.43,0,0,0,24.72,26.37c12.74,4,27.78,1.1,38.41-6.87a38.88,38.88,0,0,0,13.08-17.05l-5.79-1.6c-1.92,11.56-13.38,18.92-24,21.67a36.12,36.12,0,0,1-18.94.16A30.56,30.56,0,0,1,75.78,315c-4-4.22-6.37-10-7.8-15.72C67.05,295.53,61.26,297.11,62.19,300.87Z"/><path class="cls-2" d="M105.36,213c2.84,4.33,6.63,7.79,10.35,11.34,3.91,3.72,7.83,7.44,11.59,11.31,7,7.26,13.23,15.17,16.66,24.8a46.63,46.63,0,0,1,2.63,16.76h6a60.92,60.92,0,0,0-3.41-15.9A77.91,77.91,0,0,0,142,247c-5.82-9.13-13.56-16.5-21.32-23.95-2.07-2-4.1-4-6-6.17-1.7-1.86-3.26-3.78-3.79-6.19a3,3,0,1,0-5.78,1.59c1.08,4.91,5,8.68,8.44,12.13,3.7,3.75,7.57,7.33,11.3,11a82.34,82.34,0,0,1,17.75,25.39,52.58,52.58,0,0,1,4,16.37,3.08,3.08,0,0,0,3,3,3,3,0,0,0,3-3A55.22,55.22,0,0,0,144,246.88c-5.77-9.28-13.69-16.87-21.55-24.37-4.14-3.95-8.79-7.72-11.95-12.54a3.06,3.06,0,0,0-4.1-1.07A3,3,0,0,0,105.36,213Z"/><path class="cls-2" d="M110.18,188.05c-.89.15-.14,0,.08,0h.93l1.17.08s1.19.15.75.07a14.93,14.93,0,0,1,4.1,1.39,26.92,26.92,0,0,1,7,5.18c4.6,4.51,7.83,9.89,10.71,15.74a3,3,0,0,0,3.74,1.23,3,3,0,0,0,1.74-3.54,31.4,31.4,0,0,0-3.88-9.26,47.1,47.1,0,0,0-6.84-9c-5.37-5.56-13.21-10.61-21.14-7.67a3.08,3.08,0,0,0-2.09,3.69,3,3,0,0,0,3.69,2.1,9.58,9.58,0,0,1,8.56.87,29.82,29.82,0,0,1,7.34,5.89,40,40,0,0,1,5.4,7.39,25.6,25.6,0,0,1,3.17,7.64l5.49-2.32c-3.25-6.6-7.16-12.82-12.59-17.85-5-4.65-11.87-8.58-19-7.41a3,3,0,0,0-2.09,3.69A3.06,3.06,0,0,0,110.18,188.05Z"/><path class="cls-2" d="M137.51,223.92a41.57,41.57,0,0,0,6,10.71,21.63,21.63,0,0,0,8.72,6.19c7.43,3.06,15.26,1.05,21.95-2.86l-3.64-4.71a15,15,0,0,1-7.38,5.11,14,14,0,0,1-10.17-.78c-6-3.06-8.63-8.82-9.68-15.26a3,3,0,0,0-3.69-2.09,3.07,3.07,0,0,0-2.1,3.69c1.31,8,5.5,15.68,13.13,19.17a20.41,20.41,0,0,0,24.14-5.6,3,3,0,0,0,.23-3.94,3,3,0,0,0-3.87-.77c-5.19,3-11.18,4.87-16.93,2.41a20,20,0,0,1-4-2.27c.43.31-.32-.28-.41-.36l-.66-.62a18.53,18.53,0,0,1-1.39-1.55,34.42,34.42,0,0,1-4.45-8.07,3.09,3.09,0,0,0-3.69-2.09C138.19,220.62,136.9,222.41,137.51,223.92Z"/><path class="cls-3" d="M159.2,312.33a43,43,0,0,1-.1-7.86,85.33,85.33,0,0,1,1.12-9c.55-3.06,1.19-6,1.94-8.88a62.45,62.45,0,0,1,2.35-7.35q-.62,2.46-1.53,6.43c-.62,2.66-1.19,5.55-1.74,8.68s-1,6.26-1.43,9.39A68.25,68.25,0,0,0,159.2,312.33ZM238,262.12a5.4,5.4,0,0,1,2.14-2.15,2.45,2.45,0,0,1,2-.1,2.25,2.25,0,0,1,1.23,1.53,3.87,3.87,0,0,1-.31,2.55q-2.25,4.91-6.94,13.37T226,294.37q-5.52,8.56-10.92,15.41T205.94,318c-1.9.82-4.52.68-7.86-.4a32.18,32.18,0,0,1-9.89-5.51,20.92,20.92,0,0,0,10.2,7,17.47,17.47,0,0,0,10.41-.11q-6.33,2.46-11.33,1.54a18.94,18.94,0,0,1-8.88-4.19,28.83,28.83,0,0,1-6.53-8,51.35,51.35,0,0,1-4.28-9.8,3,3,0,0,1-.41-1.22.81.81,0,0,1-.21-.61,14.58,14.58,0,0,1,.41-5.72,11.56,11.56,0,0,1,3.06-5.71,28.74,28.74,0,0,0,10.21-4.19,51.52,51.52,0,0,0,8.88-7.24,58.36,58.36,0,0,0,6.94-8.58,48.17,48.17,0,0,0,4.49-8.26,16,16,0,0,0,1.43-6.33c-.07-1.7-.72-2.62-1.94-2.76q-4.29-.19-9.8,4.09a57.52,57.52,0,0,0-10.72,11.32,99.92,99.92,0,0,0-9.49,15.93,76.59,76.59,0,0,0-6.12,17.85q-1,5.11-1.94,10.41c-.61,3.54-1.4,6-2.35,7.35a4,4,0,0,1-2.34.82,16.48,16.48,0,0,1-3.58,0,8.32,8.32,0,0,1-3.26-1,2.5,2.5,0,0,1-1.43-2.25,182.84,182.84,0,0,1,7-37.55q5.41-18,11.33-32.46-4.48,9.6-7.65,18.27a103.67,103.67,0,0,0-4.39,14.8,63,63,0,0,1,3.16-14.7,180.12,180.12,0,0,1,6.84-17.76q4.08-9.18,8.88-18t9.28-15.51q2.66-4.29,4.9-7.35l3.88-5.3a13.48,13.48,0,0,1,5.1-3.47,11.43,11.43,0,0,1,5.92-.82c-.41.68-1.15,1.91-2.24,3.67s-2.38,4-3.88,6.54-3.16,5.47-5,8.67S199,218.17,197,221.7q7.75-11.62,12.15-18.67a107.35,107.35,0,0,1,7-10.31c.27-.27.71,0,1.33.71s1.05,1.26,1.32,1.53q0,1.84-3.16,6.64T207.58,214q-4.91,7.55-10.82,18a212.67,212.67,0,0,0-11.43,23.68Q190,245,195.23,239a35.28,35.28,0,0,1,10.2-8.57,18.62,18.62,0,0,1,9.7-2.25,18.26,18.26,0,0,1,8.16,2.35,12.77,12.77,0,0,1,5,6.74A26.94,26.94,0,0,1,229.72,248a47.81,47.81,0,0,1-9.8,26.13,54.55,54.55,0,0,1-12.14,11.53,50.53,50.53,0,0,1-17.55,7.66,15.56,15.56,0,0,0,1.83,5,41.63,41.63,0,0,0,3.88,6.12,20,20,0,0,0,4.9,4.7,4.88,4.88,0,0,0,5.1.51q2.46-1.23,6.64-7.05t8.88-13.26q4.68-7.46,9.18-15T238,262.12ZM170,310.7a165.86,165.86,0,0,1,3.88-18.37A103.15,103.15,0,0,1,178,280.39a48.65,48.65,0,0,1,4.08-7.86c1.36-2,2.66-4.15,3.88-6.33a27.79,27.79,0,0,0-6.74,9,76.59,76.59,0,0,0-4.79,12.15,98.09,98.09,0,0,0-3,12.65Q170.43,306.21,170,310.7Zm13.68-16.33a23.63,23.63,0,0,0,3.06,6.84,35.83,35.83,0,0,0,5.1,6.42,25.09,25.09,0,0,0,5.92,4.5,7.33,7.33,0,0,0,5.31,1,12,12,0,0,1-6.33-2.66,37.73,37.73,0,0,1-5.92-5.51,50.83,50.83,0,0,1-4.59-6.12A34.94,34.94,0,0,1,183.7,294.37ZM214.92,248a35.5,35.5,0,0,1-.81,5,38.78,38.78,0,0,1-3.57,9.39,53.89,53.89,0,0,1-8,11.23,54.63,54.63,0,0,1-13.77,10.72,47.7,47.7,0,0,0,11.33-6.94A44.89,44.89,0,0,0,208.8,268,42.2,42.2,0,0,0,214,257.73,19.46,19.46,0,0,0,214.92,248Zm-11.43-45.72a33,33,0,0,0-2.24,3.37q-1.84,3-4.08,6.63c-1.5,2.45-2.9,4.84-4.19,7.15a37.14,37.14,0,0,0-2.35,4.69c.55-1,1.43-2.41,2.66-4.39s2.48-4.08,3.77-6.32,2.56-4.39,3.78-6.43S203,203.4,203.49,202.31ZM201,232.11a18.22,18.22,0,0,1,6.94-5,18,18,0,0,1,7.66-1.32,14,14,0,0,1,6.84,2.14,11.56,11.56,0,0,1,4.49,5.2,16.09,16.09,0,0,0-6.64-5,16.42,16.42,0,0,0-7.14-1,21.81,21.81,0,0,0-6.84,1.74A19.67,19.67,0,0,0,201,232.11Z"/><path class="cls-3" d="M270.44,261.91a4.31,4.31,0,0,1,2-1.94,2.69,2.69,0,0,1,2.14-.1,2.18,2.18,0,0,1,1.23,1.43,4.28,4.28,0,0,1-.31,2.65c-.81,1.77-1.94,4.05-3.37,6.84s-3.06,5.82-4.89,9.09-3.85,6.63-6,10.1-4.35,6.77-6.53,9.9q-9,12.86-14.9,15.31t-8.77-4.7a33.47,33.47,0,0,1,.4,4.29,1.78,1.78,0,0,0,1.43,1.84c-2.17,0-4.15-1.13-5.92-3.37s-2.51-6.19-2.24-11.84,2.07-13.4,5.41-23.27,9-22.48,17-37.86a44,44,0,0,0-4.9,8.06q-2.45,5-4.69,10.1a42.56,42.56,0,0,1,1.73-6,65,65,0,0,1,3.17-7.45,54.14,54.14,0,0,1,3.87-6.63c1.36-2,2.66-3.17,3.88-3.57a4.08,4.08,0,0,1,1.84-.41h1.43c-.28.54-1,2-2,4.39s-2.32,5-3.68,7.75-2.58,5.41-3.67,7.86-1.77,3.95-2,4.49c.81-1.49,1.9-3.54,3.26-6.12s2.76-5.14,4.19-7.66,2.68-4.79,3.77-6.83,1.77-3.34,2-3.88a3.77,3.77,0,0,0,1.23.2,3.68,3.68,0,0,1,1.22.21c-.13.27-.44.92-.91,1.94s-1,2.17-1.54,3.47-1.09,2.62-1.63,4-1,2.52-1.43,3.47a30.65,30.65,0,0,0,1.84-3.27q1-2,2.14-4c.75-1.29,1.4-2.45,1.94-3.47a9.37,9.37,0,0,1,1.23-1.94,44.94,44.94,0,0,1,4.59,1.12,6.46,6.46,0,0,1,3.16,1.74,2.05,2.05,0,0,1,.51,1.73,5.8,5.8,0,0,1-.91,2.45,14.76,14.76,0,0,1-2.15,2.66,16.58,16.58,0,0,1-3,2.34c.14,1.09-.51,3.24-1.94,6.43s-3.13,6.88-5.1,11-4.08,8.51-6.33,13.07-4.11,8.81-5.61,12.76a56.87,56.87,0,0,0-3,10q-.72,4.08,1.53,4.69c.82.27,1.9-.31,3.27-1.73a49.76,49.76,0,0,0,4.59-5.82q2.55-3.68,5.41-8.47t5.82-9.7q3-4.89,5.51-9.39T270.44,261.91Zm-42.66,43.48a38.85,38.85,0,0,1,.1-8.37,58.42,58.42,0,0,1,1.74-9.39,36.29,36.29,0,0,0-2.25,8.57A26.24,26.24,0,0,0,227.78,305.39Zm26.13-42.05a52.51,52.51,0,0,0-6,9,104.25,104.25,0,0,0-5.61,11.84,84.53,84.53,0,0,0-3.77,11.64q-1.33,5.51-.51,8.57a26.64,26.64,0,0,1,1.53-9.19,111.34,111.34,0,0,1,4.38-11.53q2.65-6,5.41-11.43T253.91,263.34Zm5.51-31.23a13.13,13.13,0,0,1-3.27-1.83,6.17,6.17,0,0,1-2.24-3.07,6.05,6.05,0,0,1,.3-4.18c.61-1.56,2.15-3.23,4.59-5a15,15,0,0,0-3.26,5.72,14,14,0,0,1,2.35-3.58,17.67,17.67,0,0,1,3.36-3,19.8,19.8,0,0,1,3.68-1.94,7.23,7.23,0,0,1,3.47-.51c1.63.28,2.86,1.54,3.67,3.78a13.31,13.31,0,0,1,.61,6.94,9.88,9.88,0,0,1-3.47,6q-2.85,2.44-8.36,1A9.18,9.18,0,0,0,259.42,232.11Zm11-14.9a3.87,3.87,0,0,0-3.67-.91,11.39,11.39,0,0,0-4,1.93,24.79,24.79,0,0,0-3.36,3,13.57,13.57,0,0,0-1.64,1.94,34.09,34.09,0,0,1,7.86-5.2Q268.81,216.59,270.44,217.21Z"/><path class="cls-3" d="M340.65,264q-1.83,4.29-5.92,11.84t-9.08,15.72q-5,8.16-10.31,15.72a70.1,70.1,0,0,1-9.59,11.43,21,21,0,0,0,7-6.43,90.67,90.67,0,0,1,5.82-7.45q-4.08,7.75-7.76,11.43a21.38,21.38,0,0,1-6.73,4.9c-4.77,1.63-8.3.81-10.62-2.45q-2.65-3.48-2.34-9.7a73,73,0,0,1,2-13.47,148.62,148.62,0,0,1,4.39-14.8q2.64-7.54,5-13.78t3.67-10.3c.88-2.72,1-4.29.31-4.7q-1.85-1-7.86,2.76T286,268.24a12.9,12.9,0,0,1,5.51-3.67,64.62,64.62,0,0,0-15.41,21.73A137.54,137.54,0,0,0,268,311.92a4.55,4.55,0,0,1-1.94,2.25,8.42,8.42,0,0,1-3.27,1.32,3.66,3.66,0,0,1-3-.61c-.81-.61-1.22-1.87-1.22-3.78a133.9,133.9,0,0,1,2.35-16q1.94-9.9,4.69-20.2t5.92-19.09q3.17-8.78,6.23-12.86a11.89,11.89,0,0,1,2.24-2,46.68,46.68,0,0,0-2.55,5c-1,2.25-2.08,4.73-3.16,7.45s-2.15,5.51-3.17,8.37a71.9,71.9,0,0,0-2.34,7.76q1.43-3.68,3.16-8.37c1.15-3.13,2.35-6.16,3.57-9.09s2.45-5.54,3.68-7.85a16.78,16.78,0,0,1,3.26-4.7,18.17,18.17,0,0,1,4.39-1,11.49,11.49,0,0,1,3.78.2,4.61,4.61,0,0,1,2.34,1.23,1.43,1.43,0,0,1,.1,1.84,24.48,24.48,0,0,0-2.75,3.47c-1,1.5-2,3.16-3.06,5s-2,3.77-3.06,5.81-1.94,3.88-2.76,5.51a85.94,85.94,0,0,1,10.21-15.1,64.51,64.51,0,0,1,10.3-9.8,31.58,31.58,0,0,1,9.49-5,17.56,17.56,0,0,1,8-.71c4.89,1,7.38,4.32,7.44,10.1s-1.87,13-5.81,21.54q-1.63,3.68-3.78,8.67t-4.39,10.51q-2.25,5.52-4.28,10.82T305,302c-1,2.79-1.76,5.07-2.24,6.84s-.51,2.65-.1,2.65q1.21,0,3.47-2.65a83.38,83.38,0,0,0,5.2-7q3-4.4,6.43-9.9c2.31-3.68,4.56-7.38,6.74-11.13s4.21-7.24,6.12-10.51l4.9-8.37a3.73,3.73,0,0,1,2-1.83,3.4,3.4,0,0,1,2.14-.11A1.93,1.93,0,0,1,341,261.4,3.87,3.87,0,0,1,340.65,264ZM266,309.68a97.86,97.86,0,0,1,5.3-18,149.68,149.68,0,0,1,7.15-15.3,107.21,107.21,0,0,1,6.84-11.13,56,56,0,0,1,4.38-5.61,51.44,51.44,0,0,0-5.1,6.12,105.13,105.13,0,0,0-8,12.45A129.27,129.27,0,0,0,269.21,294,43.5,43.5,0,0,0,266,309.68Zm40.21-54.3c-.14.55-.72,2.11-1.74,4.7s-2.24,5.75-3.67,9.49-2.86,7.86-4.29,12.35-2.69,8.81-3.77,13a83.47,83.47,0,0,0-2.25,11.53c-.41,3.54-.2,6.19.61,8-1.9-.54-2.89-2.69-3-6.43a53,53,0,0,1,2.15-14.08,155.88,155.88,0,0,1,6.33-18.58A169.49,169.49,0,0,1,306.16,255.38Zm8.57,16.33A217.09,217.09,0,0,0,303,298.76q-3.57,10.71-2.14,13.16a32.15,32.15,0,0,1,1.84-8.27q1.83-5.81,4.18-12.14t4.7-11.94C313.13,275.83,314.19,273.21,314.73,271.71Zm10.21-29c.4-3,.17-5.31-.72-6.94a7,7,0,0,0-3.67-3.37,9.83,9.83,0,0,0-5.31-.41,21.1,21.1,0,0,0-5.82,1.94c1.64-.41,3.3-.75,5-1a11.47,11.47,0,0,1,4.8.2,6.8,6.8,0,0,1,3.78,2.76C324,237.32,324.66,239.6,324.94,242.73Z"/><path class="cls-4" d="M392.29,261.4a2.17,2.17,0,0,0-1.43-1.43,3.3,3.3,0,0,0-2.24.21,4.33,4.33,0,0,0-2.05,1.94q-1.63,3.06-5.4,9a51.77,51.77,0,0,1-9.29,10.82,34.26,34.26,0,0,0-2.77-7.17v.84H352.53a68.93,68.93,0,0,1,5.78,5.31,15.15,15.15,0,0,1,3.77,6.53,21.15,21.15,0,0,0-4.69-7,50,50,0,0,0-5.78-4.8H349l2.72,2.14a63.12,63.12,0,0,1,5.82,5.11,9.59,9.59,0,0,1,3,5.2.46.46,0,0,0-.31.1.8.8,0,0,1-.51.1,13.53,13.53,0,0,1-5.51-.91,42.63,42.63,0,0,0-7-1.74,21.76,21.76,0,0,0-7.55.1,12.65,12.65,0,0,0-7,4.39,15.2,15.2,0,0,0-3.47,7.45,14.61,14.61,0,0,0,.81,7.65,15.45,15.45,0,0,0,4.8,6.43,19,19,0,0,0,8.47,3.78h.2a.89.89,0,0,1,.62.2h.4a3.29,3.29,0,0,0,1,.21h2.05a26.78,26.78,0,0,0,10.1-1.94,25.62,25.62,0,0,0,8.37-5.41,24.74,24.74,0,0,0,5.61-8.37,25.62,25.62,0,0,0,1.84-10.82,60,60,0,0,0,11.43-12.34,71.4,71.4,0,0,0,7.14-12.35A4.71,4.71,0,0,0,392.29,261.4Zm-49.7,35a11,11,0,0,1,4.28-1.33,28.32,28.32,0,0,1,5.31-.1c1.84.14,3.44.27,4.8.41q-8.78,0-11.84,1a8.14,8.14,0,0,0-4.49,3.26A3.93,3.93,0,0,1,342.59,296.41ZM348,308.66a9.91,9.91,0,0,1-5.62-2.35c-1.42-1.29-1.73-3.1-.91-5.41a4.92,4.92,0,0,1,2.75-3.06,20.1,20.1,0,0,1,4.7-1.23q2.74-.41,6.12-.61a33.69,33.69,0,0,0,7-1.22,16.59,16.59,0,0,1-2.65,8.36q-2.65,4.5-8.57,5.31A15.11,15.11,0,0,1,348,308.66Zm16.84-.62a26.64,26.64,0,0,1-4.49,3.47,10.56,10.56,0,0,1-4.19,1.64,15.47,15.47,0,0,0,5.41-2.86,39.39,39.39,0,0,0,4.59-4.29,25.16,25.16,0,0,0,3.27-4.39,17.93,17.93,0,0,0,1.23-2.5,17.51,17.51,0,0,1-2.05,4.34A24.66,24.66,0,0,1,364.84,308Z"/><path class="cls-4" d="M369.11,273.06l.12.18a27.16,27.16,0,0,1,3.06,7.66,18.77,18.77,0,0,0-1.64-5.92,32.28,32.28,0,0,0-1.54-3.05Z"/><path class="cls-4" d="M359.43,314.27q-11,5-26.54.51a35.85,35.85,0,0,0,9.9,2.86,33.22,33.22,0,0,0,12.66-.41,25.27,25.27,0,0,0,11.73-6.33q5.31-4.9,6.94-15.1Q370.45,309.27,359.43,314.27Z"/><path class="cls-3" d="M61.41,256.19Q54.06,267,52.13,277.41a60.27,60.27,0,0,0-.72,19.29,50.48,50.48,0,0,0,4.7,15.82,37.94,37.94,0,0,0,7.34,10.62,31.77,31.77,0,0,1-9-10.31A42.56,42.56,0,0,1,50,300.07a53.64,53.64,0,0,1-.71-13.57,68.36,68.36,0,0,1,2.14-12.86A44.62,44.62,0,0,1,55.7,263,21.81,21.81,0,0,1,61.41,256.19ZM158,198a50.14,50.14,0,0,0,5.3,9.89,32.65,32.65,0,0,0,6.13,6.84,10.85,10.85,0,0,0,5.92,2.66q2.85.19,5.1-2.86,0,9.39-4.59,15.2A20.19,20.19,0,0,1,165,237.2a18,18,0,0,1-12.55-1.32q-6.33-3-9.6-11.13-6.73-15.92-13-24.18t-11.63-11.23q-5.42-3-9.6-1.84a13.53,13.53,0,0,0-6.63,3.78q-4.69,5.1-1.12,13.57t16.23,20.31q6.74,6.54,13.36,14a85,85,0,0,1,11.33,16.13,65.2,65.2,0,0,1,6.64,18.67,52.19,52.19,0,0,1-.72,21.64A48.44,48.44,0,0,1,129,325a49.22,49.22,0,0,1-14.79,7.35,50.71,50.71,0,0,1-16,2.25q-15.51-.42-25.51-6.74a41.83,41.83,0,0,1-15-15.72,45.72,45.72,0,0,1-5.31-20.61A57.58,57.58,0,0,1,55.8,270,52.49,52.49,0,0,1,67.13,251.7,38.25,38.25,0,0,1,85.5,240.88c-1,.68-2.28,1.67-4,3s-3.57,2.89-5.62,4.8Q85.1,241.7,94.58,241t16.33,3.16a21,21,0,0,1,9.59,11.43q2.76,7.56-1.32,17.35a21.71,21.71,0,0,0-1.13-10.81,13.44,13.44,0,0,0-6-7.56,13.28,13.28,0,0,1,3,4.9,25.34,25.34,0,0,1,1.43,6.64,24.05,24.05,0,0,1-.41,7,14.68,14.68,0,0,1-2.55,5.92q1-9.19-3.26-15.21a20.64,20.64,0,0,0-11-8.06,24.9,24.9,0,0,0-14.28.1A23.45,23.45,0,0,0,72.23,265q6.33-6.52,13.68-8.06a22.7,22.7,0,0,1,13.26.82,18,18,0,0,1,9.09,7.65c2.1,3.54,2.55,7.69,1.32,12.45q-.4-9-5.92-13.47a17.48,17.48,0,0,0-12.45-4.08q-6.93.41-13.57,6t-9.08,16.84q-2.86,12,.61,20.61a29.16,29.16,0,0,0,10.31,13.37A34.48,34.48,0,0,0,95.3,323a38.38,38.38,0,0,0,17.35-1.73,37.1,37.1,0,0,0,14.9-9.7q6.53-6.83,8.57-17.86a61.91,61.91,0,0,0,.81-15.71,45.5,45.5,0,0,0-3.87-14.9,60.31,60.31,0,0,0-9.49-14.6A140.06,140.06,0,0,0,108,233.33q-9.8-8.16-14.59-15.82a38.44,38.44,0,0,1-5.82-14.29,22.61,22.61,0,0,1,1.22-12.14,27.42,27.42,0,0,1,6.54-9.6,29.4,29.4,0,0,0-4.8,4.19c-1.3,1.43-2.42,2.68-3.37,3.77a27,27,0,0,1,8-10.2,33.28,33.28,0,0,1,9.39-5,34,34,0,0,1,8.67-1.74q4-.19,6-.2H120a45.76,45.76,0,0,1,20.52,4.49q9.08,4.49,18.88,15.51a79.38,79.38,0,0,1,5.81,7.35,80.77,80.77,0,0,0,5,6.53,19.78,19.78,0,0,0,4.9,4.29,6.58,6.58,0,0,0,5.31.61,7.35,7.35,0,0,1-2.45,3.57,5.23,5.23,0,0,1-4.69.92q-2.86-.62-6.74-4.59T158,198Zm-92.87,102q2.64,10.81,8.57,17a33.1,33.1,0,0,0,13.47,8.78,35.52,35.52,0,0,0,15.62,1.63,46.13,46.13,0,0,0,15-4.28,38.7,38.7,0,0,0,11.84-8.78,22.91,22.91,0,0,0,5.92-11.94A33.32,33.32,0,0,1,127,315.07a39.67,39.67,0,0,1-12.65,8,42.93,42.93,0,0,1-14.7,3,35.69,35.69,0,0,1-14.49-2.55A34.49,34.49,0,0,1,73,315,33.89,33.89,0,0,1,65.09,300.07ZM108,211.49a40.55,40.55,0,0,0,6.23,7.24l8.67,8.27q4.7,4.49,9.59,9.69A75.33,75.33,0,0,1,141.22,248a59.08,59.08,0,0,1,6.23,13.37,47.68,47.68,0,0,1,2.14,15.82,55.74,55.74,0,0,0-4.08-17,77.87,77.87,0,0,0-7.66-14,81.11,81.11,0,0,0-9.39-11.33q-5-5-9.39-9.19c-2.92-2.78-5.4-5.34-7.45-7.65A14.6,14.6,0,0,1,108,211.49Zm1.43-26.33a14.94,14.94,0,0,1,3.88.1,18.47,18.47,0,0,1,6.73,2.45,35.39,35.39,0,0,1,8.47,7.14A60.19,60.19,0,0,1,137.55,209a28.4,28.4,0,0,0-3.37-8.17,43.33,43.33,0,0,0-6.74-9,30.51,30.51,0,0,0-8.67-6.33A11.34,11.34,0,0,0,109.38,185.16Zm31,38q3.89,9.6,9,12.86a19.12,19.12,0,0,0,9.89,3.37,19.4,19.4,0,0,0,8.58-1.63q3.76-1.74,4.79-2.35a17.14,17.14,0,0,1-8.47,5.81,16.88,16.88,0,0,1-9.9.11,18.38,18.38,0,0,1-8.77-5.92Q141.63,230.89,140.4,223.12Z"/><path class="cls-3" d="M386.77,261.39a4.35,4.35,0,0,1,2-1.94,3.27,3.27,0,0,1,2.25-.2,2.16,2.16,0,0,1,1.43,1.42,4.71,4.71,0,0,1-.41,3.17,71.4,71.4,0,0,1-7.14,12.35,60.27,60.27,0,0,1-11.43,12.35,25.6,25.6,0,0,1-1.84,10.81,24.74,24.74,0,0,1-5.61,8.37,25.72,25.72,0,0,1-8.37,5.41,26.79,26.79,0,0,1-10.11,1.94h-2a3.55,3.55,0,0,1-1-.2h-.41a.81.81,0,0,0-.61-.21h-.2a18.91,18.91,0,0,1-8.47-3.78,15.42,15.42,0,0,1-4.8-6.42,14.75,14.75,0,0,1-.82-7.66,15.38,15.38,0,0,1,3.47-7.45,12.71,12.71,0,0,1,7.05-4.39,21.76,21.76,0,0,1,7.55-.1,42.88,42.88,0,0,1,7,1.74,13.51,13.51,0,0,0,5.51.91.8.8,0,0,0,.51-.1.46.46,0,0,1,.31-.1,9.59,9.59,0,0,0-3-5.2,66.06,66.06,0,0,0-5.82-5.11q-3.27-2.55-6.63-5.2a25,25,0,0,1-5.41-5.72q-1,1.64-1.53,2.55c-.34.62-.85,1.47-1.53,2.56a1.21,1.21,0,0,1-1.23.51,3.45,3.45,0,0,1-1.63-.72,5.3,5.3,0,0,1-1.33-1.43,1.25,1.25,0,0,1-.1-1.43c.55-.95,1.09-1.87,1.63-2.75s1.23-2.07,2-3.57A21,21,0,0,1,335,250.26a18.66,18.66,0,0,1,4.39-9,15.44,15.44,0,0,1,8-4.69,13.83,13.83,0,0,1,9.8,1.53c.27,0-.38-.48-1.94-1.43s-3.91-1.36-7-1.22a8.49,8.49,0,0,1,3.06-.92,12.27,12.27,0,0,1,4.18.1,12.79,12.79,0,0,1,4.08,1.53,6.29,6.29,0,0,1,2.76,3.16,15.46,15.46,0,0,1,.71,4.19,12.13,12.13,0,0,1-.81,4.8,15.76,15.76,0,0,1-3,4.79,19,19,0,0,1-5.51,4.19c-.28,1.09.3,2.07,1.73,3a54.53,54.53,0,0,1,5.21,3.77,43.46,43.46,0,0,1,6.32,6.43,28.64,28.64,0,0,1,5.11,10.72,51.43,51.43,0,0,0,9.28-10.82Q385.14,264.45,386.77,261.39Zm-53.68,52.66q15.51,4.49,26.54-.51t14.69-18.47q-1.63,10.2-6.94,15.1a25.18,25.18,0,0,1-11.73,6.33,33.22,33.22,0,0,1-12.66.41A35.85,35.85,0,0,1,333.09,314.05Zm24.09-19.39c-1.36-.14-3-.27-4.8-.41a28.32,28.32,0,0,0-5.31.1,11,11,0,0,0-4.28,1.33,3.93,3.93,0,0,0-1.94,3.26,8.14,8.14,0,0,1,4.49-3.26Q348.4,294.66,357.18,294.66Zm-9,13.27a14.93,14.93,0,0,0,2.85-.21q5.93-.81,8.58-5.31a16.69,16.69,0,0,0,2.65-8.36,33.69,33.69,0,0,1-7,1.22q-3.37.21-6.13.61a20.14,20.14,0,0,0-4.69,1.23,4.92,4.92,0,0,0-2.75,3.06c-.82,2.31-.52,4.12.91,5.41A9.91,9.91,0,0,0,348.2,307.93Zm-6.53-43.28a14.14,14.14,0,0,0,4.18,5.72q2.76,2.25,5.82,4.39a49.43,49.43,0,0,1,5.92,4.9,21.15,21.15,0,0,1,4.69,7,15.07,15.07,0,0,0-3.78-6.53,65.42,65.42,0,0,0-6-5.51q-3.25-2.66-6.32-5A15.82,15.82,0,0,1,341.67,264.65ZM358,251a17.69,17.69,0,0,1-2.55,2.45,14,14,0,0,1-3.57,2,15.61,15.61,0,0,1-4.59,1,10.26,10.26,0,0,1-5.21-1,6.7,6.7,0,0,0,3.37,1.33,13.49,13.49,0,0,0,8.88-1.84A9.87,9.87,0,0,0,358,251Zm1.64,2.86a19,19,0,0,0,4.18-7.76,11,11,0,0,0-.3-6.84,8.87,8.87,0,0,0-4.8-4.59q-3.57-1.64-9.29-1,6.94-1.84,11-.1a9.29,9.29,0,0,1,5.41,5.1,10.62,10.62,0,0,1-.2,7.65A16.17,16.17,0,0,1,359.63,253.84Zm-3.47,6.32a12.8,12.8,0,0,1,5.92,2.55,25,25,0,0,1,5.1,5.21,33.3,33.3,0,0,1,3.67,6.33,18.77,18.77,0,0,1,1.64,5.92,26.88,26.88,0,0,0-3.07-7.66A30.2,30.2,0,0,0,365,266.8a35.15,35.15,0,0,0-4.7-4C358.77,261.73,357.38,260.85,356.16,260.16Zm.2,52.26a10.56,10.56,0,0,0,4.19-1.64,26.64,26.64,0,0,0,4.49-3.47,25.07,25.07,0,0,0,3.77-4.59,17,17,0,0,0,2.25-5,12.64,12.64,0,0,1-1.43,3.16,25.16,25.16,0,0,1-3.27,4.39,39.39,39.39,0,0,1-4.59,4.29A15.47,15.47,0,0,1,356.36,312.42Z"/><path class="cls-2" d="M148.83,147a14.32,14.32,0,0,1,4.59,4.7,13.87,13.87,0,0,1,1.84,5.41,18.9,18.9,0,0,1-.21,5.51,14.24,14.24,0,0,1-1.73,4.79,9.32,9.32,0,0,0-3.27-8.26q-3.68-3.16-10.2-3.37,5.72,1.23,8.16,3.37a9.15,9.15,0,0,1,3.06,4.39,7,7,0,0,1-.1,4.28,18.53,18.53,0,0,1-1.32,3.06,9.14,9.14,0,0,0-3.37-8,22,22,0,0,0-9.09-4.08A56.26,56.26,0,0,0,125,157.6q-6.74,0-12.86.51c-4.08.33-7.69.78-10.82,1.32s-5.17.89-6.12,1a5.5,5.5,0,0,1-4.8-1.42,35.53,35.53,0,0,0-2.75-2.45,8.25,8.25,0,0,1-2.15-7.35A35,35,0,0,1,88.51,140q2.35-4.89,5.31-10a56.88,56.88,0,0,0,4.59-9.8,41.34,41.34,0,0,1,2.76-6.22q1.53-2.76,2.75-4.8a48.83,48.83,0,0,1,3.07-4.28q5.7-11.64,12.34-25.21T132.09,53q6.12-13.17,11-24.8a125.2,125.2,0,0,0,6.74-19.6q.41,2.46-.92,9.9T142.3,37.17a78.29,78.29,0,0,0,8.06-19.59q2.14-9,1.94-13.68a11.86,11.86,0,0,1,8.06-.51,15.57,15.57,0,0,1,6.63,3A13.73,13.73,0,0,1,167.3,8a19,19,0,0,1,.1,2.25,48.73,48.73,0,0,1-1.73,16.12,124.72,124.72,0,0,1-6.64,19,183.71,183.71,0,0,1-9.9,19.39A170.13,170.13,0,0,1,137.6,82.08q6.54-12.26,12.15-23.89A228.72,228.72,0,0,0,159,36.35Q154.34,46.76,146,62.58t-22,39.09q-7.16,14.08-14.09,25.41t-11,18.68q5.31-1.42,9.9-2.55t6.23-.11h1.22a20.59,20.59,0,0,1,6.74-1.83,48.47,48.47,0,0,1,9.49-.31,44.82,44.82,0,0,1,9.59,1.63A12.46,12.46,0,0,1,148.83,147Zm-4.9-87.77q-2.25,3.67-5.82,9.8t-7.75,13.58L121.48,98.4q-4.7,8.38-9.19,16.54l-8.57,15.61q-4.08,7.45-6.94,13.37,3.27-5.71,7.55-13.16l9-15.62Q118,107,122.8,98.51t9-15.92Q136,75.14,139.13,69T143.93,59.21ZM96.78,154.53a38.7,38.7,0,0,1,6.33-1.83,86.09,86.09,0,0,1,10.71-1.64,95.62,95.62,0,0,1,13.37-.3,66.05,66.05,0,0,1,14.09,2.14,28.7,28.7,0,0,0-9.09-2.35,89.5,89.5,0,0,0-12.24-.61,78.25,78.25,0,0,0-12.66,1.23A36.69,36.69,0,0,0,96.78,154.53Zm9.39,5.52q4.08-.83,9.18-1.33a86.12,86.12,0,0,1,10.31-.41,49.78,49.78,0,0,1,9.8,1.12,22.31,22.31,0,0,1,7.65,3.07,47,47,0,0,0-9.59-2.05c-3.54-.4-7-.68-10.41-.81s-6.63-.14-9.69,0S107.94,159.91,106.17,160.05Zm3.47-62.67a69.78,69.78,0,0,1,2.86-7.65q2-4.8,4.69-10.51t5.61-11.74q3-6,5.72-11.33t5.1-9.49a53.7,53.7,0,0,1,3.78-6q-1.85,4.08-5.82,12.35t-8.26,17Q119,78.8,115.25,86.57T109.64,97.38ZM117,144.13q18.77-2.46,28.57,2.24a16.27,16.27,0,0,0-5.92-2.86,35.15,35.15,0,0,0-7.75-1.22,46.12,46.12,0,0,0-8.07.3A33.49,33.49,0,0,0,117,144.13Z"/><path class="cls-2" d="M147.31,149.57a11.07,11.07,0,0,1,4.89,7.26,13.72,13.72,0,0,1-1.47,9l5.59,1.51a12.52,12.52,0,0,0-4.65-10.79c-3.38-2.7-7.56-3.68-11.82-3.84-3.35-.13-4.13,5.16-.8,5.89a29.61,29.61,0,0,1,4.66,1.36,12.28,12.28,0,0,1,1.68.89c.11.07.72.51.3.18a10,10,0,0,1,1,.94,4.75,4.75,0,0,1,1.65,3.26,7.84,7.84,0,0,1-1.3,4.07l5.6,1.51a12.44,12.44,0,0,0-3.84-9.73,23.47,23.47,0,0,0-9.74-4.94c-7.73-2-16-1.79-23.88-1.31q-6.12.38-12.18,1.26c-1.75.25-3.5.57-5.24.87l-2,.33-.7.11c-.15,0-.87.08-.31.05a3.11,3.11,0,0,1-1.76-.21A11.27,11.27,0,0,1,91.5,156a10.93,10.93,0,0,1-2.65-2.78,5.58,5.58,0,0,1-.44-3.58A28.77,28.77,0,0,1,90,144.11c2.91-7.64,8-14.23,10.88-21.89a64.19,64.19,0,0,1,4.65-9.81,45.09,45.09,0,0,1,3.11-4.75,29.2,29.2,0,0,0,2.74-4.88c7.34-15,14.72-29.93,21.79-45,3.51-7.5,6.94-15,10.23-22.64a189.41,189.41,0,0,0,8.21-21.42c.41-1.42.8-2.85,1.13-4.3H147c-.16-1,0,.07,0,.34s0,.82,0,1.23c0,1-.16,2-.29,3.06a59,59,0,0,1-1.28,6.81,85.74,85.74,0,0,1-5.64,14.83,3.08,3.08,0,0,0,1.07,4.1,3,3,0,0,0,4.11-1.07,86.63,86.63,0,0,0,7.78-18.09c1.51-5.3,2.83-11.16,2.63-16.7l-1.49,2.59a9.33,9.33,0,0,1,6-.15,22.6,22.6,0,0,1,3,.94A11.8,11.8,0,0,1,164,7.9q.33.19.66.42c.43.3-.47-.42.18.15l-.77-1.32a30,30,0,0,1,.43,6.49,41.75,41.75,0,0,1-.65,6.79A93.64,93.64,0,0,1,159.55,36a167.31,167.31,0,0,1-14.48,29.68A165.83,165.83,0,0,1,135,80.56l5.18,3c8-15.06,15.93-30.36,21.74-46.44,1.14-3.16-4.08-5.42-5.49-2.31C150.21,48.62,143.05,62,135.68,75.19q-6.36,11.39-13,22.62c-2.36,4-4.39,8.22-6.6,12.32-2.06,3.79-4.17,7.56-6.37,11.28-4.49,7.62-9.22,15.1-13.52,22.83a3,3,0,0,0,3.39,4.41c2.44-.65,4.89-1.3,7.34-1.91a28.25,28.25,0,0,1,6.09-1.11c.38,0,.39,0,0,0a4.21,4.21,0,0,1,.48.12c-.37-.17-.41-.19-.13,0a2.89,2.89,0,0,0,1.52.41,8.28,8.28,0,0,0,1.22,0,5.08,5.08,0,0,0,2-.66c-.44.21.63-.22.75-.26a22,22,0,0,1,3-.73,42.66,42.66,0,0,1,13.9-.15,29.85,29.85,0,0,1,6.91,1.7,9.24,9.24,0,0,1,3.52,2.5,3.1,3.1,0,0,0,4.1,1.07c1.27-.74,2.07-2.8,1.08-4.1-4.15-5.46-11.11-6.8-17.6-7.4a48.23,48.23,0,0,0-10,.09,25.61,25.61,0,0,0-9.11,2.35l1.51-.41H115l1.51.41c-2.59-1.45-5.8-.85-8.54-.2-3.31.79-6.61,1.67-9.9,2.56l3.39,4.4c3.79-6.8,7.86-13.44,11.89-20.1,4.55-7.53,8.77-15.27,12.77-23.11,2.14-4.18,4.72-8.17,7.07-12.24q3.13-5.46,6.23-10.94,5.48-9.72,10.67-19.59c4-7.72,8-15.49,11.58-23.42l-5.48-2.31c-5.63,15.58-13.35,30.4-21.13,45a3,3,0,1,0,5.18,3,180,180,0,0,0,21.25-36.31,129.39,129.39,0,0,0,7.12-20.13c1.64-6.43,2.6-13.35,1.63-20a4.88,4.88,0,0,0-1.07-2.95,9.72,9.72,0,0,0-1.79-1.34,19.72,19.72,0,0,0-4.85-2,16.5,16.5,0,0,0-11.7.46A2.91,2.91,0,0,0,149.3,3.9c.18,5.06-1,10.14-2.42,15.1a78.46,78.46,0,0,1-7.17,16.66l5.18,3a93.27,93.27,0,0,0,6.33-16.59A71.09,71.09,0,0,0,152.63,14a22.35,22.35,0,0,0,.11-6.22c-.44-3-5.15-2.74-5.78,0A124.24,124.24,0,0,1,140,27.86q-4.71,11.12-9.8,22.06c-7.09,15.33-14.54,30.5-22,45.66q-1.3,2.67-2.62,5.34c-.35.71-.66,1.49-1,2.18a28.58,28.58,0,0,1-1.9,2.59,57.38,57.38,0,0,0-5.57,9.75c-1.59,3.59-2.76,7.29-4.6,10.77-1.94,3.65-4.07,7.18-5.9,10.89-3.08,6.23-7.43,16.14-.9,21.79a44.67,44.67,0,0,0,3.84,3.31,8.38,8.38,0,0,0,5.59,1.25c3-.34,6-1,9-1.47a125.72,125.72,0,0,1,23.58-1.33,42.72,42.72,0,0,1,10.95,1.68c2.74.86,5.91,2.36,7.21,4.73a7.48,7.48,0,0,1,.71,3.8c-.08,3,4.13,4.07,5.59,1.52a14.7,14.7,0,0,0,2.11-6.67,10.67,10.67,0,0,0-2.58-7c-2.78-3.42-6.94-4.91-11.13-5.83l-.79,5.89a13.61,13.61,0,0,1,7.93,2.35,6.82,6.82,0,0,1,2.54,6.28c-.2,3,4.16,4,5.59,1.52A20.07,20.07,0,0,0,158,155.23a17.33,17.33,0,0,0-7.65-10.84,3,3,0,0,0-3,5.18Z"/><path class="cls-2" d="M141.34,57.7C135.07,68,129.22,78.47,123.34,89q-9.77,17.42-19.37,34.91c-3.36,6.13-6.73,12.25-9.78,18.55a3.07,3.07,0,0,0,1.08,4.1,3,3,0,0,0,4.1-1.07c12.91-22.6,26.2-45,38.62-67.87,3-5.53,6-11.1,8.53-16.84a3.1,3.1,0,0,0-1.08-4.11c-1.28-.74-3.43-.41-4.1,1.08-4.88,10.91-11,21.29-16.83,31.69q-9.93,17.6-20,35.08-5.16,9-10.3,17.94l5.18,3c5.6-11.59,12.07-22.78,18.29-34q9.51-17.18,19.21-34.23c3.15-5.52,6.34-11,9.65-16.45C148.54,57.43,143.35,54.41,141.34,57.7Z"/><path class="cls-2" d="M98.29,157.12c-.73.32.15,0,.31-.09l.84-.28c.76-.24,1.52-.44,2.29-.64,1.56-.4,3.13-.75,4.72-1a86.66,86.66,0,0,1,10.65-1.26,75,75,0,0,1,23.38,2,3,3,0,0,0,2.31-5.48,33.13,33.13,0,0,0-10.6-2.76,87.62,87.62,0,0,0-13-.59c-8.08.19-16.69,1.23-24,5a3,3,0,1,0,3,5.18c6.25-3.21,14-4,20.94-4.16a90,90,0,0,1,11.84.46,41.57,41.57,0,0,1,5,.83c.71.17,1.41.36,2.11.59l.94.34.15.06.54.25,2.31-5.48a80.46,80.46,0,0,0-25.41-2.17,102.07,102.07,0,0,0-11.81,1.44,44.65,44.65,0,0,0-9.58,2.66c-1.49.65-1.83,2.83-1.08,4.11A3.06,3.06,0,0,0,98.29,157.12Z"/><path class="cls-2" d="M107,162.94a86.82,86.82,0,0,1,18.69-1.63c5.41.11,11.33.77,15.94,3.78l2.31-5.49c-6.29-2.06-13.06-2.59-19.64-2.91a145.79,145.79,0,0,0-18.1.36,3.07,3.07,0,0,0-3,3,3,3,0,0,0,3,3,144.25,144.25,0,0,1,17.64-.38c6.22.28,12.55.77,18.51,2.72a3,3,0,0,0,3.54-1.74,3,3,0,0,0-1.23-3.75c-5.36-3.49-12.23-4.4-18.5-4.58a94,94,0,0,0-20.76,1.83,3,3,0,0,0-2.09,3.69A3.06,3.06,0,0,0,107,162.94Z"/><path class="cls-2" d="M112.53,98.18a83.19,83.19,0,0,1,3.87-10c1.73-3.95,3.54-7.86,5.39-11.75,3.81-8,7.77-16,12-23.82A77.48,77.48,0,0,1,140,42.15l-5.18-3c-7.08,15.7-14.9,31.1-22.47,46.58-1.67,3.42-3.34,6.88-5.29,10.16s3.2,6.35,5.18,3c3.91-6.56,7-13.64,10.33-20.49,4.13-8.47,8.27-16.94,12.34-25.43,1.73-3.6,3.45-7.19,5.09-10.83a3,3,0,1,0-5.18-3,67.46,67.46,0,0,0-5.49,9.12c-2.1,3.86-4.12,7.75-6.09,11.67-4,8-8,16.08-11.58,24.27a98.6,98.6,0,0,0-4.9,12.4C105.67,100.3,111.46,101.89,112.53,98.18Z"/><path class="cls-2" d="M117,147.13a81.65,81.65,0,0,1,16.16-.7,35,35,0,0,1,5.84.86c1,.22,1.9.48,2.83.79.47.16.93.32,1.39.5l.07,0,.77.35a3,3,0,0,0,3.87-.77,3,3,0,0,0-.24-3.94c-4.33-3.43-9.9-4.6-15.31-4.93a42,42,0,0,0-16.18,1.91,3.08,3.08,0,0,0-2.1,3.69,3,3,0,0,0,3.69,2.1,37.25,37.25,0,0,1,13.63-1.75c3.93.15,9,.85,12,3.22l3.64-4.71c-9.28-4.38-20.16-3.93-30.09-2.65a3.09,3.09,0,0,0-3,3C114,145.59,115.37,147.33,117,147.13Z"/><path class="cls-3" d="M227.21,95.34a6,6,0,0,1,2.34-3,3.62,3.62,0,0,1,2.35-.51A2.16,2.16,0,0,1,233.43,93a2.58,2.58,0,0,1,.1,2.14,115.37,115.37,0,0,1-9.9,19.9,105,105,0,0,1-12.45,16.33,66.64,66.64,0,0,1-13.67,11.33,32,32,0,0,1-13.58,4.89,22.61,22.61,0,0,1-12.34-3.16,22.32,22.32,0,0,1-7.86-8.47,19.44,19.44,0,0,0,5.81,8.06,21.58,21.58,0,0,0,7.05,3.78,16.53,16.53,0,0,1-9.19-3.57,18.43,18.43,0,0,1-5.2-7.25,33.73,33.73,0,0,1-2.25-9.39,57.74,57.74,0,0,1-.2-9.69,82,82,0,0,1,.91-8.17q.61-3.57,1-5.2a66.93,66.93,0,0,1,6.42-16.84A52.21,52.21,0,0,1,178.63,74a31.64,31.64,0,0,1,13.77-7.55Q200.07,64.53,209,68a12.74,12.74,0,0,1,7.25,7,23.61,23.61,0,0,1,1.53,11.54A45.12,45.12,0,0,1,214,100.34a61.7,61.7,0,0,1-8.47,13.88A59.45,59.45,0,0,1,192.91,126a46.39,46.39,0,0,1-16.12,7.14,7.09,7.09,0,0,0,3.47,3.68q5.72,2.85,12.65-.72a52.18,52.18,0,0,0,13.48-10.31,100.83,100.83,0,0,0,12-15.2A144,144,0,0,0,227.21,95.34Zm-44.5-1.84a48.42,48.42,0,0,0-7.55,13.07,51.08,51.08,0,0,0-3.27,13.27,30.52,30.52,0,0,0,.72,11.12q1.32,4.8,4.79,6.22-3.47-3.47-3.88-9.69a49.32,49.32,0,0,1,.92-12.86,69.9,69.9,0,0,1,3.68-12.45A36.52,36.52,0,0,1,182.71,93.5ZM175.36,127a34.83,34.83,0,0,0,10.31-6.63,48,48,0,0,0,8.16-9.7,42.45,42.45,0,0,0,5-10.92,19.84,19.84,0,0,0,.41-10.51A15.62,15.62,0,0,1,200.47,92a17.11,17.11,0,0,1,.81,4.19,17.25,17.25,0,0,0,.51-6,5,5,0,0,0-2.14-3.78q-4.08-2.44-8.57.92a31.56,31.56,0,0,0-8.17,9.8,59.9,59.9,0,0,0-5.81,14.59A49.33,49.33,0,0,0,175.36,127Zm1-2.65a52.27,52.27,0,0,1,2-13.48,67.18,67.18,0,0,1,4.09-10.61A38.86,38.86,0,0,1,187,93a29.13,29.13,0,0,1,3.47-3.78,50.15,50.15,0,0,0-9.9,17.76A150,150,0,0,0,176.38,124.33Zm40.21-40.42a54.38,54.38,0,0,1-6,17.66,70,70,0,0,1-9.8,13.67,63.82,63.82,0,0,1-11,9.6,62.29,62.29,0,0,1-9.9,5.61,36.5,36.5,0,0,0,12-5.92,64.7,64.7,0,0,0,11.74-10.82,60.46,60.46,0,0,0,9-14.08A42.52,42.52,0,0,0,216.59,83.91Zm-7.75-14.29c-1.37-.54-2.86-1.08-4.49-1.63a18.26,18.26,0,0,0-5.72-.82,26.77,26.77,0,0,0-7.45,1.23,34.15,34.15,0,0,0-9.29,4.69q1.43-.81,4.19-2.14a29.8,29.8,0,0,1,6.32-2.14,35.06,35.06,0,0,1,7.76-.82A25.58,25.58,0,0,1,208.84,69.62Zm4.89,45.72a38.48,38.48,0,0,1-3.57,5,66.6,66.6,0,0,1-6.12,6.53,65.58,65.58,0,0,1-7.55,6.12,21.75,21.75,0,0,1-7.86,3.57c.82-.54,2-1.22,3.57-2a39.22,39.22,0,0,0,5.51-3.67q3.16-2.46,7.25-6.13A85.31,85.31,0,0,0,213.73,115.34Z"/><path class="cls-3" d="M278.64,94.12a4.27,4.27,0,0,1,2-1.94,3.33,3.33,0,0,1,2.25-.21,2.16,2.16,0,0,1,1.42,1.43,4.63,4.63,0,0,1-.4,3.17,70.89,70.89,0,0,1-7.15,12.35,59.41,59.41,0,0,1-11.43,12.34,25.46,25.46,0,0,1-1.84,10.82,24.74,24.74,0,0,1-5.61,8.37,25.51,25.51,0,0,1-8.37,5.41,26.74,26.74,0,0,1-10.1,1.94h-2a3.24,3.24,0,0,1-1-.21H236a.86.86,0,0,0-.61-.2h-.21a19,19,0,0,1-8.47-3.78,15.51,15.51,0,0,1-4.79-6.43,14.61,14.61,0,0,1-.82-7.65,15.38,15.38,0,0,1,3.47-7.45,12.68,12.68,0,0,1,7-4.39,21.76,21.76,0,0,1,7.55-.1,42.76,42.76,0,0,1,7.05,1.74,13.51,13.51,0,0,0,5.51.91.8.8,0,0,0,.51-.1.43.43,0,0,1,.3-.1,9.52,9.52,0,0,0-3-5.2,64.27,64.27,0,0,0-5.81-5.11l-6.64-5.2a25.17,25.17,0,0,1-5.41-5.72q-1,1.64-1.53,2.55c-.34.62-.85,1.47-1.53,2.56a1.16,1.16,0,0,1-1.22.5,3.36,3.36,0,0,1-1.64-.71,5.26,5.26,0,0,1-1.32-1.43,1.23,1.23,0,0,1-.1-1.43c.54-.95,1.09-1.87,1.63-2.75s1.22-2.08,2-3.57A20.8,20.8,0,0,1,226.9,83a18.6,18.6,0,0,1,4.38-9,15.42,15.42,0,0,1,8-4.69A13.8,13.8,0,0,1,249,70.85c.27,0-.37-.48-1.94-1.43s-3.91-1.36-7-1.22a8.49,8.49,0,0,1,3.06-.92,12.33,12.33,0,0,1,4.19.1,12.79,12.79,0,0,1,4.08,1.53,6.3,6.3,0,0,1,2.76,3.16,15.86,15.86,0,0,1,.71,4.19,11.9,11.9,0,0,1-.82,4.79,15.68,15.68,0,0,1-3,4.8A18.84,18.84,0,0,1,245.57,90c-.27,1.09.31,2.07,1.74,3a54.58,54.58,0,0,1,5.2,3.77,44,44,0,0,1,6.33,6.43,28.48,28.48,0,0,1,5.1,10.72,51.48,51.48,0,0,0,9.29-10.82Q277,97.18,278.64,94.12ZM225,146.78q15.51,4.49,26.53-.51t14.7-18.47q-1.63,10.2-6.94,15.1a25.25,25.25,0,0,1-11.74,6.33,33.16,33.16,0,0,1-12.65.41A35.74,35.74,0,0,1,225,146.78ZM249,127.39c-1.36-.14-3-.27-4.79-.41a28.32,28.32,0,0,0-5.31.1,11.12,11.12,0,0,0-4.29,1.33,4,4,0,0,0-1.94,3.26,8.14,8.14,0,0,1,4.49-3.26Q240.28,127.39,249,127.39Zm-9,13.27a15,15,0,0,0,2.86-.21q5.91-.81,8.57-5.31a16.61,16.61,0,0,0,2.66-8.36A33.66,33.66,0,0,1,247.1,128q-3.36.21-6.12.61a20,20,0,0,0-4.69,1.23,4.91,4.91,0,0,0-2.76,3.06c-.82,2.31-.51,4.12.92,5.41A9.91,9.91,0,0,0,240.06,140.66Zm-6.53-43.28a14.23,14.23,0,0,0,4.18,5.72q2.76,2.25,5.82,4.39a49.43,49.43,0,0,1,5.92,4.9,21.17,21.17,0,0,1,4.7,7,15.17,15.17,0,0,0-3.78-6.53,69.79,69.79,0,0,0-6-5.52q-3.27-2.64-6.33-5A15.94,15.94,0,0,1,233.53,97.38Zm16.33-13.67a18.25,18.25,0,0,1-2.55,2.45,14.22,14.22,0,0,1-3.57,2,15.75,15.75,0,0,1-4.6,1,10.35,10.35,0,0,1-5.2-1,6.7,6.7,0,0,0,3.37,1.33,13.53,13.53,0,0,0,4.39-.11,13.73,13.73,0,0,0,4.49-1.73A10,10,0,0,0,249.86,83.71Zm1.63,2.86a19.07,19.07,0,0,0,4.19-7.76,11,11,0,0,0-.31-6.84,8.87,8.87,0,0,0-4.8-4.59c-2.38-1.09-5.48-1.43-9.28-1q6.93-1.85,11-.1a9.32,9.32,0,0,1,5.41,5.1,10.68,10.68,0,0,1-.21,7.65A16.17,16.17,0,0,1,251.49,86.57ZM248,92.89a12.8,12.8,0,0,1,5.92,2.55,24.51,24.51,0,0,1,5.1,5.21,33.36,33.36,0,0,1,3.68,6.33,18.72,18.72,0,0,1,1.63,5.92,26.58,26.58,0,0,0-3.06-7.66,30.23,30.23,0,0,0-4.39-5.71,34.48,34.48,0,0,0-4.69-4C250.64,94.46,249.25,93.58,248,92.89Zm.21,52.26a10.58,10.58,0,0,0,4.18-1.64A26.64,26.64,0,0,0,256.9,140a24.71,24.71,0,0,0,3.78-4.59,17.24,17.24,0,0,0,2.24-5,12.07,12.07,0,0,1-1.43,3.16,24.57,24.57,0,0,1-3.26,4.39,39.39,39.39,0,0,1-4.59,4.29A15.65,15.65,0,0,1,248.23,145.15Z"/><path class="cls-3" d="M148.83,147a14.32,14.32,0,0,1,4.59,4.7,13.87,13.87,0,0,1,1.84,5.41,18.9,18.9,0,0,1-.21,5.51,14.24,14.24,0,0,1-1.73,4.79,9.32,9.32,0,0,0-3.27-8.26q-3.68-3.16-10.2-3.37,5.72,1.23,8.16,3.37a9.15,9.15,0,0,1,3.06,4.39,7,7,0,0,1-.1,4.28,18.53,18.53,0,0,1-1.32,3.06,9.14,9.14,0,0,0-3.37-8,22,22,0,0,0-9.09-4.08A56.26,56.26,0,0,0,125,157.6q-6.74,0-12.86.51c-4.08.33-7.69.78-10.82,1.32s-5.17.89-6.12,1a5.5,5.5,0,0,1-4.8-1.42,35.53,35.53,0,0,0-2.75-2.45,8.25,8.25,0,0,1-2.15-7.35A35,35,0,0,1,88.51,140q2.35-4.89,5.31-10a56.88,56.88,0,0,0,4.59-9.8,41.34,41.34,0,0,1,2.76-6.22q1.53-2.76,2.75-4.8a48.83,48.83,0,0,1,3.07-4.28q5.7-11.64,12.34-25.21T132.09,53q6.12-13.17,11-24.8a125.2,125.2,0,0,0,6.74-19.6q.41,2.46-.92,9.9T142.3,37.17a78.29,78.29,0,0,0,8.06-19.59q2.14-9,1.94-13.68a11.86,11.86,0,0,1,8.06-.51,15.57,15.57,0,0,1,6.63,3A13.73,13.73,0,0,1,167.3,8a19,19,0,0,1,.1,2.25,48.73,48.73,0,0,1-1.73,16.12,124.72,124.72,0,0,1-6.64,19,183.71,183.71,0,0,1-9.9,19.39A170.13,170.13,0,0,1,137.6,82.08q6.54-12.26,12.15-23.89A228.72,228.72,0,0,0,159,36.35Q154.34,46.76,146,62.58t-22,39.09q-7.16,14.08-14.09,25.41t-11,18.68q5.31-1.42,9.9-2.55t6.23-.11h1.22a20.59,20.59,0,0,1,6.74-1.83,48.47,48.47,0,0,1,9.49-.31,44.82,44.82,0,0,1,9.59,1.63A12.46,12.46,0,0,1,148.83,147Zm-4.9-87.77q-2.25,3.67-5.82,9.8t-7.75,13.58L121.48,98.4q-4.7,8.38-9.19,16.54l-8.57,15.61q-4.08,7.45-6.94,13.37,3.27-5.71,7.55-13.16l9-15.62Q118,107,122.8,98.51t9-15.92Q136,75.14,139.13,69T143.93,59.21ZM96.78,154.53a38.7,38.7,0,0,1,6.33-1.83,86.09,86.09,0,0,1,10.71-1.64,95.62,95.62,0,0,1,13.37-.3,66.05,66.05,0,0,1,14.09,2.14,28.7,28.7,0,0,0-9.09-2.35,89.5,89.5,0,0,0-12.24-.61,78.25,78.25,0,0,0-12.66,1.23A36.69,36.69,0,0,0,96.78,154.53Zm9.39,5.52q4.08-.83,9.18-1.33a86.12,86.12,0,0,1,10.31-.41,49.78,49.78,0,0,1,9.8,1.12,22.31,22.31,0,0,1,7.65,3.07,47,47,0,0,0-9.59-2.05c-3.54-.4-7-.68-10.41-.81s-6.63-.14-9.69,0S107.94,159.91,106.17,160.05Zm3.47-62.67a69.78,69.78,0,0,1,2.86-7.65q2-4.8,4.69-10.51t5.61-11.74q3-6,5.72-11.33t5.1-9.49a53.7,53.7,0,0,1,3.78-6q-1.85,4.08-5.82,12.35t-8.26,17Q119,78.8,115.25,86.57T109.64,97.38ZM117,144.13q18.77-2.46,28.57,2.24a16.27,16.27,0,0,0-5.92-2.86,35.15,35.15,0,0,0-7.75-1.22,46.12,46.12,0,0,0-8.07.3A33.49,33.49,0,0,0,117,144.13Z"/><path class="cls-2" d="M191.8,370.49c-3.86,0-7.35-2.21-11.21-2.2-5.86,0-11,7-11.57,13.88-.54,6.3-1.47,12,4.81,12a144.28,144.28,0,0,0,18.2-2c6.07-1.25,9.16-4.07,11-10S198.08,370.48,191.8,370.49Z"/><path class="cls-2" d="M251.83,373.89c3.55,0,6.77-2,10.32-2,5.4,0,10.11,6.43,10.65,12.78.5,5.8,1.36,11.06-4.42,11.05a134.61,134.61,0,0,1-16.76-1.83c-5.59-1.16-8.43-3.75-10.1-9.23S246.05,373.88,251.83,373.89Z"/><path class="cls-3" d="M241.75,391a18.13,18.13,0,0,1-1.69,4.84,21.54,21.54,0,0,1-3.09,4.44,22.56,22.56,0,0,1-6.56,4.88,15.25,15.25,0,0,0-7.4,8.52c-.6,1.61-1.27,3.2-2,5-.33-1-.61-1.76-.87-2.55a25,25,0,0,0-3.77-7.31,11.69,11.69,0,0,0-3.69-3,37.19,37.19,0,0,1-5.9-3.62,21.15,21.15,0,0,1-4.45-5.25,20.21,20.21,0,0,1-2.3-5.93,36.26,36.26,0,0,1-4.23,2.46,45.15,45.15,0,0,1-11.29,3.87c-1.56.31-3.12.51-4.7.7a52.41,52.41,0,0,1-7.92.22,27.14,27.14,0,0,1-4-.35c-.32-.06-.41-.14-.41-.45,0-2.09-.09-4.19,0-6.28a55.33,55.33,0,0,1,3.13-16.05,40.18,40.18,0,0,1,6.22-11.36,32.36,32.36,0,0,1,10.31-8.69,29.14,29.14,0,0,1,9.17-3,24.2,24.2,0,0,1,5.23-.37,17.44,17.44,0,0,1,3.67.36c.43.13.57-.19.57-.53a13.09,13.09,0,0,1,1.23-5.36,11.2,11.2,0,0,1,1.75-2.82,14.57,14.57,0,0,1,5.81-4.23l.92-.35a7.35,7.35,0,0,0-2.54-2.39c-.21-.16-.46-.26-.68-.42a1,1,0,0,0-1.35,0,3,3,0,0,1-3.39.11,3.1,3.1,0,0,1-1.58-3.16,3.13,3.13,0,0,1,2.22-2.76,3.22,3.22,0,0,1,4,2,.57.57,0,0,0,.35.43,14,14,0,0,1,6.27,5.09c.23.32.39.34.76.28a7.59,7.59,0,0,1,2.56,0,.56.56,0,0,0,.71-.26,14.09,14.09,0,0,1,6.25-5.12.63.63,0,0,0,.4-.46,3.42,3.42,0,0,1,3.29-2.15,3.31,3.31,0,0,1,3,3.39,3.23,3.23,0,0,1-5.19,2.5c-.22-.16-.38-.28-.63-.16a9.79,9.79,0,0,0-3.56,2.76c-.24.31-.09.38.14.46a13.54,13.54,0,0,1,9.38,12.7c0,.44.19.5.53.44a23.6,23.6,0,0,1,5-.39,30.2,30.2,0,0,1,10.4,2.16,29.88,29.88,0,0,1,7.77,4.61,35.53,35.53,0,0,1,5.39,5.57,39.69,39.69,0,0,1,4.79,8,45.72,45.72,0,0,1,2.95,8.87c.43,1.89.74,3.8,1.05,5.7.16,1,.21,2,.29,3,.2,2.51.1,5,.16,7.54,0,.68-.29.84-.81.9a61.75,61.75,0,0,1-9.22.25,47,47,0,0,1-13.86-2.86A40.21,40.21,0,0,1,241.75,391Zm-13.37-30.33c-.5,0-1-.06-1.39.5a2.33,2.33,0,0,0-.21,1.81,16,16,0,0,0,1,2.66,65.35,65.35,0,0,0,5.22,9.94,47.15,47.15,0,0,0,4,5.26,35.28,35.28,0,0,0,4.69,4.46,37.21,37.21,0,0,0,7.41,4.48,15.21,15.21,0,0,0,4.79,1.42c.69.07,1-.23,1.26-.86.18-.41,0-.7-.06-1a20.58,20.58,0,0,0-.93-5.15,25.19,25.19,0,0,0-5.52-9.81,29.38,29.38,0,0,0-5.82-5.08c-3.84-2.53-7.71-5-11.57-7.51A4.47,4.47,0,0,0,228.38,360.65Zm-13.28,1.6c0-.91-.42-1.53-1.08-1.61a4.08,4.08,0,0,0-2.69.59c-1.48.92-2.92,1.91-4.38,2.85-2,1.28-4,2.52-6,3.81a42.49,42.49,0,0,0-5.78,4.39,27.89,27.89,0,0,0-5.16,6.39,26,26,0,0,0-2.9,7.55c-.25,1.22-.31,2.47-.52,3.69a1.14,1.14,0,0,0,.79,1.2,3.13,3.13,0,0,0,1.77-.15,26.6,26.6,0,0,0,8-3.66,33.17,33.17,0,0,0,7.62-6.51,52.82,52.82,0,0,0,3.32-4.26A65.73,65.73,0,0,0,214.34,365,6.6,6.6,0,0,0,215.1,362.25Zm5.4,37.1a18.67,18.67,0,0,0,3.7-.25c3.86-.7,7.36-2.06,10-5.12a10.05,10.05,0,0,0,2.45-6.42c0-.39-.09-.53-.5-.42a66,66,0,0,1-7.38,1.49,62.84,62.84,0,0,1-7.36.64c-1.77.05-3.53,0-5.3-.11-1.57-.09-3.13-.27-4.68-.46s-3.37-.61-5.06-.9c-.39-.06-.86-.48-1.15-.15s0,.81.06,1.23a10.42,10.42,0,0,0,5.73,8.28A17.63,17.63,0,0,0,220.5,399.35Zm-36.34-27.94a14,14,0,0,0,3.69-.79,66.28,66.28,0,0,0,8.75-3.56c2.29-1.1,4.56-2.26,6.78-3.5a72.87,72.87,0,0,0,6.6-4.05c.78-.54.72-1.19-.14-1.62a5.29,5.29,0,0,0-.54-.25,27.47,27.47,0,0,0-5.54-1.26,24.65,24.65,0,0,0-6.48.05,23.65,23.65,0,0,0-8.22,2.76,22.22,22.22,0,0,0-7.46,6.26,4.36,4.36,0,0,0-.92,3.63A3.23,3.23,0,0,0,184.16,371.41Zm73.16,0c2.84,0,4.11-1.65,3.86-3.5a6.67,6.67,0,0,0-1.94-3.7,25.28,25.28,0,0,0-8-5.77,24,24,0,0,0-11-2.18,26.94,26.94,0,0,0-4.2.43,17,17,0,0,0-4.29,1.3c-.64.31-.71.75-.2,1.26a5.39,5.39,0,0,0,.82.68,88,88,0,0,0,8.39,4.92,93.25,93.25,0,0,0,11.61,5.27A19.73,19.73,0,0,0,257.32,371.41Zm-82.81,22.36,2.45-.1a30.75,30.75,0,0,0,5.15-.75c1.15-.24,2.25-.75,2.4-2.13a15.11,15.11,0,0,0,.15-2,17.65,17.65,0,0,1,.8-4.85,39.85,39.85,0,0,1,2.43-5.85,7.07,7.07,0,0,0,.89-3.64,1.16,1.16,0,0,0-.83-1.14,2.75,2.75,0,0,0-1.47-.09,31,31,0,0,1-6.45.66,5.29,5.29,0,0,0-5.34,3.54,36.54,36.54,0,0,0-2,8.07c-.2,1.25-.33,2.51-.43,3.78s-.24,2.68-.25,4c0,.35.14.49.49.49C173.1,393.76,173.72,393.77,174.51,393.77Zm92.95,0c.59,0,1.18,0,1.77,0,.4,0,.57-.11.58-.54a32.76,32.76,0,0,0-.18-3.58,43.7,43.7,0,0,0-.93-6.53,26.06,26.06,0,0,0-2-6.48,4.78,4.78,0,0,0-4.19-2.73,49.19,49.19,0,0,1-7.27-.72,2,2,0,0,0-1.79.33c-.73.64-.44,1.49-.33,2.22a17.06,17.06,0,0,0,1.87,4.56,23.51,23.51,0,0,1,2.29,10A2.32,2.32,0,0,0,259,392.7,29.08,29.08,0,0,0,267.46,393.77Zm-47.61-9.83a53,53,0,0,0,6.87-.39c1.8-.2,3.57-.52,5.35-.84.4-.07.41-.23.15-.53a43.93,43.93,0,0,1-4.26-6.05.57.57,0,0,0-.65-.37c-1,.07-1.95.23-2.93.33-.77.07-1.54,0-2.29.11a24.49,24.49,0,0,1-6.4-.15c-1.36-.18-1.64-.15-2.38,1.05a.93.93,0,0,0-.13.15,39.43,39.43,0,0,1-3.9,5.27c-.18.19-.36.41.13.48,1.5.21,3,.52,4.5.65A44.72,44.72,0,0,0,219.85,383.94Zm-3.11-13.14a6.31,6.31,0,0,0,1.47.19c1.25,0,2.5,0,3.75,0,.87,0,1.73-.15,2.6-.22.38,0,.42-.18.25-.53a77.64,77.64,0,0,1-3.39-8.3c-.09-.27-.18-.38-.45-.34s-.43-.07-.56.3A77.71,77.71,0,0,1,216.74,370.8Z"/><path class="cls-5" d="M220.5,399.37a17.72,17.72,0,0,1-9.48-2.19,10.43,10.43,0,0,1-5.73-8.29c0-.42-.31-.94-.06-1.23s.76.09,1.15.16c1.69.28,3.36.69,5.06.9s3.11.36,4.68.46c1.77.11,3.53.16,5.3.1a62.84,62.84,0,0,0,7.36-.64,63.86,63.86,0,0,0,7.38-1.49c.41-.11.52,0,.5.43a10,10,0,0,1-2.45,6.41c-2.65,3.07-6.15,4.43-10,5.13A19.46,19.46,0,0,1,220.5,399.37Z"/><path class="cls-6" d="M216.74,370.85a77,77,0,0,0,3.67-8.91c.13-.37.34-.26.56-.3s.36.07.45.34a77.64,77.64,0,0,0,3.39,8.3c.17.36.13.49-.25.53-.87.08-1.73.19-2.6.22-1.25,0-2.5,0-3.75,0A6.92,6.92,0,0,1,216.74,370.85Z"/><path class="cls-7" d="M219.85,383.94a44.72,44.72,0,0,1-5.94-.29c-1.51-.13-3-.44-4.5-.65-.49-.07-.31-.29-.13-.48a39.43,39.43,0,0,0,3.9-5.27.93.93,0,0,1,.13-.15c.74-1.2,1-1.23,2.38-1.05a24.49,24.49,0,0,0,6.4.15c.75-.1,1.52,0,2.29-.11,1-.1,2-.26,2.93-.33a.57.57,0,0,1,.65.37,43.93,43.93,0,0,0,4.26,6.05c.26.3.25.46-.15.53-1.78.32-3.55.64-5.35.84A53,53,0,0,1,219.85,383.94Z"/><path class="cls-8" d="M245.92,373.71c-.18,3.23-2,4.91-4.7,4.92-2.93,0-4.89-1.67-4.94-4.85a4.53,4.53,0,0,1,4.83-4.76A4.69,4.69,0,0,1,245.92,373.71Z"/><path class="cls-9" d="M254,373.8c-.34-2.71,2.31-4.82,4.74-4.82a5,5,0,0,1,4.79,4.8,4.8,4.8,0,0,1-4.78,4.89C256.1,378.72,253.61,376.36,254,373.8Z"/><path class="cls-10" d="M254.52,381.9c0,3-1.8,4.84-4.75,4.87A4.66,4.66,0,0,1,245,382a4.81,4.81,0,0,1,5.06-4.75C252.12,377.21,254.91,379.44,254.52,381.9Z"/><path class="cls-11" d="M249.9,360.36c2.89,0,4.56,1.87,4.65,5a4.67,4.67,0,0,1-4.72,4.54A4.78,4.78,0,0,1,245,365C245,362.65,247.05,360,249.9,360.36Z"/><path class="cls-12" d="M179.51,373.43a28.38,28.38,0,0,0,0-3.06c-.11-1,.3-1.14,1.16-1.11,1.87.07,3.73,0,5.6,0,.66,0,.9-.13.88-.85,0-2.08,0-4.15,0-6.23,0-.58.14-.77.75-.77,2.32,0,4.65,0,7,0,.6,0,.76.16.75.75,0,2.08,0,4.16,0,6.23,0,.71.21.87.88.86,2-.05,3.94,0,5.91,0,.59,0,.87.06.85.77-.05,2.33,0,4.65,0,7,0,.64-.23.74-.79.73-2,0-3.94,0-5.91,0-.72,0-1,.14-.94.9.06,2,0,4,0,6,0,.54-.13.72-.69.71q-3.54,0-7.08,0c-.55,0-.71-.15-.7-.7,0-2,0-4.08,0-6.12,0-.68-.19-.82-.82-.81-2,.05-3.94,0-5.91,0-.77,0-.94-.23-.9-.94C179.56,375.68,179.51,374.56,179.51,373.43Z"/></g></g></svg>